G04*
G04 #@! TF.GenerationSoftware,Altium Limited,Altium Designer,24.8.2 (39)*
G04*
G04 Layer_Color=65535*
%FSLAX25Y25*%
%MOIN*%
G70*
G04*
G04 #@! TF.SameCoordinates,F7F922D7-4A05-4516-83E6-AC950D0B5F56*
G04*
G04*
G04 #@! TF.FilePolarity,Positive*
G04*
G01*
G75*
%ADD10C,0.00787*%
%ADD11C,0.01000*%
%ADD12C,0.01575*%
%ADD13C,0.01181*%
%ADD14C,0.00600*%
%ADD15C,0.00700*%
D10*
X51700Y82800D02*
X58400D01*
Y78200D02*
Y82800D01*
X51700Y78200D02*
Y82800D01*
X51600Y77800D02*
X58300D01*
X51600Y73200D02*
Y77800D01*
X58300Y73200D02*
Y77800D01*
X51600Y73200D02*
X58300D01*
X51700Y78200D02*
X58400D01*
X81600Y62300D02*
Y66600D01*
X81900Y66900D01*
X88300D01*
X60100Y66100D02*
X81100D01*
X81900Y66900D01*
Y85200D01*
X60100Y88300D02*
X78800D01*
X60100Y66100D02*
Y88300D01*
X78800D02*
X81900Y85200D01*
X168600Y15900D02*
Y25000D01*
X173500D01*
Y15900D02*
Y25000D01*
X168600Y15900D02*
X173500D01*
X32350Y70950D02*
X32450Y70850D01*
X61000Y55900D02*
Y62578D01*
X66173D01*
X60300Y55900D02*
Y62559D01*
X55800D02*
X60300D01*
X86600Y25400D02*
Y25500D01*
X266852Y12250D02*
X268402D01*
X261500D02*
X263752D01*
X266852D01*
X261500D02*
Y17700D01*
X268402D01*
Y12250D02*
Y17700D01*
X82774Y52125D02*
X88324D01*
Y56800D01*
X81724D02*
X88324D01*
X81724Y52125D02*
Y56800D01*
Y52125D02*
X86974D01*
X81700Y57125D02*
X86950D01*
X81700D02*
Y61800D01*
X88300D01*
Y57125D02*
Y61800D01*
X82750Y57125D02*
X88300D01*
X159625Y26200D02*
Y31750D01*
Y26200D02*
X164300D01*
Y32800D01*
X159625D02*
X164300D01*
X159625Y27550D02*
Y32800D01*
X101125Y62050D02*
Y67300D01*
X105800D01*
Y60700D02*
Y67300D01*
X101125Y60700D02*
X105800D01*
X101125D02*
Y66250D01*
X105875Y82750D02*
Y88300D01*
X101200D02*
X105875D01*
X101200Y81700D02*
Y88300D01*
Y81700D02*
X105875D01*
Y86950D01*
X90325Y42774D02*
Y48024D01*
X95000D01*
Y41424D02*
Y48024D01*
X90325Y41424D02*
X95000D01*
X90325D02*
Y46974D01*
X32600Y12700D02*
X32900D01*
X52500Y44900D02*
X61400D01*
X52500Y17000D02*
Y44900D01*
X61400Y17000D02*
Y44900D01*
X52500Y17000D02*
X61400D01*
X75100Y10400D02*
Y11500D01*
X175100Y10300D02*
Y11400D01*
X32863Y67936D02*
X42400D01*
X31200D02*
X32863D01*
X31200Y36136D02*
Y67936D01*
Y36136D02*
X42400D01*
Y67936D01*
X193300Y48900D02*
X203200D01*
X193300D02*
Y53800D01*
X203200D01*
Y48900D02*
Y53800D01*
Y42700D02*
Y47700D01*
X193200Y42700D02*
X203200D01*
X193200D02*
Y47700D01*
X203200D01*
X89200Y83922D02*
X90962D01*
X94062D02*
X95800D01*
X90962D02*
X94062D01*
X95800Y78700D02*
Y83922D01*
X89200Y78700D02*
X95800D01*
X89200D02*
Y83922D01*
X89100Y89200D02*
X95676D01*
Y84745D02*
Y89200D01*
X89100Y84745D02*
X95676D01*
X89100D02*
Y89200D01*
X69275Y62577D02*
X70825D01*
X73925D02*
X76200D01*
X70825D02*
X73925D01*
X76200Y57054D02*
Y62577D01*
X69275Y57054D02*
X76200D01*
X69275D02*
Y62577D01*
X76200Y51800D02*
Y56853D01*
X69200Y51800D02*
Y56853D01*
X69265Y51200D02*
X76300D01*
Y49062D02*
Y51200D01*
Y46600D02*
Y49062D01*
X66320Y46600D02*
X76300D01*
X66320D02*
Y50263D01*
Y51200D01*
X72430D01*
X204600Y76600D02*
Y81400D01*
X197800D02*
X204600D01*
X197800Y76600D02*
Y81400D01*
Y76600D02*
X204600D01*
X106700Y75300D02*
X120400D01*
X106700D02*
Y87735D01*
X108251D01*
X120400Y75300D02*
Y87735D01*
X108251D02*
X120400D01*
X174700Y76100D02*
X179300D01*
Y82900D01*
X174700D02*
X179300D01*
X174700Y76100D02*
Y82900D01*
X168400Y84500D02*
X173600D01*
Y74900D02*
Y84500D01*
X168400Y74900D02*
X173600D01*
X168400D02*
Y84500D01*
X204500Y81700D02*
Y86400D01*
X197800D02*
X204500D01*
X197800Y81700D02*
Y86400D01*
Y81700D02*
X204500D01*
X253900Y82300D02*
Y87700D01*
X247000D02*
X253900D01*
X247000Y82300D02*
Y87700D01*
Y82300D02*
X253900D01*
X254700D02*
Y87700D01*
Y82300D02*
X261400D01*
Y87700D01*
X254700D02*
X261400D01*
X262200Y82300D02*
Y87700D01*
Y82300D02*
X268900D01*
Y87700D01*
X262200D02*
X268900D01*
X29900Y30100D02*
X42700D01*
Y13800D02*
Y30100D01*
X29900Y13800D02*
X42700D01*
X29900D02*
Y30100D01*
X43600Y28900D02*
Y34077D01*
Y28900D02*
X50300D01*
Y34077D01*
X45150D02*
X48250D01*
X50300D01*
X43600D02*
X45150D01*
X43700Y21149D02*
X48300D01*
X43700Y14149D02*
Y21149D01*
Y14149D02*
X44937D01*
X48300D01*
Y21149D01*
X77800Y36300D02*
Y40700D01*
X71272D02*
X77800D01*
X71272Y39363D02*
Y40700D01*
Y36300D02*
Y39363D01*
Y36300D02*
X77800D01*
X69600Y27300D02*
Y36800D01*
X63400Y27300D02*
X69600D01*
X63400D02*
Y36800D01*
X69600D01*
X64323Y19500D02*
X69700D01*
Y26298D01*
X64323D02*
X69700D01*
X64323Y21648D02*
Y24748D01*
Y26298D01*
Y19500D02*
Y21648D01*
X43700Y27800D02*
X48300D01*
X43700Y21349D02*
Y27800D01*
X48300Y21349D02*
Y27800D01*
X63200Y37800D02*
Y42200D01*
Y37800D02*
X69751D01*
Y38737D01*
Y42200D01*
X63200D02*
X69751D01*
X61000Y55900D02*
X66173D01*
Y62578D01*
X55800Y55900D02*
Y62559D01*
Y55900D02*
X60300D01*
X58400Y67300D02*
Y72600D01*
X51600D02*
X58400D01*
X51600Y67300D02*
Y72600D01*
Y67300D02*
X58400D01*
X43700Y68400D02*
Y73700D01*
Y68400D02*
X50400D01*
Y73700D01*
X43700D02*
X50400D01*
X30299Y88000D02*
X42900D01*
Y72000D02*
Y88000D01*
X31200Y72000D02*
X42900D01*
X30299Y72901D02*
Y88000D01*
Y72901D02*
X31200Y72000D01*
X43700Y81400D02*
X48300D01*
X43700Y74600D02*
Y81400D01*
Y74600D02*
X48300D01*
Y81400D01*
X43700Y88800D02*
X48300D01*
X43700Y82200D02*
Y88800D01*
Y82200D02*
X48300D01*
Y88800D01*
X58400Y83300D02*
Y88700D01*
X51600D02*
X58400D01*
X51600Y83300D02*
Y88700D01*
Y83300D02*
X58400D01*
X96900Y16400D02*
Y39600D01*
Y16400D02*
X120000D01*
Y39600D01*
X96900D02*
X120000D01*
X159400Y25400D02*
X164700D01*
X159400Y18600D02*
Y25400D01*
Y18600D02*
X164700D01*
Y25400D01*
X200700Y12800D02*
Y17400D01*
Y12800D02*
X207228D01*
Y13737D01*
Y17400D01*
X200700D02*
X207228D01*
X208100Y12800D02*
Y17400D01*
Y12800D02*
X214728D01*
Y13737D01*
Y17400D01*
X208100D02*
X214728D01*
X174700Y16600D02*
X179300D01*
Y23400D01*
X174700D02*
X179300D01*
X174700Y16600D02*
Y23400D01*
X106500Y60800D02*
X120500D01*
X106500D02*
Y73235D01*
X108251D01*
X120500Y60800D02*
Y73235D01*
X108251D02*
X120500D01*
X88300Y62300D02*
Y66900D01*
X81600Y62300D02*
X88300D01*
X85800Y36423D02*
Y41700D01*
X79178D02*
X85800D01*
X79178Y36423D02*
Y41700D01*
X80728Y36423D02*
X83828D01*
X79178D02*
X80728D01*
X83828D02*
X85800D01*
X96500Y41300D02*
X100900D01*
Y48075D01*
X99563D02*
X100900D01*
X96500D02*
X99563D01*
X96500Y41300D02*
Y48075D01*
X28299Y1500D02*
Y11784D01*
Y31784D02*
Y42410D01*
Y11784D02*
Y31784D01*
X-4500Y1500D02*
X28299D01*
X-4500D02*
Y42410D01*
X28299D01*
X132000Y44724D02*
X153000D01*
Y55224D01*
X132000D02*
X153000D01*
X132000Y44724D02*
Y55224D01*
X208603Y80900D02*
X290203D01*
X208603Y19300D02*
Y80900D01*
Y19300D02*
X290203D01*
Y80900D01*
X122600Y64400D02*
X157300D01*
X122600D02*
Y85620D01*
X157300D01*
Y64400D02*
Y85620D01*
X70800Y22699D02*
Y35199D01*
X85300D01*
Y24019D02*
Y35199D01*
X70800Y22699D02*
X83980D01*
X85300Y24019D01*
X123000Y14400D02*
X157100D01*
X123000D02*
Y35620D01*
X157100D01*
Y14400D02*
Y35620D01*
D11*
X77500Y89500D02*
X78700D01*
X28299Y57400D02*
Y67768D01*
Y87768D02*
Y98400D01*
Y67768D02*
Y87768D01*
X-4200Y57400D02*
X28299D01*
X-4200D02*
Y98400D01*
X28299D01*
X158500Y67600D02*
X158500Y67400D01*
X158300Y17600D02*
X158300Y17400D01*
D12*
X169200Y16400D02*
X172800D01*
D13*
X168900Y83700D02*
X173000D01*
D14*
X125000Y10400D02*
Y11500D01*
X225000Y10400D02*
Y11500D01*
X125000Y88600D02*
Y89700D01*
X173700Y89100D02*
Y90000D01*
X225000Y89000D02*
Y90100D01*
X235166Y16099D02*
X233833D01*
X234499D01*
Y12766D01*
X233833Y12100D01*
X233166D01*
X232500Y12766D01*
X239164Y12100D02*
X236499D01*
X239164Y14766D01*
Y15432D01*
X238498Y16099D01*
X237165D01*
X236499Y15432D01*
X236666Y88199D02*
X235333D01*
X235999D01*
Y84866D01*
X235333Y84200D01*
X234666D01*
X234000Y84866D01*
X237999Y84200D02*
X239332D01*
X238665D01*
Y88199D01*
X237999Y87532D01*
X175500Y25600D02*
Y29599D01*
X177499D01*
X178166Y28932D01*
Y27599D01*
X177499Y26933D01*
X175500D01*
X181498Y29599D02*
X180165D01*
X179499Y28932D01*
Y26266D01*
X180165Y25600D01*
X181498D01*
X182165Y26266D01*
Y28932D01*
X181498Y29599D01*
X183497D02*
Y25600D01*
X184830Y26933D01*
X186163Y25600D01*
Y29599D01*
X190162D02*
X187496D01*
Y25600D01*
X190162D01*
X187496Y27599D02*
X188829D01*
X191495Y25600D02*
Y29599D01*
X193494D01*
X194161Y28932D01*
Y27599D01*
X193494Y26933D01*
X191495D01*
X192828D02*
X194161Y25600D01*
X174900Y88399D02*
Y85066D01*
X175566Y84400D01*
X176899D01*
X177566Y85066D01*
Y88399D01*
X181564Y87732D02*
X180898Y88399D01*
X179565D01*
X178899Y87732D01*
Y87066D01*
X179565Y86399D01*
X180898D01*
X181564Y85733D01*
Y85066D01*
X180898Y84400D01*
X179565D01*
X178899Y85066D01*
X185563Y88399D02*
X182897D01*
Y84400D01*
X185563D01*
X182897Y86399D02*
X184230D01*
X186896Y84400D02*
Y88399D01*
X188895D01*
X189562Y87732D01*
Y86399D01*
X188895Y85733D01*
X186896D01*
X188229D02*
X189562Y84400D01*
X130500Y37100D02*
Y41099D01*
X132499D01*
X133166Y40432D01*
Y39099D01*
X132499Y38433D01*
X130500D01*
X131833D02*
X133166Y37100D01*
X137164Y41099D02*
X134499D01*
Y37100D01*
X137164D01*
X134499Y39099D02*
X135832D01*
X141163Y40432D02*
X140497Y41099D01*
X139164D01*
X138497Y40432D01*
Y39766D01*
X139164Y39099D01*
X140497D01*
X141163Y38433D01*
Y37766D01*
X140497Y37100D01*
X139164D01*
X138497Y37766D01*
X145162Y41099D02*
X142496D01*
Y37100D01*
X145162D01*
X142496Y39099D02*
X143829D01*
X146495Y41099D02*
X149161D01*
X147828D01*
Y37100D01*
X158900Y73499D02*
Y69500D01*
X160899D01*
X161566Y70166D01*
Y70833D01*
X160899Y71499D01*
X158900D01*
X160899D01*
X161566Y72166D01*
Y72832D01*
X160899Y73499D01*
X158900D01*
X164898D02*
X163565D01*
X162899Y72832D01*
Y70166D01*
X163565Y69500D01*
X164898D01*
X165565Y70166D01*
Y72832D01*
X164898Y73499D01*
X168897D02*
X167564D01*
X166897Y72832D01*
Y70166D01*
X167564Y69500D01*
X168897D01*
X169563Y70166D01*
Y72832D01*
X168897Y73499D01*
X170896D02*
X173562D01*
X172229D01*
Y69500D01*
X150900Y60732D02*
X151567Y61399D01*
X152899D01*
X153566Y60732D01*
Y60066D01*
X152899Y59399D01*
X152233D01*
X152899D01*
X153566Y58733D01*
Y58066D01*
X152899Y57400D01*
X151567D01*
X150900Y58066D01*
X154899Y61399D02*
Y58733D01*
X156232Y57400D01*
X157564Y58733D01*
Y61399D01*
X158897Y60732D02*
X159564Y61399D01*
X160897D01*
X161563Y60732D01*
Y60066D01*
X160897Y59399D01*
X160230D01*
X160897D01*
X161563Y58733D01*
Y58066D01*
X160897Y57400D01*
X159564D01*
X158897Y58066D01*
X124500Y57300D02*
Y61299D01*
X126499D01*
X127166Y60632D01*
Y59299D01*
X126499Y58633D01*
X124500D01*
X125833D02*
X127166Y57300D01*
X131165Y61299D02*
X128499D01*
Y57300D01*
X131165D01*
X128499Y59299D02*
X129832D01*
X135163Y60632D02*
X134497Y61299D01*
X133164D01*
X132497Y60632D01*
Y57966D01*
X133164Y57300D01*
X134497D01*
X135163Y57966D01*
Y59299D01*
X133830D01*
X48599Y48500D02*
X45683D01*
X45100Y47917D01*
Y46751D01*
X45683Y46167D01*
X48599D01*
X48016Y42669D02*
X48599Y43252D01*
Y44418D01*
X48016Y45001D01*
X47433D01*
X46849Y44418D01*
Y43252D01*
X46266Y42669D01*
X45683D01*
X45100Y43252D01*
Y44418D01*
X45683Y45001D01*
X48599Y41502D02*
X45100D01*
Y39753D01*
X45683Y39170D01*
X46266D01*
X46849Y39753D01*
Y41502D01*
Y39753D01*
X47433Y39170D01*
X48016D01*
X48599Y39753D01*
Y41502D01*
X45100Y35671D02*
Y38003D01*
X47433Y35671D01*
X48016D01*
X48599Y36254D01*
Y37420D01*
X48016Y38003D01*
X44400Y52249D02*
X46733D01*
X45566Y53416D02*
Y51083D01*
X50231Y53999D02*
X47899D01*
Y52249D01*
X49065Y52833D01*
X49648D01*
X50231Y52249D01*
Y51083D01*
X49648Y50500D01*
X48482D01*
X47899Y51083D01*
X51398Y53999D02*
Y51666D01*
X52564Y50500D01*
X53730Y51666D01*
Y53999D01*
X48699Y66800D02*
X45783D01*
X45200Y66217D01*
Y65051D01*
X45783Y64467D01*
X48699D01*
X48116Y60969D02*
X48699Y61552D01*
Y62718D01*
X48116Y63301D01*
X47533D01*
X46949Y62718D01*
Y61552D01*
X46366Y60969D01*
X45783D01*
X45200Y61552D01*
Y62718D01*
X45783Y63301D01*
X48699Y59802D02*
X45200D01*
Y58053D01*
X45783Y57470D01*
X46366D01*
X46949Y58053D01*
Y59802D01*
Y58053D01*
X47533Y57470D01*
X48116D01*
X48699Y58053D01*
Y59802D01*
X45200Y56303D02*
Y55137D01*
Y55720D01*
X48699D01*
X48116Y56303D01*
X18366Y47834D02*
X15700D01*
Y43836D01*
X18366D01*
X15700Y45835D02*
X17033D01*
X22365Y47168D02*
X21698Y47834D01*
X20365D01*
X19699Y47168D01*
Y46501D01*
X20365Y45835D01*
X21698D01*
X22365Y45169D01*
Y44502D01*
X21698Y43836D01*
X20365D01*
X19699Y44502D01*
X23697Y43836D02*
Y47834D01*
X25697D01*
X26363Y47168D01*
Y45835D01*
X25697Y45169D01*
X23697D01*
X13100Y55899D02*
Y52566D01*
X13767Y51900D01*
X15099D01*
X15766Y52566D01*
Y55899D01*
X17099Y51900D02*
Y54566D01*
X18432Y55899D01*
X19764Y54566D01*
Y51900D01*
Y53899D01*
X17099D01*
X21097Y51900D02*
Y55899D01*
X23097D01*
X23763Y55232D01*
Y53899D01*
X23097Y53233D01*
X21097D01*
X22430D02*
X23763Y51900D01*
X25096Y55899D02*
X27762D01*
X26429D01*
Y51900D01*
D15*
X69200Y51800D02*
X76200D01*
M02*
