G04*
G04 #@! TF.GenerationSoftware,Altium Limited,Altium Designer,24.8.2 (39)*
G04*
G04 Layer_Color=16711935*
%FSLAX25Y25*%
%MOIN*%
G70*
G04*
G04 #@! TF.SameCoordinates,F7F922D7-4A05-4516-83E6-AC950D0B5F56*
G04*
G04*
G04 #@! TF.FilePolarity,Negative*
G04*
G01*
G75*
%ADD66C,0.08274*%
%ADD67O,0.09161X0.04437*%
D66*
X36800Y62072D02*
D03*
Y41600D02*
D03*
Y51836D02*
D03*
X205000Y5000D02*
D03*
X215000D02*
D03*
X55000D02*
D03*
X45000D02*
D03*
X235000D02*
D03*
X225000D02*
D03*
X195000D02*
D03*
X185000D02*
D03*
X175000D02*
D03*
X165000D02*
D03*
X155000D02*
D03*
X145000D02*
D03*
X135000D02*
D03*
X125000D02*
D03*
X115000D02*
D03*
X105000D02*
D03*
X95000D02*
D03*
X85000D02*
D03*
X65000Y95000D02*
D03*
X75000D02*
D03*
X85000D02*
D03*
X95000D02*
D03*
X105000D02*
D03*
X115000D02*
D03*
X125000D02*
D03*
X135000D02*
D03*
X145000D02*
D03*
X155000D02*
D03*
X165000D02*
D03*
X175000D02*
D03*
X185000D02*
D03*
X195000D02*
D03*
X205000D02*
D03*
X215000D02*
D03*
X225000D02*
D03*
X235000D02*
D03*
X265000D02*
D03*
X255000Y5000D02*
D03*
X45000Y95000D02*
D03*
X35000Y5000D02*
D03*
X245000Y95000D02*
D03*
X75000Y5000D02*
D03*
X65000D02*
D03*
X245000D02*
D03*
X55000Y95000D02*
D03*
X255000D02*
D03*
X265000Y5000D02*
D03*
X147500Y50000D02*
D03*
X137500D02*
D03*
X35000Y95000D02*
D03*
D67*
X5965D02*
D03*
X22500D02*
D03*
Y60984D02*
D03*
Y39016D02*
D03*
X5965Y60984D02*
D03*
Y39016D02*
D03*
X22500Y5000D02*
D03*
X5965D02*
D03*
M02*
