G04*
G04 #@! TF.GenerationSoftware,Altium Limited,Altium Designer,24.7.2 (38)*
G04*
G04 Layer_Physical_Order=4*
G04 Layer_Color=16711680*
%FSLAX25Y25*%
%MOIN*%
G70*
G04*
G04 #@! TF.SameCoordinates,4F91C874-3C4E-4DED-96D1-C94EC6773432*
G04*
G04*
G04 #@! TF.FilePolarity,Positive*
G04*
G01*
G75*
%ADD13C,0.00600*%
%ADD64C,0.00603*%
%ADD74R,0.06400X0.06400*%
%ADD75C,0.06400*%
%ADD76O,0.07087X0.03937*%
%ADD77O,0.08268X0.03937*%
%ADD78C,0.04000*%
%ADD79R,0.04000X0.04000*%
%ADD80R,0.04000X0.04000*%
%ADD81C,0.02400*%
D13*
X114015Y17500D02*
X128358D01*
X110015Y13500D02*
X114015Y17500D01*
X95000Y13500D02*
X110015D01*
X128358Y17500D02*
X137858Y27000D01*
X99786Y84900D02*
X124186Y60500D01*
X221700D01*
X103700Y92300D02*
X121000Y75000D01*
X175928D01*
X178528Y72400D01*
X264800Y82200D02*
X264816Y82184D01*
X70100Y74500D02*
X82069D01*
X86300Y78731D02*
X88127Y80558D01*
X82069Y74500D02*
X86300Y78731D01*
X88127Y80558D02*
X98500D01*
X72400Y50900D02*
X72500Y50800D01*
X36900Y50900D02*
X72400D01*
X179600Y72400D02*
X184000Y68000D01*
X178528Y72400D02*
X179600D01*
X103700Y92300D02*
X103700D01*
X99000Y97000D02*
X103700Y92300D01*
X76093Y84900D02*
X86300D01*
X70693Y90300D02*
X76093Y84900D01*
X86300D02*
X99786D01*
X84442Y86921D02*
X86300D01*
X100593D01*
X81063Y90300D02*
X84442Y86921D01*
X100593D02*
X120015Y67500D01*
X101422Y88921D02*
X120843Y69500D01*
X87404Y88921D02*
X101422D01*
X101472Y91700D02*
X121672Y71500D01*
X89000Y97000D02*
X94300Y91700D01*
X101472D01*
X86025Y90300D02*
X87404Y88921D01*
X85822Y90503D02*
X86025Y90300D01*
X85822Y90503D02*
Y90508D01*
X79330Y97000D02*
X85822Y90508D01*
X121672Y71500D02*
X176600D01*
X120843Y69500D02*
X174100D01*
X79000Y97000D02*
X79330D01*
X146714Y67500D02*
X147814Y66400D01*
X120015Y67500D02*
X146714D01*
X147814Y66400D02*
X148000D01*
X80982Y90382D02*
X81063Y90300D01*
X69000Y91993D02*
X70693Y90300D01*
X69000Y91993D02*
Y97000D01*
X206564Y54700D02*
X212918D01*
X213318Y54300D01*
X218282D02*
X237511Y35070D01*
X206165Y54300D02*
X206564Y54700D01*
X213318Y54300D02*
X218282D01*
X157500D02*
X206165D01*
X91800Y75700D02*
X109700Y57800D01*
X164800D01*
X199882Y40700D02*
X204500D01*
X196882Y37700D02*
X199882Y40700D01*
X185950Y37700D02*
X196882D01*
X180750Y32500D02*
X185950Y37700D01*
X237511Y35070D02*
X259530D01*
X265083Y29518D01*
Y18311D02*
Y29518D01*
X252709Y5938D02*
X265083Y18311D01*
X250961Y4500D02*
X252399Y5938D01*
X252709D01*
X249500Y4500D02*
X250961D01*
X221700Y60500D02*
X223800Y58400D01*
X185821Y40400D02*
X190600D01*
X191900Y43100D02*
X194500Y40500D01*
Y40400D02*
Y40500D01*
X185693Y43100D02*
X191900D01*
X185853Y73000D02*
X193700D01*
X196900Y69800D01*
X176600Y71500D02*
X184900Y63200D01*
X174100Y69500D02*
X178300Y65300D01*
X198658Y17800D02*
X205558Y24700D01*
X177143Y17800D02*
X198658D01*
X174007Y14664D02*
X177143Y17800D01*
X149500Y4500D02*
X159664Y14664D01*
X174007D01*
X186906Y33000D02*
X198000D01*
X179093Y36500D02*
X185693Y43100D01*
X158529Y36500D02*
X179093D01*
X151030Y29000D02*
X158529Y36500D01*
X183686Y84500D02*
X187186Y81000D01*
X139000Y97000D02*
X151500Y84500D01*
X183686D01*
X129000Y97000D02*
X144000Y82000D01*
X179682D02*
X186682Y75000D01*
X144000Y82000D02*
X179682D01*
X179353Y79500D02*
X185853Y73000D01*
X119000Y97000D02*
X136500Y79500D01*
X179353D01*
X179025Y77000D02*
X185025Y71000D01*
X189000D01*
X191500Y68500D01*
X129000Y77000D02*
X179025D01*
X109000Y97000D02*
X129000Y77000D01*
X200500Y75000D02*
X203000Y72500D01*
X186682Y75000D02*
X200500D01*
X216602Y79599D02*
X218701Y77500D01*
X224850Y67022D02*
Y74180D01*
X221530Y77500D02*
X224850Y74180D01*
X218701Y77500D02*
X221530D01*
X209431Y79599D02*
X216602D01*
X207529Y81500D02*
X209431Y79599D01*
X229000Y95989D02*
Y97000D01*
Y95989D02*
X231403Y93585D01*
X235415D01*
X238341Y90659D02*
X238462D01*
X239250Y89871D01*
X235415Y93585D02*
X238341Y90659D01*
X239250Y89750D02*
Y89871D01*
X219000Y97000D02*
X224415Y91585D01*
X232400D01*
X187186Y81000D02*
X194358D01*
X195858Y79500D01*
X206701D01*
X208602Y77599D02*
X215580D01*
X206701Y79500D02*
X208602Y77599D01*
X215580D02*
X221557Y71622D01*
X227000Y81500D02*
X231543Y76957D01*
X220358Y81500D02*
X227000D01*
X231543Y67022D02*
Y76957D01*
X225500Y79500D02*
X228250Y76750D01*
X219530Y79500D02*
X225500D01*
X228250Y71622D02*
Y76750D01*
X159000Y87000D02*
X184015D01*
X149000Y97000D02*
X159000Y87000D01*
X184015D02*
X188015Y83000D01*
X195186D01*
X196686Y81500D02*
X207529D01*
X195186Y83000D02*
X196686Y81500D01*
X159000Y97000D02*
X167000Y89000D01*
X184843D01*
X188843Y85000D01*
X196015D01*
X197515Y83500D02*
X208358D01*
X196015Y85000D02*
X197515Y83500D01*
X208358D02*
X209858Y82000D01*
X217030D01*
X219530Y79500D01*
X169000Y97000D02*
X175000Y91000D01*
X185672D01*
X189672Y87000D01*
X196843D01*
X198343Y85500D01*
X209186D01*
X210686Y84000D01*
X217858D01*
X220358Y81500D01*
X179000Y97000D02*
X183000Y93000D01*
X186500D01*
X190500Y89000D02*
X197672D01*
X186500Y93000D02*
X190500Y89000D01*
X197672D02*
X199172Y87500D01*
X210015D01*
X211515Y86000D01*
X218686D01*
X221186Y83500D02*
X229172D01*
X218686Y86000D02*
X221186Y83500D01*
X234943Y71622D02*
Y77729D01*
X229172Y83500D02*
X234943Y77729D01*
X221172Y92000D02*
X223586Y89585D01*
X231572D01*
X222843Y87500D02*
X230828D01*
X220343Y90000D02*
X222843Y87500D01*
X213172Y90000D02*
X220343D01*
X209000Y97000D02*
X214000Y92000D01*
X221172D01*
X231572Y89585D02*
X244929Y76228D01*
X232400Y91585D02*
X248329Y75656D01*
X200000Y89500D02*
X210843D01*
X212343Y88000D01*
X198500Y91000D02*
X200000Y89500D01*
X219515Y88000D02*
X222015Y85500D01*
X212343Y88000D02*
X219515D01*
X193500Y91000D02*
X198500D01*
X211172Y92000D02*
X213172Y90000D01*
X199000Y97000D02*
X204000Y92000D01*
X211172D01*
X189000Y95539D02*
X190573Y93965D01*
X189000Y95539D02*
Y97000D01*
X190573Y93927D02*
Y93965D01*
Y93927D02*
X193500Y91000D01*
X222015Y85500D02*
X230000D01*
X238236Y77264D01*
Y67022D02*
Y77264D01*
X230828Y87500D02*
X241636Y76693D01*
Y71622D02*
Y76693D01*
X244929Y67022D02*
Y76228D01*
X159500Y4500D02*
X167664Y12664D01*
X174836D01*
X192015Y15500D02*
X199186D01*
X190679Y14164D02*
X192015Y15500D01*
X176336Y14164D02*
X190679D01*
X174836Y12664D02*
X176336Y14164D01*
X199186Y15500D02*
X201431Y17745D01*
X255000Y71600D02*
Y81000D01*
X239000Y97000D02*
X255000Y81000D01*
X239250Y89750D02*
X251600Y77400D01*
X248329Y71622D02*
Y75656D01*
X251600Y67000D02*
Y77400D01*
X56500Y11500D02*
X90172D01*
X49500Y4500D02*
X56500Y11500D01*
X94172Y15500D02*
X109186D01*
X113186Y19500D01*
X90172Y11500D02*
X94172Y15500D01*
X59500Y4500D02*
X64500Y9500D01*
X91000D02*
X95000Y13500D01*
X64500Y9500D02*
X91000D01*
X113186Y19500D02*
X127530D01*
X137030Y29000D01*
X151030D01*
X137858Y27000D02*
X151858D01*
X159358Y34500D01*
X179921D01*
X185821Y40400D01*
X89500Y4500D02*
X96500Y11500D01*
X110843D01*
X114843Y15500D01*
X129186D01*
X138686Y25000D01*
X160186Y32500D02*
X180750D01*
X152686Y25000D02*
X160186Y32500D01*
X138686Y25000D02*
X152686D01*
X115672Y13500D02*
X130015D01*
X99500Y4500D02*
X104500Y9500D01*
X130015Y13500D02*
X139515Y23000D01*
X104500Y9500D02*
X111672D01*
X115672Y13500D01*
X139515Y23000D02*
X153515D01*
X161015Y30500D01*
X181578D01*
X186778Y35700D01*
X198700D01*
X201000Y38000D01*
X182406Y28500D02*
X186906Y33000D01*
X116500Y11500D02*
X130843D01*
X109500Y4500D02*
X116500Y11500D01*
X140343Y21000D02*
X154343D01*
X130843Y11500D02*
X140343Y21000D01*
X161843Y28500D02*
X182406D01*
X154343Y21000D02*
X161843Y28500D01*
X119500Y4500D02*
X124500Y9500D01*
X131672D01*
X141172Y19000D02*
X155172D01*
X131672Y9500D02*
X141172Y19000D01*
X162672Y26500D02*
X184225D01*
X155172Y19000D02*
X162672Y26500D01*
X187225Y29500D02*
X200500D01*
X184225Y26500D02*
X187225Y29500D01*
X203901Y28700D02*
X220700D01*
X201201Y26000D02*
X203901Y28700D01*
X220700D02*
X221500Y29500D01*
Y34000D01*
X205558Y24700D02*
X227073D01*
X228293Y25921D01*
X129500Y4500D02*
X142000Y17000D01*
X156000D01*
X151500Y15000D02*
X157172D01*
X140961Y4500D02*
X142535Y6073D01*
X142573D01*
X151500Y15000D01*
X139500Y4500D02*
X140961D01*
X163500Y24500D02*
X185053D01*
X156000Y17000D02*
X163500Y24500D01*
X129500Y4500D02*
Y5961D01*
X157172Y15000D02*
X164672Y22500D01*
X185882D01*
X186553Y26000D02*
X201201D01*
X185053Y24500D02*
X186553Y26000D01*
X185882Y22500D02*
X187382Y24000D01*
X202029D02*
X204730Y26700D01*
X187382Y24000D02*
X202029D01*
X234200Y9200D02*
X241200D01*
X255065Y23065D02*
Y27770D01*
X241200Y9200D02*
X255065Y23065D01*
X251772Y22772D02*
Y32370D01*
X233372Y11200D02*
X240200D01*
X251772Y22772D01*
X239200Y13200D02*
X248372Y22372D01*
X232543Y13200D02*
X239200D01*
X248372Y22372D02*
Y27770D01*
X245079Y23079D02*
Y32370D01*
X231715Y15200D02*
X237200D01*
X245079Y23079D01*
X227229Y19200D02*
X229229Y21200D01*
X231200D01*
X234718Y24718D02*
Y27503D01*
X231200Y21200D02*
X234718Y24718D01*
X220058Y19200D02*
X227229D01*
X234718Y27503D02*
X234986Y27770D01*
X224896Y27286D02*
Y28896D01*
X224310Y26700D02*
X224896Y27286D01*
Y28896D02*
X225000Y29000D01*
X204730Y26700D02*
X224310D01*
X228293Y25921D02*
Y27770D01*
X231693Y26492D02*
Y32370D01*
X226401Y21200D02*
X231693Y26492D01*
X219230Y21200D02*
X226401D01*
X236986Y22858D02*
Y22986D01*
X238386Y24386D02*
Y32370D01*
X236986Y22986D02*
X238386Y24386D01*
X233328Y19200D02*
X236986Y22858D01*
X230058Y19200D02*
X233328D01*
X230886Y17200D02*
X236200D01*
X241679Y22679D02*
Y27770D01*
X236200Y17200D02*
X241679Y22679D01*
X169500Y4500D02*
X177164Y12164D01*
X191507D01*
X201431Y17745D02*
X211603D01*
X213058Y19200D01*
X217230D02*
X219230Y21200D01*
X213058Y19200D02*
X217230D01*
X192843Y13500D02*
X200015D01*
X191507Y12164D02*
X192843Y13500D01*
X200015D02*
X202260Y15745D01*
X212431D01*
X213886Y17200D01*
X218058D01*
X220058Y19200D01*
X179500Y4500D02*
X185164Y10164D01*
X192336D01*
X193672Y11500D01*
X195009Y11500D01*
X200843D01*
X203088Y13745D02*
X213260D01*
X200843Y11500D02*
X203088Y13745D01*
X213260D02*
X214715Y15200D01*
X201672Y9500D02*
X203917Y11745D01*
X189500Y4500D02*
X194500Y9500D01*
X214088Y11745D02*
X215543Y13200D01*
X203917Y11745D02*
X214088D01*
X194500Y9500D02*
X201672D01*
X214715Y15200D02*
X218886D01*
X220886Y17200D01*
X228058D01*
X230058Y19200D01*
X215543Y13200D02*
X219715D01*
X221715Y15200D02*
X228886D01*
X219715Y13200D02*
X221715Y15200D01*
X228886D02*
X230886Y17200D01*
X199500Y4500D02*
X204745Y9745D01*
X214917D01*
X216372Y11200D02*
X220543D01*
X214917Y9745D02*
X216372Y11200D01*
X222543Y13200D02*
X229715D01*
X220543Y11200D02*
X222543Y13200D01*
X229715D02*
X231715Y15200D01*
X209500Y4500D02*
X212745Y7745D01*
X215745D01*
X217200Y9200D01*
X221372D01*
X223372Y11200D01*
X230543D01*
X232543Y13200D01*
X224200Y9200D02*
X231372D01*
X233372Y11200D01*
X219500Y4500D02*
X224200Y9200D01*
X229500Y4500D02*
X234200Y9200D01*
D64*
X49835Y23465D02*
X58201Y15099D01*
X89521D01*
X57620Y13695D02*
X90102D01*
X89521Y15099D02*
X92927Y18505D01*
X90102Y13695D02*
X93508Y17101D01*
X50622Y20694D02*
X57620Y13695D01*
X101104Y18505D02*
X118559Y35959D01*
X101686Y17101D02*
X119140Y34556D01*
X118559Y35959D02*
X144949D01*
X92927Y18505D02*
X101104D01*
X93508Y17101D02*
X101686D01*
X119140Y34556D02*
X145530D01*
X49278Y20694D02*
X50622D01*
X49065Y20907D02*
X49278Y20694D01*
X49835Y23465D02*
Y24965D01*
X49700Y25100D02*
X49835Y24965D01*
X37559Y82534D02*
X39322Y84297D01*
X37559Y81781D02*
Y82534D01*
X36156Y81052D02*
Y83115D01*
X37559Y81781D02*
X38531Y80809D01*
X35300Y79800D02*
Y80196D01*
X36156Y83115D02*
X38741Y85700D01*
X35300Y80196D02*
X36156Y81052D01*
X38531Y80529D02*
Y80809D01*
X38741Y85700D02*
X43792D01*
X53147Y75850D02*
X53500D01*
X52248Y76749D02*
X53147Y75850D01*
X50760Y76749D02*
X52248D01*
X43211Y84297D02*
X50760Y76749D01*
X39322Y84297D02*
X43211D01*
X51341Y78152D02*
X52248D01*
X53147Y79050D01*
X53500D01*
X43792Y85700D02*
X51341Y78152D01*
X150283Y30602D02*
X158378Y38697D01*
X149701Y32004D02*
X157797Y40100D01*
X135785Y32004D02*
X149701D01*
X114400Y26200D02*
X114616Y25984D01*
X116151D01*
X116330Y22900D02*
X116608Y23178D01*
X117266Y27099D02*
X130879D01*
X116608Y23178D02*
Y24456D01*
X117847Y25695D01*
X131460D01*
X136366Y30602D02*
X150283D01*
X116151Y25984D02*
X117266Y27099D01*
X130879D02*
X135785Y32004D01*
X131460Y25695D02*
X136366Y30602D01*
X178252Y49301D02*
X179800Y50850D01*
Y50900D01*
X144949Y35959D02*
X158392Y49402D01*
X158973Y47998D02*
X168660D01*
X168760Y47899D02*
X178252D01*
X179850Y46300D01*
X179900D01*
X158392Y49402D02*
X169241D01*
X168660Y47998D02*
X168760Y47899D01*
X169341Y49301D02*
X178252D01*
X169241Y49402D02*
X169341Y49301D01*
X145530Y34556D02*
X158973Y47998D01*
X206447Y48094D02*
X207600Y46941D01*
Y44800D02*
Y46941D01*
X187894Y48094D02*
X206447D01*
X187313Y49497D02*
X206447D01*
X157797Y40100D02*
X177916D01*
X178497Y38697D02*
X187894Y48094D01*
X158378Y38697D02*
X178497D01*
X177916Y40100D02*
X187313Y49497D01*
X206447D02*
X207256Y50306D01*
Y51856D01*
X207600Y52200D01*
D74*
X269500Y4500D02*
D03*
X269000Y97000D02*
D03*
D75*
X259500Y4500D02*
D03*
X249500D02*
D03*
X239500D02*
D03*
X229500D02*
D03*
X219500D02*
D03*
X209500D02*
D03*
X199500D02*
D03*
X189500D02*
D03*
X179500D02*
D03*
X169500D02*
D03*
X159500D02*
D03*
X149500D02*
D03*
X139500D02*
D03*
X129500D02*
D03*
X119500D02*
D03*
X109500D02*
D03*
X99500D02*
D03*
X89500D02*
D03*
X79500D02*
D03*
X69500D02*
D03*
X59500D02*
D03*
X49500D02*
D03*
X39500D02*
D03*
X259000Y97000D02*
D03*
X249000D02*
D03*
X239000D02*
D03*
X229000D02*
D03*
X219000D02*
D03*
X209000D02*
D03*
X199000D02*
D03*
X189000D02*
D03*
X179000D02*
D03*
X169000D02*
D03*
X159000D02*
D03*
X149000D02*
D03*
X139000D02*
D03*
X129000D02*
D03*
X119000D02*
D03*
X109000D02*
D03*
X99000D02*
D03*
X89000D02*
D03*
X79000D02*
D03*
X69000D02*
D03*
X59000D02*
D03*
X49000D02*
D03*
X39000D02*
D03*
D76*
X8543Y62484D02*
D03*
Y96492D02*
D03*
Y38008D02*
D03*
Y4000D02*
D03*
D77*
X25000Y96500D02*
D03*
Y62484D02*
D03*
Y4000D02*
D03*
Y38016D02*
D03*
D78*
X36900Y45900D02*
D03*
Y50900D02*
D03*
X142500Y50000D02*
D03*
D79*
X36900Y55900D02*
D03*
D80*
X137500Y50000D02*
D03*
D81*
X273000Y18000D02*
D03*
X53200Y82800D02*
D03*
X207600Y52200D02*
D03*
X90500Y39000D02*
D03*
X74500Y78500D02*
D03*
X79000Y82000D02*
D03*
X74500D02*
D03*
X93500Y35043D02*
D03*
X206572Y75428D02*
D03*
X45500Y70000D02*
D03*
X54500Y70500D02*
D03*
X35000Y8400D02*
D03*
X57400Y40300D02*
D03*
X54300Y33250D02*
D03*
X32200Y37000D02*
D03*
X44100Y31800D02*
D03*
X42917Y15591D02*
D03*
X59100Y18500D02*
D03*
X18500Y65800D02*
D03*
X36500Y37600D02*
D03*
X75800Y91300D02*
D03*
X84700Y54700D02*
D03*
Y61800D02*
D03*
X45827Y78427D02*
D03*
X58363Y63437D02*
D03*
X43000Y80700D02*
D03*
X40200Y75700D02*
D03*
X94575Y57625D02*
D03*
X96700Y60800D02*
D03*
X52900Y89900D02*
D03*
X88522Y91621D02*
D03*
X79800Y70100D02*
D03*
X35400Y90800D02*
D03*
X77900Y60100D02*
D03*
X76951Y33010D02*
D03*
X209500Y22000D02*
D03*
X258172Y31328D02*
D03*
X128165Y40468D02*
D03*
X156668Y42369D02*
D03*
X261826Y27839D02*
D03*
X171768Y19769D02*
D03*
X162669Y66768D02*
D03*
X211500Y52000D02*
D03*
Y45000D02*
D03*
X123768Y86369D02*
D03*
X152687Y87269D02*
D03*
X233200Y56100D02*
D03*
X233246Y49650D02*
D03*
Y43154D02*
D03*
X256762Y43246D02*
D03*
Y49742D02*
D03*
Y56238D02*
D03*
X244958Y61454D02*
D03*
X245050Y37938D02*
D03*
X248300Y53100D02*
D03*
X248346Y46346D02*
D03*
X241600Y46400D02*
D03*
X248877Y91577D02*
D03*
X264800Y82200D02*
D03*
X265083Y73292D02*
D03*
X268472Y70000D02*
D03*
X268600Y32964D02*
D03*
Y36310D02*
D03*
Y29617D02*
D03*
Y59735D02*
D03*
Y46350D02*
D03*
Y53043D02*
D03*
Y73121D02*
D03*
Y66428D02*
D03*
Y56389D02*
D03*
Y26271D02*
D03*
Y63082D02*
D03*
Y39657D02*
D03*
Y43003D02*
D03*
Y49696D02*
D03*
X92400Y23700D02*
D03*
X83400Y39500D02*
D03*
X78300Y20900D02*
D03*
X84900Y17400D02*
D03*
X84700Y20800D02*
D03*
X81400Y20700D02*
D03*
X81600Y17500D02*
D03*
X78300Y17600D02*
D03*
X65700Y26300D02*
D03*
X70100Y74500D02*
D03*
X98500Y80558D02*
D03*
X96500Y50600D02*
D03*
X269600Y12900D02*
D03*
X254200Y88800D02*
D03*
X258400Y89100D02*
D03*
X110300Y91400D02*
D03*
X190600Y78000D02*
D03*
X72500Y50800D02*
D03*
X38531Y80529D02*
D03*
X35300Y79800D02*
D03*
X53500Y79050D02*
D03*
Y75850D02*
D03*
X49700Y25100D02*
D03*
X49065Y20907D02*
D03*
X114400Y26200D02*
D03*
X116330Y22900D02*
D03*
X179900Y46300D02*
D03*
X179800Y50900D02*
D03*
X207600Y44800D02*
D03*
X91800Y75700D02*
D03*
X204500Y40700D02*
D03*
X157500Y54300D02*
D03*
X164800Y57800D02*
D03*
X223800Y58400D02*
D03*
X190600Y40400D02*
D03*
X194500D02*
D03*
X196900Y69800D02*
D03*
X184900Y63200D02*
D03*
X178300Y65300D02*
D03*
X188400Y20500D02*
D03*
X148000Y66400D02*
D03*
X80982Y90382D02*
D03*
X198000Y33000D02*
D03*
X184000Y68000D02*
D03*
X191500Y68500D02*
D03*
X203000Y72500D02*
D03*
X239500Y90000D02*
D03*
X201000Y38000D02*
D03*
X200500Y29500D02*
D03*
X225000Y29000D02*
D03*
X221500Y34000D02*
D03*
X228293Y27770D02*
D03*
X221557Y71622D02*
D03*
X255065Y27770D02*
D03*
X248372D02*
D03*
X251772Y32370D02*
D03*
X241679Y27770D02*
D03*
X245079Y32370D02*
D03*
X234986Y27770D02*
D03*
X238386Y32370D02*
D03*
X231693D02*
D03*
X228250Y71622D02*
D03*
X224850Y67022D02*
D03*
X234943Y71622D02*
D03*
X231543Y67022D02*
D03*
X241636Y71622D02*
D03*
X238236Y67022D02*
D03*
X248329Y71622D02*
D03*
X244929Y67022D02*
D03*
X251600Y67000D02*
D03*
X255000Y71600D02*
D03*
M02*
