G04*
G04 #@! TF.GenerationSoftware,Altium Limited,Altium Designer,24.7.2 (38)*
G04*
G04 Layer_Color=8388736*
%FSLAX25Y25*%
%MOIN*%
G70*
G04*
G04 #@! TF.SameCoordinates,4F91C874-3C4E-4DED-96D1-C94EC6773432*
G04*
G04*
G04 #@! TF.FilePolarity,Negative*
G04*
G01*
G75*
%ADD37R,0.02565X0.02172*%
%ADD38R,0.05518X0.04731*%
%ADD39R,0.02172X0.02565*%
%ADD40R,0.03156X0.02762*%
%ADD41R,0.03156X0.01778*%
%ADD42R,0.01778X0.03156*%
%ADD43R,0.01384X0.01975*%
%ADD44R,0.05912X0.04337*%
%ADD45R,0.01975X0.01384*%
%ADD46R,0.01975X0.02290*%
%ADD47R,0.02290X0.01975*%
%ADD48R,0.03550X0.03943*%
%ADD49R,0.05518X0.05518*%
%ADD50R,0.03943X0.02368*%
%ADD51R,0.02368X0.03943*%
%ADD52R,0.03943X0.03943*%
%ADD53C,0.01500*%
%ADD54R,0.06800X0.06800*%
%ADD55C,0.06800*%
%ADD56O,0.07487X0.04337*%
%ADD57O,0.08668X0.04337*%
%ADD58C,0.04400*%
%ADD59R,0.04400X0.04400*%
%ADD60R,0.04400X0.04400*%
G36*
X29528Y90909D02*
X25000D01*
Y93272D01*
X29528D01*
Y90909D01*
D02*
G37*
G36*
Y87760D02*
X25000D01*
Y90122D01*
X29528D01*
Y87760D01*
D02*
G37*
G36*
Y85791D02*
X25000D01*
Y86972D01*
X29528D01*
Y85791D01*
D02*
G37*
G36*
Y83823D02*
X25000D01*
Y85004D01*
X29528D01*
Y83823D01*
D02*
G37*
G36*
Y81854D02*
X25000D01*
Y83035D01*
X29528D01*
Y81854D01*
D02*
G37*
G36*
Y79886D02*
X25000D01*
Y81067D01*
X29528D01*
Y79886D01*
D02*
G37*
G36*
Y77917D02*
X25000D01*
Y79098D01*
X29528D01*
Y77917D01*
D02*
G37*
G36*
X79409Y85142D02*
X79447Y85131D01*
X79482Y85112D01*
X79512Y85087D01*
X81087Y83512D01*
X81087Y83512D01*
X81112Y83482D01*
X81131Y83447D01*
X81142Y83409D01*
X81146Y83370D01*
Y77071D01*
X81142Y77032D01*
X81131Y76994D01*
X81112Y76959D01*
X81087Y76929D01*
X81056Y76904D01*
X81022Y76885D01*
X80984Y76874D01*
X80945Y76870D01*
X73071D01*
X73032Y76874D01*
X72994Y76885D01*
X72959Y76904D01*
X72929Y76929D01*
X72904Y76959D01*
X72885Y76994D01*
X72874Y77032D01*
X72870Y77071D01*
Y84945D01*
X72874Y84984D01*
X72885Y85022D01*
X72904Y85057D01*
X72929Y85087D01*
X72959Y85112D01*
X72994Y85131D01*
X73032Y85142D01*
X73071Y85146D01*
X79370D01*
X79409Y85142D01*
D02*
G37*
G36*
X29528Y75949D02*
X25000D01*
Y77130D01*
X29528D01*
Y75949D01*
D02*
G37*
G36*
Y73980D02*
X25000D01*
Y75161D01*
X29528D01*
Y73980D01*
D02*
G37*
G36*
Y72012D02*
X25000D01*
Y73193D01*
X29528D01*
Y72012D01*
D02*
G37*
G36*
Y68862D02*
X25000D01*
Y71224D01*
X29528D01*
Y68862D01*
D02*
G37*
G36*
Y65713D02*
X25000D01*
Y68075D01*
X29528D01*
Y65713D01*
D02*
G37*
G36*
X251539Y58948D02*
X251577Y58937D01*
X251612Y58918D01*
X251642Y58893D01*
X254201Y56334D01*
X254226Y56304D01*
X254238Y56281D01*
X254245Y56269D01*
X254256Y56231D01*
X254260Y56192D01*
X254260Y56192D01*
Y53633D01*
X254256Y53594D01*
X254245Y53556D01*
X254226Y53521D01*
X254201Y53491D01*
X254171Y53466D01*
X254136Y53447D01*
X254098Y53436D01*
X254059Y53432D01*
X248941D01*
X248902Y53436D01*
X248864Y53447D01*
X248829Y53466D01*
X248799Y53491D01*
X248774Y53521D01*
X248755Y53556D01*
X248744Y53594D01*
X248740Y53633D01*
Y58751D01*
X248744Y58790D01*
X248755Y58828D01*
X248774Y58863D01*
X248799Y58893D01*
X248829Y58918D01*
X248864Y58937D01*
X248902Y58948D01*
X248941Y58952D01*
X251500D01*
X251539Y58948D01*
D02*
G37*
G36*
X29528Y32425D02*
X25000D01*
Y34787D01*
X29528D01*
Y32425D01*
D02*
G37*
G36*
X85287Y29409D02*
X83713D01*
Y30591D01*
X85287D01*
Y29409D01*
D02*
G37*
G36*
X78713D02*
X77138D01*
Y30591D01*
X78713D01*
Y29409D01*
D02*
G37*
G36*
X29528Y29276D02*
X25000D01*
Y31638D01*
X29528D01*
Y29276D01*
D02*
G37*
G36*
X85287Y27441D02*
X83713D01*
Y28622D01*
X85287D01*
Y27441D01*
D02*
G37*
G36*
X78713D02*
X77138D01*
Y28622D01*
X78713D01*
Y27441D01*
D02*
G37*
G36*
X29528Y27307D02*
X25000D01*
Y28488D01*
X29528D01*
Y27307D01*
D02*
G37*
G36*
X85287Y25472D02*
X83713D01*
Y26654D01*
X85287D01*
Y25472D01*
D02*
G37*
G36*
X78713D02*
X77138D01*
Y26654D01*
X78713D01*
Y25472D01*
D02*
G37*
G36*
X29528Y25339D02*
X25000D01*
Y26520D01*
X29528D01*
Y25339D01*
D02*
G37*
G36*
X82827Y23898D02*
X79598D01*
Y28583D01*
X81213Y30197D01*
X82827D01*
Y23898D01*
D02*
G37*
G36*
X85287Y23504D02*
X83713D01*
Y24685D01*
X85287D01*
Y23504D01*
D02*
G37*
G36*
X78713D02*
X77138D01*
Y24685D01*
X78713D01*
Y23504D01*
D02*
G37*
G36*
X29528Y23370D02*
X25000D01*
Y24551D01*
X29528D01*
Y23370D01*
D02*
G37*
G36*
Y21402D02*
X25000D01*
Y22583D01*
X29528D01*
Y21402D01*
D02*
G37*
G36*
Y19433D02*
X25000D01*
Y20614D01*
X29528D01*
Y19433D01*
D02*
G37*
G36*
Y17465D02*
X25000D01*
Y18646D01*
X29528D01*
Y17465D01*
D02*
G37*
G36*
Y15496D02*
X25000D01*
Y16677D01*
X29528D01*
Y15496D01*
D02*
G37*
G36*
Y13528D02*
X25000D01*
Y14709D01*
X29528D01*
Y13528D01*
D02*
G37*
G36*
Y10378D02*
X25000D01*
Y12740D01*
X29528D01*
Y10378D01*
D02*
G37*
G36*
Y7228D02*
X25000D01*
Y9591D01*
X29528D01*
Y7228D01*
D02*
G37*
D37*
X49200Y84850D02*
D03*
Y88000D02*
D03*
X98300Y89075D02*
D03*
Y85925D02*
D03*
X67900Y62925D02*
D03*
Y66075D02*
D03*
X49200Y75325D02*
D03*
Y78475D02*
D03*
X55700Y15325D02*
D03*
Y18475D02*
D03*
Y29450D02*
D03*
Y26300D02*
D03*
X165800Y18525D02*
D03*
Y21675D02*
D03*
X182700D02*
D03*
Y18525D02*
D03*
X183700Y78425D02*
D03*
Y81575D02*
D03*
X106800Y67925D02*
D03*
Y71075D02*
D03*
X90500Y31000D02*
D03*
Y34150D02*
D03*
X114300Y67925D02*
D03*
Y71075D02*
D03*
D38*
X123661Y36358D02*
D03*
X156339D02*
D03*
X123661Y18642D02*
D03*
X156339D02*
D03*
Y63642D02*
D03*
X123661D02*
D03*
X156339Y81358D02*
D03*
X123661D02*
D03*
D39*
X78177Y50798D02*
D03*
X81327D02*
D03*
D03*
X84476D02*
D03*
X61275Y74300D02*
D03*
X58125D02*
D03*
X61100Y80600D02*
D03*
X57950D02*
D03*
X91325Y67500D02*
D03*
X94475D02*
D03*
X94575Y54000D02*
D03*
X91425D02*
D03*
X94500Y61000D02*
D03*
X91350D02*
D03*
X198725Y82500D02*
D03*
X201875D02*
D03*
X201975Y76500D02*
D03*
X198825D02*
D03*
X219437Y13937D02*
D03*
X216288D02*
D03*
X199500Y45100D02*
D03*
X196350D02*
D03*
X199500D02*
D03*
X202650D02*
D03*
X209450Y13700D02*
D03*
X206300D02*
D03*
X199375Y52100D02*
D03*
X202524D02*
D03*
X196225D02*
D03*
X199375D02*
D03*
D40*
X175800Y18000D02*
D03*
Y21740D02*
D03*
Y78130D02*
D03*
Y81870D02*
D03*
D41*
X167700Y63827D02*
D03*
Y67173D02*
D03*
X74600Y66073D02*
D03*
X70400Y29447D02*
D03*
Y26100D02*
D03*
X49200Y70173D02*
D03*
Y66827D02*
D03*
X91200Y89173D02*
D03*
Y85827D02*
D03*
X74600Y62727D02*
D03*
D42*
X268027Y85700D02*
D03*
X271373D02*
D03*
X261747D02*
D03*
X258400D02*
D03*
X252200D02*
D03*
X248853D02*
D03*
X83447Y36300D02*
D03*
X80100D02*
D03*
X269673Y12000D02*
D03*
X266327D02*
D03*
X84673Y64956D02*
D03*
X81327D02*
D03*
X54053Y37600D02*
D03*
X57400D02*
D03*
X84673Y57900D02*
D03*
X81327D02*
D03*
X61673Y67800D02*
D03*
X58327D02*
D03*
X61000Y87400D02*
D03*
X57653D02*
D03*
D43*
X73071Y74118D02*
D03*
X80945D02*
D03*
X78976D02*
D03*
X77008D02*
D03*
X75039D02*
D03*
X73071Y87898D02*
D03*
X75039D02*
D03*
X77008D02*
D03*
X78976D02*
D03*
X80945D02*
D03*
D44*
X99000Y35587D02*
D03*
Y28500D02*
D03*
D45*
X83898Y84945D02*
D03*
Y82976D02*
D03*
Y81008D02*
D03*
Y79039D02*
D03*
Y77071D02*
D03*
X70118D02*
D03*
Y79039D02*
D03*
Y81008D02*
D03*
Y82976D02*
D03*
Y84945D02*
D03*
D46*
X40900Y13603D02*
D03*
Y18800D02*
D03*
Y31798D02*
D03*
Y26602D02*
D03*
D47*
X42400Y83300D02*
D03*
X37203D02*
D03*
Y76600D02*
D03*
X42400D02*
D03*
X37103Y70000D02*
D03*
X42300D02*
D03*
X44398Y37600D02*
D03*
X39202D02*
D03*
D48*
X106820Y79500D02*
D03*
X114300D02*
D03*
X110560Y87374D02*
D03*
X114200Y56000D02*
D03*
X106720D02*
D03*
X110460Y48126D02*
D03*
D49*
X245004Y49696D02*
D03*
Y43200D02*
D03*
Y56192D02*
D03*
X251500Y49696D02*
D03*
X238508D02*
D03*
X251500Y43200D02*
D03*
X238508D02*
D03*
Y56192D02*
D03*
D50*
X272563Y73121D02*
D03*
Y69775D02*
D03*
Y66428D02*
D03*
Y63082D02*
D03*
Y59735D02*
D03*
Y56389D02*
D03*
Y53043D02*
D03*
Y49696D02*
D03*
Y46350D02*
D03*
Y43003D02*
D03*
Y39657D02*
D03*
Y36310D02*
D03*
Y32964D02*
D03*
Y29617D02*
D03*
Y26271D02*
D03*
X217445D02*
D03*
Y29617D02*
D03*
Y32964D02*
D03*
Y36310D02*
D03*
Y39657D02*
D03*
Y43003D02*
D03*
Y46350D02*
D03*
Y49696D02*
D03*
Y53043D02*
D03*
Y56389D02*
D03*
Y59735D02*
D03*
Y63082D02*
D03*
Y66428D02*
D03*
Y69775D02*
D03*
Y73121D02*
D03*
D51*
X268429Y22137D02*
D03*
X265083D02*
D03*
X261736D02*
D03*
X258390D02*
D03*
X255043D02*
D03*
X251697D02*
D03*
X248350D02*
D03*
X245004D02*
D03*
X241657D02*
D03*
X238311D02*
D03*
X234965D02*
D03*
X231618D02*
D03*
X228272D02*
D03*
X224925D02*
D03*
X221579D02*
D03*
Y77255D02*
D03*
X224925D02*
D03*
X228272D02*
D03*
X231618D02*
D03*
X234965D02*
D03*
X238311D02*
D03*
X241657D02*
D03*
X245004D02*
D03*
X248350D02*
D03*
X251697D02*
D03*
X255043D02*
D03*
X258390D02*
D03*
X261736D02*
D03*
X265083D02*
D03*
X268429D02*
D03*
D52*
X272563Y22137D02*
D03*
X217445D02*
D03*
Y77255D02*
D03*
X272563D02*
D03*
D53*
X268600Y73121D02*
X272563D01*
D54*
X269500Y4500D02*
D03*
X269000Y97000D02*
D03*
D55*
X259500Y4500D02*
D03*
X249500D02*
D03*
X239500D02*
D03*
X229500D02*
D03*
X219500D02*
D03*
X209500D02*
D03*
X199500D02*
D03*
X189500D02*
D03*
X179500D02*
D03*
X169500D02*
D03*
X159500D02*
D03*
X149500D02*
D03*
X139500D02*
D03*
X129500D02*
D03*
X119500D02*
D03*
X109500D02*
D03*
X99500D02*
D03*
X89500D02*
D03*
X79500D02*
D03*
X69500D02*
D03*
X59500D02*
D03*
X49500D02*
D03*
X39500D02*
D03*
X259000Y97000D02*
D03*
X249000D02*
D03*
X239000D02*
D03*
X229000D02*
D03*
X219000D02*
D03*
X209000D02*
D03*
X199000D02*
D03*
X189000D02*
D03*
X179000D02*
D03*
X169000D02*
D03*
X159000D02*
D03*
X149000D02*
D03*
X139000D02*
D03*
X129000D02*
D03*
X119000D02*
D03*
X109000D02*
D03*
X99000D02*
D03*
X89000D02*
D03*
X79000D02*
D03*
X69000D02*
D03*
X59000D02*
D03*
X49000D02*
D03*
X39000D02*
D03*
D56*
X8543Y62484D02*
D03*
Y96492D02*
D03*
Y38008D02*
D03*
Y4000D02*
D03*
D57*
X25000Y96500D02*
D03*
Y62484D02*
D03*
Y4000D02*
D03*
Y38016D02*
D03*
D58*
X36900Y45900D02*
D03*
Y50900D02*
D03*
X142500Y50000D02*
D03*
D59*
X36900Y55900D02*
D03*
D60*
X137500Y50000D02*
D03*
M02*
