G04*
G04 #@! TF.GenerationSoftware,Altium Limited,Altium Designer,24.7.2 (38)*
G04*
G04 Layer_Physical_Order=2*
G04 Layer_Color=36540*
%FSLAX25Y25*%
%MOIN*%
G70*
G04*
G04 #@! TF.SameCoordinates,4F91C874-3C4E-4DED-96D1-C94EC6773432*
G04*
G04*
G04 #@! TF.FilePolarity,Positive*
G04*
G01*
G75*
%ADD74R,0.06400X0.06400*%
%ADD75C,0.06400*%
%ADD76O,0.07087X0.03937*%
%ADD77O,0.08268X0.03937*%
%ADD78C,0.04000*%
%ADD79R,0.04000X0.04000*%
%ADD80R,0.04000X0.04000*%
%ADD81C,0.02400*%
%ADD82C,0.06000*%
%ADD83C,0.04000*%
G36*
X110299Y102019D02*
X110323Y101900D01*
X110305Y101873D01*
X110255Y101829D01*
X110196Y101709D01*
X110122Y101598D01*
X109840Y101348D01*
X109555Y101201D01*
X109477Y101200D01*
X108447D01*
X107379Y100914D01*
X106421Y100361D01*
X105639Y99579D01*
X105086Y98621D01*
X104800Y97553D01*
Y96523D01*
X104799Y96445D01*
X104652Y96160D01*
X104402Y95878D01*
X104291Y95804D01*
X104171Y95745D01*
X104127Y95695D01*
X104071Y95657D01*
X103352Y94938D01*
X102872Y95307D01*
X102914Y95379D01*
X103200Y96447D01*
Y97553D01*
X102914Y98621D01*
X102361Y99579D01*
X101579Y100361D01*
X100621Y100914D01*
X99553Y101200D01*
X98447D01*
X97379Y100914D01*
X96421Y100361D01*
X95639Y99579D01*
X95086Y98621D01*
X94800Y97553D01*
Y96447D01*
X95086Y95379D01*
X95639Y94421D01*
X96421Y93639D01*
X97379Y93086D01*
X98447Y92800D01*
X99553D01*
X100621Y93086D01*
X100693Y93128D01*
X101061Y92648D01*
X98217Y89803D01*
X97996Y89472D01*
X97918Y89082D01*
Y82758D01*
X97929Y82702D01*
X97254Y82423D01*
X96635Y81804D01*
X96300Y80995D01*
Y80120D01*
X96635Y79311D01*
X97254Y78692D01*
X97929Y78413D01*
X97918Y78357D01*
Y59110D01*
X92279Y53471D01*
X92169Y53306D01*
X92058Y53141D01*
X92058Y53141D01*
X92058Y53140D01*
X92019Y52946D01*
X91980Y52751D01*
X91977Y48995D01*
X92001Y48871D01*
X92008Y48744D01*
X92040Y48677D01*
X92054Y48605D01*
X92124Y48499D01*
X92178Y48385D01*
X92234Y48335D01*
X92275Y48274D01*
X92380Y48203D01*
X92474Y48118D01*
X94978Y46624D01*
X95115Y46575D01*
X95247Y46512D01*
X95301Y46509D01*
X95353Y46491D01*
X95498Y46499D01*
X95644Y46491D01*
X98561Y46907D01*
X98681Y46950D01*
X98807Y46975D01*
X98867Y47015D01*
X98936Y47039D01*
X99031Y47125D01*
X99138Y47196D01*
X108221Y56279D01*
X108442Y56610D01*
X108520Y57000D01*
Y81328D01*
X112922Y85730D01*
X121569D01*
X121959Y85808D01*
X122290Y86029D01*
X122511Y86360D01*
X122532Y86468D01*
X122768Y87037D01*
X123100Y87369D01*
X123534Y87549D01*
X124003D01*
X124437Y87369D01*
X124769Y87037D01*
X125005Y86468D01*
X125027Y86360D01*
X125248Y86029D01*
X125578Y85808D01*
X125969Y85730D01*
X133578D01*
X139474Y79834D01*
Y53000D01*
X137697D01*
X137500Y53026D01*
X137303Y53000D01*
X134500D01*
Y50197D01*
X134474Y50000D01*
Y45327D01*
X134006Y44717D01*
X133603Y43744D01*
X133466Y42700D01*
Y26271D01*
X127629Y20435D01*
X117172D01*
X117052Y21035D01*
X117462Y21204D01*
X118025Y21767D01*
X118330Y22502D01*
Y23298D01*
X118025Y24033D01*
X117462Y24596D01*
X116727Y24900D01*
X116676D01*
X116275Y25500D01*
X116400Y25802D01*
Y26598D01*
X116095Y27333D01*
X115533Y27896D01*
X114798Y28200D01*
X114002D01*
X113267Y27896D01*
X112705Y27333D01*
X112400Y26598D01*
Y25802D01*
X112705Y25067D01*
X113267Y24505D01*
X114002Y24200D01*
X114054D01*
X114455Y23600D01*
X114330Y23298D01*
Y22502D01*
X114634Y21767D01*
X115197Y21204D01*
X115607Y21035D01*
X115488Y20435D01*
X99971D01*
X97980Y22426D01*
X98209Y22980D01*
X104000D01*
X104390Y23058D01*
X104721Y23279D01*
X104942Y23610D01*
X105020Y24000D01*
Y42000D01*
X104942Y42390D01*
X104721Y42721D01*
X104390Y42942D01*
X104000Y43020D01*
X80500D01*
X80110Y42942D01*
X79779Y42721D01*
X79558Y42390D01*
X79480Y42000D01*
Y24000D01*
X79558Y23610D01*
X79779Y23279D01*
X80110Y23058D01*
X80500Y22980D01*
X88366D01*
Y22300D01*
X88366Y22300D01*
X88503Y21256D01*
X88906Y20283D01*
X89547Y19447D01*
X95447Y13547D01*
X96283Y12906D01*
X97256Y12503D01*
X98300Y12365D01*
X98300Y12365D01*
X129300D01*
X129300Y12365D01*
X130344Y12503D01*
X131317Y12906D01*
X132153Y13547D01*
X140353Y21747D01*
X140994Y22583D01*
X141397Y23556D01*
X141534Y24600D01*
Y40990D01*
X142089Y41219D01*
X158279Y25029D01*
X158610Y24808D01*
X159000Y24730D01*
X178078D01*
X195934Y6874D01*
X195997Y6832D01*
X195586Y6121D01*
X195300Y5053D01*
Y3947D01*
X195370Y3686D01*
X195006Y3209D01*
X193995Y3206D01*
X193629Y3681D01*
X193700Y3947D01*
Y5053D01*
X193414Y6121D01*
X192861Y7079D01*
X192079Y7861D01*
X191121Y8414D01*
X190053Y8700D01*
X188947D01*
X187879Y8414D01*
X186921Y7861D01*
X186139Y7079D01*
X185586Y6121D01*
X185300Y5053D01*
Y3947D01*
X185380Y3650D01*
X185015Y3173D01*
X183985Y3169D01*
X183619Y3644D01*
X183700Y3947D01*
Y5053D01*
X183414Y6121D01*
X182861Y7079D01*
X182079Y7861D01*
X181121Y8414D01*
X180053Y8700D01*
X178947D01*
X177879Y8414D01*
X176921Y7861D01*
X176139Y7079D01*
X175586Y6121D01*
X175300Y5053D01*
Y3947D01*
X175390Y3613D01*
X175025Y3136D01*
X173975Y3133D01*
X173609Y3608D01*
X173700Y3947D01*
Y5053D01*
X173414Y6121D01*
X172861Y7079D01*
X172079Y7861D01*
X171121Y8414D01*
X170053Y8700D01*
X168947D01*
X167879Y8414D01*
X166921Y7861D01*
X166139Y7079D01*
X165586Y6121D01*
X165300Y5053D01*
Y3947D01*
X165399Y3576D01*
X165035Y3100D01*
X163965Y3096D01*
X163599Y3571D01*
X163700Y3947D01*
Y5053D01*
X163414Y6121D01*
X162861Y7079D01*
X162079Y7861D01*
X161121Y8414D01*
X160053Y8700D01*
X158947D01*
X157879Y8414D01*
X156921Y7861D01*
X156139Y7079D01*
X155586Y6121D01*
X155300Y5053D01*
Y3947D01*
X155409Y3540D01*
X155045Y3063D01*
X153956Y3059D01*
X153589Y3535D01*
X153700Y3947D01*
Y5053D01*
X153414Y6121D01*
X152861Y7079D01*
X152079Y7861D01*
X151121Y8414D01*
X150053Y8700D01*
X148947D01*
X147879Y8414D01*
X146921Y7861D01*
X146139Y7079D01*
X145586Y6121D01*
X145300Y5053D01*
Y3947D01*
X145419Y3503D01*
X145054Y3027D01*
X143946Y3023D01*
X143580Y3498D01*
X143700Y3947D01*
Y5053D01*
X143414Y6121D01*
X142861Y7079D01*
X142079Y7861D01*
X141121Y8414D01*
X140053Y8700D01*
X138947D01*
X137879Y8414D01*
X136921Y7861D01*
X136139Y7079D01*
X135586Y6121D01*
X135300Y5053D01*
Y3947D01*
X135429Y3467D01*
X135064Y2990D01*
X133936Y2986D01*
X133570Y3461D01*
X133700Y3947D01*
Y5053D01*
X133414Y6121D01*
X132861Y7079D01*
X132079Y7861D01*
X131121Y8414D01*
X130053Y8700D01*
X128947D01*
X127879Y8414D01*
X126921Y7861D01*
X126139Y7079D01*
X125586Y6121D01*
X125300Y5053D01*
Y3947D01*
X125438Y3430D01*
X125074Y2954D01*
X123926Y2950D01*
X123560Y3425D01*
X123700Y3947D01*
Y5053D01*
X123414Y6121D01*
X122861Y7079D01*
X122079Y7861D01*
X121121Y8414D01*
X120053Y8700D01*
X118947D01*
X117879Y8414D01*
X116921Y7861D01*
X116139Y7079D01*
X115586Y6121D01*
X115300Y5053D01*
Y3947D01*
X115448Y3394D01*
X115084Y2917D01*
X113916Y2913D01*
X113550Y3388D01*
X113700Y3947D01*
Y5053D01*
X113414Y6121D01*
X112861Y7079D01*
X112079Y7861D01*
X111121Y8414D01*
X110053Y8700D01*
X108947D01*
X107879Y8414D01*
X106921Y7861D01*
X106139Y7079D01*
X105586Y6121D01*
X105300Y5053D01*
Y3947D01*
X105458Y3357D01*
X105094Y2881D01*
X104034Y2877D01*
X103574Y3475D01*
X103700Y3947D01*
Y5053D01*
X103414Y6121D01*
X102861Y7079D01*
X102079Y7861D01*
X101121Y8414D01*
X100053Y8700D01*
X98947D01*
X97879Y8414D01*
X96921Y7861D01*
X96139Y7079D01*
X95586Y6121D01*
X95300Y5053D01*
Y3947D01*
X95434Y3445D01*
X94974Y2844D01*
X94025Y2840D01*
X93564Y3438D01*
X93700Y3947D01*
Y5053D01*
X93414Y6121D01*
X92861Y7079D01*
X92079Y7861D01*
X91121Y8414D01*
X90053Y8700D01*
X88947D01*
X87879Y8414D01*
X86921Y7861D01*
X86139Y7079D01*
X85586Y6121D01*
X85300Y5053D01*
Y3947D01*
X85444Y3409D01*
X84984Y2807D01*
X83807Y2803D01*
X83347Y3401D01*
X83500Y3973D01*
Y5027D01*
X83227Y6044D01*
X82701Y6956D01*
X81956Y7701D01*
X81044Y8227D01*
X80027Y8500D01*
X78973D01*
X77956Y8227D01*
X77044Y7701D01*
X76299Y6956D01*
X75773Y6044D01*
X75500Y5027D01*
Y3973D01*
X75661Y3373D01*
X75216Y2771D01*
X73780Y2766D01*
X73337Y3365D01*
X73500Y3973D01*
Y5027D01*
X73227Y6044D01*
X72701Y6956D01*
X71956Y7701D01*
X71044Y8227D01*
X70027Y8500D01*
X68973D01*
X67956Y8227D01*
X67044Y7701D01*
X66299Y6956D01*
X65773Y6044D01*
X65500Y5027D01*
Y3973D01*
X65671Y3337D01*
X65244Y2735D01*
X63995Y2730D01*
X63534Y3329D01*
X63700Y3947D01*
Y5053D01*
X63414Y6121D01*
X62861Y7079D01*
X62079Y7861D01*
X61121Y8414D01*
X60053Y8700D01*
X58947D01*
X57879Y8414D01*
X56921Y7861D01*
X56139Y7079D01*
X55586Y6121D01*
X55300Y5053D01*
Y3947D01*
X55474Y3299D01*
X55027Y2698D01*
X53970Y2694D01*
X53525Y3292D01*
X53700Y3947D01*
Y5053D01*
X53414Y6121D01*
X52861Y7079D01*
X52079Y7861D01*
X51121Y8414D01*
X50053Y8700D01*
X48947D01*
X47879Y8414D01*
X46921Y7861D01*
X46139Y7079D01*
X45586Y6121D01*
X45300Y5053D01*
Y3947D01*
X45483Y3263D01*
X45055Y2661D01*
X1100Y2500D01*
X500Y2742D01*
Y102500D01*
X110065D01*
X110299Y102019D01*
D02*
G37*
G36*
X249162Y92800D02*
X249553Y92800D01*
X249800Y92433D01*
X250057Y91812D01*
Y91342D01*
X249878Y90908D01*
X249545Y90576D01*
X249112Y90396D01*
X248642D01*
X248208Y90576D01*
X247876Y90908D01*
X247696Y91342D01*
Y91812D01*
X247954Y92433D01*
X248447Y92800D01*
X249162D01*
D02*
G37*
G36*
X264500Y89250D02*
X256500Y81250D01*
X214000D01*
X209108Y76358D01*
X208520Y76475D01*
X208437Y76674D01*
X207818Y77293D01*
X207010Y77628D01*
X206134D01*
X205326Y77293D01*
X204707Y76674D01*
X204372Y75866D01*
Y74990D01*
X204386Y74957D01*
X203927Y74497D01*
X203438Y74700D01*
X202562D01*
X201754Y74365D01*
X201135Y73746D01*
X200929Y73250D01*
X152000D01*
X151000Y73000D01*
X146000Y68000D01*
Y67321D01*
X145800Y66838D01*
Y65962D01*
X146000Y65479D01*
Y50750D01*
X154469Y42281D01*
Y41931D01*
X154803Y41122D01*
X155422Y40503D01*
X156231Y40168D01*
X156581D01*
X157000Y39750D01*
X181000D01*
X205750Y15000D01*
X277000D01*
Y750D01*
X262538D01*
X262290Y1350D01*
X262861Y1921D01*
X263414Y2879D01*
X263700Y3947D01*
Y5053D01*
X263414Y6121D01*
X262861Y7079D01*
X262079Y7861D01*
X261121Y8414D01*
X260053Y8700D01*
X258947D01*
X257879Y8414D01*
X256921Y7861D01*
X256139Y7079D01*
X255586Y6121D01*
X255300Y5053D01*
Y3947D01*
X255586Y2879D01*
X256139Y1921D01*
X256710Y1350D01*
X256462Y750D01*
X252538D01*
X252290Y1350D01*
X252861Y1921D01*
X253414Y2879D01*
X253700Y3947D01*
Y5053D01*
X253414Y6121D01*
X252861Y7079D01*
X252079Y7861D01*
X251121Y8414D01*
X250053Y8700D01*
X248947D01*
X247879Y8414D01*
X246921Y7861D01*
X246139Y7079D01*
X245586Y6121D01*
X245300Y5053D01*
Y3947D01*
X245586Y2879D01*
X246139Y1921D01*
X246710Y1350D01*
X246462Y750D01*
X242538D01*
X242290Y1350D01*
X242861Y1921D01*
X243414Y2879D01*
X243700Y3947D01*
Y5053D01*
X243414Y6121D01*
X242861Y7079D01*
X242079Y7861D01*
X241121Y8414D01*
X240053Y8700D01*
X238947D01*
X237879Y8414D01*
X236921Y7861D01*
X236139Y7079D01*
X235586Y6121D01*
X235300Y5053D01*
Y3947D01*
X235586Y2879D01*
X236139Y1921D01*
X236710Y1350D01*
X236462Y750D01*
X232538D01*
X232290Y1350D01*
X232861Y1921D01*
X233414Y2879D01*
X233700Y3947D01*
Y5053D01*
X233414Y6121D01*
X232861Y7079D01*
X232079Y7861D01*
X231121Y8414D01*
X230053Y8700D01*
X228947D01*
X227879Y8414D01*
X226921Y7861D01*
X226139Y7079D01*
X225586Y6121D01*
X225300Y5053D01*
Y3947D01*
X225586Y2879D01*
X226139Y1921D01*
X226710Y1350D01*
X226462Y750D01*
X222538D01*
X222290Y1350D01*
X222861Y1921D01*
X223414Y2879D01*
X223700Y3947D01*
Y5053D01*
X223414Y6121D01*
X222861Y7079D01*
X222079Y7861D01*
X221121Y8414D01*
X220053Y8700D01*
X218947D01*
X217879Y8414D01*
X216921Y7861D01*
X216139Y7079D01*
X215586Y6121D01*
X215300Y5053D01*
Y3947D01*
X215586Y2879D01*
X216139Y1921D01*
X216710Y1350D01*
X216462Y750D01*
X212538D01*
X212290Y1350D01*
X212861Y1921D01*
X213414Y2879D01*
X213700Y3947D01*
Y5053D01*
X213414Y6121D01*
X212861Y7079D01*
X212079Y7861D01*
X211121Y8414D01*
X210053Y8700D01*
X208947D01*
X207879Y8414D01*
X206921Y7861D01*
X206139Y7079D01*
X205586Y6121D01*
X205300Y5053D01*
Y3947D01*
X205586Y2879D01*
X206139Y1921D01*
X206710Y1350D01*
X206462Y750D01*
X203500D01*
X202595Y1655D01*
X202861Y1921D01*
X203414Y2879D01*
X203700Y3947D01*
Y5053D01*
X203414Y6121D01*
X202861Y7079D01*
X202079Y7861D01*
X201121Y8414D01*
X200053Y8700D01*
X198947D01*
X197879Y8414D01*
X196921Y7861D01*
X196655Y7595D01*
X178500Y25750D01*
X159000D01*
X141456Y43294D01*
X141397Y43744D01*
X140994Y44717D01*
X140526Y45327D01*
Y50000D01*
X140500Y50197D01*
Y53000D01*
Y80250D01*
X134000Y86750D01*
X125969D01*
Y86806D01*
X125634Y87615D01*
X125015Y88234D01*
X124206Y88569D01*
X123331D01*
X122522Y88234D01*
X121903Y87615D01*
X121569Y86806D01*
Y86750D01*
X112500D01*
X107500Y81750D01*
Y57000D01*
X98417Y47917D01*
X95500Y47500D01*
X92996Y48994D01*
X93000Y52750D01*
X98938Y58688D01*
Y78357D01*
X99746Y78692D01*
X100365Y79311D01*
X100700Y80120D01*
Y80995D01*
X100365Y81804D01*
X99746Y82423D01*
X98938Y82758D01*
Y89082D01*
X104792Y94936D01*
X105387Y94858D01*
X105639Y94421D01*
X106421Y93639D01*
X107379Y93086D01*
X108447Y92800D01*
X109553D01*
X110621Y93086D01*
X111579Y93639D01*
X112361Y94421D01*
X112914Y95379D01*
X113200Y96447D01*
Y97553D01*
X112914Y98621D01*
X112361Y99579D01*
X111579Y100361D01*
X111142Y100613D01*
X111064Y101208D01*
X111606Y101750D01*
X118182D01*
X118261Y101150D01*
X117379Y100914D01*
X116421Y100361D01*
X115639Y99579D01*
X115086Y98621D01*
X114800Y97553D01*
Y96447D01*
X115086Y95379D01*
X115639Y94421D01*
X116421Y93639D01*
X117379Y93086D01*
X118447Y92800D01*
X119553D01*
X120621Y93086D01*
X121579Y93639D01*
X122361Y94421D01*
X122914Y95379D01*
X123200Y96447D01*
Y97553D01*
X122914Y98621D01*
X122361Y99579D01*
X121579Y100361D01*
X120621Y100914D01*
X119739Y101150D01*
X119818Y101750D01*
X128182D01*
X128261Y101150D01*
X127379Y100914D01*
X126421Y100361D01*
X125639Y99579D01*
X125086Y98621D01*
X124800Y97553D01*
Y96447D01*
X125086Y95379D01*
X125639Y94421D01*
X126421Y93639D01*
X127379Y93086D01*
X128447Y92800D01*
X129553D01*
X130621Y93086D01*
X131579Y93639D01*
X132361Y94421D01*
X132914Y95379D01*
X133200Y96447D01*
Y97553D01*
X132914Y98621D01*
X132361Y99579D01*
X131579Y100361D01*
X130621Y100914D01*
X129739Y101150D01*
X129818Y101750D01*
X138181D01*
X138260Y101150D01*
X137379Y100914D01*
X136421Y100361D01*
X135639Y99579D01*
X135086Y98621D01*
X134800Y97553D01*
Y96447D01*
X135086Y95379D01*
X135639Y94421D01*
X136421Y93639D01*
X137379Y93086D01*
X138447Y92800D01*
X139553D01*
X140621Y93086D01*
X141579Y93639D01*
X142361Y94421D01*
X142914Y95379D01*
X143200Y96447D01*
Y97553D01*
X142914Y98621D01*
X142361Y99579D01*
X141579Y100361D01*
X140621Y100914D01*
X139740Y101150D01*
X139819Y101750D01*
X148181D01*
X148260Y101150D01*
X147379Y100914D01*
X146421Y100361D01*
X145639Y99579D01*
X145086Y98621D01*
X144800Y97553D01*
Y96447D01*
X145086Y95379D01*
X145639Y94421D01*
X146421Y93639D01*
X147379Y93086D01*
X148447Y92800D01*
X149553D01*
X150621Y93086D01*
X151579Y93639D01*
X152361Y94421D01*
X152914Y95379D01*
X153200Y96447D01*
Y97553D01*
X152914Y98621D01*
X152361Y99579D01*
X151579Y100361D01*
X150621Y100914D01*
X149740Y101150D01*
X149819Y101750D01*
X158182D01*
X158261Y101150D01*
X157379Y100914D01*
X156421Y100361D01*
X155639Y99579D01*
X155086Y98621D01*
X154800Y97553D01*
Y96447D01*
X155086Y95379D01*
X155639Y94421D01*
X156421Y93639D01*
X157379Y93086D01*
X158447Y92800D01*
X159553D01*
X160621Y93086D01*
X161579Y93639D01*
X162361Y94421D01*
X162914Y95379D01*
X163200Y96447D01*
Y97553D01*
X162914Y98621D01*
X162361Y99579D01*
X161579Y100361D01*
X160621Y100914D01*
X159739Y101150D01*
X159818Y101750D01*
X168182D01*
X168261Y101150D01*
X167379Y100914D01*
X166421Y100361D01*
X165639Y99579D01*
X165086Y98621D01*
X164800Y97553D01*
Y96447D01*
X165086Y95379D01*
X165639Y94421D01*
X166421Y93639D01*
X167379Y93086D01*
X168447Y92800D01*
X169553D01*
X170621Y93086D01*
X171579Y93639D01*
X172361Y94421D01*
X172914Y95379D01*
X173200Y96447D01*
Y97553D01*
X172914Y98621D01*
X172361Y99579D01*
X171579Y100361D01*
X170621Y100914D01*
X169739Y101150D01*
X169818Y101750D01*
X178182D01*
X178261Y101150D01*
X177379Y100914D01*
X176421Y100361D01*
X175639Y99579D01*
X175086Y98621D01*
X174800Y97553D01*
Y96447D01*
X175086Y95379D01*
X175639Y94421D01*
X176421Y93639D01*
X177379Y93086D01*
X178447Y92800D01*
X179553D01*
X180621Y93086D01*
X181579Y93639D01*
X182361Y94421D01*
X182914Y95379D01*
X183200Y96447D01*
Y97553D01*
X182914Y98621D01*
X182361Y99579D01*
X181579Y100361D01*
X180621Y100914D01*
X179739Y101150D01*
X179818Y101750D01*
X188181D01*
X188260Y101150D01*
X187379Y100914D01*
X186421Y100361D01*
X185639Y99579D01*
X185086Y98621D01*
X184800Y97553D01*
Y96447D01*
X185086Y95379D01*
X185639Y94421D01*
X186421Y93639D01*
X187379Y93086D01*
X188447Y92800D01*
X189553D01*
X190621Y93086D01*
X191579Y93639D01*
X192361Y94421D01*
X192914Y95379D01*
X193200Y96447D01*
Y97553D01*
X192914Y98621D01*
X192361Y99579D01*
X191579Y100361D01*
X190621Y100914D01*
X189740Y101150D01*
X189819Y101750D01*
X198181D01*
X198260Y101150D01*
X197379Y100914D01*
X196421Y100361D01*
X195639Y99579D01*
X195086Y98621D01*
X194800Y97553D01*
Y96447D01*
X195086Y95379D01*
X195639Y94421D01*
X196421Y93639D01*
X197379Y93086D01*
X198447Y92800D01*
X199553D01*
X200621Y93086D01*
X201579Y93639D01*
X202361Y94421D01*
X202914Y95379D01*
X203200Y96447D01*
Y97553D01*
X202914Y98621D01*
X202361Y99579D01*
X201579Y100361D01*
X200621Y100914D01*
X199740Y101150D01*
X199819Y101750D01*
X208182D01*
X208260Y101150D01*
X207379Y100914D01*
X206421Y100361D01*
X205639Y99579D01*
X205086Y98621D01*
X204800Y97553D01*
Y96447D01*
X205086Y95379D01*
X205639Y94421D01*
X206421Y93639D01*
X207379Y93086D01*
X208447Y92800D01*
X209553D01*
X210621Y93086D01*
X211579Y93639D01*
X212361Y94421D01*
X212914Y95379D01*
X213200Y96447D01*
Y97553D01*
X212914Y98621D01*
X212361Y99579D01*
X211579Y100361D01*
X210621Y100914D01*
X209739Y101150D01*
X209819Y101750D01*
X218181D01*
X218261Y101150D01*
X217379Y100914D01*
X216421Y100361D01*
X215639Y99579D01*
X215086Y98621D01*
X214800Y97553D01*
Y96447D01*
X215086Y95379D01*
X215639Y94421D01*
X216421Y93639D01*
X217379Y93086D01*
X218447Y92800D01*
X219553D01*
X220621Y93086D01*
X221579Y93639D01*
X222361Y94421D01*
X222914Y95379D01*
X223200Y96447D01*
Y97553D01*
X222914Y98621D01*
X222361Y99579D01*
X221579Y100361D01*
X220621Y100914D01*
X219740Y101150D01*
X219818Y101750D01*
X228182D01*
X228260Y101150D01*
X227379Y100914D01*
X226421Y100361D01*
X225639Y99579D01*
X225086Y98621D01*
X224800Y97553D01*
Y96447D01*
X225086Y95379D01*
X225639Y94421D01*
X226421Y93639D01*
X227379Y93086D01*
X228447Y92800D01*
X229553D01*
X230621Y93086D01*
X231579Y93639D01*
X232361Y94421D01*
X232914Y95379D01*
X233200Y96447D01*
Y97553D01*
X232914Y98621D01*
X232361Y99579D01*
X231579Y100361D01*
X230621Y100914D01*
X229739Y101150D01*
X229819Y101750D01*
X238181D01*
X238261Y101150D01*
X237379Y100914D01*
X236421Y100361D01*
X235639Y99579D01*
X235086Y98621D01*
X234800Y97553D01*
Y96447D01*
X235086Y95379D01*
X235639Y94421D01*
X236421Y93639D01*
X237379Y93086D01*
X238447Y92800D01*
X239553D01*
X240621Y93086D01*
X241579Y93639D01*
X242361Y94421D01*
X242914Y95379D01*
X243200Y96447D01*
Y97553D01*
X242914Y98621D01*
X242361Y99579D01*
X241579Y100361D01*
X240621Y100914D01*
X239739Y101150D01*
X239819Y101750D01*
X248182D01*
X248260Y101150D01*
X247379Y100914D01*
X246421Y100361D01*
X245639Y99579D01*
X245086Y98621D01*
X244800Y97553D01*
Y96447D01*
X245086Y95379D01*
X245639Y94421D01*
X246421Y93639D01*
X246944Y93337D01*
X247012Y92823D01*
X246677Y92014D01*
Y91139D01*
X247012Y90331D01*
X247631Y89712D01*
X248439Y89377D01*
X249314D01*
X250123Y89712D01*
X250742Y90331D01*
X251077Y91139D01*
Y92014D01*
X250742Y92823D01*
X251069Y93345D01*
X251579Y93639D01*
X252361Y94421D01*
X252914Y95379D01*
X253200Y96447D01*
Y97553D01*
X252914Y98621D01*
X252361Y99579D01*
X251579Y100361D01*
X250621Y100914D01*
X249740Y101150D01*
X249818Y101750D01*
X264500D01*
Y89250D01*
D02*
G37*
G36*
X274500Y16020D02*
X206172D01*
X181721Y40471D01*
X181390Y40692D01*
X181000Y40770D01*
X157422D01*
X157302Y40889D01*
X156972Y41111D01*
X156581Y41188D01*
X156434D01*
X156000Y41368D01*
X155668Y41700D01*
X155488Y42134D01*
Y42281D01*
X155411Y42672D01*
X155190Y43003D01*
X147020Y51172D01*
Y63885D01*
X147519Y64218D01*
X147562Y64200D01*
X148438D01*
X149246Y64535D01*
X149865Y65154D01*
X150200Y65962D01*
Y66838D01*
X149865Y67646D01*
X149246Y68265D01*
X148758Y68467D01*
X148596Y69154D01*
X151521Y72079D01*
X152126Y72230D01*
X195451D01*
X195605Y71800D01*
X195619Y71630D01*
X195035Y71046D01*
X194700Y70238D01*
Y69362D01*
X195035Y68554D01*
X195654Y67935D01*
X196462Y67600D01*
X197338D01*
X198146Y67935D01*
X198765Y68554D01*
X199100Y69362D01*
Y70238D01*
X198765Y71046D01*
X198181Y71630D01*
X198195Y71800D01*
X198349Y72230D01*
X200800D01*
Y72062D01*
X201135Y71254D01*
X201754Y70635D01*
X202562Y70300D01*
X203438D01*
X204246Y70635D01*
X204865Y71254D01*
X205200Y72062D01*
Y72938D01*
X204865Y73746D01*
X205107Y74236D01*
X205328Y74567D01*
Y74567D01*
X205328Y74567D01*
X205372Y74787D01*
X205405Y74957D01*
X205405Y74957D01*
X205405Y74957D01*
X205392Y75027D01*
Y75663D01*
X205565Y76082D01*
X205919Y76435D01*
X206337Y76609D01*
X206807D01*
X207241Y76429D01*
X207573Y76097D01*
X207577Y76085D01*
X207633Y76001D01*
X207672Y75909D01*
X207743Y75838D01*
X207799Y75754D01*
X207882Y75698D01*
X207953Y75627D01*
X208046Y75589D01*
X208129Y75533D01*
X208228Y75513D01*
X208321Y75475D01*
X208909Y75358D01*
X209010D01*
X209108Y75338D01*
X209207Y75358D01*
X209307D01*
X209400Y75396D01*
X209498Y75416D01*
X209582Y75472D01*
X209674Y75510D01*
X209745Y75581D01*
X209829Y75637D01*
X214422Y80230D01*
X256500D01*
X256890Y80308D01*
X257221Y80529D01*
X265221Y88529D01*
X265442Y88860D01*
X265520Y89250D01*
Y101750D01*
X265490Y101900D01*
X265819Y102422D01*
X265923Y102500D01*
X274500D01*
Y16020D01*
D02*
G37*
G36*
X104000Y24000D02*
X80500D01*
Y42000D01*
X104000D01*
Y24000D01*
D02*
G37*
G36*
X260728Y7464D02*
X261453Y7045D01*
X262045Y6453D01*
X262464Y5728D01*
X262680Y4919D01*
Y4081D01*
X262513Y3456D01*
X256493Y3434D01*
X256320Y4081D01*
Y4919D01*
X256536Y5728D01*
X256955Y6453D01*
X257547Y7045D01*
X258272Y7464D01*
X259081Y7680D01*
X259919D01*
X260728Y7464D01*
D02*
G37*
%LPC*%
G36*
X89553Y101200D02*
X88447D01*
X87379Y100914D01*
X86421Y100361D01*
X85639Y99579D01*
X85086Y98621D01*
X84800Y97553D01*
Y96447D01*
X85086Y95379D01*
X85639Y94421D01*
X86421Y93639D01*
X87379Y93086D01*
X88447Y92800D01*
X89553D01*
X90621Y93086D01*
X91579Y93639D01*
X92361Y94421D01*
X92914Y95379D01*
X93200Y96447D01*
Y97553D01*
X92914Y98621D01*
X92361Y99579D01*
X91579Y100361D01*
X90621Y100914D01*
X89553Y101200D01*
D02*
G37*
G36*
X69553D02*
X68447D01*
X67379Y100914D01*
X66421Y100361D01*
X65639Y99579D01*
X65086Y98621D01*
X64800Y97553D01*
Y96447D01*
X65086Y95379D01*
X65639Y94421D01*
X66421Y93639D01*
X67379Y93086D01*
X68447Y92800D01*
X69553D01*
X70621Y93086D01*
X71579Y93639D01*
X72361Y94421D01*
X72914Y95379D01*
X73200Y96447D01*
Y97553D01*
X72914Y98621D01*
X72361Y99579D01*
X71579Y100361D01*
X70621Y100914D01*
X69553Y101200D01*
D02*
G37*
G36*
X39553D02*
X38447D01*
X37379Y100914D01*
X36421Y100361D01*
X35639Y99579D01*
X35086Y98621D01*
X34800Y97553D01*
Y96447D01*
X35086Y95379D01*
X35639Y94421D01*
X36421Y93639D01*
X37379Y93086D01*
X38447Y92800D01*
X39553D01*
X40621Y93086D01*
X41579Y93639D01*
X42361Y94421D01*
X42914Y95379D01*
X43200Y96447D01*
Y97553D01*
X42914Y98621D01*
X42361Y99579D01*
X41579Y100361D01*
X40621Y100914D01*
X39553Y101200D01*
D02*
G37*
G36*
X79553D02*
X78447D01*
X77379Y100914D01*
X76421Y100361D01*
X75639Y99579D01*
X75086Y98621D01*
X74800Y97553D01*
Y96447D01*
X75086Y95379D01*
X75639Y94421D01*
X76421Y93639D01*
X77379Y93086D01*
X78447Y92800D01*
X79553D01*
X79735Y92247D01*
X79117Y91628D01*
X78782Y90819D01*
Y89944D01*
X79117Y89135D01*
X79735Y88517D01*
X80544Y88182D01*
X81419D01*
X82228Y88517D01*
X82847Y89135D01*
X83182Y89944D01*
Y90819D01*
X82847Y91628D01*
X82228Y92247D01*
X81419Y92582D01*
X80947D01*
X80786Y93182D01*
X81579Y93639D01*
X82361Y94421D01*
X82914Y95379D01*
X83200Y96447D01*
Y97553D01*
X82914Y98621D01*
X82361Y99579D01*
X81579Y100361D01*
X80621Y100914D01*
X79553Y101200D01*
D02*
G37*
G36*
X38929Y82529D02*
X38133D01*
X37398Y82225D01*
X36835Y81662D01*
X36796Y81568D01*
X36433Y81495D01*
X35698Y81800D01*
X34902D01*
X34167Y81495D01*
X33604Y80933D01*
X33300Y80198D01*
Y79402D01*
X33604Y78667D01*
X34167Y78105D01*
X34902Y77800D01*
X35698D01*
X36433Y78105D01*
X36996Y78667D01*
X37035Y78762D01*
X37398Y78834D01*
X38133Y78529D01*
X38929D01*
X39664Y78834D01*
X40226Y79396D01*
X40531Y80131D01*
Y80927D01*
X40226Y81662D01*
X39664Y82225D01*
X38929Y82529D01*
D02*
G37*
G36*
X53898Y81050D02*
X53102D01*
X52367Y80746D01*
X51805Y80183D01*
X51500Y79448D01*
Y78652D01*
X51805Y77917D01*
X52272Y77450D01*
X51805Y76983D01*
X51500Y76248D01*
Y75452D01*
X51805Y74717D01*
X52367Y74155D01*
X53102Y73850D01*
X53898D01*
X54633Y74155D01*
X55195Y74717D01*
X55500Y75452D01*
Y76248D01*
X55195Y76983D01*
X54728Y77450D01*
X55195Y77917D01*
X55500Y78652D01*
Y79448D01*
X55195Y80183D01*
X54633Y80746D01*
X53898Y81050D01*
D02*
G37*
G36*
X92238Y77900D02*
X91362D01*
X90554Y77565D01*
X89935Y76946D01*
X89600Y76138D01*
Y75262D01*
X89935Y74454D01*
X90554Y73835D01*
X91362Y73500D01*
X92238D01*
X93046Y73835D01*
X93665Y74454D01*
X94000Y75262D01*
Y76138D01*
X93665Y76946D01*
X93046Y77565D01*
X92238Y77900D01*
D02*
G37*
G36*
X70458Y76300D02*
X69742D01*
X69080Y76026D01*
X68574Y75520D01*
X68300Y74858D01*
Y74142D01*
X68574Y73480D01*
X69080Y72974D01*
X69742Y72700D01*
X70458D01*
X71120Y72974D01*
X71626Y73480D01*
X71900Y74142D01*
Y74858D01*
X71626Y75520D01*
X71120Y76026D01*
X70458Y76300D01*
D02*
G37*
G36*
X39900Y58900D02*
X33900D01*
Y52900D01*
X33900D01*
X34244Y52300D01*
X34104Y52058D01*
X33900Y51295D01*
Y50505D01*
X34104Y49742D01*
X34499Y49058D01*
X34749Y48808D01*
X34997Y48400D01*
X34749Y47992D01*
X34499Y47742D01*
X34104Y47058D01*
X33900Y46295D01*
Y45505D01*
X34104Y44742D01*
X34499Y44058D01*
X35058Y43499D01*
X35742Y43104D01*
X36505Y42900D01*
X37295D01*
X38058Y43104D01*
X38742Y43499D01*
X39301Y44058D01*
X39696Y44742D01*
X39900Y45505D01*
Y46295D01*
X39696Y47058D01*
X39301Y47742D01*
X39051Y47992D01*
X38803Y48400D01*
X39051Y48808D01*
X39301Y49058D01*
X39696Y49742D01*
X39900Y50505D01*
Y51295D01*
X39696Y52058D01*
X39556Y52300D01*
X39900Y52900D01*
X39900D01*
Y58900D01*
D02*
G37*
G36*
X59553Y101200D02*
X58447D01*
X57379Y100914D01*
X56421Y100361D01*
X55639Y99579D01*
X55086Y98621D01*
X54800Y97553D01*
Y96447D01*
X55086Y95379D01*
X55639Y94421D01*
X56421Y93639D01*
X56433Y93632D01*
Y88541D01*
X56536Y87758D01*
X56839Y87028D01*
X57320Y86401D01*
X59066Y84655D01*
Y66054D01*
X59066Y66054D01*
X59203Y65010D01*
X59606Y64037D01*
X60247Y63201D01*
X67466Y55983D01*
Y35825D01*
X62847Y31207D01*
X62206Y30371D01*
X61803Y29398D01*
X61665Y28354D01*
X61665Y28354D01*
Y26300D01*
X61803Y25256D01*
X62206Y24283D01*
X62847Y23447D01*
X63683Y22806D01*
X64656Y22403D01*
X65700Y22265D01*
X66744Y22403D01*
X67717Y22806D01*
X68553Y23447D01*
X69194Y24283D01*
X69597Y25256D01*
X69735Y26300D01*
Y26683D01*
X74353Y31301D01*
X74994Y32137D01*
X75397Y33110D01*
X75534Y34154D01*
X75534Y34154D01*
Y57654D01*
X75397Y58698D01*
X74994Y59671D01*
X74353Y60507D01*
X74353Y60507D01*
X67134Y67725D01*
Y84900D01*
X66997Y85944D01*
X66594Y86917D01*
X65953Y87753D01*
X65117Y88394D01*
X64144Y88797D01*
X63382Y88897D01*
X62485Y89794D01*
Y94636D01*
X62914Y95379D01*
X63200Y96447D01*
Y97553D01*
X62914Y98621D01*
X62361Y99579D01*
X61579Y100361D01*
X60621Y100914D01*
X59553Y101200D01*
D02*
G37*
G36*
X50098Y27100D02*
X49302D01*
X48567Y26796D01*
X48004Y26233D01*
X47700Y25498D01*
Y24702D01*
X48004Y23967D01*
X48510Y23461D01*
X48501Y23109D01*
X48434Y22810D01*
X47932Y22603D01*
X47369Y22040D01*
X47065Y21305D01*
Y20509D01*
X47369Y19774D01*
X47932Y19211D01*
X48667Y18907D01*
X49463D01*
X50198Y19211D01*
X50760Y19774D01*
X51065Y20509D01*
Y21305D01*
X50760Y22040D01*
X50254Y22546D01*
X50264Y22898D01*
X50331Y23197D01*
X50833Y23404D01*
X51395Y23967D01*
X51700Y24702D01*
Y25498D01*
X51395Y26233D01*
X50833Y26796D01*
X50098Y27100D01*
D02*
G37*
G36*
X239938Y92200D02*
X239062D01*
X238254Y91865D01*
X237635Y91246D01*
X237300Y90438D01*
Y89562D01*
X237635Y88754D01*
X238254Y88135D01*
X239062Y87800D01*
X239938D01*
X240746Y88135D01*
X241365Y88754D01*
X241700Y89562D01*
Y90438D01*
X241365Y91246D01*
X240746Y91865D01*
X239938Y92200D01*
D02*
G37*
G36*
X153124Y89468D02*
X152249D01*
X151441Y89134D01*
X150822Y88515D01*
X150487Y87706D01*
Y86831D01*
X150822Y86022D01*
X151441Y85403D01*
X152249Y85069D01*
X153124D01*
X153933Y85403D01*
X154552Y86022D01*
X154887Y86831D01*
Y87706D01*
X154552Y88515D01*
X153933Y89134D01*
X153124Y89468D01*
D02*
G37*
%LPD*%
G36*
X153356Y88269D02*
X153688Y87937D01*
X153867Y87503D01*
Y87034D01*
X153688Y86600D01*
X153356Y86268D01*
X152922Y86088D01*
X152452D01*
X152018Y86268D01*
X151686Y86600D01*
X151506Y87034D01*
Y87503D01*
X151686Y87937D01*
X152018Y88269D01*
X152452Y88449D01*
X152922D01*
X153356Y88269D01*
D02*
G37*
%LPC*%
G36*
X248766Y73822D02*
X247891D01*
X247082Y73487D01*
X246464Y72868D01*
X246129Y72059D01*
Y71184D01*
X246464Y70376D01*
X247082Y69757D01*
X247891Y69422D01*
X248766D01*
X249575Y69757D01*
X250194Y70376D01*
X250529Y71184D01*
Y72059D01*
X250194Y72868D01*
X249575Y73487D01*
X248766Y73822D01*
D02*
G37*
G36*
X242073D02*
X241198D01*
X240390Y73487D01*
X239771Y72868D01*
X239436Y72059D01*
Y71184D01*
X239771Y70376D01*
X240390Y69757D01*
X241198Y69422D01*
X242073D01*
X242882Y69757D01*
X243501Y70376D01*
X243836Y71184D01*
Y72059D01*
X243501Y72868D01*
X242882Y73487D01*
X242073Y73822D01*
D02*
G37*
G36*
X235381D02*
X234505D01*
X233697Y73487D01*
X233078Y72868D01*
X232743Y72059D01*
Y71184D01*
X233078Y70376D01*
X233697Y69757D01*
X234505Y69422D01*
X235381D01*
X236189Y69757D01*
X236808Y70376D01*
X237143Y71184D01*
Y72059D01*
X236808Y72868D01*
X236189Y73487D01*
X235381Y73822D01*
D02*
G37*
G36*
X228688D02*
X227812D01*
X227004Y73487D01*
X226385Y72868D01*
X226050Y72059D01*
Y71184D01*
X226385Y70376D01*
X227004Y69757D01*
X227812Y69422D01*
X228688D01*
X229496Y69757D01*
X230115Y70376D01*
X230450Y71184D01*
Y72059D01*
X230115Y72868D01*
X229496Y73487D01*
X228688Y73822D01*
D02*
G37*
G36*
X221995D02*
X221119D01*
X220311Y73487D01*
X219692Y72868D01*
X219357Y72059D01*
Y71184D01*
X219692Y70376D01*
X220311Y69757D01*
X221119Y69422D01*
X221995D01*
X222803Y69757D01*
X223422Y70376D01*
X223757Y71184D01*
Y72059D01*
X223422Y72868D01*
X222803Y73487D01*
X221995Y73822D01*
D02*
G37*
G36*
X255438Y73800D02*
X254562D01*
X253754Y73465D01*
X253135Y72846D01*
X252800Y72038D01*
Y71162D01*
X253135Y70354D01*
X253754Y69735D01*
X254562Y69400D01*
X255438D01*
X256246Y69735D01*
X256865Y70354D01*
X257200Y71162D01*
Y72038D01*
X256865Y72846D01*
X256246Y73465D01*
X255438Y73800D01*
D02*
G37*
G36*
X191938Y70700D02*
X191062D01*
X190254Y70365D01*
X189635Y69746D01*
X189300Y68938D01*
Y68062D01*
X189635Y67254D01*
X190254Y66635D01*
X191062Y66300D01*
X191938D01*
X192746Y66635D01*
X193365Y67254D01*
X193700Y68062D01*
Y68938D01*
X193365Y69746D01*
X192746Y70365D01*
X191938Y70700D01*
D02*
G37*
G36*
X245366Y69222D02*
X244491D01*
X243683Y68887D01*
X243064Y68268D01*
X242729Y67459D01*
Y66584D01*
X243064Y65776D01*
X243683Y65157D01*
X244491Y64822D01*
X245366D01*
X246175Y65157D01*
X246794Y65776D01*
X247129Y66584D01*
Y67459D01*
X246794Y68268D01*
X246175Y68887D01*
X245366Y69222D01*
D02*
G37*
G36*
X238673D02*
X237798D01*
X236990Y68887D01*
X236371Y68268D01*
X236036Y67459D01*
Y66584D01*
X236371Y65776D01*
X236990Y65157D01*
X237798Y64822D01*
X238673D01*
X239482Y65157D01*
X240101Y65776D01*
X240436Y66584D01*
Y67459D01*
X240101Y68268D01*
X239482Y68887D01*
X238673Y69222D01*
D02*
G37*
G36*
X231980D02*
X231105D01*
X230297Y68887D01*
X229678Y68268D01*
X229343Y67459D01*
Y66584D01*
X229678Y65776D01*
X230297Y65157D01*
X231105Y64822D01*
X231980D01*
X232789Y65157D01*
X233408Y65776D01*
X233743Y66584D01*
Y67459D01*
X233408Y68268D01*
X232789Y68887D01*
X231980Y69222D01*
D02*
G37*
G36*
X225288D02*
X224412D01*
X223604Y68887D01*
X222985Y68268D01*
X222650Y67459D01*
Y66584D01*
X222985Y65776D01*
X223604Y65157D01*
X224412Y64822D01*
X225288D01*
X226096Y65157D01*
X226715Y65776D01*
X227050Y66584D01*
Y67459D01*
X226715Y68268D01*
X226096Y68887D01*
X225288Y69222D01*
D02*
G37*
G36*
X252038Y69200D02*
X251162D01*
X250354Y68865D01*
X249735Y68246D01*
X249400Y67438D01*
Y66562D01*
X249735Y65754D01*
X250354Y65135D01*
X251162Y64800D01*
X252038D01*
X252846Y65135D01*
X253465Y65754D01*
X253800Y66562D01*
Y67438D01*
X253465Y68246D01*
X252846Y68865D01*
X252038Y69200D01*
D02*
G37*
G36*
X178738Y67500D02*
X177862D01*
X177054Y67165D01*
X176435Y66546D01*
X176100Y65738D01*
Y64862D01*
X176435Y64054D01*
X177054Y63435D01*
X177862Y63100D01*
X178738D01*
X179546Y63435D01*
X180165Y64054D01*
X180500Y64862D01*
Y65738D01*
X180165Y66546D01*
X179546Y67165D01*
X178738Y67500D01*
D02*
G37*
G36*
X184438Y70200D02*
X183562D01*
X182754Y69865D01*
X182135Y69246D01*
X181800Y68438D01*
Y67562D01*
X182135Y66754D01*
X182754Y66135D01*
X183562Y65800D01*
X183860D01*
X183979Y65200D01*
X183654Y65065D01*
X183035Y64446D01*
X182700Y63638D01*
Y62762D01*
X183035Y61954D01*
X183654Y61335D01*
X184462Y61000D01*
X185338D01*
X186146Y61335D01*
X186765Y61954D01*
X187100Y62762D01*
Y63638D01*
X186765Y64446D01*
X186146Y65065D01*
X185338Y65400D01*
X185040D01*
X184921Y66000D01*
X185246Y66135D01*
X185865Y66754D01*
X186200Y67562D01*
Y68438D01*
X185865Y69246D01*
X185246Y69865D01*
X184438Y70200D01*
D02*
G37*
G36*
X224238Y60600D02*
X223362D01*
X222554Y60265D01*
X221935Y59646D01*
X221600Y58838D01*
Y57962D01*
X221935Y57154D01*
X222554Y56535D01*
X223362Y56200D01*
X224238D01*
X225046Y56535D01*
X225665Y57154D01*
X226000Y57962D01*
Y58838D01*
X225665Y59646D01*
X225046Y60265D01*
X224238Y60600D01*
D02*
G37*
G36*
X165238Y60000D02*
X164362D01*
X163554Y59665D01*
X162935Y59046D01*
X162600Y58238D01*
Y57362D01*
X162935Y56554D01*
X163554Y55935D01*
X164362Y55600D01*
X165238D01*
X166046Y55935D01*
X166665Y56554D01*
X167000Y57362D01*
Y58238D01*
X166665Y59046D01*
X166046Y59665D01*
X165238Y60000D01*
D02*
G37*
G36*
X157938Y56500D02*
X157062D01*
X156254Y56165D01*
X155635Y55546D01*
X155300Y54738D01*
Y53862D01*
X155635Y53054D01*
X156254Y52435D01*
X157062Y52100D01*
X157938D01*
X158746Y52435D01*
X159365Y53054D01*
X159700Y53862D01*
Y54738D01*
X159365Y55546D01*
X158746Y56165D01*
X157938Y56500D01*
D02*
G37*
G36*
X207998Y54200D02*
X207202D01*
X206467Y53895D01*
X205905Y53333D01*
X205600Y52598D01*
Y51802D01*
X205905Y51067D01*
X206467Y50504D01*
X207202Y50200D01*
X207998D01*
X208733Y50504D01*
X209296Y51067D01*
X209600Y51802D01*
Y52598D01*
X209296Y53333D01*
X208733Y53895D01*
X207998Y54200D01*
D02*
G37*
G36*
X180198Y52900D02*
X179402D01*
X178667Y52596D01*
X178104Y52033D01*
X177800Y51298D01*
Y50502D01*
X178104Y49767D01*
X178667Y49204D01*
X179402Y48900D01*
X180198D01*
X180933Y49204D01*
X181495Y49767D01*
X181800Y50502D01*
Y51298D01*
X181495Y52033D01*
X180933Y52596D01*
X180198Y52900D01*
D02*
G37*
G36*
X180298Y48300D02*
X179502D01*
X178767Y47995D01*
X178205Y47433D01*
X177900Y46698D01*
Y45902D01*
X178205Y45167D01*
X178767Y44605D01*
X179502Y44300D01*
X180298D01*
X181033Y44605D01*
X181596Y45167D01*
X181900Y45902D01*
Y46698D01*
X181596Y47433D01*
X181033Y47995D01*
X180298Y48300D01*
D02*
G37*
G36*
X207998Y46800D02*
X207202D01*
X206467Y46496D01*
X205905Y45933D01*
X205600Y45198D01*
Y44402D01*
X205905Y43667D01*
X206467Y43104D01*
X207202Y42800D01*
X207998D01*
X208733Y43104D01*
X209296Y43667D01*
X209600Y44402D01*
Y45198D01*
X209296Y45933D01*
X208733Y46496D01*
X207998Y46800D01*
D02*
G37*
G36*
X194938Y42600D02*
X194062D01*
X193254Y42265D01*
X192942Y41953D01*
X192550Y41701D01*
X192158Y41953D01*
X191846Y42265D01*
X191038Y42600D01*
X190162D01*
X189354Y42265D01*
X188735Y41646D01*
X188400Y40838D01*
Y39962D01*
X188735Y39154D01*
X189354Y38535D01*
X190162Y38200D01*
X191038D01*
X191846Y38535D01*
X192158Y38847D01*
X192550Y39099D01*
X192942Y38847D01*
X193254Y38535D01*
X194062Y38200D01*
X194938D01*
X195746Y38535D01*
X196365Y39154D01*
X196700Y39962D01*
Y40838D01*
X196365Y41646D01*
X195746Y42265D01*
X194938Y42600D01*
D02*
G37*
G36*
X204938Y42900D02*
X204062D01*
X203254Y42565D01*
X202635Y41946D01*
X202300Y41138D01*
Y40492D01*
X201845Y40106D01*
X201746Y40072D01*
X201438Y40200D01*
X200562D01*
X199754Y39865D01*
X199135Y39246D01*
X198800Y38438D01*
Y37562D01*
X199135Y36754D01*
X199754Y36135D01*
X200562Y35800D01*
X201438D01*
X202246Y36135D01*
X202865Y36754D01*
X203200Y37562D01*
Y38208D01*
X203655Y38594D01*
X203754Y38628D01*
X204062Y38500D01*
X204938D01*
X205746Y38835D01*
X206365Y39454D01*
X206700Y40262D01*
Y41138D01*
X206365Y41946D01*
X205746Y42565D01*
X204938Y42900D01*
D02*
G37*
G36*
X221938Y36200D02*
X221062D01*
X220254Y35865D01*
X219635Y35246D01*
X219300Y34438D01*
Y33562D01*
X219635Y32754D01*
X220254Y32135D01*
X221062Y31800D01*
X221938D01*
X222746Y32135D01*
X223365Y32754D01*
X223700Y33562D01*
Y34438D01*
X223365Y35246D01*
X222746Y35865D01*
X221938Y36200D01*
D02*
G37*
G36*
X252210Y34570D02*
X251334D01*
X250526Y34236D01*
X249907Y33617D01*
X249572Y32808D01*
Y31933D01*
X249907Y31124D01*
X250526Y30505D01*
X251334Y30170D01*
X252210D01*
X253018Y30505D01*
X253637Y31124D01*
X253972Y31933D01*
Y32808D01*
X253637Y33617D01*
X253018Y34236D01*
X252210Y34570D01*
D02*
G37*
G36*
X245517D02*
X244641D01*
X243833Y34236D01*
X243214Y33617D01*
X242879Y32808D01*
Y31933D01*
X243214Y31124D01*
X243833Y30505D01*
X244641Y30170D01*
X245517D01*
X246325Y30505D01*
X246944Y31124D01*
X247279Y31933D01*
Y32808D01*
X246944Y33617D01*
X246325Y34236D01*
X245517Y34570D01*
D02*
G37*
G36*
X238824D02*
X237949D01*
X237140Y34236D01*
X236521Y33617D01*
X236186Y32808D01*
Y31933D01*
X236521Y31124D01*
X237140Y30505D01*
X237949Y30170D01*
X238824D01*
X239632Y30505D01*
X240251Y31124D01*
X240586Y31933D01*
Y32808D01*
X240251Y33617D01*
X239632Y34236D01*
X238824Y34570D01*
D02*
G37*
G36*
X232131D02*
X231256D01*
X230447Y34236D01*
X229828Y33617D01*
X229493Y32808D01*
Y31933D01*
X229828Y31124D01*
X230447Y30505D01*
X231256Y30170D01*
X232131D01*
X232940Y30505D01*
X233558Y31124D01*
X233893Y31933D01*
Y32808D01*
X233558Y33617D01*
X232940Y34236D01*
X232131Y34570D01*
D02*
G37*
G36*
X198438Y35200D02*
X197562D01*
X196754Y34865D01*
X196135Y34246D01*
X195800Y33438D01*
Y32562D01*
X196135Y31754D01*
X196754Y31135D01*
X197562Y30800D01*
X198008D01*
X198409Y30200D01*
X198300Y29938D01*
Y29062D01*
X198635Y28254D01*
X199254Y27635D01*
X200062Y27300D01*
X200938D01*
X201746Y27635D01*
X202365Y28254D01*
X202700Y29062D01*
Y29938D01*
X202365Y30746D01*
X201746Y31365D01*
X200938Y31700D01*
X200492D01*
X200091Y32300D01*
X200200Y32562D01*
Y33438D01*
X199865Y34246D01*
X199246Y34865D01*
X198438Y35200D01*
D02*
G37*
G36*
X255503Y29970D02*
X254627D01*
X253819Y29636D01*
X253200Y29017D01*
X252865Y28208D01*
Y27333D01*
X253200Y26524D01*
X253819Y25905D01*
X254627Y25570D01*
X255503D01*
X256311Y25905D01*
X256930Y26524D01*
X257265Y27333D01*
Y28208D01*
X256930Y29017D01*
X256311Y29636D01*
X255503Y29970D01*
D02*
G37*
G36*
X248810D02*
X247934D01*
X247126Y29636D01*
X246507Y29017D01*
X246172Y28208D01*
Y27333D01*
X246507Y26524D01*
X247126Y25905D01*
X247934Y25570D01*
X248810D01*
X249618Y25905D01*
X250237Y26524D01*
X250572Y27333D01*
Y28208D01*
X250237Y29017D01*
X249618Y29636D01*
X248810Y29970D01*
D02*
G37*
G36*
X242117D02*
X241242D01*
X240433Y29636D01*
X239814Y29017D01*
X239479Y28208D01*
Y27333D01*
X239814Y26524D01*
X240433Y25905D01*
X241242Y25570D01*
X242117D01*
X242925Y25905D01*
X243544Y26524D01*
X243879Y27333D01*
Y28208D01*
X243544Y29017D01*
X242925Y29636D01*
X242117Y29970D01*
D02*
G37*
G36*
X235424D02*
X234549D01*
X233740Y29636D01*
X233121Y29017D01*
X232786Y28208D01*
Y27333D01*
X233121Y26524D01*
X233740Y25905D01*
X234549Y25570D01*
X235424D01*
X236232Y25905D01*
X236851Y26524D01*
X237186Y27333D01*
Y28208D01*
X236851Y29017D01*
X236232Y29636D01*
X235424Y29970D01*
D02*
G37*
G36*
X225438Y31200D02*
X224562D01*
X223754Y30865D01*
X223135Y30246D01*
X222800Y29438D01*
Y28562D01*
X223135Y27754D01*
X223754Y27135D01*
X224562Y26800D01*
X225438D01*
X226186Y27110D01*
X226428Y26524D01*
X227047Y25905D01*
X227856Y25570D01*
X228731D01*
X229539Y25905D01*
X230158Y26524D01*
X230493Y27333D01*
Y28208D01*
X230158Y29017D01*
X229539Y29636D01*
X228731Y29970D01*
X227856D01*
X227108Y29661D01*
X226865Y30246D01*
X226246Y30865D01*
X225438Y31200D01*
D02*
G37*
%LPD*%
D74*
X269500Y4500D02*
D03*
X269000Y97000D02*
D03*
D75*
X259500Y4500D02*
D03*
X249500D02*
D03*
X239500D02*
D03*
X229500D02*
D03*
X219500D02*
D03*
X209500D02*
D03*
X199500D02*
D03*
X189500D02*
D03*
X179500D02*
D03*
X169500D02*
D03*
X159500D02*
D03*
X149500D02*
D03*
X139500D02*
D03*
X129500D02*
D03*
X119500D02*
D03*
X109500D02*
D03*
X99500D02*
D03*
X89500D02*
D03*
X79500D02*
D03*
X69500D02*
D03*
X59500D02*
D03*
X49500D02*
D03*
X39500D02*
D03*
X259000Y97000D02*
D03*
X249000D02*
D03*
X239000D02*
D03*
X229000D02*
D03*
X219000D02*
D03*
X209000D02*
D03*
X199000D02*
D03*
X189000D02*
D03*
X179000D02*
D03*
X169000D02*
D03*
X159000D02*
D03*
X149000D02*
D03*
X139000D02*
D03*
X129000D02*
D03*
X119000D02*
D03*
X109000D02*
D03*
X99000D02*
D03*
X89000D02*
D03*
X79000D02*
D03*
X69000D02*
D03*
X59000D02*
D03*
X49000D02*
D03*
X39000D02*
D03*
D76*
X8543Y62484D02*
D03*
Y96492D02*
D03*
Y38008D02*
D03*
Y4000D02*
D03*
D77*
X25000Y96500D02*
D03*
Y62484D02*
D03*
Y4000D02*
D03*
Y38016D02*
D03*
D78*
X36900Y45900D02*
D03*
Y50900D02*
D03*
X142500Y50000D02*
D03*
D79*
X36900Y55900D02*
D03*
D80*
X137500Y50000D02*
D03*
D81*
X273000Y18000D02*
D03*
X53200Y82800D02*
D03*
X207600Y52200D02*
D03*
X90500Y39000D02*
D03*
X74500Y78500D02*
D03*
X79000Y82000D02*
D03*
X74500D02*
D03*
X93500Y35043D02*
D03*
X206572Y75428D02*
D03*
X45500Y70000D02*
D03*
X54500Y70500D02*
D03*
X35000Y8400D02*
D03*
X57400Y40300D02*
D03*
X54300Y33250D02*
D03*
X32200Y37000D02*
D03*
X44100Y31800D02*
D03*
X42917Y15591D02*
D03*
X59100Y18500D02*
D03*
X18500Y65800D02*
D03*
X36500Y37600D02*
D03*
X75800Y91300D02*
D03*
X84700Y54700D02*
D03*
Y61800D02*
D03*
X45827Y78427D02*
D03*
X58363Y63437D02*
D03*
X43000Y80700D02*
D03*
X40200Y75700D02*
D03*
X94575Y57625D02*
D03*
X96700Y60800D02*
D03*
X52900Y89900D02*
D03*
X88522Y91621D02*
D03*
X79800Y70100D02*
D03*
X35400Y90800D02*
D03*
X77900Y60100D02*
D03*
X76951Y33010D02*
D03*
X209500Y22000D02*
D03*
X258172Y31328D02*
D03*
X128165Y40468D02*
D03*
X156668Y42369D02*
D03*
X261826Y27839D02*
D03*
X171768Y19769D02*
D03*
X162669Y66768D02*
D03*
X211500Y52000D02*
D03*
Y45000D02*
D03*
X123768Y86369D02*
D03*
X152687Y87269D02*
D03*
X233200Y56100D02*
D03*
X233246Y49650D02*
D03*
Y43154D02*
D03*
X256762Y43246D02*
D03*
Y49742D02*
D03*
Y56238D02*
D03*
X244958Y61454D02*
D03*
X245050Y37938D02*
D03*
X248300Y53100D02*
D03*
X248346Y46346D02*
D03*
X241600Y46400D02*
D03*
X248877Y91577D02*
D03*
X264800Y82200D02*
D03*
X265083Y73292D02*
D03*
X268472Y70000D02*
D03*
X268600Y32964D02*
D03*
Y36310D02*
D03*
Y29617D02*
D03*
Y59735D02*
D03*
Y46350D02*
D03*
Y53043D02*
D03*
Y73121D02*
D03*
Y66428D02*
D03*
Y56389D02*
D03*
Y26271D02*
D03*
Y63082D02*
D03*
Y39657D02*
D03*
Y43003D02*
D03*
Y49696D02*
D03*
X92400Y23700D02*
D03*
X83400Y39500D02*
D03*
X78300Y20900D02*
D03*
X84900Y17400D02*
D03*
X84700Y20800D02*
D03*
X81400Y20700D02*
D03*
X81600Y17500D02*
D03*
X78300Y17600D02*
D03*
X65700Y26300D02*
D03*
X70100Y74500D02*
D03*
X98500Y80558D02*
D03*
X96500Y50600D02*
D03*
X269600Y12900D02*
D03*
X254200Y88800D02*
D03*
X258400Y89100D02*
D03*
X110300Y91400D02*
D03*
X190600Y78000D02*
D03*
X72500Y50800D02*
D03*
X38531Y80529D02*
D03*
X35300Y79800D02*
D03*
X53500Y79050D02*
D03*
Y75850D02*
D03*
X49700Y25100D02*
D03*
X49065Y20907D02*
D03*
X114400Y26200D02*
D03*
X116330Y22900D02*
D03*
X179900Y46300D02*
D03*
X179800Y50900D02*
D03*
X207600Y44800D02*
D03*
X91800Y75700D02*
D03*
X204500Y40700D02*
D03*
X157500Y54300D02*
D03*
X164800Y57800D02*
D03*
X223800Y58400D02*
D03*
X190600Y40400D02*
D03*
X194500D02*
D03*
X196900Y69800D02*
D03*
X184900Y63200D02*
D03*
X178300Y65300D02*
D03*
X188400Y20500D02*
D03*
X148000Y66400D02*
D03*
X80982Y90382D02*
D03*
X198000Y33000D02*
D03*
X184000Y68000D02*
D03*
X191500Y68500D02*
D03*
X203000Y72500D02*
D03*
X239500Y90000D02*
D03*
X201000Y38000D02*
D03*
X200500Y29500D02*
D03*
X225000Y29000D02*
D03*
X221500Y34000D02*
D03*
X228293Y27770D02*
D03*
X221557Y71622D02*
D03*
X255065Y27770D02*
D03*
X248372D02*
D03*
X251772Y32370D02*
D03*
X241679Y27770D02*
D03*
X245079Y32370D02*
D03*
X234986Y27770D02*
D03*
X238386Y32370D02*
D03*
X231693D02*
D03*
X228250Y71622D02*
D03*
X224850Y67022D02*
D03*
X234943Y71622D02*
D03*
X231543Y67022D02*
D03*
X241636Y71622D02*
D03*
X238236Y67022D02*
D03*
X248329Y71622D02*
D03*
X244929Y67022D02*
D03*
X251600Y67000D02*
D03*
X255000Y71600D02*
D03*
D82*
X92400Y23700D02*
Y33900D01*
Y22300D02*
Y23700D01*
Y33900D02*
X93500Y35000D01*
X92400Y22300D02*
X98300Y16400D01*
X71500Y34154D02*
Y57654D01*
X65700Y28354D02*
X71500Y34154D01*
X65700Y26300D02*
Y28354D01*
X98300Y16400D02*
X129300D01*
X63100Y66054D02*
X71500Y57654D01*
X63100Y66054D02*
Y84900D01*
X137500Y24600D02*
Y42700D01*
X129300Y16400D02*
X137500Y24600D01*
D83*
X142500Y46185D02*
Y86000D01*
Y46185D02*
X155343Y33343D01*
X175557D02*
X188400Y20500D01*
X155343Y33343D02*
X175557D01*
X188400Y20500D02*
X196000Y12900D01*
X269600D01*
X258541Y89241D02*
Y96541D01*
X258400Y89100D02*
X258541Y89241D01*
Y96541D02*
X259000Y97000D01*
X254200Y88800D02*
X254500Y89100D01*
X258400D01*
X248800Y83400D02*
X254200Y88800D01*
X208604Y83400D02*
X248800D01*
X203204Y78000D02*
X208604Y83400D01*
X190600Y78000D02*
X203204D01*
X96500Y50600D02*
X102700Y56800D01*
Y84600D01*
X137900Y90600D02*
X142500Y86000D01*
X108700Y90600D02*
X137900D01*
X102700Y84600D02*
X108700Y90600D01*
X59459Y88541D02*
X63100Y84900D01*
X59459Y88541D02*
Y96541D01*
X59000Y97000D02*
X59459Y96541D01*
X137500Y42700D02*
Y50000D01*
M02*
