M48
;Layer_Color=9474304
;FILE_FORMAT=2:5
INCH,LZ
;TYPE=PLATED
T01F00S00C0.01200
T03F00S00C0.02953
T04F00S00C0.03937
%
T01
X0035Y00084
X0042917Y0015591
X0049065Y0020907
X00497Y00251
X00441Y00318
X00543Y003325
X00574Y00403
X00657Y00263
X00591Y00185
X00783Y00176
Y00209
X00814Y00207
X00847Y00208
X00849Y00174
X00816Y00175
X00924Y00237
X00935Y0035043
X00905Y0039
X00834Y00395
X0076951Y003301
X00725Y00508
X00779Y00601
X00847Y00618
Y00547
X0094575Y0057625
X00967Y00608
X00965Y00506
X00918Y00757
X00985Y0080558
X0079Y0082
X00745
Y00785
X00701Y00745
X00798Y00701
X0080982Y0090382
X00758Y00913
X0088522Y0091621
X01103Y00914
X00529Y00899
X00532Y00828
X00535Y007905
Y007585
X00545Y00705
X00455Y007
X0045827Y0078427
X0043Y00807
X0038531Y0080529
X00353Y00798
X00402Y00757
X00354Y00908
X00185Y00658
X0058363Y0063437
X00365Y00376
X00322Y0037
X01144Y00262
X011633Y00229
X0128165Y0040468
X0156668Y0042369
X01575Y00543
X01648Y00578
X0162669Y0066768
X0148Y00664
X0152687Y0087269
X0123768Y0086369
X01906Y0078
X01915Y00685
X01969Y00698
X0203Y00725
X0206572Y0075428
X0221557Y0071622
X022825
X0234943
X0241636
X0248329
X0255Y00716
X02516Y0067
X0244929Y0067022
X0244958Y0061454
X02483Y00531
X0248346Y0046346
X02416Y00464
X0233246Y0043154
Y004965
X02332Y00561
X02238Y00584
X022485Y0067022
X0231543
X0238236
X02395Y009
X0248877Y0091577
X02542Y00888
X02584Y00891
X02648Y00822
X0265083Y0073292
X0256762Y0056238
Y0049742
Y0043246
X0258172Y0031328
X0255065Y002777
X0248372
X0241679
X0234986
X0228293
X0225Y0029
X02215Y0034
X0231693Y003237
X0238386
X0245079
X024505Y0037938
X0251772Y003237
X0261826Y0027839
X02095Y0022
X02005Y00295
X0198Y0033
X0201Y0038
X02045Y00407
X02076Y00448
X02115Y0045
Y0052
X02076Y00522
X01945Y00404
X01906
X01799Y00463
X01798Y00509
X01783Y00653
X0184Y0068
X01849Y00632
X01884Y00205
X0171768Y0019769
X0273Y0018
X02696Y00129
X02686Y0026271
Y0029617
Y0032964
Y003631
Y0039657
Y0043003
Y004635
Y0049696
Y0053043
Y0056389
Y0059735
Y0063082
Y0066428
X0268472Y007
X02686Y0073121
T03
X00369Y00459
Y00509
Y00559
X01375Y005
X01425
T04
X02695Y00045
X02595
X02495
X02395
X02295
X02195
X02095
X01995
X01895
X01795
X01695
X01595
X01495
X01395
X01295
X01195
X01095
X00995
X00895
X00795
X00695
X00595
X00495
X00395
X0039Y0097
X0049
X0059
X0069
X0079
X0089
X0099
X0109
X0119
X0129
X0139
X0149
X0159
X0169
X0179
X0189
X0199
X0209
X0219
X0229
X0239
X0249
X0259
X0269
M30
