M48
;Layer_Color=9474304
;FILE_FORMAT=2:5
INCH,LZ
;TYPE=PLATED
T01F00S00C0.01200
T03F00S00C0.03937
T04F00S00C0.04173
T05F00S00C0.04331
%
T01
X0030091Y0009409
X0028528Y0015118
X00376Y00119
X00514Y00159
X0048562Y0018938
X00512Y00229
X00487Y0026
X00397Y00307
X0033547
X0029496Y0026929
X00295Y00404
X00635Y00536
X00786Y00513
X00783Y00465
X00877Y00462
X00873Y0039
X00875Y00356
X00874Y00324
X00872Y0029
X00911
Y00324
X0091Y00355
X00949Y00356
X00948Y00324
X00949Y00291
X00851Y00182
Y0015
X00782Y00152
X00823Y00198
X0069456Y0032391
X00911Y00533
X01225Y00397
X0127402Y0039698
X01525Y004
X0166804Y00411
X0166Y002
X0159Y0017
X0181Y00197
X0184Y00357
X01874
X0195571Y0036097
X0198962Y0035838
X0199903Y0029397
X0203381Y0032621
X0207Y00232
X020751Y0044991
X0204321Y004525
X02044Y00514
X02077Y00513
X01915Y00498
Y0046506
X01882Y00457
X01876Y00518
X0182Y0051366
X01792Y00538
X02285Y0050004
Y0043508
X02362Y00467
X02427
Y00533
X02362Y00532
X0239499Y0038997
X023621Y0032406
X0242903
X0249596
X0252889Y0027486
X0256235
X0262017Y0026575
Y0029921
Y0033268
Y0036614
Y0039961
Y0043307
Y0046654
Y005
Y0053347
X0250506Y0049996
Y00435
X0246196Y0027486
X0239503
X023281
X0226117
X0219424Y00277
X0222824Y0032406
X0229517
X0216081Y00328
X0265628Y0019128
X0262017Y0056693
Y0060039
Y0063386
Y0066732
Y0070079
Y0073425
X0259582Y0072514
X02573Y00683
X02495Y0072
X02429Y007212
X0236157Y0072514
X0229464
X0222771
X0216078
X0219371Y0067594
X0226064
X0232756
X02395Y00672
X0239507Y0061003
X0246193Y00672
X0250506Y0056492
X02285Y00565
X02502Y00898
X0253524Y00885
X02567Y00886
X0261Y00815
X0203153Y00743
X01905Y00703
X0188434Y00676
X019Y006
X0184Y00625
X01845Y00565
X01955Y00649
X01825Y00758
X0166Y008
X016Y00795
X013298Y008248
X01157Y0070653
X00993Y00802
X00932Y00776
X00876Y00714
X00905Y00637
X00909Y00583
X0081315Y00595
X007572Y0057393
X0071691Y0063991
X00749Y0073
X0067
X00672Y00808
X00746Y00807
X0074512Y0088765
X0071Y00888
X00599Y00883
Y008
X00595Y0067
X008694Y0089178
X0053524Y0089043
X0049782Y0085329
X00505Y00812
X0049665Y0077813
X0050451Y0074427
X0053433Y0066155
X00547Y0063
X00501Y00617
X00466Y00653
X0037381Y0071619
X0042953Y008207
X00427Y00888
X00293Y00844
X00205Y00841
X00199Y00908
X00296Y00597
T03
X01375Y005
X01475
T04
X0035Y0005
X0045
X0055
X0065
X0075
X0085
X0095
X0105
X0115
X0125
X0135
X0145
X0155
X0165
X0175
X0185
X0195
X0205
X0215
X0225
X0235
X0245
X0255
X0265
Y0095
X0255
X0245
X0235
X0225
X0215
X0205
X0195
X0185
X0175
X0165
X0155
X0145
X0135
X0125
X0115
X0105
X0095
X0085
X0075
X0065
X0055
X0045
X0035
T05
X00368Y00416
Y0051836
Y0062072
M30
