G04*
G04 #@! TF.GenerationSoftware,Altium Limited,Altium Designer,24.8.2 (39)*
G04*
G04 Layer_Color=32896*
%FSLAX25Y25*%
%MOIN*%
G70*
G04*
G04 #@! TF.SameCoordinates,D8F2EBC3-14D6-4E67-A03A-7C1A90F15A13*
G04*
G04*
G04 #@! TF.FilePolarity,Positive*
G04*
G01*
G75*
%ADD11C,0.01000*%
%ADD14C,0.00600*%
D11*
X29500Y-500D02*
X270500Y-500D01*
X29500Y-500D02*
Y10500D01*
X270500Y10500D01*
Y-500D02*
Y10500D01*
X29500Y89500D02*
X270500Y89500D01*
X29500Y89500D02*
Y100500D01*
X270500Y100500D01*
Y89500D02*
Y100500D01*
X154100Y35299D02*
Y34632D01*
X152767Y33299D01*
X151434Y34632D01*
Y35299D01*
X152767Y33299D02*
Y31300D01*
X150101D02*
Y33966D01*
X148768Y35299D01*
X147435Y33966D01*
Y31300D01*
Y33299D01*
X150101D01*
X143437Y34632D02*
X144103Y35299D01*
X145436D01*
X146103Y34632D01*
Y33966D01*
X145436Y33299D01*
X144103D01*
X143437Y32633D01*
Y31966D01*
X144103Y31300D01*
X145436D01*
X146103Y31966D01*
X142104Y31300D02*
Y35299D01*
X140771Y33966D01*
X139438Y35299D01*
Y31300D01*
X135439Y35299D02*
X138105D01*
Y31300D01*
X135439D01*
X138105Y33299D02*
X136772D01*
X131441Y35299D02*
X134106D01*
Y31300D01*
X131441D01*
X134106Y33299D02*
X132774D01*
X130108Y31300D02*
Y35299D01*
X127442Y31300D01*
Y35299D01*
X122110Y31300D02*
Y33966D01*
X120777Y35299D01*
X119445Y33966D01*
Y31300D01*
Y33299D01*
X122110D01*
X115446Y34632D02*
X116112Y35299D01*
X117445D01*
X118112Y34632D01*
Y33966D01*
X117445Y33299D01*
X116112D01*
X115446Y32633D01*
Y31966D01*
X116112Y31300D01*
X117445D01*
X118112Y31966D01*
X114113Y35299D02*
Y31300D01*
Y33299D01*
X111447D01*
Y35299D01*
Y31300D01*
X110114D02*
Y35299D01*
X108115D01*
X107448Y34632D01*
Y33299D01*
X108115Y32633D01*
X110114D01*
X108781D02*
X107448Y31300D01*
X106115D02*
Y33966D01*
X104783Y35299D01*
X103450Y33966D01*
Y31300D01*
Y33299D01*
X106115D01*
X99451Y35299D02*
X102117D01*
Y33299D01*
X100784D01*
X102117D01*
Y31300D01*
X150967Y58400D02*
X152300Y59733D01*
Y61066D01*
X150967Y62399D01*
X146302Y61732D02*
X146968Y62399D01*
X148301D01*
X148968Y61732D01*
Y59066D01*
X148301Y58400D01*
X146968D01*
X146302Y59066D01*
X144969Y58400D02*
X143636Y59733D01*
Y61066D01*
X144969Y62399D01*
X141637Y58400D02*
Y61066D01*
X140304Y62399D01*
X138971Y61066D01*
Y58400D01*
Y60399D01*
X141637D01*
X134972Y59066D02*
Y61732D01*
X135639Y62399D01*
X136972D01*
X137638Y61732D01*
Y59066D01*
X136972Y58400D01*
X135639D01*
X136305Y59733D02*
X134972Y58400D01*
X135639D02*
X134972Y59066D01*
X133639Y62399D02*
Y59066D01*
X132973Y58400D01*
X131640D01*
X130974Y59066D01*
Y62399D01*
X129641Y58400D02*
Y61066D01*
X128308Y62399D01*
X126975Y61066D01*
Y58400D01*
Y60399D01*
X129641D01*
X125642Y58400D02*
Y62399D01*
X123643D01*
X122976Y61732D01*
Y60399D01*
X123643Y59733D01*
X125642D01*
X121643Y62399D02*
Y58400D01*
Y60399D01*
X118977D01*
Y62399D01*
Y58400D01*
X115645Y62399D02*
X116978D01*
X117645Y61732D01*
Y59066D01*
X116978Y58400D01*
X115645D01*
X114979Y59066D01*
Y61732D01*
X115645Y62399D01*
X113646D02*
X110980D01*
X112313D01*
Y58400D01*
X107648Y62399D02*
X108981D01*
X109647Y61732D01*
Y59066D01*
X108981Y58400D01*
X107648D01*
X106981Y59066D01*
Y61732D01*
X107648Y62399D01*
X105648Y58400D02*
Y62399D01*
X102983Y58400D01*
Y62399D01*
D14*
X268300Y66901D02*
X266301Y68900D01*
X264301Y66901D01*
X266301Y64901D02*
Y62235D01*
Y60903D02*
Y58237D01*
X268300Y56904D02*
X264301D01*
Y54905D01*
X264968Y54238D01*
X266301D01*
X266967Y54905D01*
Y56904D01*
X264301Y52905D02*
Y51572D01*
Y52239D01*
X268300D01*
Y52905D01*
Y51572D01*
Y49573D02*
X264301D01*
X268300Y46907D01*
X264301D01*
X268300Y45574D02*
Y44241D01*
Y44908D01*
X264301D01*
X264968Y45574D01*
X266301Y42242D02*
Y39576D01*
Y38243D02*
Y35577D01*
X268300Y34244D02*
X266301Y32245D01*
X264301Y34244D01*
X34168Y24034D02*
X33501Y24701D01*
Y26034D01*
X34168Y26700D01*
X36834D01*
X37500Y26034D01*
Y24701D01*
X36834Y24034D01*
X35501D01*
Y25367D01*
X37500Y22701D02*
X33501D01*
X37500Y20035D01*
X33501D01*
Y18703D02*
X37500D01*
Y16703D01*
X36834Y16037D01*
X34168D01*
X33501Y16703D01*
Y18703D01*
X63301Y27300D02*
X66634D01*
X67300Y26634D01*
Y25301D01*
X66634Y24634D01*
X63301D01*
X63968Y20636D02*
X63301Y21302D01*
Y22635D01*
X63968Y23301D01*
X64634D01*
X65301Y22635D01*
Y21302D01*
X65967Y20636D01*
X66634D01*
X67300Y21302D01*
Y22635D01*
X66634Y23301D01*
X63301Y19303D02*
X67300D01*
Y17303D01*
X66634Y16637D01*
X65967D01*
X65301Y17303D01*
Y19303D01*
Y17303D01*
X64634Y16637D01*
X63968D01*
X63301Y17303D01*
Y19303D01*
X65301Y15304D02*
Y12638D01*
X53501Y26700D02*
Y25367D01*
Y26033D01*
X57500D01*
Y26700D01*
Y25367D01*
X53501Y21368D02*
Y22701D01*
X54168Y23368D01*
X56834D01*
X57500Y22701D01*
Y21368D01*
X56834Y20702D01*
X54168D01*
X53501Y21368D01*
X57500Y17370D02*
X53501D01*
X55501Y19369D01*
Y16703D01*
X54168Y15370D02*
X53501Y14704D01*
Y13371D01*
X54168Y12705D01*
X54834D01*
X55501Y13371D01*
X56167Y12705D01*
X56834D01*
X57500Y13371D01*
Y14704D01*
X56834Y15370D01*
X56167D01*
X55501Y14704D01*
X54834Y15370D01*
X54168D01*
X55501Y14704D02*
Y13371D01*
X43501Y26700D02*
Y25367D01*
Y26034D01*
X47500D01*
Y26700D01*
Y25367D01*
X43501Y21368D02*
Y22701D01*
X44168Y23368D01*
X46834D01*
X47500Y22701D01*
Y21368D01*
X46834Y20702D01*
X44168D01*
X43501Y21368D01*
X47500Y17370D02*
X43501D01*
X45501Y19369D01*
Y16703D01*
X43501Y15370D02*
Y12705D01*
X44168D01*
X46834Y15370D01*
X47500D01*
X73501Y27200D02*
X76834D01*
X77500Y26534D01*
Y25201D01*
X76834Y24534D01*
X73501D01*
X74168Y20536D02*
X73501Y21202D01*
Y22535D01*
X74168Y23201D01*
X74834D01*
X75501Y22535D01*
Y21202D01*
X76167Y20536D01*
X76834D01*
X77500Y21202D01*
Y22535D01*
X76834Y23201D01*
X73501Y19203D02*
X77500D01*
Y17203D01*
X76834Y16537D01*
X76167D01*
X75501Y17203D01*
Y19203D01*
Y17203D01*
X74834Y16537D01*
X74168D01*
X73501Y17203D01*
Y19203D01*
X75501Y15204D02*
Y12538D01*
X74168Y13871D02*
X76834D01*
X103501Y26700D02*
Y25367D01*
Y26033D01*
X107500D01*
Y26700D01*
Y25367D01*
X103501Y21368D02*
Y22701D01*
X104168Y23368D01*
X106834D01*
X107500Y22701D01*
Y21368D01*
X106834Y20702D01*
X104168D01*
X103501Y21368D01*
X104168Y19369D02*
X103501Y18703D01*
Y17370D01*
X104168Y16703D01*
X104834D01*
X105501Y17370D01*
Y18036D01*
Y17370D01*
X106167Y16703D01*
X106834D01*
X107500Y17370D01*
Y18703D01*
X106834Y19369D01*
X104168Y15370D02*
X103501Y14704D01*
Y13371D01*
X104168Y12705D01*
X104834D01*
X105501Y13371D01*
Y14037D01*
Y13371D01*
X106167Y12705D01*
X106834D01*
X107500Y13371D01*
Y14704D01*
X106834Y15370D01*
X93501Y26700D02*
Y25367D01*
Y26034D01*
X97500D01*
Y26700D01*
Y25367D01*
X93501Y21368D02*
Y22701D01*
X94168Y23368D01*
X96834D01*
X97500Y22701D01*
Y21368D01*
X96834Y20702D01*
X94168D01*
X93501Y21368D01*
X97500Y16703D02*
Y19369D01*
X94834Y16703D01*
X94168D01*
X93501Y17370D01*
Y18703D01*
X94168Y19369D01*
X93501Y12705D02*
X94168Y14037D01*
X95501Y15370D01*
X96834D01*
X97500Y14704D01*
Y13371D01*
X96834Y12705D01*
X96167D01*
X95501Y13371D01*
Y15370D01*
X83501Y26700D02*
Y25367D01*
Y26033D01*
X87500D01*
Y26700D01*
Y25367D01*
X83501Y21368D02*
Y22701D01*
X84168Y23368D01*
X86834D01*
X87500Y22701D01*
Y21368D01*
X86834Y20702D01*
X84168D01*
X83501Y21368D01*
X87500Y16703D02*
Y19369D01*
X84834Y16703D01*
X84168D01*
X83501Y17370D01*
Y18703D01*
X84168Y19369D01*
X87500Y15370D02*
Y14037D01*
Y14704D01*
X83501D01*
X84168Y15370D01*
X113501Y26700D02*
Y25367D01*
Y26034D01*
X117500D01*
Y26700D01*
Y25367D01*
X113501Y21368D02*
Y22701D01*
X114168Y23368D01*
X116833D01*
X117500Y22701D01*
Y21368D01*
X116833Y20702D01*
X114168D01*
X113501Y21368D01*
X114168Y19369D02*
X113501Y18703D01*
Y17370D01*
X114168Y16703D01*
X114834D01*
X115501Y17370D01*
Y18036D01*
Y17370D01*
X116167Y16703D01*
X116833D01*
X117500Y17370D01*
Y18703D01*
X116833Y19369D01*
X117500Y13371D02*
X113501D01*
X115501Y15370D01*
Y12705D01*
X143501Y26700D02*
Y25367D01*
Y26034D01*
X147500D01*
Y26700D01*
Y25367D01*
X143501Y21368D02*
Y22701D01*
X144168Y23368D01*
X146834D01*
X147500Y22701D01*
Y21368D01*
X146834Y20702D01*
X144168D01*
X143501Y21368D01*
X144168Y19369D02*
X143501Y18703D01*
Y17370D01*
X144168Y16703D01*
X144834D01*
X145501Y17370D01*
Y18036D01*
Y17370D01*
X146167Y16703D01*
X146834D01*
X147500Y17370D01*
Y18703D01*
X146834Y19369D01*
X143501Y15370D02*
Y12705D01*
X144168D01*
X146834Y15370D01*
X147500D01*
X133501Y26700D02*
Y25367D01*
Y26033D01*
X137500D01*
Y26700D01*
Y25367D01*
X133501Y21368D02*
Y22701D01*
X134168Y23368D01*
X136834D01*
X137500Y22701D01*
Y21368D01*
X136834Y20702D01*
X134168D01*
X133501Y21368D01*
X134168Y19369D02*
X133501Y18703D01*
Y17370D01*
X134168Y16703D01*
X134834D01*
X135501Y17370D01*
Y18036D01*
Y17370D01*
X136167Y16703D01*
X136834D01*
X137500Y17370D01*
Y18703D01*
X136834Y19369D01*
X133501Y12705D02*
X134168Y14037D01*
X135501Y15370D01*
X136834D01*
X137500Y14704D01*
Y13371D01*
X136834Y12705D01*
X136167D01*
X135501Y13371D01*
Y15370D01*
X123501Y26700D02*
Y25367D01*
Y26034D01*
X127500D01*
Y26700D01*
Y25367D01*
X123501Y21368D02*
Y22701D01*
X124168Y23368D01*
X126833D01*
X127500Y22701D01*
Y21368D01*
X126833Y20702D01*
X124168D01*
X123501Y21368D01*
X124168Y19369D02*
X123501Y18703D01*
Y17370D01*
X124168Y16703D01*
X124834D01*
X125501Y17370D01*
Y18036D01*
Y17370D01*
X126167Y16703D01*
X126833D01*
X127500Y17370D01*
Y18703D01*
X126833Y19369D01*
X123501Y12705D02*
Y15370D01*
X125501D01*
X124834Y14037D01*
Y13371D01*
X125501Y12705D01*
X126833D01*
X127500Y13371D01*
Y14704D01*
X126833Y15370D01*
X153501Y26700D02*
Y25367D01*
Y26033D01*
X157500D01*
Y26700D01*
Y25367D01*
X153501Y21368D02*
Y22701D01*
X154168Y23368D01*
X156834D01*
X157500Y22701D01*
Y21368D01*
X156834Y20702D01*
X154168D01*
X153501Y21368D01*
X154168Y19369D02*
X153501Y18703D01*
Y17370D01*
X154168Y16703D01*
X154834D01*
X155501Y17370D01*
Y18036D01*
Y17370D01*
X156167Y16703D01*
X156834D01*
X157500Y17370D01*
Y18703D01*
X156834Y19369D01*
X154168Y15370D02*
X153501Y14704D01*
Y13371D01*
X154168Y12705D01*
X154834D01*
X155501Y13371D01*
X156167Y12705D01*
X156834D01*
X157500Y13371D01*
Y14704D01*
X156834Y15370D01*
X156167D01*
X155501Y14704D01*
X154834Y15370D01*
X154168D01*
X155501Y14704D02*
Y13371D01*
X183501Y26700D02*
Y25367D01*
Y26033D01*
X187500D01*
Y26700D01*
Y25367D01*
X183501Y21368D02*
Y22701D01*
X184168Y23368D01*
X186834D01*
X187500Y22701D01*
Y21368D01*
X186834Y20702D01*
X184168D01*
X183501Y21368D01*
X187500Y17370D02*
X183501D01*
X185501Y19369D01*
Y16703D01*
X187500Y15370D02*
Y14037D01*
Y14704D01*
X183501D01*
X184168Y15370D01*
X173501Y26700D02*
Y25367D01*
Y26033D01*
X177500D01*
Y26700D01*
Y25367D01*
X173501Y21368D02*
Y22701D01*
X174168Y23368D01*
X176834D01*
X177500Y22701D01*
Y21368D01*
X176834Y20702D01*
X174168D01*
X173501Y21368D01*
X177500Y17370D02*
X173501D01*
X175501Y19369D01*
Y16703D01*
X174168Y15370D02*
X173501Y14704D01*
Y13371D01*
X174168Y12705D01*
X176834D01*
X177500Y13371D01*
Y14704D01*
X176834Y15370D01*
X174168D01*
X163501Y26700D02*
Y25367D01*
Y26033D01*
X167500D01*
Y26700D01*
Y25367D01*
X163501Y21368D02*
Y22701D01*
X164168Y23368D01*
X166834D01*
X167500Y22701D01*
Y21368D01*
X166834Y20702D01*
X164168D01*
X163501Y21368D01*
X164168Y19369D02*
X163501Y18703D01*
Y17370D01*
X164168Y16703D01*
X164834D01*
X165501Y17370D01*
Y18036D01*
Y17370D01*
X166167Y16703D01*
X166834D01*
X167500Y17370D01*
Y18703D01*
X166834Y19369D01*
Y15370D02*
X167500Y14704D01*
Y13371D01*
X166834Y12705D01*
X164168D01*
X163501Y13371D01*
Y14704D01*
X164168Y15370D01*
X164834D01*
X165501Y14704D01*
Y12705D01*
X193501Y26700D02*
Y25367D01*
Y26034D01*
X197500D01*
Y26700D01*
Y25367D01*
X193501Y21368D02*
Y22701D01*
X194168Y23368D01*
X196834D01*
X197500Y22701D01*
Y21368D01*
X196834Y20702D01*
X194168D01*
X193501Y21368D01*
X197500Y17370D02*
X193501D01*
X195501Y19369D01*
Y16703D01*
X197500Y12705D02*
Y15370D01*
X194834Y12705D01*
X194168D01*
X193501Y13371D01*
Y14704D01*
X194168Y15370D01*
X223501Y26700D02*
Y25367D01*
Y26034D01*
X227500D01*
Y26700D01*
Y25367D01*
X223501Y21368D02*
Y22701D01*
X224168Y23368D01*
X226834D01*
X227500Y22701D01*
Y21368D01*
X226834Y20702D01*
X224168D01*
X223501Y21368D01*
X227500Y17370D02*
X223501D01*
X225501Y19369D01*
Y16703D01*
X223501Y12705D02*
Y15370D01*
X225501D01*
X224834Y14037D01*
Y13371D01*
X225501Y12705D01*
X226834D01*
X227500Y13371D01*
Y14704D01*
X226834Y15370D01*
X217500Y26700D02*
X213501D01*
Y24701D01*
X214168Y24034D01*
X215501D01*
X216167Y24701D01*
Y26700D01*
Y25367D02*
X217500Y24034D01*
X213501Y22701D02*
X217500Y20035D01*
X213501D02*
X217500Y22701D01*
X213501Y18703D02*
X217500D01*
Y16703D01*
X216834Y16037D01*
X214168D01*
X213501Y16703D01*
Y18703D01*
X203501Y26700D02*
Y24034D01*
Y25367D01*
X207500D01*
X203501Y22701D02*
X207500Y20035D01*
X203501D02*
X207500Y22701D01*
X203501Y18703D02*
X207500D01*
Y16703D01*
X206834Y16037D01*
X204168D01*
X203501Y16703D01*
Y18703D01*
X243501Y24034D02*
Y26700D01*
X247500D01*
Y24034D01*
X245501Y26700D02*
Y25367D01*
X247500Y22701D02*
X243501D01*
X247500Y20035D01*
X243501D01*
X254168Y24034D02*
X253501Y24701D01*
Y26034D01*
X254168Y26700D01*
X256834D01*
X257500Y26034D01*
Y24701D01*
X256834Y24034D01*
X255501D01*
Y25367D01*
X257500Y22701D02*
X253501D01*
X257500Y20035D01*
X253501D01*
Y18703D02*
X257500D01*
Y16703D01*
X256834Y16037D01*
X254168D01*
X253501Y16703D01*
Y18703D01*
X264168Y26700D02*
X263501Y26033D01*
Y24701D01*
X264168Y24034D01*
X264834D01*
X265501Y24701D01*
Y25367D01*
Y24701D01*
X266167Y24034D01*
X266834D01*
X267500Y24701D01*
Y26033D01*
X266834Y26700D01*
X263501Y22701D02*
X266167D01*
X267500Y21368D01*
X266167Y20035D01*
X263501D01*
X264168Y18703D02*
X263501Y18036D01*
Y16703D01*
X264168Y16037D01*
X264834D01*
X265501Y16703D01*
Y17370D01*
Y16703D01*
X266167Y16037D01*
X266834D01*
X267500Y16703D01*
Y18036D01*
X266834Y18703D01*
X233501Y26700D02*
Y25367D01*
Y26033D01*
X237500D01*
Y26700D01*
Y25367D01*
X233501Y21368D02*
Y22701D01*
X234168Y23368D01*
X236834D01*
X237500Y22701D01*
Y21368D01*
X236834Y20702D01*
X234168D01*
X233501Y21368D01*
X237500Y17370D02*
X233501D01*
X235501Y19369D01*
Y16703D01*
X233501Y12705D02*
X234168Y14037D01*
X235501Y15370D01*
X236834D01*
X237500Y14704D01*
Y13371D01*
X236834Y12705D01*
X236167D01*
X235501Y13371D01*
Y15370D01*
X222901Y87000D02*
Y85667D01*
Y86334D01*
X226900D01*
Y87000D01*
Y85667D01*
X222901Y81668D02*
Y83001D01*
X223568Y83668D01*
X226234D01*
X226900Y83001D01*
Y81668D01*
X226234Y81002D01*
X223568D01*
X222901Y81668D01*
X226900Y77003D02*
Y79669D01*
X224234Y77003D01*
X223568D01*
X222901Y77670D01*
Y79003D01*
X223568Y79669D01*
X212901Y87000D02*
Y85667D01*
Y86334D01*
X216900D01*
Y87000D01*
Y85667D01*
X212901Y81668D02*
Y83001D01*
X213568Y83668D01*
X216234D01*
X216900Y83001D01*
Y81668D01*
X216234Y81002D01*
X213568D01*
X212901Y81668D01*
X213568Y79669D02*
X212901Y79003D01*
Y77670D01*
X213568Y77003D01*
X214234D01*
X214901Y77670D01*
Y78336D01*
Y77670D01*
X215567Y77003D01*
X216234D01*
X216900Y77670D01*
Y79003D01*
X216234Y79669D01*
X202901Y87000D02*
Y85667D01*
Y86334D01*
X206900D01*
Y87000D01*
Y85667D01*
X202901Y81668D02*
Y83001D01*
X203568Y83668D01*
X206234D01*
X206900Y83001D01*
Y81668D01*
X206234Y81002D01*
X203568D01*
X202901Y81668D01*
X206900Y77670D02*
X202901D01*
X204901Y79669D01*
Y77003D01*
X192901Y87000D02*
Y85667D01*
Y86334D01*
X196900D01*
Y87000D01*
Y85667D01*
X192901Y81668D02*
Y83001D01*
X193568Y83668D01*
X196233D01*
X196900Y83001D01*
Y81668D01*
X196233Y81002D01*
X193568D01*
X192901Y81668D01*
Y77003D02*
Y79669D01*
X194901D01*
X194234Y78336D01*
Y77670D01*
X194901Y77003D01*
X196233D01*
X196900Y77670D01*
Y79003D01*
X196233Y79669D01*
X182901Y87000D02*
Y85667D01*
Y86334D01*
X186900D01*
Y87000D01*
Y85667D01*
X182901Y81668D02*
Y83001D01*
X183568Y83668D01*
X186233D01*
X186900Y83001D01*
Y81668D01*
X186233Y81002D01*
X183568D01*
X182901Y81668D01*
Y77003D02*
X183568Y78336D01*
X184901Y79669D01*
X186233D01*
X186900Y79003D01*
Y77670D01*
X186233Y77003D01*
X185567D01*
X184901Y77670D01*
Y79669D01*
X172901Y87000D02*
Y85667D01*
Y86334D01*
X176900D01*
Y87000D01*
Y85667D01*
X172901Y81668D02*
Y83001D01*
X173568Y83668D01*
X176233D01*
X176900Y83001D01*
Y81668D01*
X176233Y81002D01*
X173568D01*
X172901Y81668D01*
Y79669D02*
Y77003D01*
X173568D01*
X176233Y79669D01*
X176900D01*
X82901Y87000D02*
Y85667D01*
Y86334D01*
X86900D01*
Y87000D01*
Y85667D01*
X82901Y81668D02*
Y83001D01*
X83568Y83668D01*
X86234D01*
X86900Y83001D01*
Y81668D01*
X86234Y81002D01*
X83568D01*
X82901Y81668D01*
X86900Y79669D02*
Y78336D01*
Y79003D01*
X82901D01*
X83568Y79669D01*
X82901Y73671D02*
X83568Y75004D01*
X84901Y76337D01*
X86234D01*
X86900Y75670D01*
Y74337D01*
X86234Y73671D01*
X85567D01*
X84901Y74337D01*
Y76337D01*
X92901Y87000D02*
Y85667D01*
Y86334D01*
X96900D01*
Y87000D01*
Y85667D01*
X92901Y81668D02*
Y83001D01*
X93568Y83668D01*
X96234D01*
X96900Y83001D01*
Y81668D01*
X96234Y81002D01*
X93568D01*
X92901Y81668D01*
X96900Y79669D02*
Y78336D01*
Y79003D01*
X92901D01*
X93568Y79669D01*
X92901Y73671D02*
Y76337D01*
X94901D01*
X94234Y75004D01*
Y74337D01*
X94901Y73671D01*
X96234D01*
X96900Y74337D01*
Y75670D01*
X96234Y76337D01*
X102901Y87000D02*
Y85667D01*
Y86334D01*
X106900D01*
Y87000D01*
Y85667D01*
X102901Y81668D02*
Y83001D01*
X103568Y83668D01*
X106234D01*
X106900Y83001D01*
Y81668D01*
X106234Y81002D01*
X103568D01*
X102901Y81668D01*
X106900Y79669D02*
Y78336D01*
Y79003D01*
X102901D01*
X103568Y79669D01*
X106900Y74337D02*
X102901D01*
X104901Y76337D01*
Y73671D01*
X112901Y87000D02*
Y85667D01*
Y86334D01*
X116900D01*
Y87000D01*
Y85667D01*
X112901Y81668D02*
Y83001D01*
X113568Y83668D01*
X116234D01*
X116900Y83001D01*
Y81668D01*
X116234Y81002D01*
X113568D01*
X112901Y81668D01*
X116900Y79669D02*
Y78336D01*
Y79003D01*
X112901D01*
X113568Y79669D01*
Y76337D02*
X112901Y75670D01*
Y74337D01*
X113568Y73671D01*
X114234D01*
X114901Y74337D01*
Y75004D01*
Y74337D01*
X115567Y73671D01*
X116234D01*
X116900Y74337D01*
Y75670D01*
X116234Y76337D01*
X126900Y87000D02*
Y85667D01*
Y86334D01*
X122901D01*
X123568Y87000D01*
X122901Y81668D02*
Y83001D01*
X123568Y83668D01*
X126233D01*
X126900Y83001D01*
Y81668D01*
X126233Y81002D01*
X123568D01*
X122901Y81668D01*
X126900Y79669D02*
Y78336D01*
Y79003D01*
X122901D01*
X123568Y79669D01*
X126900Y73671D02*
Y76337D01*
X124234Y73671D01*
X123568D01*
X122901Y74337D01*
Y75670D01*
X123568Y76337D01*
X132901Y87000D02*
Y85667D01*
Y86334D01*
X136900D01*
Y87000D01*
Y85667D01*
X132901Y81668D02*
Y83001D01*
X133568Y83668D01*
X136233D01*
X136900Y83001D01*
Y81668D01*
X136233Y81002D01*
X133568D01*
X132901Y81668D01*
X136900Y79669D02*
Y78336D01*
Y79003D01*
X132901D01*
X133568Y79669D01*
X136900Y76337D02*
Y75004D01*
Y75670D01*
X132901D01*
X133568Y76337D01*
X142901Y87000D02*
Y85667D01*
Y86334D01*
X146900D01*
Y87000D01*
Y85667D01*
X142901Y81668D02*
Y83001D01*
X143568Y83668D01*
X146233D01*
X146900Y83001D01*
Y81668D01*
X146233Y81002D01*
X143568D01*
X142901Y81668D01*
X146900Y79669D02*
Y78336D01*
Y79003D01*
X142901D01*
X143568Y79669D01*
Y76337D02*
X142901Y75670D01*
Y74337D01*
X143568Y73671D01*
X146233D01*
X146900Y74337D01*
Y75670D01*
X146233Y76337D01*
X143568D01*
X152901Y87000D02*
Y85667D01*
Y86334D01*
X156900D01*
Y87000D01*
Y85667D01*
X152901Y81668D02*
Y83001D01*
X153568Y83668D01*
X156234D01*
X156900Y83001D01*
Y81668D01*
X156234Y81002D01*
X153568D01*
X152901Y81668D01*
X156234Y79669D02*
X156900Y79003D01*
Y77670D01*
X156234Y77003D01*
X153568D01*
X152901Y77670D01*
Y79003D01*
X153568Y79669D01*
X154234D01*
X154901Y79003D01*
Y77003D01*
X162901Y87000D02*
Y85667D01*
Y86334D01*
X166900D01*
Y87000D01*
Y85667D01*
X162901Y81668D02*
Y83001D01*
X163568Y83668D01*
X166234D01*
X166900Y83001D01*
Y81668D01*
X166234Y81002D01*
X163568D01*
X162901Y81668D01*
X163568Y79669D02*
X162901Y79003D01*
Y77670D01*
X163568Y77003D01*
X164234D01*
X164901Y77670D01*
X165567Y77003D01*
X166234D01*
X166900Y77670D01*
Y79003D01*
X166234Y79669D01*
X165567D01*
X164901Y79003D01*
X164234Y79669D01*
X163568D01*
X164901Y79003D02*
Y77670D01*
X36900Y87000D02*
X32901D01*
X36900Y84334D01*
X32901D01*
X33568Y80335D02*
X32901Y81002D01*
Y82335D01*
X33568Y83001D01*
X36234D01*
X36900Y82335D01*
Y81002D01*
X36234Y80335D01*
X43568Y84334D02*
X42901Y85001D01*
Y86334D01*
X43568Y87000D01*
X46234D01*
X46900Y86334D01*
Y85001D01*
X46234Y84334D01*
X44901D01*
Y85667D01*
X46900Y83001D02*
X42901D01*
X46900Y80335D01*
X42901D01*
Y79003D02*
X46900D01*
Y77003D01*
X46234Y76337D01*
X43568D01*
X42901Y77003D01*
Y79003D01*
X52901Y84334D02*
Y87000D01*
X54901D01*
X54234Y85667D01*
Y85001D01*
X54901Y84334D01*
X56234D01*
X56900Y85001D01*
Y86334D01*
X56234Y87000D01*
X52901Y83001D02*
X55567D01*
X56900Y81668D01*
X55567Y80335D01*
X52901D01*
X62901Y87000D02*
Y85667D01*
Y86334D01*
X66900D01*
Y87000D01*
Y85667D01*
X62901Y81668D02*
Y83001D01*
X63568Y83668D01*
X66234D01*
X66900Y83001D01*
Y81668D01*
X66234Y81002D01*
X63568D01*
X62901Y81668D01*
X66900Y79669D02*
Y78336D01*
Y79003D01*
X62901D01*
X63568Y79669D01*
Y76337D02*
X62901Y75670D01*
Y74337D01*
X63568Y73671D01*
X64234D01*
X64901Y74337D01*
X65567Y73671D01*
X66234D01*
X66900Y74337D01*
Y75670D01*
X66234Y76337D01*
X65567D01*
X64901Y75670D01*
X64234Y76337D01*
X63568D01*
X64901Y75670D02*
Y74337D01*
X72901Y87000D02*
Y85667D01*
Y86334D01*
X76900D01*
Y87000D01*
Y85667D01*
X72901Y81668D02*
Y83001D01*
X73568Y83668D01*
X76234D01*
X76900Y83001D01*
Y81668D01*
X76234Y81002D01*
X73568D01*
X72901Y81668D01*
X76900Y79669D02*
Y78336D01*
Y79003D01*
X72901D01*
X73568Y79669D01*
X72901Y76337D02*
Y73671D01*
X73568D01*
X76234Y76337D01*
X76900D01*
X232901Y87000D02*
Y85667D01*
Y86334D01*
X236900D01*
Y87000D01*
Y85667D01*
X232901Y81668D02*
Y83001D01*
X233568Y83668D01*
X236234D01*
X236900Y83001D01*
Y81668D01*
X236234Y81002D01*
X233568D01*
X232901Y81668D01*
X236900Y79669D02*
Y78336D01*
Y79003D01*
X232901D01*
X233568Y79669D01*
X242901Y87000D02*
Y85667D01*
Y86334D01*
X246900D01*
Y87000D01*
Y85667D01*
X242901Y81668D02*
Y83001D01*
X243568Y83668D01*
X246234D01*
X246900Y83001D01*
Y81668D01*
X246234Y81002D01*
X243568D01*
X242901Y81668D01*
X243568Y79669D02*
X242901Y79003D01*
Y77670D01*
X243568Y77003D01*
X246234D01*
X246900Y77670D01*
Y79003D01*
X246234Y79669D01*
X243568D01*
X253568Y87000D02*
X252901Y86334D01*
Y85001D01*
X253568Y84334D01*
X254234D01*
X254901Y85001D01*
Y85667D01*
Y85001D01*
X255567Y84334D01*
X256234D01*
X256900Y85001D01*
Y86334D01*
X256234Y87000D01*
X252901Y83001D02*
X255567D01*
X256900Y81668D01*
X255567Y80335D01*
X252901D01*
X253568Y79003D02*
X252901Y78336D01*
Y77003D01*
X253568Y76337D01*
X254234D01*
X254901Y77003D01*
Y77670D01*
Y77003D01*
X255567Y76337D01*
X256234D01*
X256900Y77003D01*
Y78336D01*
X256234Y79003D01*
X263568Y84334D02*
X262901Y85001D01*
Y86334D01*
X263568Y87000D01*
X266234D01*
X266900Y86334D01*
Y85001D01*
X266234Y84334D01*
X264901D01*
Y85667D01*
X266900Y83001D02*
X262901D01*
X266900Y80335D01*
X262901D01*
Y79003D02*
X266900D01*
Y77003D01*
X266234Y76337D01*
X263568D01*
X262901Y77003D01*
Y79003D01*
X263100Y-3400D02*
Y-2067D01*
Y-2733D01*
X267099D01*
X266432Y-3400D01*
X263400Y102300D02*
Y103633D01*
Y102966D01*
X267399D01*
X266732Y102300D01*
M02*
