G04*
G04 #@! TF.GenerationSoftware,Altium Limited,Altium Designer,24.8.2 (39)*
G04*
G04 Layer_Physical_Order=2*
G04 Layer_Color=36540*
%FSLAX25Y25*%
%MOIN*%
G70*
G04*
G04 #@! TF.SameCoordinates,D8F2EBC3-14D6-4E67-A03A-7C1A90F15A13*
G04*
G04*
G04 #@! TF.FilePolarity,Positive*
G04*
G01*
G75*
%ADD11C,0.01000*%
%ADD70C,0.02000*%
%ADD73C,0.07874*%
%ADD74O,0.08661X0.03937*%
%ADD75C,0.02400*%
%ADD76C,0.06000*%
%ADD77C,0.04000*%
%ADD78C,0.02500*%
G36*
X268929Y92642D02*
X268033Y92008D01*
X267929Y91994D01*
X267816Y92004D01*
X267806Y92001D01*
X267796Y92001D01*
X267617Y91940D01*
X267437Y91883D01*
X267429Y91877D01*
X267420Y91874D01*
X266512Y91350D01*
X265516Y91083D01*
X264484D01*
X263488Y91350D01*
X262595Y91865D01*
X261865Y92595D01*
X261350Y93488D01*
X261083Y94484D01*
Y95516D01*
X261350Y96512D01*
X261874Y97420D01*
X261877Y97429D01*
X261883Y97436D01*
X261941Y97617D01*
X262001Y97796D01*
X262001Y97806D01*
X262004Y97816D01*
X261994Y97929D01*
X262008Y98032D01*
X262643Y98929D01*
X268929D01*
Y92642D01*
D02*
G37*
G36*
X150556Y92822D02*
X151049Y91969D01*
X151969Y91049D01*
X153094Y90399D01*
X154350Y90063D01*
X155650D01*
X156906Y90399D01*
X158031Y91049D01*
X158951Y91969D01*
X159444Y92822D01*
X159740Y92907D01*
X160260D01*
X160556Y92822D01*
X161049Y91969D01*
X161969Y91049D01*
X163094Y90399D01*
X164350Y90063D01*
X165650D01*
X166906Y90399D01*
X167480Y90731D01*
X168480Y90154D01*
Y82045D01*
X167480Y81631D01*
X167246Y81865D01*
X166438Y82200D01*
X165562D01*
X164754Y81865D01*
X164135Y81246D01*
X163800Y80438D01*
Y79562D01*
X164135Y78754D01*
X164754Y78135D01*
X165562Y77800D01*
X166438D01*
X167246Y78135D01*
X167480Y78369D01*
X168480Y77955D01*
Y54035D01*
X158620D01*
Y56300D01*
X158542Y56690D01*
X158321Y57021D01*
X158121Y57221D01*
X157790Y57442D01*
X157400Y57520D01*
X142600D01*
X142210Y57442D01*
X141879Y57221D01*
X141658Y56890D01*
X141580Y56500D01*
Y54316D01*
X140580Y53902D01*
X140531Y53951D01*
X139406Y54601D01*
X138150Y54937D01*
X136850D01*
X135594Y54601D01*
X134469Y53951D01*
X133549Y53031D01*
X132899Y51906D01*
X132563Y50650D01*
Y49350D01*
X132899Y48094D01*
X133549Y46969D01*
X134469Y46049D01*
X135594Y45399D01*
X136850Y45063D01*
X138150D01*
X139406Y45399D01*
X139957Y45718D01*
X141062Y45224D01*
X141142Y44784D01*
X133179Y36821D01*
X132958Y36490D01*
X132880Y36100D01*
Y31520D01*
X108820D01*
Y85200D01*
X108742Y85590D01*
X108521Y85921D01*
X108190Y86142D01*
X107800Y86220D01*
X97100D01*
X96710Y86142D01*
X96379Y85921D01*
X94179Y83721D01*
X93958Y83390D01*
X93920Y83197D01*
X92920Y83296D01*
Y88400D01*
X92842Y88790D01*
X92621Y89121D01*
X92290Y89342D01*
X92287Y89343D01*
X92124Y89767D01*
X92131Y89801D01*
X92918Y90290D01*
X93253Y90357D01*
X94350Y90063D01*
X95650D01*
X96906Y90399D01*
X98031Y91049D01*
X98951Y91969D01*
X99444Y92822D01*
X99740Y92907D01*
X100260D01*
X100556Y92822D01*
X101049Y91969D01*
X101969Y91049D01*
X103094Y90399D01*
X104350Y90063D01*
X105650D01*
X106906Y90399D01*
X108031Y91049D01*
X108951Y91969D01*
X109444Y92822D01*
X109740Y92907D01*
X110260D01*
X110556Y92822D01*
X111049Y91969D01*
X111969Y91049D01*
X113094Y90399D01*
X114350Y90063D01*
X115650D01*
X116906Y90399D01*
X118031Y91049D01*
X118951Y91969D01*
X119444Y92822D01*
X119740Y92907D01*
X120260D01*
X120556Y92822D01*
X121049Y91969D01*
X121969Y91049D01*
X123094Y90399D01*
X124350Y90063D01*
X125650D01*
X126906Y90399D01*
X128031Y91049D01*
X128951Y91969D01*
X129444Y92822D01*
X129740Y92907D01*
X130260D01*
X130556Y92822D01*
X131049Y91969D01*
X131969Y91049D01*
X133094Y90399D01*
X134350Y90063D01*
X135650D01*
X136906Y90399D01*
X138031Y91049D01*
X138951Y91969D01*
X139444Y92822D01*
X139740Y92907D01*
X140260D01*
X140556Y92822D01*
X141049Y91969D01*
X141969Y91049D01*
X143094Y90399D01*
X144350Y90063D01*
X145650D01*
X146906Y90399D01*
X148031Y91049D01*
X148951Y91969D01*
X149444Y92822D01*
X149740Y92907D01*
X150260D01*
X150556Y92822D01*
D02*
G37*
G36*
X50759Y98733D02*
X50990Y97929D01*
X50399Y96906D01*
X50063Y95650D01*
Y94350D01*
X50399Y93094D01*
X51049Y91969D01*
X51969Y91049D01*
X53094Y90399D01*
X54350Y90063D01*
X55650D01*
X56906Y90399D01*
X58031Y91049D01*
X58951Y91969D01*
X59444Y92822D01*
X59740Y92907D01*
X60260D01*
X60556Y92822D01*
X61049Y91969D01*
X61969Y91049D01*
X63094Y90399D01*
X64350Y90063D01*
X65650D01*
X66906Y90399D01*
X68031Y91049D01*
X68951Y91969D01*
X69444Y92822D01*
X69740Y92907D01*
X70260D01*
X70556Y92822D01*
X71049Y91969D01*
X71969Y91049D01*
X72555Y90711D01*
X72648Y90011D01*
X72312Y89202D01*
Y88327D01*
X72648Y87519D01*
X73266Y86900D01*
X74075Y86565D01*
X74950D01*
X75759Y86900D01*
X76378Y87519D01*
X76713Y88327D01*
Y89202D01*
X76671Y89301D01*
X76899Y90368D01*
X77157Y90544D01*
X78031Y91049D01*
X78951Y91969D01*
X79444Y92822D01*
X79740Y92907D01*
X80260D01*
X80556Y92822D01*
X81049Y91969D01*
X81969Y91049D01*
X83094Y90399D01*
X83429Y90310D01*
X83380Y90063D01*
Y78922D01*
X77179Y72721D01*
X77178Y72720D01*
X76146D01*
X75755Y72642D01*
X75425Y72421D01*
X75342Y72338D01*
X75055Y72220D01*
X74745D01*
X74458Y72338D01*
X74375Y72421D01*
X74045Y72642D01*
X73654Y72720D01*
X70424D01*
X70390Y72742D01*
X70000Y72820D01*
X69610Y72742D01*
X69279Y72521D01*
X60878Y64120D01*
X58620D01*
Y65838D01*
X58542Y66228D01*
X58320Y66765D01*
Y67235D01*
X58542Y67772D01*
X58620Y68162D01*
Y68180D01*
X60700D01*
X61090Y68258D01*
X61421Y68479D01*
X61642Y68810D01*
X61720Y69200D01*
Y70548D01*
X61642Y70939D01*
X61421Y71270D01*
X60669Y72021D01*
X60339Y72242D01*
X59948Y72320D01*
X58289Y72320D01*
X58244Y72362D01*
X57451Y72862D01*
X57370Y72894D01*
X57297Y72942D01*
X57186Y72964D01*
X57079Y73005D01*
X56993Y73003D01*
X56907Y73020D01*
X55500D01*
X55110Y72942D01*
X54779Y72721D01*
X54558Y72390D01*
X54480Y72000D01*
Y66912D01*
X54558Y66522D01*
X54613Y66390D01*
Y65920D01*
X54433Y65486D01*
X54101Y65154D01*
X53667Y64974D01*
X53355D01*
X52965Y64897D01*
X52634Y64676D01*
X51529Y63571D01*
X51357Y63554D01*
X51346Y63565D01*
X50538Y63900D01*
X49662D01*
X48854Y63565D01*
X48235Y62946D01*
X47900Y62138D01*
Y61262D01*
X48235Y60454D01*
X48854Y59835D01*
X49662Y59500D01*
X50538D01*
X51346Y59835D01*
X51380Y59869D01*
X52380Y59455D01*
Y59100D01*
X52458Y58710D01*
X52679Y58379D01*
X54130Y56928D01*
X54138Y56908D01*
X54158Y56810D01*
X54214Y56726D01*
X54253Y56633D01*
X54324Y56562D01*
X54379Y56479D01*
X54463Y56423D01*
X54534Y56352D01*
X54627Y56314D01*
X54710Y56258D01*
X54809Y56238D01*
X54827Y56231D01*
X54979Y56079D01*
X55310Y55858D01*
X55700Y55780D01*
X59400D01*
X59790Y55858D01*
X60121Y56079D01*
X60189Y56180D01*
X62800D01*
X62812Y56183D01*
X62823Y56181D01*
X63007Y56221D01*
X63190Y56258D01*
X63200Y56265D01*
X63212Y56267D01*
X63365Y56375D01*
X63521Y56479D01*
X63528Y56489D01*
X63537Y56496D01*
X70228Y63502D01*
X70329Y63660D01*
X70433Y63815D01*
X70435Y63827D01*
X70442Y63837D01*
X70474Y64022D01*
X70510Y64206D01*
Y64226D01*
X70684Y64644D01*
X70700Y64660D01*
X70729Y64699D01*
X71022Y64991D01*
X71456Y65171D01*
X71926D01*
X72199Y65058D01*
X72589Y64980D01*
X80100D01*
X80490Y65058D01*
X80821Y65279D01*
X85702Y70160D01*
X85735Y70154D01*
X86354Y69535D01*
X87162Y69200D01*
X88038D01*
X88846Y69535D01*
X89465Y70154D01*
X89800Y70962D01*
Y71838D01*
X89465Y72646D01*
X88846Y73265D01*
X88840Y73298D01*
X91321Y75779D01*
X91542Y76110D01*
X91620Y76500D01*
Y77814D01*
X91700Y78780D01*
X92090Y78858D01*
X92090Y78858D01*
X92290Y78941D01*
X92290Y78941D01*
X92621Y79162D01*
X92842Y79493D01*
X92880Y79686D01*
X93880Y79587D01*
Y79011D01*
X93958Y78621D01*
X94179Y78290D01*
X94201Y78269D01*
X94380Y77835D01*
Y77365D01*
X94201Y76931D01*
X94179Y76910D01*
X93958Y76579D01*
X93880Y76189D01*
Y51022D01*
X93078Y50220D01*
X88819D01*
X88721Y50200D01*
X88621D01*
X88528Y50162D01*
X88429Y50142D01*
X88364Y50098D01*
X88326Y50078D01*
X88253Y50048D01*
X87912Y50002D01*
X87488D01*
X87147Y50048D01*
X87054Y50086D01*
X86971Y50142D01*
X86872Y50162D01*
X86779Y50200D01*
X86679D01*
X86581Y50220D01*
X79279D01*
X78889Y50142D01*
X78835Y50120D01*
X78365D01*
X78311Y50142D01*
X77921Y50220D01*
X73000D01*
X72610Y50142D01*
X72279Y49921D01*
X72058Y49590D01*
X71980Y49200D01*
Y43400D01*
Y37200D01*
X71988Y37162D01*
X71983Y37123D01*
X72583Y29223D01*
X72585Y29218D01*
X72584Y29213D01*
X72638Y29026D01*
X72690Y28840D01*
X72693Y28836D01*
X72695Y28831D01*
X72816Y28679D01*
X72936Y28526D01*
X72940Y28524D01*
X72943Y28520D01*
X81279Y21502D01*
X81384Y21444D01*
X81479Y21370D01*
X82044Y21088D01*
X82079Y21078D01*
X82110Y21058D01*
X82270Y21026D01*
X82428Y20983D01*
X82464Y20988D01*
X82500Y20980D01*
X82535D01*
X82969Y20801D01*
X83202Y20568D01*
X83216Y20558D01*
X83380Y20174D01*
X83432Y19797D01*
X83404Y19333D01*
X83100Y18598D01*
Y17802D01*
X83404Y17067D01*
X83872Y16600D01*
X83404Y16133D01*
X83100Y15398D01*
Y14602D01*
X83404Y13867D01*
X83967Y13305D01*
X84702Y13000D01*
X85498D01*
X86233Y13305D01*
X86796Y13867D01*
X87100Y14602D01*
Y15398D01*
X86796Y16133D01*
X86897Y16402D01*
X88043Y16727D01*
X88083Y16710D01*
X88190Y16648D01*
X88326Y16558D01*
X88362Y16551D01*
X88395Y16532D01*
X88556Y16512D01*
X88716Y16480D01*
X138700D01*
X139090Y16558D01*
X139421Y16779D01*
X139642Y17110D01*
X139720Y17500D01*
Y17878D01*
X145921Y24079D01*
X145931Y24095D01*
X145947Y24106D01*
X146042Y24260D01*
X146142Y24410D01*
X146146Y24428D01*
X146156Y24444D01*
X146184Y24623D01*
X146220Y24800D01*
X146216Y24819D01*
X146219Y24837D01*
X145932Y32690D01*
X148730Y36607D01*
X148742Y36635D01*
X148763Y36657D01*
X152363Y42380D01*
X157600D01*
X157990Y42458D01*
X158321Y42679D01*
X158542Y43010D01*
X158620Y43400D01*
Y45965D01*
X168480D01*
Y43841D01*
X167480Y43201D01*
X167241Y43300D01*
X166366D01*
X165557Y42965D01*
X164938Y42346D01*
X164603Y41538D01*
Y40662D01*
X164938Y39854D01*
X165557Y39235D01*
X166366Y38900D01*
X167241D01*
X167480Y38999D01*
X168480Y38359D01*
Y23000D01*
X168558Y22610D01*
X168779Y22279D01*
X180579Y10479D01*
X180910Y10258D01*
X181300Y10180D01*
X182099D01*
X182367Y9180D01*
X181969Y8951D01*
X181049Y8031D01*
X180556Y7177D01*
X180260Y7093D01*
X179740D01*
X179444Y7177D01*
X178951Y8031D01*
X178031Y8951D01*
X176906Y9601D01*
X175650Y9937D01*
X174350D01*
X173094Y9601D01*
X171969Y8951D01*
X171049Y8031D01*
X170556Y7177D01*
X170260Y7093D01*
X169740D01*
X169444Y7177D01*
X168951Y8031D01*
X168031Y8951D01*
X166906Y9601D01*
X165650Y9937D01*
X164350D01*
X163094Y9601D01*
X161969Y8951D01*
X161049Y8031D01*
X160556Y7177D01*
X160260Y7093D01*
X159740D01*
X159444Y7177D01*
X158951Y8031D01*
X158031Y8951D01*
X156906Y9601D01*
X155650Y9937D01*
X154350D01*
X153094Y9601D01*
X151969Y8951D01*
X151049Y8031D01*
X150556Y7177D01*
X150260Y7093D01*
X149740D01*
X149444Y7177D01*
X148951Y8031D01*
X148031Y8951D01*
X146906Y9601D01*
X145650Y9937D01*
X144350D01*
X143094Y9601D01*
X141969Y8951D01*
X141049Y8031D01*
X140556Y7177D01*
X140260Y7093D01*
X139740D01*
X139444Y7177D01*
X138951Y8031D01*
X138031Y8951D01*
X136906Y9601D01*
X135650Y9937D01*
X134350D01*
X133094Y9601D01*
X131969Y8951D01*
X131049Y8031D01*
X130556Y7177D01*
X130260Y7093D01*
X129740D01*
X129444Y7177D01*
X128951Y8031D01*
X128031Y8951D01*
X126906Y9601D01*
X125650Y9937D01*
X124350D01*
X123094Y9601D01*
X121969Y8951D01*
X121049Y8031D01*
X120556Y7177D01*
X120260Y7093D01*
X119740D01*
X119444Y7177D01*
X118951Y8031D01*
X118031Y8951D01*
X116906Y9601D01*
X115650Y9937D01*
X114350D01*
X113094Y9601D01*
X111969Y8951D01*
X111049Y8031D01*
X110556Y7177D01*
X110260Y7093D01*
X109740D01*
X109444Y7177D01*
X108951Y8031D01*
X108031Y8951D01*
X106906Y9601D01*
X105650Y9937D01*
X104350D01*
X103094Y9601D01*
X101969Y8951D01*
X101049Y8031D01*
X100556Y7177D01*
X100260Y7093D01*
X99740D01*
X99444Y7177D01*
X98951Y8031D01*
X98031Y8951D01*
X96906Y9601D01*
X95650Y9937D01*
X94350D01*
X93094Y9601D01*
X91969Y8951D01*
X91049Y8031D01*
X90556Y7177D01*
X90260Y7093D01*
X89740D01*
X89444Y7177D01*
X88951Y8031D01*
X88031Y8951D01*
X86906Y9601D01*
X85650Y9937D01*
X84350D01*
X83094Y9601D01*
X81969Y8951D01*
X81049Y8031D01*
X80419Y6940D01*
X80194Y6889D01*
X79722Y6853D01*
X79366Y6912D01*
X78790Y7909D01*
X77909Y8791D01*
X76828Y9414D01*
X75624Y9737D01*
X74376D01*
X73172Y9414D01*
X72091Y8791D01*
X71210Y7909D01*
X70586Y6828D01*
X70518Y6574D01*
X69482D01*
X69414Y6828D01*
X68791Y7909D01*
X67909Y8791D01*
X66828Y9414D01*
X65624Y9737D01*
X64376D01*
X63172Y9414D01*
X62091Y8791D01*
X61209Y7909D01*
X60634Y6912D01*
X60278Y6853D01*
X59806Y6889D01*
X59580Y6940D01*
X58951Y8031D01*
X58031Y8951D01*
X56906Y9601D01*
X55650Y9937D01*
X54350D01*
X53094Y9601D01*
X51969Y8951D01*
X51049Y8031D01*
X50556Y7177D01*
X50260Y7093D01*
X49740D01*
X49444Y7177D01*
X48951Y8031D01*
X48031Y8951D01*
X46906Y9601D01*
X45650Y9937D01*
X44350D01*
X43094Y9601D01*
X41969Y8951D01*
X41049Y8031D01*
X40399Y6906D01*
X40063Y5650D01*
Y4350D01*
X40399Y3094D01*
X40990Y2071D01*
X40759Y1267D01*
X40677Y1071D01*
X1071D01*
Y98929D01*
X30677D01*
X30759Y98733D01*
X30990Y97929D01*
X30399Y96906D01*
X30063Y95650D01*
Y94350D01*
X30399Y93094D01*
X31049Y91969D01*
X31969Y91049D01*
X33094Y90399D01*
X34350Y90063D01*
X35650D01*
X36906Y90399D01*
X38031Y91049D01*
X38951Y91969D01*
X39601Y93094D01*
X39937Y94350D01*
Y95650D01*
X39601Y96906D01*
X39009Y97929D01*
X39241Y98733D01*
X39323Y98929D01*
X50677D01*
X50759Y98733D01*
D02*
G37*
G36*
X249668Y91102D02*
X249733Y91058D01*
X249853Y91034D01*
X249967Y90992D01*
X250046Y90996D01*
X250123Y90980D01*
X250435D01*
X250869Y90801D01*
X251201Y90469D01*
X251380Y90035D01*
Y89565D01*
X251201Y89131D01*
X250869Y88799D01*
X250435Y88620D01*
X249965D01*
X249531Y88799D01*
X249199Y89131D01*
X249020Y89565D01*
Y89877D01*
X249004Y89954D01*
X249008Y90033D01*
X248966Y90147D01*
X248942Y90267D01*
X248898Y90332D01*
X248871Y90407D01*
X249164Y90836D01*
X249593Y91129D01*
X249668Y91102D01*
D02*
G37*
G36*
X260412Y98817D02*
X260546Y98682D01*
X260983Y98064D01*
X260985Y98040D01*
X260974Y97935D01*
X260969Y97926D01*
X260945Y97850D01*
X260399Y96906D01*
X260063Y95650D01*
Y94350D01*
X260399Y93094D01*
X261049Y91969D01*
X261969Y91049D01*
X263094Y90399D01*
X264350Y90063D01*
X265650D01*
X266906Y90399D01*
X267850Y90945D01*
X267926Y90969D01*
X267935Y90974D01*
X268040Y90985D01*
X268065Y90984D01*
X268684Y90545D01*
X268816Y90413D01*
X268929Y90234D01*
Y81350D01*
X268603Y65618D01*
X268582Y64626D01*
X264537D01*
X264529Y64628D01*
X264438D01*
X264388Y64705D01*
X264382Y64711D01*
X264220Y64962D01*
X264219Y64965D01*
X264166Y65047D01*
X264131Y65138D01*
X264129Y65140D01*
X263977Y65533D01*
X263962Y65619D01*
X263959Y65626D01*
X263962Y65633D01*
X263979Y65719D01*
X264217Y66295D01*
Y67170D01*
X263882Y67979D01*
Y68833D01*
X264140Y69454D01*
X264140Y69454D01*
X264217Y69641D01*
Y70516D01*
X263882Y71325D01*
X263526Y71681D01*
X263479Y71752D01*
X263526Y71823D01*
X263882Y72179D01*
X264140Y72800D01*
X264140Y72800D01*
X264217Y72988D01*
Y73863D01*
X263882Y74671D01*
X263263Y75290D01*
X262642Y75548D01*
X262642Y75548D01*
X262455Y75625D01*
X261580D01*
X260771Y75290D01*
X260200Y74720D01*
X260144Y74682D01*
X260079Y74695D01*
X260067D01*
X260019Y74714D01*
X259144D01*
X258335Y74379D01*
X257717Y73760D01*
X257466Y73154D01*
X257466Y73154D01*
X257382Y72952D01*
Y72077D01*
X257717Y71268D01*
X258335Y70649D01*
X258957Y70392D01*
X258957Y70392D01*
X259144Y70314D01*
X259717D01*
X259801Y70297D01*
X259817Y70214D01*
Y69641D01*
X260152Y68832D01*
X260508Y68476D01*
X260556Y68405D01*
X260508Y68335D01*
X260152Y67979D01*
X259895Y67357D01*
X259895Y67357D01*
X259817Y67170D01*
Y66295D01*
X259895Y66107D01*
X259895Y66107D01*
X260056Y65719D01*
X260073Y65633D01*
X260076Y65626D01*
X260073Y65619D01*
X260058Y65533D01*
X259905Y65140D01*
X259904Y65138D01*
X259868Y65047D01*
X259815Y64965D01*
X259814Y64962D01*
X259652Y64711D01*
X259646Y64705D01*
X259597Y64628D01*
X259505D01*
X259497Y64626D01*
X248242D01*
X248154Y64644D01*
X248075Y64763D01*
X247729Y65401D01*
X247636Y65514D01*
X247629Y65525D01*
X248058Y65954D01*
X248393Y66762D01*
Y67638D01*
X248058Y68446D01*
X247439Y69065D01*
X246631Y69400D01*
X245755D01*
X244947Y69065D01*
X244328Y68446D01*
X243993Y67638D01*
Y66762D01*
X244328Y65954D01*
X244757Y65525D01*
X244750Y65514D01*
X244657Y65401D01*
X244311Y64763D01*
X244232Y64644D01*
X244144Y64626D01*
X241549D01*
X241461Y64644D01*
X241382Y64763D01*
X241036Y65401D01*
X240943Y65514D01*
X240936Y65525D01*
X241365Y65954D01*
X241700Y66762D01*
Y67638D01*
X241365Y68446D01*
X240746Y69065D01*
X239938Y69400D01*
X239062D01*
X238254Y69065D01*
X237635Y68446D01*
X237300Y67638D01*
Y66762D01*
X237635Y65954D01*
X238064Y65525D01*
X238057Y65514D01*
X237964Y65401D01*
X237618Y64763D01*
X237539Y64644D01*
X237451Y64626D01*
X234577D01*
X234434Y64853D01*
X234003Y65729D01*
X234622Y66347D01*
X234957Y67156D01*
Y68031D01*
X234622Y68840D01*
X234003Y69459D01*
X233194Y69794D01*
X232319D01*
X231510Y69459D01*
X230891Y68840D01*
X230557Y68031D01*
Y67156D01*
X230891Y66347D01*
X231510Y65729D01*
X231079Y64853D01*
X230936Y64626D01*
X227885D01*
X227741Y64853D01*
X227310Y65729D01*
X227929Y66347D01*
X228264Y67156D01*
Y68031D01*
X227929Y68840D01*
X227310Y69459D01*
X226501Y69794D01*
X225626D01*
X224817Y69459D01*
X224199Y68840D01*
X223864Y68031D01*
Y67156D01*
X224199Y66347D01*
X224817Y65729D01*
X224387Y64853D01*
X224243Y64626D01*
X221192Y64626D01*
X221048Y64853D01*
X220617Y65729D01*
X221236Y66347D01*
X221571Y67156D01*
Y68031D01*
X221236Y68840D01*
X220617Y69459D01*
X219808Y69794D01*
X218933D01*
X218125Y69459D01*
X217506Y68840D01*
X217171Y68031D01*
Y67156D01*
X217506Y66347D01*
X218125Y65729D01*
X217694Y64853D01*
X217550Y64626D01*
X212627D01*
X212543Y64643D01*
X212526Y64727D01*
X212479Y71017D01*
X204920Y71542D01*
X204882Y71552D01*
X204825Y71556D01*
X204800Y71608D01*
X204777Y71639D01*
X204678Y71848D01*
X204667Y71892D01*
X204643Y71941D01*
X204635Y71995D01*
X204619Y72038D01*
X204536Y72563D01*
X204539Y72569D01*
X204553Y72589D01*
X205018Y73054D01*
X205276Y73675D01*
X205276Y73675D01*
X205353Y73862D01*
Y74738D01*
X205018Y75546D01*
X204399Y76165D01*
X203778Y76422D01*
X203778Y76422D01*
X203591Y76500D01*
X202716D01*
X201907Y76165D01*
X201288Y75546D01*
X201031Y74925D01*
X201031Y74925D01*
X200953Y74738D01*
Y73862D01*
X201288Y73054D01*
X201504Y72837D01*
X201539Y72781D01*
X201547Y72773D01*
X201542Y72764D01*
X201530Y72699D01*
X201158Y71883D01*
X201118Y71831D01*
X201113Y71821D01*
X201102Y71822D01*
X201037Y71811D01*
X194419Y72270D01*
X193427Y68242D01*
X192350Y63865D01*
X192743Y62106D01*
X192699Y61990D01*
X191911Y61241D01*
X191865Y61246D01*
X191246Y61865D01*
X190438Y62200D01*
X189562D01*
X188754Y61865D01*
X188135Y61246D01*
X187800Y60438D01*
Y59562D01*
X188135Y58754D01*
X188754Y58135D01*
X189562Y57800D01*
X190438D01*
X191246Y58135D01*
X191865Y58754D01*
X192200Y59562D01*
X193147Y59435D01*
X193309Y59379D01*
X193362Y59332D01*
X194397Y54693D01*
X194398Y54654D01*
X194411Y54594D01*
X194408Y54533D01*
X194413Y54494D01*
X194228Y51071D01*
X194225Y51057D01*
X194212Y51053D01*
X193328Y50902D01*
X193225Y50862D01*
X193195Y50933D01*
X192633Y51495D01*
X191898Y51800D01*
X191102D01*
X190925Y51727D01*
X190917Y51727D01*
X190326Y51851D01*
X189820Y52228D01*
X189797Y52259D01*
X189779Y52305D01*
X189775Y52309D01*
X189773Y52314D01*
X189762Y52330D01*
X189465Y53046D01*
X188846Y53665D01*
X188225Y53922D01*
X188225Y53922D01*
X188038Y54000D01*
X187162D01*
X186354Y53665D01*
X185735Y53046D01*
X185478Y52425D01*
X185478Y52425D01*
X185400Y52238D01*
Y51362D01*
X185735Y50554D01*
X186354Y49935D01*
X186975Y49678D01*
X186975Y49678D01*
X187162Y49600D01*
X188038D01*
X188407Y49753D01*
X188493Y49770D01*
X188504Y49775D01*
X188516Y49774D01*
X189080Y49561D01*
X189402Y49386D01*
X189849Y48529D01*
X189436Y47800D01*
X189356Y47719D01*
X189326Y47731D01*
X188901Y47813D01*
X188898Y47814D01*
X188802Y47833D01*
X188712Y47870D01*
X188709Y47870D01*
X188638Y47900D01*
X187762D01*
X186954Y47565D01*
X186335Y46946D01*
X186078Y46325D01*
X186078Y46325D01*
X186000Y46138D01*
Y45262D01*
X186335Y44454D01*
X186954Y43835D01*
X187575Y43578D01*
X187575Y43578D01*
X187762Y43500D01*
X188638D01*
X189446Y43835D01*
X190065Y44454D01*
X190215Y44631D01*
X191084Y44513D01*
X191102Y44506D01*
X191898D01*
X192633Y44810D01*
X192920Y45098D01*
X193022Y45026D01*
X193799Y44679D01*
X193857Y44636D01*
X193863Y44633D01*
X193863Y44627D01*
X193875Y44555D01*
X193760Y42426D01*
X193451Y36727D01*
X193371Y36534D01*
Y35659D01*
X193391Y35613D01*
X192833Y25320D01*
X204554Y25286D01*
X204560Y25285D01*
X204565Y25281D01*
X204763Y24991D01*
X204767Y24981D01*
X204817Y24907D01*
X204850Y24825D01*
X204856Y24815D01*
X205031Y24378D01*
X205048Y24287D01*
X205049Y24285D01*
X205048Y24283D01*
X205030Y24192D01*
X204878Y23825D01*
X204878Y23825D01*
X204800Y23638D01*
Y22762D01*
X205135Y21954D01*
X205754Y21335D01*
X206375Y21078D01*
X206375Y21078D01*
X206562Y21000D01*
X207438D01*
X208246Y21335D01*
X208865Y21954D01*
X209122Y22575D01*
X209122Y22575D01*
X209200Y22762D01*
Y23638D01*
X208975Y24181D01*
X208956Y24274D01*
X208975Y24367D01*
X209161Y24822D01*
X209170Y24836D01*
X209202Y24914D01*
X209250Y24981D01*
X209257Y24997D01*
X209444Y25260D01*
X209454Y25270D01*
X209469Y25272D01*
X260255Y25126D01*
X260347Y25107D01*
X260426Y25055D01*
X260771Y24710D01*
X261392Y24452D01*
X261392Y24452D01*
X261580Y24375D01*
X262455D01*
X263263Y24710D01*
X263600Y25046D01*
X263678Y25098D01*
X263769Y25116D01*
X268606Y25102D01*
X268721Y20395D01*
X268602Y20312D01*
X267493Y20374D01*
X266874Y20993D01*
X266253Y21251D01*
X266253Y21251D01*
X266066Y21328D01*
X265191D01*
X264382Y20993D01*
X263763Y20374D01*
X263506Y19753D01*
X263506Y19753D01*
X263428Y19566D01*
Y18691D01*
X263763Y17882D01*
X264382Y17263D01*
X265003Y17006D01*
X265003Y17006D01*
X265191Y16928D01*
X266066D01*
X266874Y17263D01*
X267493Y17882D01*
X267828Y18691D01*
X268721Y18547D01*
X268766Y18534D01*
X268929Y11819D01*
Y1071D01*
X259800D01*
Y3738D01*
X259806Y3771D01*
Y3838D01*
X259824Y3903D01*
X259826Y3936D01*
X259937Y4350D01*
Y5650D01*
X259826Y6064D01*
X259824Y6097D01*
X259806Y6162D01*
Y6229D01*
X259800Y6262D01*
Y7600D01*
X256200Y11200D01*
X181400D01*
X181308Y11218D01*
X181229Y11271D01*
X169571Y22929D01*
X169518Y23008D01*
X169500Y23100D01*
Y38359D01*
Y92336D01*
X170458Y92851D01*
X170556Y92822D01*
X171049Y91969D01*
X171969Y91049D01*
X173094Y90399D01*
X174350Y90063D01*
X175650D01*
X176906Y90399D01*
X178031Y91049D01*
X178951Y91969D01*
X179444Y92822D01*
X179740Y92907D01*
X180260D01*
X180556Y92822D01*
X181049Y91969D01*
X181969Y91049D01*
X183094Y90399D01*
X184350Y90063D01*
X185650D01*
X186906Y90399D01*
X188031Y91049D01*
X188951Y91969D01*
X189444Y92822D01*
X189740Y92907D01*
X190260D01*
X190556Y92822D01*
X191049Y91969D01*
X191969Y91049D01*
X193094Y90399D01*
X194350Y90063D01*
X195650D01*
X196906Y90399D01*
X198031Y91049D01*
X198951Y91969D01*
X199444Y92822D01*
X199740Y92907D01*
X200260D01*
X200556Y92822D01*
X201049Y91969D01*
X201969Y91049D01*
X203094Y90399D01*
X204350Y90063D01*
X205650D01*
X206906Y90399D01*
X208031Y91049D01*
X208951Y91969D01*
X209444Y92822D01*
X209740Y92907D01*
X210260D01*
X210556Y92822D01*
X211049Y91969D01*
X211969Y91049D01*
X213094Y90399D01*
X214350Y90063D01*
X215650D01*
X216906Y90399D01*
X218031Y91049D01*
X218951Y91969D01*
X219444Y92822D01*
X219740Y92907D01*
X220260D01*
X220556Y92822D01*
X221049Y91969D01*
X221969Y91049D01*
X223094Y90399D01*
X224350Y90063D01*
X225650D01*
X226906Y90399D01*
X228031Y91049D01*
X228951Y91969D01*
X229444Y92822D01*
X229740Y92907D01*
X230260D01*
X230556Y92822D01*
X231049Y91969D01*
X231969Y91049D01*
X233094Y90399D01*
X234350Y90063D01*
X235650D01*
X236906Y90399D01*
X238031Y91049D01*
X238951Y91969D01*
X239444Y92822D01*
X239740Y92907D01*
X240260D01*
X240556Y92822D01*
X241049Y91969D01*
X241969Y91049D01*
X243094Y90399D01*
X244350Y90063D01*
X245650D01*
X246906Y90399D01*
X247246Y90335D01*
X247924Y89991D01*
X247996Y89875D01*
X248000Y89849D01*
Y89362D01*
X248335Y88554D01*
X248954Y87935D01*
X249575Y87678D01*
X249575Y87678D01*
X249762Y87600D01*
X250638D01*
X251446Y87935D01*
X252065Y88554D01*
X252322Y89175D01*
X252322Y89175D01*
X252400Y89362D01*
Y90238D01*
X252065Y91046D01*
X251446Y91665D01*
X250825Y91922D01*
X250825Y91922D01*
X250638Y92000D01*
X250151D01*
X250125Y92004D01*
X250009Y92076D01*
X249665Y92754D01*
X249601Y93094D01*
X249937Y94350D01*
Y95650D01*
X249601Y96906D01*
X249009Y97929D01*
X249241Y98733D01*
X249323Y98929D01*
X260235D01*
X260412Y98817D01*
D02*
G37*
G36*
X262686Y74426D02*
X263018Y74094D01*
X263198Y73660D01*
Y73190D01*
X263018Y72757D01*
X262734Y72473D01*
X262513Y72142D01*
X262436Y71752D01*
X262513Y71362D01*
X262734Y71031D01*
X263018Y70747D01*
X263198Y70314D01*
Y69844D01*
X263018Y69410D01*
X262734Y69126D01*
X262534Y68827D01*
X262336Y68796D01*
X261698D01*
X261500Y68827D01*
X261300Y69126D01*
X261017Y69410D01*
X260837Y69844D01*
Y70314D01*
X260759Y70704D01*
X260538Y71035D01*
X260207Y71256D01*
X259817Y71334D01*
X259347D01*
X258913Y71513D01*
X258581Y71846D01*
X258408Y72264D01*
Y72764D01*
X258581Y73183D01*
X258913Y73515D01*
X259347Y73695D01*
X259880D01*
X260148Y73641D01*
X260148D01*
X260538Y73719D01*
X260538Y73719D01*
X260869Y73940D01*
X260869Y73940D01*
X260881Y73958D01*
X261349Y74426D01*
X261782Y74606D01*
X262252D01*
X262686Y74426D01*
D02*
G37*
G36*
X203822Y75301D02*
X204154Y74969D01*
X204334Y74535D01*
Y74065D01*
X204154Y73631D01*
X203814Y73292D01*
X203770Y73225D01*
X203711Y73171D01*
X203660Y73061D01*
X203593Y72961D01*
X203578Y72882D01*
X203544Y72810D01*
X202727Y72767D01*
X202585Y72777D01*
X202549Y72955D01*
X202520Y73134D01*
X202510Y73150D01*
X202507Y73167D01*
X202406Y73318D01*
X202310Y73472D01*
X202296Y73483D01*
X202286Y73498D01*
X202152Y73631D01*
X201973Y74065D01*
Y74535D01*
X202152Y74969D01*
X202485Y75301D01*
X202918Y75480D01*
X203388D01*
X203822Y75301D01*
D02*
G37*
G36*
X90600Y89400D02*
X91600Y88400D01*
X91900D01*
Y79883D01*
X91700Y79800D01*
X90600D01*
Y77814D01*
Y76600D01*
X90582Y76508D01*
X90529Y76429D01*
X87700Y73600D01*
X87162D01*
X86354Y73265D01*
X85735Y72646D01*
X85400Y71838D01*
Y71300D01*
X80171Y66071D01*
X80092Y66018D01*
X80000Y66000D01*
X72689D01*
X72496Y66038D01*
X72128Y66191D01*
X71253D01*
X70445Y65856D01*
X69826Y65237D01*
X69491Y64428D01*
Y64306D01*
X69474Y64221D01*
Y64213D01*
X69468Y64206D01*
X69421Y64133D01*
X62862Y57265D01*
X62799Y57223D01*
X62793Y57217D01*
X62785Y57217D01*
X62710Y57200D01*
X59400D01*
Y56800D01*
X55700D01*
X55300Y57200D01*
X55101D01*
X55100Y57200D01*
X55100Y57200D01*
X55050Y57450D01*
X53400Y59100D01*
Y61700D01*
X52250Y62850D01*
X53284Y63884D01*
X53363Y63936D01*
X53455Y63955D01*
X53870D01*
X54679Y64290D01*
X55297Y64909D01*
X55297Y64909D01*
X55633Y65717D01*
Y66593D01*
X55500Y66912D01*
Y72000D01*
X56907D01*
X57700Y71500D01*
Y71300D01*
X59948Y71300D01*
X60700Y70548D01*
Y69200D01*
X57900D01*
X57600Y68900D01*
Y68162D01*
X57300Y67438D01*
Y66562D01*
X57600Y65838D01*
Y63700D01*
X57350Y63450D01*
X57700Y63100D01*
X61300D01*
X69929Y71729D01*
X70004Y71779D01*
X70025Y71775D01*
X70100Y71700D01*
X73554D01*
X73647Y71682D01*
X73725Y71629D01*
X73880Y71474D01*
X74542Y71200D01*
X75258D01*
X75920Y71474D01*
X76075Y71629D01*
X76153Y71681D01*
X76246Y71700D01*
X77900D01*
Y72000D01*
X84400Y78500D01*
Y89963D01*
X84420Y90063D01*
X85650D01*
X86906Y90399D01*
X87080Y90500D01*
X90600D01*
Y89400D01*
D02*
G37*
G36*
X203516Y72571D02*
X203531Y72492D01*
X203528Y72412D01*
X203627Y71780D01*
X203678Y71643D01*
X203713Y71502D01*
X203898Y71112D01*
X203981Y71000D01*
X204050Y70879D01*
X204099Y70842D01*
X204136Y70793D01*
X204255Y70721D01*
X204365Y70636D01*
X204424Y70620D01*
X204477Y70588D01*
X204615Y70568D01*
X204749Y70531D01*
X211466Y70065D01*
X211507Y64619D01*
X211547Y64427D01*
X211585Y64236D01*
X211587Y64233D01*
X211588Y64229D01*
X211697Y64067D01*
X211806Y63905D01*
X211809Y63903D01*
X211811Y63900D01*
X211974Y63793D01*
X212137Y63684D01*
X212140Y63683D01*
X212144Y63681D01*
X212335Y63645D01*
X212527Y63607D01*
X218173D01*
X218271Y63626D01*
X218372D01*
X218464Y63665D01*
X218563Y63684D01*
X218647Y63740D01*
X218739Y63779D01*
X218759Y63798D01*
X219137Y63901D01*
X219244Y63905D01*
X219498D01*
X219605Y63901D01*
X219983Y63798D01*
X220002Y63779D01*
X220095Y63740D01*
X220178Y63684D01*
X220277Y63665D01*
X220370Y63626D01*
X220470D01*
X220569Y63607D01*
X224866D01*
X224964Y63626D01*
X225065D01*
X225157Y63665D01*
X225256Y63684D01*
X225339Y63740D01*
X225432Y63779D01*
X225451Y63798D01*
X225830Y63901D01*
X225936Y63905D01*
X226281D01*
X226676Y63798D01*
X226695Y63779D01*
X226788Y63740D01*
X226871Y63684D01*
X226970Y63665D01*
X227063Y63626D01*
X227163D01*
X227261Y63607D01*
X231559D01*
X231657Y63626D01*
X231758D01*
X231850Y63665D01*
X231949Y63684D01*
X232032Y63740D01*
X232125Y63779D01*
X232144Y63798D01*
X232522Y63901D01*
X232629Y63905D01*
X232884D01*
X232991Y63901D01*
X233369Y63798D01*
X233388Y63779D01*
X233481Y63740D01*
X233564Y63684D01*
X233663Y63665D01*
X233755Y63626D01*
X233856D01*
X233954Y63607D01*
X237551D01*
X237551Y63607D01*
X237552Y63607D01*
X237746Y63645D01*
X237941Y63684D01*
X237942Y63685D01*
X237943Y63685D01*
X238105Y63794D01*
X238271Y63905D01*
X238272Y63906D01*
X238273Y63907D01*
X238382Y64070D01*
X238492Y64236D01*
X238861Y64916D01*
X239062Y65000D01*
X239938D01*
X240139Y64916D01*
X240508Y64236D01*
X240618Y64070D01*
X240727Y63907D01*
X240728Y63906D01*
X240728Y63905D01*
X240895Y63794D01*
X241057Y63685D01*
X241058Y63685D01*
X241059Y63684D01*
X241254Y63645D01*
X241447Y63607D01*
X241448Y63607D01*
X241449Y63607D01*
X244243D01*
X244244Y63607D01*
X244245Y63607D01*
X244440Y63646D01*
X244634Y63684D01*
X244635Y63685D01*
X244635Y63685D01*
X244800Y63796D01*
X244964Y63905D01*
X244965Y63906D01*
X244966Y63907D01*
X245075Y64071D01*
X245185Y64236D01*
X245553Y64916D01*
X245755Y65000D01*
X246631D01*
X246832Y64916D01*
X247200Y64236D01*
X247310Y64073D01*
X247420Y63907D01*
X247421Y63906D01*
X247421Y63905D01*
X247586Y63796D01*
X247750Y63685D01*
X247751Y63685D01*
X247752Y63684D01*
X247945Y63646D01*
X248140Y63607D01*
X248141Y63607D01*
X248142Y63607D01*
X259598D01*
X259704Y63628D01*
X259813Y63630D01*
X259897Y63666D01*
X259988Y63684D01*
X260078Y63745D01*
X260178Y63788D01*
X260242Y63854D01*
X260319Y63905D01*
X260379Y63996D01*
X260455Y64074D01*
X260726Y64494D01*
X260764Y64590D01*
X260819Y64677D01*
X261044Y65257D01*
X261077Y65442D01*
X261114Y65626D01*
X261111Y65637D01*
X261113Y65649D01*
X261073Y65832D01*
X261036Y66016D01*
X260837Y66497D01*
Y66967D01*
X261017Y67401D01*
X261300Y67685D01*
X261500Y67984D01*
X261698Y68015D01*
X262336D01*
X262534Y67984D01*
X262734Y67685D01*
X263018Y67401D01*
X263198Y66967D01*
Y66497D01*
X262998Y66016D01*
X262962Y65832D01*
X262921Y65649D01*
X262923Y65637D01*
X262921Y65626D01*
X262957Y65442D01*
X262990Y65257D01*
X263215Y64677D01*
X263271Y64590D01*
X263309Y64494D01*
X263580Y64074D01*
X263655Y63996D01*
X263716Y63905D01*
X263792Y63854D01*
X263856Y63788D01*
X263956Y63745D01*
X264046Y63684D01*
X264137Y63666D01*
X264221Y63630D01*
X264330Y63628D01*
X264437Y63607D01*
X268582D01*
X268929Y62656D01*
Y27077D01*
X268888Y26953D01*
X267929Y26124D01*
X263673Y26136D01*
X263671Y26136D01*
X263670Y26136D01*
X263477Y26097D01*
X263282Y26059D01*
X263281Y26059D01*
X263280Y26058D01*
X263115Y25948D01*
X262951Y25839D01*
X262950Y25838D01*
X262949Y25837D01*
X262686Y25574D01*
X262252Y25394D01*
X261782D01*
X261349Y25574D01*
X261076Y25847D01*
X260911Y25957D01*
X260748Y26067D01*
X260746Y26067D01*
X260745Y26068D01*
X260552Y26106D01*
X260358Y26145D01*
X249118Y26178D01*
X248396Y27048D01*
Y27923D01*
X248061Y28732D01*
X247442Y29351D01*
X246634Y29686D01*
X245758D01*
X244950Y29351D01*
X244331Y28732D01*
X243996Y27923D01*
Y27193D01*
X243910Y26947D01*
X243367Y26312D01*
X242334Y26312D01*
X241703Y27048D01*
Y27923D01*
X241368Y28732D01*
X240749Y29351D01*
X239941Y29686D01*
X239065D01*
X238257Y29351D01*
X237638Y28732D01*
X237303Y27923D01*
Y27212D01*
X237184Y26914D01*
X236681Y26344D01*
X235634Y26344D01*
X235010Y27048D01*
Y27923D01*
X234675Y28732D01*
X234056Y29351D01*
X233248Y29686D01*
X232372D01*
X231564Y29351D01*
X230945Y28732D01*
X230610Y27923D01*
Y27231D01*
X230451Y26875D01*
X229995Y26375D01*
X228934Y26376D01*
X228317Y27048D01*
Y27923D01*
X227982Y28732D01*
X227363Y29351D01*
X226555Y29686D01*
X225680D01*
X224871Y29351D01*
X224252Y28732D01*
X223917Y27923D01*
Y27250D01*
X223543Y26490D01*
X223383Y26252D01*
X222289Y26255D01*
X221622Y27257D01*
X221624Y27262D01*
Y28138D01*
X221289Y28946D01*
X220671Y29565D01*
X219862Y29900D01*
X218987D01*
X218178Y29565D01*
X217559Y28946D01*
X217224Y28138D01*
Y27270D01*
X217224Y27262D01*
X216552Y26272D01*
X209456Y26292D01*
X209371Y26275D01*
X209284Y26278D01*
X209177Y26237D01*
X209066Y26215D01*
X208993Y26167D01*
X208912Y26136D01*
X208829Y26058D01*
X208734Y25995D01*
X208686Y25923D01*
X208622Y25864D01*
X208368Y25506D01*
X208320Y25399D01*
X208255Y25301D01*
X207993Y24660D01*
X207955Y24467D01*
X207917Y24274D01*
X207917Y24272D01*
X207917Y24270D01*
X207956Y24077D01*
X207995Y23884D01*
X208180Y23435D01*
Y22965D01*
X208001Y22531D01*
X207669Y22199D01*
X207235Y22020D01*
X206765D01*
X206331Y22199D01*
X205999Y22531D01*
X205820Y22965D01*
Y23435D01*
X206010Y23895D01*
X206048Y24083D01*
X206088Y24272D01*
X206086Y24279D01*
X206088Y24285D01*
X206050Y24474D01*
X206015Y24663D01*
X205766Y25287D01*
X205705Y25381D01*
X205661Y25484D01*
X205403Y25861D01*
X205336Y25927D01*
X205284Y26005D01*
X205195Y26065D01*
X205119Y26140D01*
X205032Y26175D01*
X204954Y26227D01*
X204849Y26249D01*
X204750Y26289D01*
X204656Y26287D01*
X204564Y26306D01*
X200830Y26317D01*
X200632Y27317D01*
X201149Y27532D01*
X201768Y28151D01*
X202103Y28959D01*
Y29687D01*
X202525Y30130D01*
X202942Y30422D01*
X202944Y30421D01*
X203819D01*
X204627Y30756D01*
X205246Y31375D01*
X205581Y32184D01*
Y33059D01*
X205246Y33867D01*
X204627Y34486D01*
X203819Y34821D01*
X202944D01*
X202135Y34486D01*
X201516Y33867D01*
X201181Y33059D01*
Y32331D01*
X200759Y31888D01*
X200342Y31596D01*
X200341Y31597D01*
X199466D01*
X198657Y31262D01*
X198038Y30643D01*
X197703Y29834D01*
Y28959D01*
X198038Y28151D01*
X198657Y27532D01*
X199164Y27322D01*
X198964Y26322D01*
X194635Y26335D01*
X193949Y27062D01*
X194290Y33365D01*
X195134Y33897D01*
X196009D01*
X196818Y34232D01*
X197137Y34551D01*
X197715Y33973D01*
X198524Y33638D01*
X199399D01*
X200208Y33973D01*
X200827Y34592D01*
X201162Y35401D01*
Y36276D01*
X200827Y37084D01*
X200208Y37703D01*
X199399Y38038D01*
X198524D01*
X197715Y37703D01*
X197396Y37384D01*
X196818Y37962D01*
X196009Y38297D01*
X195559D01*
X194599Y39075D01*
X194898Y44588D01*
X194896Y44602D01*
X194899Y44616D01*
X194868Y44798D01*
X194842Y44982D01*
X194834Y44994D01*
X194832Y45008D01*
X194733Y45165D01*
X194639Y45324D01*
X194628Y45333D01*
X194620Y45344D01*
X194469Y45452D01*
X194320Y45563D01*
X194307Y45566D01*
X194296Y45574D01*
X193438Y45957D01*
X193500Y46108D01*
Y46904D01*
X193195Y47639D01*
X192681Y48153D01*
X193195Y48667D01*
X193500Y49402D01*
Y49897D01*
X194399Y50050D01*
X194480Y50081D01*
X194566Y50094D01*
X194664Y50152D01*
X194771Y50192D01*
X194834Y50252D01*
X194908Y50296D01*
X194976Y50388D01*
X195059Y50466D01*
X195095Y50545D01*
X195147Y50615D01*
X195175Y50725D01*
X195221Y50829D01*
X195224Y50916D01*
X195245Y51000D01*
X195437Y54539D01*
X195417Y54677D01*
X195414Y54817D01*
X194195Y60278D01*
X194137Y60410D01*
X194094Y60547D01*
X194057Y60591D01*
X194034Y60642D01*
X193930Y60742D01*
X193838Y60852D01*
X193828Y60857D01*
X193867Y60993D01*
X193924Y61139D01*
X193923Y61183D01*
X193935Y61226D01*
X193918Y61381D01*
X193914Y61536D01*
X193762Y62220D01*
X194640Y62875D01*
X195062Y62700D01*
X195938D01*
X196746Y63035D01*
X197365Y63654D01*
X197700Y64462D01*
Y65338D01*
X197365Y66146D01*
X196746Y66765D01*
X195938Y67100D01*
X195226D01*
X194693Y67546D01*
X194395Y67906D01*
X195204Y71194D01*
X201052Y70788D01*
X201070Y70790D01*
X201087Y70786D01*
X201267Y70815D01*
X201447Y70838D01*
X201462Y70847D01*
X201480Y70850D01*
X201634Y70946D01*
X201792Y71036D01*
X201803Y71050D01*
X201818Y71060D01*
X201924Y71207D01*
X202035Y71351D01*
X202040Y71368D01*
X202050Y71383D01*
X202493Y72354D01*
X202497Y72372D01*
X202507Y72387D01*
X202542Y72565D01*
X202560Y72639D01*
X203516Y72571D01*
D02*
G37*
G36*
X188269Y52801D02*
X188601Y52469D01*
X188858Y51847D01*
X188925Y51747D01*
X188897Y51614D01*
X188677Y51155D01*
X188416Y50797D01*
X188294Y50770D01*
X188110Y50734D01*
X187835Y50620D01*
X187365D01*
X186931Y50799D01*
X186599Y51131D01*
X186420Y51565D01*
Y52035D01*
X186599Y52469D01*
X186931Y52801D01*
X187365Y52980D01*
X187835D01*
X188269Y52801D01*
D02*
G37*
G36*
X188513Y46870D02*
X188609Y46831D01*
X189134Y46730D01*
X189244Y46543D01*
X189632Y45625D01*
X189561Y45554D01*
X189478Y45498D01*
X189422Y45414D01*
X189351Y45343D01*
X189313Y45251D01*
X189257Y45167D01*
X189201Y45031D01*
X188869Y44699D01*
X188435Y44520D01*
X187965D01*
X187531Y44699D01*
X187199Y45031D01*
X187020Y45465D01*
Y45935D01*
X187199Y46369D01*
X187531Y46701D01*
X187965Y46880D01*
X188460D01*
X188513Y46870D01*
D02*
G37*
G36*
X107783Y85183D02*
X107800Y85100D01*
Y31520D01*
Y30500D01*
X133900D01*
Y36000D01*
X133918Y36092D01*
X133971Y36171D01*
X141863Y44063D01*
X141863Y44063D01*
X141863Y44063D01*
X142700Y44900D01*
X142600Y45100D01*
Y56400D01*
X142617Y56483D01*
X142700Y56500D01*
X157300D01*
X157392Y56482D01*
X157471Y56429D01*
X157529Y56371D01*
X157581Y56292D01*
X157600Y56200D01*
Y54035D01*
Y45965D01*
Y43500D01*
X157583Y43417D01*
X157500Y43400D01*
X151800D01*
X150094Y40688D01*
X147900Y37200D01*
X144900Y33000D01*
X145197Y24885D01*
X145184Y24822D01*
Y24806D01*
X145174Y24795D01*
X145140Y24740D01*
X138700Y18300D01*
Y17600D01*
X138683Y17517D01*
X138600Y17500D01*
X88816D01*
X88755Y17512D01*
X88720D01*
X88694Y17535D01*
X88640Y17566D01*
X86907Y19064D01*
X86796Y19333D01*
X86233Y19895D01*
X85682Y20124D01*
X84900Y20800D01*
X83930Y21285D01*
X83929Y21287D01*
X83916Y21295D01*
X83546Y21665D01*
X82925Y21922D01*
X82925Y21922D01*
X82738Y22000D01*
X82574D01*
X82539Y22009D01*
X82503Y22012D01*
X82469Y22026D01*
X82434Y22033D01*
X82025Y22238D01*
X82009Y22250D01*
X81937Y22286D01*
X81876Y22337D01*
X81858Y22347D01*
X73673Y29238D01*
X73618Y29309D01*
X73618Y29309D01*
X73618Y29310D01*
X73593Y29395D01*
X73300Y33250D01*
X73000Y37200D01*
Y43400D01*
Y49100D01*
X73017Y49183D01*
X73100Y49200D01*
X77821D01*
X78014Y49162D01*
X78162Y49100D01*
X79038D01*
X79186Y49162D01*
X79379Y49200D01*
X85944D01*
X86081Y48993D01*
X86454Y48065D01*
X85835Y47446D01*
X85500Y46638D01*
Y45762D01*
X85835Y44954D01*
X86454Y44335D01*
X87262Y44000D01*
X88138D01*
X88946Y44335D01*
X89565Y44954D01*
X89900Y45762D01*
Y46638D01*
X89565Y47446D01*
X88946Y48065D01*
X89337Y48981D01*
X89493Y49200D01*
X93500D01*
X94900Y50600D01*
Y76088D01*
X94918Y76181D01*
X94971Y76260D01*
X95065Y76354D01*
X95322Y76975D01*
X95322Y76975D01*
X95400Y77162D01*
Y78038D01*
X95065Y78846D01*
X94971Y78940D01*
X94919Y79019D01*
X94900Y79112D01*
Y82951D01*
X94915Y82987D01*
X94971Y83071D01*
X97029Y85129D01*
X97108Y85181D01*
X97200Y85200D01*
X107700D01*
X107783Y85183D01*
D02*
G37*
G36*
X266297Y20129D02*
X266629Y19797D01*
X266793Y19400D01*
X266852Y19312D01*
X266894Y19214D01*
X266514Y18345D01*
X266297Y18127D01*
X265863Y17948D01*
X265393D01*
X264960Y18127D01*
X264628Y18460D01*
X264448Y18893D01*
Y19363D01*
X264628Y19797D01*
X264960Y20129D01*
X265393Y20309D01*
X265863D01*
X266297Y20129D01*
D02*
G37*
G36*
X258780Y7178D02*
Y6161D01*
X258806Y6030D01*
X258815Y5897D01*
X258917Y5516D01*
Y4484D01*
X258815Y4103D01*
X258806Y3969D01*
X258780Y3839D01*
Y1071D01*
X249323D01*
X249241Y1267D01*
X249009Y2071D01*
X249601Y3094D01*
X249937Y4350D01*
Y5650D01*
X249601Y6906D01*
X248951Y8031D01*
X248031Y8951D01*
X247633Y9180D01*
X247901Y10180D01*
X255778D01*
X258780Y7178D01*
D02*
G37*
%LPC*%
G36*
X116138Y72853D02*
X115262D01*
X114454Y72518D01*
X113835Y71899D01*
X113500Y71091D01*
Y70216D01*
X113835Y69407D01*
X114454Y68788D01*
X115262Y68453D01*
X116138D01*
X116946Y68788D01*
X117565Y69407D01*
X117900Y70216D01*
Y71091D01*
X117565Y71899D01*
X116946Y72518D01*
X116138Y72853D01*
D02*
G37*
G36*
X122938Y41900D02*
X122062D01*
X121254Y41565D01*
X120635Y40946D01*
X120300Y40138D01*
Y39262D01*
X120635Y38454D01*
X121254Y37835D01*
X122062Y37500D01*
X122938D01*
X123746Y37835D01*
X124365Y38454D01*
X124700Y39262D01*
Y40138D01*
X124365Y40946D01*
X123746Y41565D01*
X122938Y41900D01*
D02*
G37*
G36*
X43138Y91000D02*
X42262D01*
X41454Y90665D01*
X40835Y90046D01*
X40500Y89238D01*
Y88362D01*
X40835Y87554D01*
X41454Y86935D01*
X42262Y86600D01*
X43138D01*
X43946Y86935D01*
X44565Y87554D01*
X44900Y88362D01*
Y89238D01*
X44565Y90046D01*
X43946Y90665D01*
X43138Y91000D01*
D02*
G37*
G36*
X60338Y90500D02*
X59462D01*
X58654Y90165D01*
X58035Y89546D01*
X57700Y88738D01*
Y87862D01*
X58035Y87054D01*
X58654Y86435D01*
X59462Y86100D01*
X60338D01*
X61146Y86435D01*
X61765Y87054D01*
X62100Y87862D01*
Y88738D01*
X61765Y89546D01*
X61146Y90165D01*
X60338Y90500D01*
D02*
G37*
G36*
X29658Y86200D02*
X28942D01*
X28280Y85926D01*
X27774Y85420D01*
X27500Y84758D01*
Y84042D01*
X27774Y83380D01*
X28280Y82874D01*
X28942Y82600D01*
X29658D01*
X30320Y82874D01*
X30826Y83380D01*
X31100Y84042D01*
Y84758D01*
X30826Y85420D01*
X30320Y85926D01*
X29658Y86200D01*
D02*
G37*
G36*
X20938Y86300D02*
X20062D01*
X19254Y85965D01*
X18635Y85346D01*
X18300Y84538D01*
Y83662D01*
X18635Y82854D01*
X19254Y82235D01*
X20062Y81900D01*
X20938D01*
X21746Y82235D01*
X22365Y82854D01*
X22700Y83662D01*
Y84538D01*
X22365Y85346D01*
X21746Y85965D01*
X20938Y86300D01*
D02*
G37*
G36*
X43391Y84270D02*
X42516D01*
X41707Y83935D01*
X41088Y83316D01*
X40753Y82508D01*
Y81632D01*
X41088Y80824D01*
X41707Y80205D01*
X42516Y79870D01*
X43391D01*
X44200Y80205D01*
X44818Y80824D01*
X45153Y81632D01*
Y82508D01*
X44818Y83316D01*
X44200Y83935D01*
X43391Y84270D01*
D02*
G37*
G36*
X50938Y83400D02*
X50062D01*
X49254Y83065D01*
X48635Y82446D01*
X48300Y81638D01*
Y80762D01*
X48635Y79954D01*
X49254Y79335D01*
X50062Y79000D01*
X50938D01*
X51746Y79335D01*
X52365Y79954D01*
X52700Y80762D01*
Y81638D01*
X52365Y82446D01*
X51746Y83065D01*
X50938Y83400D01*
D02*
G37*
G36*
X60338Y82200D02*
X59462D01*
X58654Y81865D01*
X58035Y81246D01*
X57700Y80438D01*
Y79562D01*
X58035Y78754D01*
X58654Y78135D01*
X59462Y77800D01*
X60338D01*
X61146Y78135D01*
X61765Y78754D01*
X62100Y79562D01*
Y80438D01*
X61765Y81246D01*
X61146Y81865D01*
X60338Y82200D01*
D02*
G37*
G36*
X50889Y76627D02*
X50014D01*
X49205Y76292D01*
X48586Y75673D01*
X48251Y74864D01*
Y73989D01*
X48586Y73181D01*
X49205Y72562D01*
X50014Y72227D01*
X50889D01*
X51698Y72562D01*
X52316Y73181D01*
X52651Y73989D01*
Y74864D01*
X52316Y75673D01*
X51698Y76292D01*
X50889Y76627D01*
D02*
G37*
G36*
X90938Y65900D02*
X90062D01*
X89254Y65565D01*
X88635Y64946D01*
X88300Y64138D01*
Y63262D01*
X88635Y62454D01*
X89254Y61835D01*
X90062Y61500D01*
X90938D01*
X91746Y61835D01*
X92365Y62454D01*
X92700Y63262D01*
Y64138D01*
X92365Y64946D01*
X91746Y65565D01*
X90938Y65900D01*
D02*
G37*
G36*
X81753Y61700D02*
X80877D01*
X80069Y61365D01*
X79450Y60746D01*
X79115Y59938D01*
Y59062D01*
X79450Y58254D01*
X80069Y57635D01*
X80877Y57300D01*
X81753D01*
X82561Y57635D01*
X83180Y58254D01*
X83515Y59062D01*
Y59938D01*
X83180Y60746D01*
X82561Y61365D01*
X81753Y61700D01*
D02*
G37*
G36*
X37450Y67010D02*
X36150D01*
X34894Y66673D01*
X33769Y66023D01*
X32849Y65104D01*
X32199Y63978D01*
X31863Y62722D01*
Y61422D01*
X32199Y60167D01*
X32849Y59041D01*
X33769Y58122D01*
X34894Y57472D01*
X34894Y57471D01*
Y56437D01*
X34894Y56437D01*
X33769Y55787D01*
X32849Y54868D01*
X32199Y53742D01*
X31863Y52486D01*
Y51186D01*
X32199Y49931D01*
X32849Y48805D01*
X33769Y47886D01*
X34894Y47236D01*
X34894Y47235D01*
Y46201D01*
X34894Y46200D01*
X33769Y45551D01*
X32849Y44631D01*
X32199Y43506D01*
X31863Y42250D01*
Y40950D01*
X32199Y39694D01*
X32849Y38569D01*
X33769Y37649D01*
X34894Y36999D01*
X36150Y36663D01*
X37450D01*
X38706Y36999D01*
X39831Y37649D01*
X40751Y38569D01*
X41401Y39694D01*
X41737Y40950D01*
Y42250D01*
X41401Y43506D01*
X40751Y44631D01*
X39831Y45551D01*
X38706Y46200D01*
X38706Y46201D01*
Y47235D01*
X38706Y47236D01*
X39831Y47886D01*
X40751Y48805D01*
X41401Y49931D01*
X41737Y51186D01*
Y52486D01*
X41401Y53742D01*
X40751Y54868D01*
X39831Y55787D01*
X38706Y56437D01*
X38706Y56437D01*
Y57471D01*
X38706Y57472D01*
X39831Y58122D01*
X40751Y59041D01*
X41401Y60167D01*
X41737Y61422D01*
Y62722D01*
X41401Y63978D01*
X40751Y65104D01*
X39831Y66023D01*
X38706Y66673D01*
X37450Y67010D01*
D02*
G37*
G36*
X40098Y32700D02*
X39302D01*
X38567Y32395D01*
X38004Y31833D01*
X37700Y31098D01*
Y30302D01*
X38004Y29567D01*
X38567Y29004D01*
X39302Y28700D01*
X40098D01*
X40833Y29004D01*
X41396Y29567D01*
X41700Y30302D01*
Y31098D01*
X41396Y31833D01*
X40833Y32395D01*
X40098Y32700D01*
D02*
G37*
G36*
X33945D02*
X33149D01*
X32414Y32395D01*
X31852Y31833D01*
X31547Y31098D01*
Y30302D01*
X31852Y29567D01*
X32414Y29004D01*
X33149Y28700D01*
X33945D01*
X34680Y29004D01*
X35243Y29567D01*
X35547Y30302D01*
Y31098D01*
X35243Y31833D01*
X34680Y32395D01*
X33945Y32700D01*
D02*
G37*
G36*
X29854Y28729D02*
X29138D01*
X28477Y28455D01*
X27970Y27949D01*
X27696Y27287D01*
Y26571D01*
X27970Y25910D01*
X28477Y25403D01*
X29138Y25129D01*
X29854D01*
X30516Y25403D01*
X31022Y25910D01*
X31296Y26571D01*
Y27287D01*
X31022Y27949D01*
X30516Y28455D01*
X29854Y28729D01*
D02*
G37*
G36*
X49138Y28200D02*
X48262D01*
X47454Y27865D01*
X46835Y27246D01*
X46500Y26438D01*
Y25562D01*
X46835Y24754D01*
X47454Y24135D01*
X48262Y23800D01*
X49138D01*
X49946Y24135D01*
X50565Y24754D01*
X50900Y25562D01*
Y26438D01*
X50565Y27246D01*
X49946Y27865D01*
X49138Y28200D01*
D02*
G37*
G36*
X48999Y21138D02*
X48124D01*
X47316Y20803D01*
X46697Y20184D01*
X46362Y19376D01*
Y18501D01*
X46697Y17692D01*
X47316Y17073D01*
X48124Y16738D01*
X48999D01*
X49808Y17073D01*
X50427Y17692D01*
X50762Y18501D01*
Y19376D01*
X50427Y20184D01*
X49808Y20803D01*
X48999Y21138D01*
D02*
G37*
G36*
X28886Y16918D02*
X28170D01*
X27508Y16644D01*
X27002Y16138D01*
X26728Y15476D01*
Y14760D01*
X27002Y14098D01*
X27508Y13592D01*
X28170Y13318D01*
X28886D01*
X29547Y13592D01*
X30053Y14098D01*
X30328Y14760D01*
Y15476D01*
X30053Y16138D01*
X29547Y16644D01*
X28886Y16918D01*
D02*
G37*
G36*
X261438Y83700D02*
X260562D01*
X259754Y83365D01*
X259135Y82746D01*
X258878Y82125D01*
X258878Y82125D01*
X258800Y81938D01*
Y81062D01*
X259135Y80254D01*
X259754Y79635D01*
X260375Y79378D01*
X260375Y79378D01*
X260562Y79300D01*
X261438D01*
X262246Y79635D01*
X262865Y80254D01*
X263122Y80875D01*
X263122Y80875D01*
X263200Y81062D01*
Y81938D01*
X262865Y82746D01*
X262246Y83365D01*
X261625Y83622D01*
X261625Y83622D01*
X261438Y83700D01*
D02*
G37*
G36*
X236594Y74714D02*
X235719D01*
X234910Y74379D01*
X234292Y73760D01*
X233957Y72952D01*
Y72077D01*
X234292Y71268D01*
X234910Y70649D01*
X235719Y70314D01*
X236594D01*
X237403Y70649D01*
X238022Y71268D01*
X238356Y72077D01*
Y72952D01*
X238022Y73760D01*
X237403Y74379D01*
X236594Y74714D01*
D02*
G37*
G36*
X229901D02*
X229026D01*
X228217Y74379D01*
X227599Y73760D01*
X227264Y72952D01*
Y72077D01*
X227599Y71268D01*
X228217Y70649D01*
X229026Y70314D01*
X229901D01*
X230710Y70649D01*
X231329Y71268D01*
X231664Y72077D01*
Y72952D01*
X231329Y73760D01*
X230710Y74379D01*
X229901Y74714D01*
D02*
G37*
G36*
X223208D02*
X222333D01*
X221525Y74379D01*
X220906Y73760D01*
X220571Y72952D01*
Y72077D01*
X220906Y71268D01*
X221525Y70649D01*
X222333Y70314D01*
X223208D01*
X224017Y70649D01*
X224636Y71268D01*
X224971Y72077D01*
Y72952D01*
X224636Y73760D01*
X224017Y74379D01*
X223208Y74714D01*
D02*
G37*
G36*
X216515D02*
X215640D01*
X214832Y74379D01*
X214213Y73760D01*
X213878Y72952D01*
Y72077D01*
X214213Y71268D01*
X214832Y70649D01*
X215640Y70314D01*
X216515D01*
X217324Y70649D01*
X217943Y71268D01*
X218278Y72077D01*
Y72952D01*
X217943Y73760D01*
X217324Y74379D01*
X216515Y74714D01*
D02*
G37*
G36*
X243338Y74321D02*
X242462D01*
X241654Y73985D01*
X241035Y73367D01*
X240700Y72558D01*
Y71683D01*
X241035Y70874D01*
X241654Y70255D01*
X242462Y69920D01*
X243338D01*
X244146Y70255D01*
X244765Y70874D01*
X245100Y71683D01*
Y72558D01*
X244765Y73367D01*
X244146Y73985D01*
X243338Y74321D01*
D02*
G37*
G36*
X249938Y74200D02*
X249062D01*
X248254Y73865D01*
X247635Y73246D01*
X247300Y72438D01*
Y71562D01*
X247635Y70754D01*
X248254Y70135D01*
X249062Y69800D01*
X249938D01*
X250746Y70135D01*
X251365Y70754D01*
X251700Y71562D01*
Y72438D01*
X251365Y73246D01*
X250746Y73865D01*
X249938Y74200D01*
D02*
G37*
G36*
X190938Y72500D02*
X190062D01*
X189254Y72165D01*
X188635Y71546D01*
X188300Y70738D01*
Y70725D01*
X187996Y69800D01*
X187187Y69465D01*
X186568Y68846D01*
X186234Y68038D01*
Y67162D01*
X186568Y66354D01*
X187187Y65735D01*
X187996Y65400D01*
X188871D01*
X189680Y65735D01*
X190299Y66354D01*
X190634Y67162D01*
Y67175D01*
X190938Y68100D01*
X191746Y68435D01*
X192365Y69054D01*
X192700Y69862D01*
Y70738D01*
X192365Y71546D01*
X191746Y72165D01*
X190938Y72500D01*
D02*
G37*
G36*
X184438Y64700D02*
X183562D01*
X182754Y64365D01*
X182135Y63746D01*
X181800Y62938D01*
Y62062D01*
X182135Y61254D01*
X182754Y60635D01*
X183562Y60300D01*
X184438D01*
X185246Y60635D01*
X185865Y61254D01*
X186200Y62062D01*
Y62938D01*
X185865Y63746D01*
X185246Y64365D01*
X184438Y64700D01*
D02*
G37*
G36*
X184938Y58700D02*
X184062D01*
X183254Y58365D01*
X182635Y57746D01*
X182300Y56938D01*
Y56062D01*
X182635Y55254D01*
X183254Y54635D01*
X184062Y54300D01*
X184938D01*
X185746Y54635D01*
X186365Y55254D01*
X186700Y56062D01*
Y56938D01*
X186365Y57746D01*
X185746Y58365D01*
X184938Y58700D01*
D02*
G37*
G36*
X179638Y56000D02*
X178762D01*
X177954Y55665D01*
X177335Y55046D01*
X177000Y54238D01*
Y53362D01*
X177335Y52554D01*
X177954Y51935D01*
X178762Y51600D01*
X179638D01*
X179800Y51491D01*
Y50928D01*
X180135Y50120D01*
X180754Y49501D01*
X181562Y49166D01*
X182438D01*
X183246Y49501D01*
X183865Y50120D01*
X184200Y50928D01*
Y51804D01*
X183865Y52612D01*
X183246Y53231D01*
X182438Y53566D01*
X181562D01*
X181400Y53675D01*
Y54238D01*
X181065Y55046D01*
X180446Y55665D01*
X179638Y56000D01*
D02*
G37*
G36*
X187838Y37900D02*
X186962D01*
X186154Y37565D01*
X185700Y37111D01*
X185246Y37565D01*
X184438Y37900D01*
X183562D01*
X182754Y37565D01*
X182135Y36946D01*
X181800Y36138D01*
Y35262D01*
X182135Y34454D01*
X182754Y33835D01*
X183562Y33500D01*
X184438D01*
X185246Y33835D01*
X185700Y34289D01*
X186154Y33835D01*
X186962Y33500D01*
X187838D01*
X188646Y33835D01*
X189265Y34454D01*
X189600Y35262D01*
Y36138D01*
X189265Y36946D01*
X188646Y37565D01*
X187838Y37900D01*
D02*
G37*
%LPD*%
G36*
X261669Y82501D02*
X262001Y82169D01*
X262180Y81735D01*
Y81265D01*
X262001Y80831D01*
X261669Y80499D01*
X261235Y80320D01*
X260765D01*
X260331Y80499D01*
X259999Y80831D01*
X259820Y81265D01*
Y81735D01*
X259999Y82169D01*
X260331Y82501D01*
X260765Y82680D01*
X261235D01*
X261669Y82501D01*
D02*
G37*
%LPC*%
G36*
X204798Y53400D02*
X204002D01*
X203267Y53096D01*
X202705Y52533D01*
X202400Y51798D01*
Y51002D01*
X202705Y50267D01*
X203267Y49705D01*
X204002Y49400D01*
X204798D01*
X205533Y49705D01*
X206096Y50267D01*
X206400Y51002D01*
Y51798D01*
X206096Y52533D01*
X205533Y53096D01*
X204798Y53400D01*
D02*
G37*
G36*
X204719Y47250D02*
X203923D01*
X203188Y46946D01*
X202625Y46383D01*
X202321Y45648D01*
Y44852D01*
X202625Y44117D01*
X203188Y43554D01*
X203923Y43250D01*
X204719D01*
X205454Y43554D01*
X206016Y44117D01*
X206321Y44852D01*
Y45648D01*
X206016Y46383D01*
X205454Y46946D01*
X204719Y47250D01*
D02*
G37*
G36*
X216518Y35000D02*
X215643D01*
X214835Y34665D01*
X214216Y34046D01*
X213881Y33238D01*
Y32362D01*
X214216Y31554D01*
X214835Y30935D01*
X215643Y30600D01*
X216518D01*
X217327Y30935D01*
X217946Y31554D01*
X218281Y32362D01*
Y33238D01*
X217946Y34046D01*
X217327Y34665D01*
X216518Y35000D01*
D02*
G37*
G36*
X250033Y34606D02*
X249158D01*
X248350Y34271D01*
X247731Y33652D01*
X247396Y32844D01*
Y31969D01*
X247731Y31160D01*
X248350Y30541D01*
X249158Y30206D01*
X250033D01*
X250842Y30541D01*
X251461Y31160D01*
X251796Y31969D01*
Y32844D01*
X251461Y33652D01*
X250842Y34271D01*
X250033Y34606D01*
D02*
G37*
G36*
X243341D02*
X242465D01*
X241657Y34271D01*
X241038Y33652D01*
X240703Y32844D01*
Y31969D01*
X241038Y31160D01*
X241657Y30541D01*
X242465Y30206D01*
X243341D01*
X244149Y30541D01*
X244768Y31160D01*
X245103Y31969D01*
Y32844D01*
X244768Y33652D01*
X244149Y34271D01*
X243341Y34606D01*
D02*
G37*
G36*
X236648D02*
X235772D01*
X234964Y34271D01*
X234345Y33652D01*
X234010Y32844D01*
Y31969D01*
X234345Y31160D01*
X234964Y30541D01*
X235772Y30206D01*
X236648D01*
X237456Y30541D01*
X238075Y31160D01*
X238410Y31969D01*
Y32844D01*
X238075Y33652D01*
X237456Y34271D01*
X236648Y34606D01*
D02*
G37*
G36*
X229955D02*
X229080D01*
X228271Y34271D01*
X227652Y33652D01*
X227317Y32844D01*
Y31969D01*
X227652Y31160D01*
X228271Y30541D01*
X229080Y30206D01*
X229955D01*
X230763Y30541D01*
X231382Y31160D01*
X231717Y31969D01*
Y32844D01*
X231382Y33652D01*
X230763Y34271D01*
X229955Y34606D01*
D02*
G37*
G36*
X223262D02*
X222387D01*
X221578Y34271D01*
X220959Y33652D01*
X220624Y32844D01*
Y31969D01*
X220959Y31160D01*
X221578Y30541D01*
X222387Y30206D01*
X223262D01*
X224071Y30541D01*
X224689Y31160D01*
X225024Y31969D01*
Y32844D01*
X224689Y33652D01*
X224071Y34271D01*
X223262Y34606D01*
D02*
G37*
G36*
X87738Y41200D02*
X86862D01*
X86054Y40865D01*
X85435Y40246D01*
X85100Y39438D01*
Y38562D01*
X85435Y37754D01*
X85975Y37214D01*
X85918Y37129D01*
X85635Y36846D01*
X85378Y36225D01*
X85378Y36225D01*
X85300Y36038D01*
Y35162D01*
X85635Y34354D01*
X85868Y34121D01*
X85915Y34050D01*
X85868Y33979D01*
X85535Y33646D01*
X85278Y33025D01*
X85278Y33025D01*
X85200Y32838D01*
Y31962D01*
X85535Y31154D01*
X85818Y30871D01*
X85865Y30800D01*
X85818Y30729D01*
X85335Y30246D01*
X85078Y29625D01*
X85078Y29625D01*
X85000Y29438D01*
Y28562D01*
X85078Y28375D01*
X85078Y28375D01*
X85335Y27754D01*
X85954Y27135D01*
X86762Y26800D01*
X87638D01*
X88446Y27135D01*
X88510Y27198D01*
X88521Y27204D01*
X89114Y27661D01*
X89150Y27681D01*
X89186Y27661D01*
X89780Y27204D01*
X89790Y27198D01*
X89854Y27135D01*
X90662Y26800D01*
X91538D01*
X92346Y27135D01*
X92490Y27278D01*
X92490Y27278D01*
X92670Y27458D01*
X93654Y27235D01*
X94462Y26900D01*
X95338D01*
X96146Y27235D01*
X96765Y27854D01*
X97022Y28475D01*
X97022Y28475D01*
X97100Y28662D01*
Y29538D01*
X96765Y30346D01*
X96522Y31010D01*
X96665Y31154D01*
X96922Y31775D01*
X96922Y31775D01*
X97000Y31962D01*
Y32838D01*
X96665Y33646D01*
X96432Y33879D01*
X96385Y33950D01*
X96432Y34021D01*
X96765Y34354D01*
X97022Y34975D01*
X97022Y34975D01*
X97100Y35162D01*
Y36038D01*
X96765Y36846D01*
X96146Y37465D01*
X95525Y37722D01*
X95525Y37722D01*
X95338Y37800D01*
X94462D01*
X93654Y37465D01*
X93547Y37358D01*
X93545Y37357D01*
X93034Y36898D01*
X93001Y36875D01*
X92964Y36893D01*
X92326Y37312D01*
X92280Y37331D01*
X92246Y37365D01*
X91438Y37700D01*
X90562D01*
X90375Y37622D01*
X90375Y37622D01*
X90248Y37570D01*
X90159Y37552D01*
X90084Y37602D01*
X89549Y38138D01*
X89373Y38255D01*
X89500Y38562D01*
Y39438D01*
X89165Y40246D01*
X88546Y40865D01*
X87738Y41200D01*
D02*
G37*
%LPD*%
G36*
X89434Y36810D02*
X89500Y36766D01*
X89765Y36589D01*
X90155Y36512D01*
X90155D01*
X90155D01*
X90545Y36589D01*
X90545Y36589D01*
X90765Y36680D01*
X91235D01*
X91766Y36460D01*
X92441Y36017D01*
X92505Y35990D01*
X92561Y35949D01*
X92688Y35916D01*
X92810Y35867D01*
X92879Y35868D01*
X92947Y35850D01*
X93076Y35869D01*
X93207Y35870D01*
X93271Y35897D01*
X93340Y35907D01*
X93453Y35974D01*
X93574Y36025D01*
X93623Y36075D01*
X93683Y36110D01*
X94226Y36599D01*
X94665Y36780D01*
X95135D01*
X95569Y36601D01*
X95901Y36269D01*
X96080Y35835D01*
Y35365D01*
X95901Y34931D01*
X95640Y34671D01*
X95419Y34340D01*
X95342Y33950D01*
X95419Y33560D01*
X95640Y33229D01*
X95801Y33069D01*
X95980Y32635D01*
Y32165D01*
X95801Y31731D01*
X95590Y31521D01*
X95369Y31190D01*
X95292Y30800D01*
X95369Y30410D01*
X95590Y30079D01*
X95901Y29769D01*
X96080Y29335D01*
Y28865D01*
X95901Y28431D01*
X95569Y28099D01*
X95135Y27920D01*
X94665D01*
X94164Y28127D01*
X93579Y28568D01*
X93463Y28624D01*
X93355Y28696D01*
X93285Y28710D01*
X93220Y28741D01*
X93091Y28748D01*
X92965Y28773D01*
X92895Y28759D01*
X92823Y28763D01*
X92701Y28721D01*
X92575Y28696D01*
X92515Y28656D01*
X92448Y28632D01*
X92351Y28546D01*
X92244Y28475D01*
X91769Y27999D01*
X91335Y27820D01*
X90865D01*
X90402Y28012D01*
X89772Y28496D01*
X89710Y28527D01*
X89658Y28572D01*
X89534Y28614D01*
X89416Y28673D01*
X89347Y28677D01*
X89281Y28699D01*
X89150Y28691D01*
X89018Y28699D01*
X88953Y28677D01*
X88885Y28673D01*
X88766Y28614D01*
X88642Y28572D01*
X88590Y28527D01*
X88528Y28496D01*
X87899Y28012D01*
X87435Y27820D01*
X86965D01*
X86547Y27993D01*
X86193Y28347D01*
X86020Y28765D01*
Y29235D01*
X86199Y29669D01*
X86610Y30079D01*
X86831Y30410D01*
X86908Y30800D01*
X86831Y31190D01*
X86610Y31521D01*
X86399Y31731D01*
X86220Y32165D01*
Y32635D01*
X86399Y33069D01*
X86660Y33329D01*
X86881Y33660D01*
X86958Y34050D01*
X86881Y34440D01*
X86660Y34771D01*
X86499Y34931D01*
X86320Y35365D01*
Y35835D01*
X86499Y36269D01*
X86710Y36479D01*
X86924Y36800D01*
X87738D01*
X88546Y37135D01*
X88828Y37417D01*
X89434Y36810D01*
D02*
G37*
D11*
X256650Y88550D02*
X256700Y88600D01*
D70*
X86940Y89178D02*
X87400Y88718D01*
Y81700D02*
Y88718D01*
X54700Y63000D02*
X57600Y60100D01*
D73*
X36800Y62072D02*
D03*
Y41600D02*
D03*
Y51836D02*
D03*
X205000Y5000D02*
D03*
X215000D02*
D03*
X55000D02*
D03*
X45000D02*
D03*
X235000D02*
D03*
X225000D02*
D03*
X195000D02*
D03*
X185000D02*
D03*
X175000D02*
D03*
X165000D02*
D03*
X155000D02*
D03*
X145000D02*
D03*
X135000D02*
D03*
X125000D02*
D03*
X115000D02*
D03*
X105000D02*
D03*
X95000D02*
D03*
X85000D02*
D03*
X65000Y95000D02*
D03*
X75000D02*
D03*
X85000D02*
D03*
X95000D02*
D03*
X105000D02*
D03*
X115000D02*
D03*
X125000D02*
D03*
X135000D02*
D03*
X145000D02*
D03*
X155000D02*
D03*
X165000D02*
D03*
X175000D02*
D03*
X185000D02*
D03*
X195000D02*
D03*
X205000D02*
D03*
X215000D02*
D03*
X225000D02*
D03*
X235000D02*
D03*
X265000D02*
D03*
X255000Y5000D02*
D03*
X45000Y95000D02*
D03*
X35000Y5000D02*
D03*
X245000Y95000D02*
D03*
X75000Y5000D02*
D03*
X65000D02*
D03*
X245000D02*
D03*
X55000Y95000D02*
D03*
X255000D02*
D03*
X265000Y5000D02*
D03*
X147500Y50000D02*
D03*
X137500D02*
D03*
X35000Y95000D02*
D03*
D74*
X5965D02*
D03*
X22500D02*
D03*
Y60984D02*
D03*
Y39016D02*
D03*
X5965Y60984D02*
D03*
Y39016D02*
D03*
X22500Y5000D02*
D03*
X5965D02*
D03*
D75*
X86940Y89178D02*
D03*
X59500Y67000D02*
D03*
X69456Y32391D02*
D03*
X85100Y15000D02*
D03*
Y18200D02*
D03*
X257300Y68300D02*
D03*
X122500Y39700D02*
D03*
X50100Y61700D02*
D03*
X59900Y88300D02*
D03*
X75720Y57393D02*
D03*
X37381Y71619D02*
D03*
X20500Y84100D02*
D03*
X50451Y74427D02*
D03*
X42953Y82070D02*
D03*
X50500Y81200D02*
D03*
X53433Y66155D02*
D03*
X42700Y88800D02*
D03*
X29300Y84400D02*
D03*
X19900Y90800D02*
D03*
X59900Y80000D02*
D03*
X187400Y35700D02*
D03*
X166804Y41100D02*
D03*
X195571Y36097D02*
D03*
X198962Y35838D02*
D03*
X187600Y51800D02*
D03*
X188200Y45700D02*
D03*
X51400Y15900D02*
D03*
X51200Y22900D02*
D03*
X48562Y18938D02*
D03*
X48700Y26000D02*
D03*
X28528Y15118D02*
D03*
X29496Y26929D02*
D03*
X191500Y46506D02*
D03*
Y49800D02*
D03*
X182000Y51366D02*
D03*
X203381Y32621D02*
D03*
X199903Y29397D02*
D03*
X33547Y30700D02*
D03*
X39700D02*
D03*
X207510Y44991D02*
D03*
X207700Y51300D02*
D03*
X204321Y45250D02*
D03*
X204400Y51400D02*
D03*
X78200Y15200D02*
D03*
X82300Y19800D02*
D03*
X29600Y59700D02*
D03*
X29500Y40400D02*
D03*
X46600Y65300D02*
D03*
X49665Y77813D02*
D03*
X49782Y85329D02*
D03*
X53524Y89043D02*
D03*
X37600Y11900D02*
D03*
X30091Y9409D02*
D03*
X87300Y39000D02*
D03*
X87700Y46200D02*
D03*
X94900Y35600D02*
D03*
X91000Y35500D02*
D03*
X87500Y35600D02*
D03*
X87400Y32400D02*
D03*
X91100D02*
D03*
X94800D02*
D03*
X94900Y29100D02*
D03*
X91100Y29000D02*
D03*
X87200D02*
D03*
X127402Y39698D02*
D03*
X115700Y70653D02*
D03*
X99300Y80200D02*
D03*
X93200Y77600D02*
D03*
X74512Y88765D02*
D03*
X179200Y53800D02*
D03*
X87600Y71400D02*
D03*
X67000Y73000D02*
D03*
X67200Y80800D02*
D03*
X74600Y80700D02*
D03*
X74900Y73000D02*
D03*
X71000Y88800D02*
D03*
X54700Y63000D02*
D03*
X71691Y63991D02*
D03*
X78600Y51300D02*
D03*
X78300Y46500D02*
D03*
X63500Y53600D02*
D03*
X81315Y59500D02*
D03*
X91100Y53300D02*
D03*
X90900Y58300D02*
D03*
X90500Y63700D02*
D03*
X160000Y79500D02*
D03*
X132980Y82480D02*
D03*
X184000Y62500D02*
D03*
X184500Y56500D02*
D03*
X190000Y60000D02*
D03*
X195500Y64900D02*
D03*
X188434Y67600D02*
D03*
X203153Y74300D02*
D03*
X190500Y70300D02*
D03*
X182500Y75800D02*
D03*
X166000Y80000D02*
D03*
X152500Y40000D02*
D03*
X184000Y35700D02*
D03*
X226117Y27486D02*
D03*
X219424Y27700D02*
D03*
X181000Y19700D02*
D03*
X159000Y17000D02*
D03*
X207000Y23200D02*
D03*
X166000Y20000D02*
D03*
X265628Y19128D02*
D03*
X256700Y88600D02*
D03*
X250200Y89800D02*
D03*
X253524Y88500D02*
D03*
X261000Y81500D02*
D03*
X242700Y46700D02*
D03*
Y53300D02*
D03*
X236200Y53200D02*
D03*
Y46700D02*
D03*
X239507Y61003D02*
D03*
X250506Y56492D02*
D03*
X250506Y49996D02*
D03*
Y43500D02*
D03*
X239499Y38997D02*
D03*
X228500Y43508D02*
D03*
Y50004D02*
D03*
Y56500D02*
D03*
X259582Y72514D02*
D03*
X262017Y73425D02*
D03*
Y70079D02*
D03*
Y66732D02*
D03*
Y63386D02*
D03*
Y60039D02*
D03*
Y56693D02*
D03*
Y53347D02*
D03*
Y50000D02*
D03*
Y46654D02*
D03*
Y43307D02*
D03*
Y39961D02*
D03*
Y36614D02*
D03*
Y33268D02*
D03*
Y29921D02*
D03*
Y26575D02*
D03*
X242903Y32406D02*
D03*
X246196Y27486D02*
D03*
X249596Y32406D02*
D03*
X239503Y27486D02*
D03*
X236210Y32406D02*
D03*
X232810Y27486D02*
D03*
X229517Y32406D02*
D03*
X222824D02*
D03*
X216081Y32800D02*
D03*
X216078Y72514D02*
D03*
X219371Y67594D02*
D03*
X222771Y72514D02*
D03*
X226064Y67594D02*
D03*
X229464Y72514D02*
D03*
X232756Y67594D02*
D03*
X236157Y72514D02*
D03*
X239500Y67200D02*
D03*
X242900Y72120D02*
D03*
X246193Y67200D02*
D03*
X249500Y72000D02*
D03*
X256235Y27486D02*
D03*
X252889D02*
D03*
D76*
X174000Y48700D02*
Y67300D01*
Y26700D02*
Y48700D01*
X147500Y50000D02*
X172700D01*
X174000Y48700D01*
X264752Y5248D02*
X265000Y5000D01*
X191500Y17500D02*
X258300D01*
X264752Y5248D02*
Y11048D01*
X258300Y17500D02*
X264752Y11048D01*
X188100Y81400D02*
X255382D01*
X101300Y23700D02*
X136485D01*
X86560D02*
X101300D01*
Y70300D01*
X98900Y72700D02*
X101300Y70300D01*
X140000Y35700D02*
X147500Y43200D01*
X140000Y27215D02*
Y35700D01*
X147500Y43200D02*
Y50000D01*
X136485Y23700D02*
X140000Y27215D01*
D77*
X81300Y71040D02*
X87400Y77140D01*
X61860Y60100D02*
X68560Y66800D01*
X70380Y68620D01*
X78880D02*
X81300Y71040D01*
X70380Y68620D02*
X78880D01*
X57600Y60100D02*
X61860D01*
X87400Y77140D02*
Y81700D01*
X174000Y67300D02*
X182500Y75800D01*
X174000Y26700D02*
X183200Y17500D01*
X191500D01*
X182500Y75800D02*
X188100Y81400D01*
X255382D02*
Y86642D01*
Y70218D02*
Y81400D01*
Y70218D02*
X257300Y68300D01*
X98900Y72700D02*
X99300Y73100D01*
Y80200D01*
X78300Y31960D02*
X86560Y23700D01*
X78300Y31960D02*
Y46500D01*
D78*
X253524Y88500D02*
X255382Y86642D01*
M02*
