G04*
G04 #@! TF.GenerationSoftware,Altium Limited,Altium Designer,24.8.2 (39)*
G04*
G04 Layer_Color=8388736*
%FSLAX25Y25*%
%MOIN*%
G70*
G04*
G04 #@! TF.SameCoordinates,D8F2EBC3-14D6-4E67-A03A-7C1A90F15A13*
G04*
G04*
G04 #@! TF.FilePolarity,Negative*
G04*
G01*
G75*
%ADD39R,0.01975X0.02762*%
%ADD40R,0.01581X0.02172*%
%ADD41R,0.01541X0.02132*%
%ADD42R,0.02132X0.01541*%
%ADD43R,0.02172X0.01581*%
%ADD44R,0.02152X0.01561*%
%ADD45R,0.01561X0.02152*%
%ADD46R,0.12998X0.12998*%
%ADD47R,0.03156X0.02762*%
%ADD48R,0.01975X0.03550*%
%ADD49R,0.01817X0.02762*%
%ADD50R,0.02762X0.01817*%
%ADD51R,0.07093X0.10243*%
%ADD52R,0.02762X0.02368*%
%ADD53R,0.02762X0.01975*%
%ADD54R,0.03550X0.01975*%
%ADD55R,0.07093X0.20872*%
%ADD56R,0.01975X0.03550*%
%ADD57R,0.03550X0.02762*%
%ADD58R,0.05028X0.01673*%
%ADD59R,0.03550X0.03550*%
%ADD60R,0.05124X0.05124*%
%ADD61R,0.05124X0.05124*%
%ADD62R,0.06699X0.04337*%
%ADD63R,0.03156X0.04337*%
%ADD64R,0.05028X0.02823*%
%ADD65R,0.04337X0.02368*%
%ADD66C,0.08274*%
%ADD67O,0.09161X0.04437*%
G36*
X246038Y59055D02*
X246076Y59044D01*
X246111Y59025D01*
X246141Y59000D01*
X248503Y56638D01*
X248528Y56608D01*
X248547Y56573D01*
X248558Y56535D01*
X248562Y56496D01*
Y54134D01*
X248558Y54095D01*
X248547Y54057D01*
X248528Y54022D01*
X248503Y53992D01*
X248473Y53967D01*
X248438Y53948D01*
X248400Y53937D01*
X248361Y53933D01*
X243637D01*
X243598Y53937D01*
X243560Y53948D01*
X243525Y53967D01*
X243495Y53992D01*
X243470Y54022D01*
X243451Y54057D01*
X243440Y54095D01*
X243436Y54134D01*
Y58858D01*
X243440Y58898D01*
X243451Y58935D01*
X243470Y58970D01*
X243495Y59000D01*
X243525Y59025D01*
X243560Y59044D01*
X243598Y59055D01*
X243637Y59059D01*
X245999D01*
X246038Y59055D01*
D02*
G37*
D39*
X53547Y75500D02*
D03*
X56500D02*
D03*
X53547Y80500D02*
D03*
X56500D02*
D03*
X195300Y51300D02*
D03*
X198253D02*
D03*
X201205D02*
D03*
X198253D02*
D03*
X201176Y45200D02*
D03*
X198224D02*
D03*
X195271D02*
D03*
X198224D02*
D03*
X90949Y86945D02*
D03*
X93902D02*
D03*
X74100Y49000D02*
D03*
X71147D02*
D03*
X68195D02*
D03*
X71147D02*
D03*
X76000Y38500D02*
D03*
X67976Y40000D02*
D03*
X83524Y64500D02*
D03*
X205453Y15000D02*
D03*
X212953D02*
D03*
X210000D02*
D03*
X202500D02*
D03*
X202624Y79000D02*
D03*
X202600Y84000D02*
D03*
X73047Y38500D02*
D03*
X199647Y84000D02*
D03*
X199671Y79000D02*
D03*
X65024Y40000D02*
D03*
X86476Y64500D02*
D03*
D40*
X71984Y68024D02*
D03*
X75921D02*
D03*
X73953Y85937D02*
D03*
X70016D02*
D03*
X68047D02*
D03*
X66079D02*
D03*
X68047Y68024D02*
D03*
X70016D02*
D03*
X71984Y85937D02*
D03*
X66079Y68024D02*
D03*
X73953D02*
D03*
X75921Y85937D02*
D03*
D41*
X64110D02*
D03*
X77890D02*
D03*
D42*
X62063Y83890D02*
D03*
X79937D02*
D03*
D43*
X62063Y81921D02*
D03*
Y77984D02*
D03*
Y76016D02*
D03*
X79937Y74047D02*
D03*
Y76016D02*
D03*
Y77984D02*
D03*
Y81921D02*
D03*
X62063Y72079D02*
D03*
Y74047D02*
D03*
X79937Y72079D02*
D03*
Y79953D02*
D03*
X62063D02*
D03*
D44*
X79937Y70110D02*
D03*
X62063D02*
D03*
D45*
X64110Y68024D02*
D03*
X77890D02*
D03*
D46*
X71000Y77000D02*
D03*
D47*
X171000Y19000D02*
D03*
Y22740D02*
D03*
Y77260D02*
D03*
Y81000D02*
D03*
D48*
X266476Y15000D02*
D03*
X263524D02*
D03*
X91037Y81345D02*
D03*
X93990D02*
D03*
X71100Y60000D02*
D03*
X74053D02*
D03*
X71124Y54476D02*
D03*
X74076D02*
D03*
X266953Y85000D02*
D03*
X249024D02*
D03*
X259476D02*
D03*
X53524Y86000D02*
D03*
X48476Y71000D02*
D03*
X53547Y70000D02*
D03*
X81000Y39000D02*
D03*
X48476Y31500D02*
D03*
X56476Y86000D02*
D03*
X45524Y31500D02*
D03*
Y71000D02*
D03*
X264000Y85000D02*
D03*
X256524D02*
D03*
X251976D02*
D03*
X56500Y70000D02*
D03*
X83953Y39000D02*
D03*
D49*
X83547Y54500D02*
D03*
X86500D02*
D03*
X86476Y59500D02*
D03*
X83524D02*
D03*
D50*
X162000Y30976D02*
D03*
Y28024D02*
D03*
X103500Y62524D02*
D03*
Y65476D02*
D03*
Y83524D02*
D03*
Y86476D02*
D03*
X92700Y43247D02*
D03*
Y46200D02*
D03*
D51*
X57000Y38874D02*
D03*
Y23126D02*
D03*
D52*
X82921Y32740D02*
D03*
X73079D02*
D03*
X82921Y25260D02*
D03*
X73079D02*
D03*
X82921Y29000D02*
D03*
X73079D02*
D03*
D53*
X98700Y43247D02*
D03*
X46000Y18976D02*
D03*
Y25976D02*
D03*
Y79476D02*
D03*
Y86976D02*
D03*
X177000Y21476D02*
D03*
Y80976D02*
D03*
X58100Y60776D02*
D03*
X46000Y76524D02*
D03*
Y84024D02*
D03*
X98700Y46200D02*
D03*
X46000Y23024D02*
D03*
Y16024D02*
D03*
X177000Y78024D02*
D03*
Y18524D02*
D03*
X58100Y57824D02*
D03*
D54*
X67000Y21524D02*
D03*
Y24476D02*
D03*
X63600Y60753D02*
D03*
X211944Y26575D02*
D03*
Y36614D02*
D03*
Y29921D02*
D03*
Y33268D02*
D03*
Y39961D02*
D03*
Y43307D02*
D03*
Y53347D02*
D03*
Y56693D02*
D03*
Y60039D02*
D03*
Y63386D02*
D03*
Y66732D02*
D03*
Y70079D02*
D03*
Y73425D02*
D03*
X267062D02*
D03*
Y70079D02*
D03*
Y63386D02*
D03*
Y60039D02*
D03*
Y66732D02*
D03*
Y53347D02*
D03*
Y56693D02*
D03*
Y33268D02*
D03*
Y50000D02*
D03*
Y46654D02*
D03*
Y39961D02*
D03*
Y36614D02*
D03*
Y43307D02*
D03*
Y29921D02*
D03*
Y26575D02*
D03*
X162000Y20524D02*
D03*
X63600Y57800D02*
D03*
X211944Y46654D02*
D03*
Y50000D02*
D03*
X162000Y23476D02*
D03*
D55*
X101710Y28100D02*
D03*
X115490D02*
D03*
D56*
X242849Y22441D02*
D03*
X246196D02*
D03*
X259582D02*
D03*
X249542D02*
D03*
X239503D02*
D03*
X236157D02*
D03*
X232810D02*
D03*
X229464D02*
D03*
X226117D02*
D03*
X222771D02*
D03*
X219424D02*
D03*
X216078D02*
D03*
Y77559D02*
D03*
X219424D02*
D03*
X222771D02*
D03*
X226117D02*
D03*
X229464D02*
D03*
X232810D02*
D03*
X236157D02*
D03*
X239503D02*
D03*
X242849D02*
D03*
X246196D02*
D03*
X249542D02*
D03*
X252889D02*
D03*
X262928D02*
D03*
X259582D02*
D03*
X256235Y22441D02*
D03*
X252889D02*
D03*
X262928D02*
D03*
X256235Y77559D02*
D03*
D57*
X109324Y63272D02*
D03*
Y85228D02*
D03*
Y70728D02*
D03*
Y77772D02*
D03*
X117276Y67012D02*
D03*
Y81512D02*
D03*
D58*
X24764Y15118D02*
D03*
Y26929D02*
D03*
Y71102D02*
D03*
Y82913D02*
D03*
Y22992D02*
D03*
Y19055D02*
D03*
Y21024D02*
D03*
Y24961D02*
D03*
Y78976D02*
D03*
Y75039D02*
D03*
Y77008D02*
D03*
Y80945D02*
D03*
Y73071D02*
D03*
Y84882D02*
D03*
Y17087D02*
D03*
Y28898D02*
D03*
D59*
X267062Y77559D02*
D03*
X211944D02*
D03*
X267062Y22441D02*
D03*
X211944D02*
D03*
D60*
X239503Y56496D02*
D03*
X233007D02*
D03*
X245999Y43504D02*
D03*
X239503Y50000D02*
D03*
X233007D02*
D03*
X239503Y43504D02*
D03*
X233007D02*
D03*
D61*
X245999Y50000D02*
D03*
D62*
X152598Y82480D02*
D03*
X127402D02*
D03*
Y32480D02*
D03*
X152598D02*
D03*
Y17520D02*
D03*
X127402D02*
D03*
X152598Y67520D02*
D03*
X127402D02*
D03*
D63*
X36500Y75276D02*
D03*
Y17276D02*
D03*
X40240Y26724D02*
D03*
X32760D02*
D03*
X40240Y84724D02*
D03*
X32760D02*
D03*
X36500Y26724D02*
D03*
Y84724D02*
D03*
X32760Y17276D02*
D03*
X40240D02*
D03*
X32760Y75276D02*
D03*
X40240D02*
D03*
D64*
X24764Y90591D02*
D03*
Y65394D02*
D03*
Y34606D02*
D03*
Y9409D02*
D03*
Y31457D02*
D03*
Y12559D02*
D03*
Y87441D02*
D03*
Y68543D02*
D03*
D65*
X66500Y34559D02*
D03*
Y29441D02*
D03*
D66*
X36800Y62072D02*
D03*
Y41600D02*
D03*
Y51836D02*
D03*
X205000Y5000D02*
D03*
X215000D02*
D03*
X55000D02*
D03*
X45000D02*
D03*
X235000D02*
D03*
X225000D02*
D03*
X195000D02*
D03*
X185000D02*
D03*
X175000D02*
D03*
X165000D02*
D03*
X155000D02*
D03*
X145000D02*
D03*
X135000D02*
D03*
X125000D02*
D03*
X115000D02*
D03*
X105000D02*
D03*
X95000D02*
D03*
X85000D02*
D03*
X65000Y95000D02*
D03*
X75000D02*
D03*
X85000D02*
D03*
X95000D02*
D03*
X105000D02*
D03*
X115000D02*
D03*
X125000D02*
D03*
X135000D02*
D03*
X145000D02*
D03*
X155000D02*
D03*
X165000D02*
D03*
X175000D02*
D03*
X185000D02*
D03*
X195000D02*
D03*
X205000D02*
D03*
X215000D02*
D03*
X225000D02*
D03*
X235000D02*
D03*
X265000D02*
D03*
X255000Y5000D02*
D03*
X45000Y95000D02*
D03*
X35000Y5000D02*
D03*
X245000Y95000D02*
D03*
X75000Y5000D02*
D03*
X65000D02*
D03*
X245000D02*
D03*
X55000Y95000D02*
D03*
X255000D02*
D03*
X265000Y5000D02*
D03*
X147500Y50000D02*
D03*
X137500D02*
D03*
X35000Y95000D02*
D03*
D67*
X5965D02*
D03*
X22500D02*
D03*
Y60984D02*
D03*
Y39016D02*
D03*
X5965Y60984D02*
D03*
Y39016D02*
D03*
X22500Y5000D02*
D03*
X5965D02*
D03*
M02*
