G04*
G04 #@! TF.GenerationSoftware,Altium Limited,Altium Designer,24.8.2 (39)*
G04*
G04 Layer_Physical_Order=3*
G04 Layer_Color=32768*
%FSLAX25Y25*%
%MOIN*%
G70*
G04*
G04 #@! TF.SameCoordinates,D8F2EBC3-14D6-4E67-A03A-7C1A90F15A13*
G04*
G04*
G04 #@! TF.FilePolarity,Negative*
G04*
G01*
G75*
%ADD79C,0.00010*%
%ADD80C,0.08331*%
%ADD81C,0.08173*%
G04:AMPARAMS|DCode=82|XSize=101.732mil|YSize=101.732mil|CornerRadius=0mil|HoleSize=0mil|Usage=FLASHONLY|Rotation=0.000|XOffset=0mil|YOffset=0mil|HoleType=Round|Shape=Relief|Width=20mil|Gap=10mil|Entries=4|*
%AMTHD82*
7,0,0,0.10173,0.08173,0.02000,45*
%
%ADD82THD82*%
%AMTHOVALD83*
21,1,0.04724,0.08362,0,0,0.0*
1,1,0.08362,-0.02362,0.00000*
1,1,0.08362,0.02362,0.00000*
21,0,0.04724,0.06362,0,0,0.0*
1,0,0.06362,-0.02362,0.00000*
1,0,0.06362,0.02362,0.00000*
4,0,4,-0.01655,-0.00707,-0.04612,-0.03664,-0.06026,-0.02249,-0.03069,0.00707,-0.01655,-0.00707,0.0*
4,0,4,0.03069,-0.00707,0.06026,0.02249,0.04612,0.03664,0.01655,0.00707,0.03069,-0.00707,0.0*
4,0,4,-0.03069,-0.00707,-0.06026,0.02249,-0.04612,0.03664,-0.01655,0.00707,-0.03069,-0.00707,0.0*
4,0,4,0.01655,-0.00707,0.04612,-0.03664,0.06026,-0.02249,0.03069,0.00707,0.01655,-0.00707,0.0*
%
%ADD83THOVALD83*%

%AMTHOVALD84*
21,1,0.03937,0.08362,0,0,0.0*
1,1,0.08362,-0.01968,0.00000*
1,1,0.08362,0.01968,0.00000*
21,0,0.03937,0.06362,0,0,0.0*
1,0,0.06362,-0.01968,0.00000*
1,0,0.06362,0.01968,0.00000*
4,0,4,-0.01261,-0.00707,-0.04218,-0.03664,-0.05632,-0.02249,-0.02676,0.00707,-0.01261,-0.00707,0.0*
4,0,4,0.02676,-0.00707,0.05632,0.02249,0.04218,0.03664,0.01261,0.00707,0.02676,-0.00707,0.0*
4,0,4,-0.02676,-0.00707,-0.05632,0.02249,-0.04218,0.03664,-0.01261,0.00707,-0.02676,-0.00707,0.0*
4,0,4,0.01261,-0.00707,0.04218,-0.03664,0.05632,-0.02249,0.02676,0.00707,0.01261,-0.00707,0.0*
%
%ADD84THOVALD84*%

%ADD85C,0.07937*%
%ADD86C,0.05200*%
D79*
X0Y0D02*
X270000D01*
Y100000D01*
X0D02*
X270000D01*
X0Y0D02*
Y100000D01*
D80*
X36800Y62072D02*
D03*
Y41600D02*
D03*
Y51836D02*
D03*
D81*
X205000Y5000D02*
D03*
X215000D02*
D03*
X55000D02*
D03*
X45000D02*
D03*
X235000D02*
D03*
X225000D02*
D03*
X195000D02*
D03*
X185000D02*
D03*
X175000D02*
D03*
X165000D02*
D03*
X155000D02*
D03*
X145000D02*
D03*
X135000D02*
D03*
X125000D02*
D03*
X115000D02*
D03*
X105000D02*
D03*
X95000D02*
D03*
X85000D02*
D03*
X65000Y95000D02*
D03*
X75000D02*
D03*
X85000D02*
D03*
X95000D02*
D03*
X105000D02*
D03*
X115000D02*
D03*
X125000D02*
D03*
X135000D02*
D03*
X145000D02*
D03*
X155000D02*
D03*
X165000D02*
D03*
X175000D02*
D03*
X185000D02*
D03*
X195000D02*
D03*
X205000D02*
D03*
X215000D02*
D03*
X225000D02*
D03*
X235000D02*
D03*
X245000D02*
D03*
X75000Y5000D02*
D03*
X65000D02*
D03*
X245000D02*
D03*
X55000Y95000D02*
D03*
X255000D02*
D03*
X265000Y5000D02*
D03*
X35000Y95000D02*
D03*
D82*
X265000D02*
D03*
X255000Y5000D02*
D03*
X45000Y95000D02*
D03*
X35000Y5000D02*
D03*
D83*
X5965Y95000D02*
D03*
Y60984D02*
D03*
Y39016D02*
D03*
Y5000D02*
D03*
D84*
X22500Y95000D02*
D03*
Y60984D02*
D03*
Y39016D02*
D03*
Y5000D02*
D03*
D85*
X147500Y50000D02*
D03*
X137500D02*
D03*
D86*
X86940Y89178D02*
D03*
X85100Y15000D02*
D03*
Y18200D02*
D03*
X257300Y68300D02*
D03*
X122500Y39700D02*
D03*
X50100Y61700D02*
D03*
X59900Y88300D02*
D03*
X20500Y84100D02*
D03*
X50451Y74427D02*
D03*
X42953Y82070D02*
D03*
X50500Y81200D02*
D03*
X42700Y88800D02*
D03*
X29300Y84400D02*
D03*
X59900Y80000D02*
D03*
X187400Y35700D02*
D03*
X166804Y41100D02*
D03*
X195571Y36097D02*
D03*
X198962Y35838D02*
D03*
X48562Y18938D02*
D03*
X48700Y26000D02*
D03*
X28528Y15118D02*
D03*
X29496Y26929D02*
D03*
X191500Y46506D02*
D03*
Y49800D02*
D03*
X182000Y51366D02*
D03*
X203381Y32621D02*
D03*
X199903Y29397D02*
D03*
X33547Y30700D02*
D03*
X39700D02*
D03*
X204321Y45250D02*
D03*
X204400Y51400D02*
D03*
X87300Y39000D02*
D03*
X87700Y46200D02*
D03*
X115700Y70653D02*
D03*
X99300Y80200D02*
D03*
X74512Y88765D02*
D03*
X179200Y53800D02*
D03*
X87600Y71400D02*
D03*
X54700Y63000D02*
D03*
X78300Y46500D02*
D03*
X81315Y59500D02*
D03*
X90500Y63700D02*
D03*
X184000Y62500D02*
D03*
X184500Y56500D02*
D03*
X190000Y60000D02*
D03*
X195500Y64900D02*
D03*
X188434Y67600D02*
D03*
X190500Y70300D02*
D03*
X182500Y75800D02*
D03*
X166000Y80000D02*
D03*
X184000Y35700D02*
D03*
X226117Y27486D02*
D03*
X219424Y27700D02*
D03*
X181000Y19700D02*
D03*
X256700Y88600D02*
D03*
X253524Y88500D02*
D03*
X242903Y32406D02*
D03*
X246196Y27486D02*
D03*
X249596Y32406D02*
D03*
X239503Y27486D02*
D03*
X236210Y32406D02*
D03*
X232810Y27486D02*
D03*
X229517Y32406D02*
D03*
X222824D02*
D03*
X216081Y32800D02*
D03*
X216078Y72514D02*
D03*
X219371Y67594D02*
D03*
X222771Y72514D02*
D03*
X226064Y67594D02*
D03*
X229464Y72514D02*
D03*
X232756Y67594D02*
D03*
X236157Y72514D02*
D03*
X239500Y67200D02*
D03*
X242900Y72120D02*
D03*
X246193Y67200D02*
D03*
X249500Y72000D02*
D03*
M02*
