M48
;Layer_Color=9474304
;FILE_FORMAT=2:5
INCH,LZ
;TYPE=PLATED
T01F00S00C0.01200
T03F00S00C0.02598
T04F00S00C0.04016
%
T01
X00331Y00065
X00371Y00158
X00372Y00203
X004132Y0027663
X0044578Y0016122
X00517Y00086
X00534Y00495
X00571Y00529
X00633Y00542
X00743Y00544
X0071532Y0050468
X00795Y00447
X00813Y00356
X00825Y00292
X00824Y00253
X0087Y00237
X00881Y0037
X00726Y00378
X00654Y00381
X00502Y00547
X004552Y005798
X002Y00205
X0097Y0022607
X01018Y0029
X00992Y0032516
X00955Y0032516
X00988Y00426
X0092821Y0049721
X01011Y00588
X01121Y00426
X01169Y00408
X01136Y0020431
X011465Y0015562
X0106263Y0017349
X01028Y0015362
X0124Y00237
X0167068Y00247
X01708Y00354
X0177263Y0043263
X01855Y00446
X0185474Y00478
X018837Y005697
X01887Y00349
X0192908Y0026575
X01815Y00259
X02034Y00354
X02158Y00333
X02134Y00299
X02166Y00227
X02227Y00224
X0229911Y0028889
X02365Y00286
X02433Y00283
X02465Y00337
X024Y00338
X02332Y00335
X0243504Y0043504
Y005
Y0056496
X02468Y00532
X02469Y00468
X02295Y00597
X02157Y006
X02131Y00569
X02162Y00534
X02135Y00434
X0216039Y0039961
X01667Y00533
X02501Y005
X02532Y00469
X02563Y00498
X02533Y00531
X02502Y00565
X02567Y00563
X0256496Y0043504
X02501Y00433
X02533Y00333
X02601Y00336
X02568Y0029
X02635Y00284
X02645Y00169
X0273425Y0015012
X02776Y00223
X02502Y00283
X025Y00687
X0253323Y007253
X0256693Y00706
X02601Y00724
X0262032Y0083761
X02608Y00931
X0275363Y0083463
X0277559Y0077559
X02433Y00735
X02399Y00706
X02367Y00664
X02329Y00718
X02265Y00631
X0217032Y0066732
X0217Y0072779
X0213021Y0070079
X02128Y00633
X02068Y00758
X0222622Y0077622
X02467Y00656
X01334Y0073
X00927Y00706
X00872Y00746
X0089165Y0077375
X0088291Y0083291
X0081042Y0080388
X008Y0086274
X00725Y00874
X0065537Y0083984
X00654Y00786
X00608Y008155
X00614Y00871
X0053246Y0087366
X005318Y0083966
X0049002Y0084198
X00455Y00842
X00367Y00803
X00351Y0075802
X00391Y00671
X0031444Y0064556
X00303Y00876
X004755Y007302
X00603Y00712
X0062223Y0067843
X00592Y00617
X0054514Y0063186
X0071617Y006888
X0074Y00726
X00775Y00724
X00777Y00765
X0074
T03
X0035Y0041
Y0051
Y0061
X0120821Y0049721
X0130821
T04
X0045Y0005
X0055
X0065
X0075
X0085
X0095
X0105
X0115
X0125
X0135
X0145
X0155
X0165
X0175
X0185
X0195
X0205
X0215
X0225
X0235
X0245
X0255
X0265
X0275
Y0095
X0265
X0255
X0245
X0235
X0225
X0215
X0205
X0195
X0185
X0175
X0165
X0155
X0145
X0135
X0125
X0115
X0105
X0095
X0085
X0075
X0065
X0055
X0045
M30
