G04*
G04 #@! TF.GenerationSoftware,Altium Limited,Altium Designer,24.7.2 (38)*
G04*
G04 Layer_Physical_Order=2*
G04 Layer_Color=32768*
%FSLAX25Y25*%
%MOIN*%
G70*
G04*
G04 #@! TF.SameCoordinates,5553529B-7FC1-40E9-B1A8-37912BF81215*
G04*
G04*
G04 #@! TF.FilePolarity,Negative*
G04*
G01*
G75*
%ADD66C,0.04000*%
%ADD71C,0.08016*%
%ADD72C,0.06598*%
%ADD73C,0.05200*%
D66*
X0Y0D02*
Y100000D01*
X280000D01*
Y0D02*
Y100000D01*
X0Y0D02*
X280000D01*
D71*
X45000Y5000D02*
D03*
X75000D02*
D03*
X85000D02*
D03*
X95000D02*
D03*
X105000D02*
D03*
X115000D02*
D03*
X125000D02*
D03*
X135000D02*
D03*
X145000D02*
D03*
X155000D02*
D03*
X165000D02*
D03*
X175000D02*
D03*
X185000D02*
D03*
X195000D02*
D03*
X205000D02*
D03*
X215000D02*
D03*
X225000D02*
D03*
X235000D02*
D03*
X245000D02*
D03*
X255000D02*
D03*
X265000D02*
D03*
X275000D02*
D03*
Y95000D02*
D03*
X255000D02*
D03*
X245000D02*
D03*
X235000D02*
D03*
X225000D02*
D03*
X215000D02*
D03*
X205000D02*
D03*
X195000D02*
D03*
X185000D02*
D03*
X175000D02*
D03*
X165000D02*
D03*
X155000D02*
D03*
X145000D02*
D03*
X135000D02*
D03*
X125000D02*
D03*
X115000D02*
D03*
X105000D02*
D03*
X95000D02*
D03*
X85000D02*
D03*
X75000D02*
D03*
X65000D02*
D03*
X45000D02*
D03*
D72*
X130821Y49721D02*
D03*
X120821D02*
D03*
X35000Y41000D02*
D03*
Y51000D02*
D03*
Y61000D02*
D03*
D73*
X20000Y20500D02*
D03*
X63300Y54200D02*
D03*
X45520Y57980D02*
D03*
X124000Y23700D02*
D03*
X206800Y75800D02*
D03*
X65400Y38100D02*
D03*
X92821Y49721D02*
D03*
X101100Y58800D02*
D03*
X79500Y44700D02*
D03*
X72600Y37800D02*
D03*
X59200Y61700D02*
D03*
X81042Y80388D02*
D03*
X71617Y68880D02*
D03*
X61400Y87100D02*
D03*
X60800Y81550D02*
D03*
X82400Y25300D02*
D03*
X82500Y29200D02*
D03*
X81300Y35600D02*
D03*
X88291Y83291D02*
D03*
X185500Y44600D02*
D03*
X185474Y47800D02*
D03*
X232900Y71800D02*
D03*
X262032Y83761D02*
D03*
X166700Y53300D02*
D03*
X54514Y63186D02*
D03*
X53400Y49500D02*
D03*
X113600Y20431D02*
D03*
X106263Y17349D02*
D03*
X72500Y87400D02*
D03*
X45500Y84200D02*
D03*
X53180Y83966D02*
D03*
X80000Y86274D02*
D03*
X50200Y54700D02*
D03*
X60300Y71200D02*
D03*
X65400Y78600D02*
D03*
X44578Y16122D02*
D03*
X37100Y15800D02*
D03*
X102800Y15362D02*
D03*
X101800Y29000D02*
D03*
X99200Y32516D02*
D03*
X95500Y32516D02*
D03*
X97000Y22607D02*
D03*
X112100Y42600D02*
D03*
X116900Y40800D02*
D03*
X35100Y75802D02*
D03*
X62223Y67843D02*
D03*
X30300Y87600D02*
D03*
X31444Y64556D02*
D03*
X74300Y54400D02*
D03*
X229500Y59700D02*
D03*
X226500Y63100D02*
D03*
X217000Y72779D02*
D03*
X181500Y25900D02*
D03*
X177263Y43263D02*
D03*
X188700Y34900D02*
D03*
X188370Y56970D02*
D03*
X264500Y16900D02*
D03*
X273425Y15012D02*
D03*
X167068Y24700D02*
D03*
X89165Y77375D02*
D03*
X114650Y15562D02*
D03*
X192908Y26575D02*
D03*
X203400Y35400D02*
D03*
X217032Y66732D02*
D03*
X215700Y60000D02*
D03*
X216200Y53400D02*
D03*
X213400Y29900D02*
D03*
X213500Y43400D02*
D03*
X216039Y39961D02*
D03*
X215800Y33300D02*
D03*
X213100Y56900D02*
D03*
X212800Y63300D02*
D03*
X213021Y70079D02*
D03*
X260100Y33600D02*
D03*
X256800Y29000D02*
D03*
X253300Y33300D02*
D03*
X250200Y28300D02*
D03*
X246500Y33700D02*
D03*
X243300Y28300D02*
D03*
X240000Y33800D02*
D03*
X236500Y28600D02*
D03*
X233200Y33500D02*
D03*
X229911Y28889D02*
D03*
X236700Y66400D02*
D03*
X239900Y70600D02*
D03*
X243300Y73500D02*
D03*
X246700Y65600D02*
D03*
X250000Y68700D02*
D03*
X253323Y72530D02*
D03*
X256693Y70600D02*
D03*
X260100Y72400D02*
D03*
M02*
