G04*
G04 #@! TF.GenerationSoftware,Altium Limited,Altium Designer,24.7.2 (38)*
G04*
G04 Layer_Physical_Order=1*
G04 Layer_Color=255*
%FSLAX25Y25*%
%MOIN*%
G70*
G04*
G04 #@! TF.SameCoordinates,5553529B-7FC1-40E9-B1A8-37912BF81215*
G04*
G04*
G04 #@! TF.FilePolarity,Positive*
G04*
G01*
G75*
%ADD15C,0.00600*%
%ADD18R,0.02362X0.03150*%
%ADD19R,0.01968X0.02362*%
%ADD20R,0.02559X0.02165*%
%ADD21R,0.01575X0.03150*%
%ADD22R,0.03150X0.01575*%
%ADD23R,0.03150X0.03150*%
%ADD24R,0.04724X0.04724*%
%ADD25R,0.05906X0.04921*%
%ADD26R,0.01772X0.01968*%
%ADD27R,0.02362X0.01968*%
%ADD28R,0.04724X0.01181*%
%ADD29R,0.04724X0.02362*%
%ADD30R,0.01968X0.01772*%
%ADD31R,0.03150X0.02362*%
%ADD32R,0.01575X0.01890*%
%ADD33R,0.01575X0.00984*%
%ADD34R,0.00984X0.01575*%
%ADD35R,0.07874X0.07874*%
%ADD36R,0.02559X0.03347*%
%ADD37R,0.04331X0.02362*%
%ADD38R,0.05118X0.03150*%
%ADD39R,0.01890X0.01575*%
%ADD60O,0.08661X0.03937*%
%ADD61O,0.07087X0.03937*%
%AMCUSTOMSHAPE62*
4,1,5,0.00000,0.02362,0.02362,-0.00039,0.02362,-0.02362,-0.02362,-0.02362,-0.02362,0.02362,0.00000,0.02362,0.0*%
%ADD62CUSTOMSHAPE62*%

%ADD63C,0.01500*%
%ADD64C,0.02000*%
%ADD65C,0.00623*%
%ADD66C,0.04000*%
%ADD67C,0.00603*%
%ADD68C,0.04724*%
%ADD69C,0.03150*%
%ADD70C,0.02400*%
G36*
X260600Y56800D02*
Y40000D01*
X240700D01*
X240000Y40700D01*
Y59900D01*
X257500D01*
X260600Y56800D01*
D02*
G37*
D15*
X24744Y16102D02*
X24835Y16012D01*
X27233D01*
X21833Y75022D02*
X22990D01*
X23063Y74949D01*
X21382Y75473D02*
X21833Y75022D01*
X21382Y75473D02*
Y78013D01*
X27233Y77008D02*
X33323D01*
X24744D02*
X27233D01*
Y77098D02*
Y77381D01*
X27906Y78054D01*
X27913Y74949D02*
X28200Y74661D01*
X23063Y74949D02*
X27913D01*
X28200Y74661D02*
X29759Y73102D01*
X27906Y78054D02*
Y79898D01*
X27150Y80654D02*
X27906Y79898D01*
X25035Y80654D02*
X27150D01*
X24744Y80945D02*
X25035Y80654D01*
X63304Y54204D02*
X68687D01*
X63300Y54200D02*
X63304Y54204D01*
X68687D02*
X68692Y54208D01*
X68726Y55016D02*
Y55697D01*
X64984Y59439D02*
X68726Y55697D01*
X53400Y49500D02*
X57700Y45200D01*
X71500D01*
X77963Y51663D01*
X128012Y19700D02*
X129912Y21600D01*
X118149Y19700D02*
X128012D01*
X114718Y23131D02*
X118149Y19700D01*
X80642Y80388D02*
X81042D01*
X79639Y81391D02*
Y81687D01*
Y81391D02*
X80642Y80388D01*
X85600Y83074D02*
X88074D01*
X260537Y83400D02*
X260717Y83580D01*
X261851D01*
X262032Y83761D01*
X183600Y65986D02*
Y75722D01*
X172550Y53250D02*
X172700Y53100D01*
X166750Y53250D02*
X172550D01*
X166700Y53300D02*
X166750Y53250D01*
X270079Y77559D02*
Y78347D01*
X73365Y82335D02*
X73725Y81974D01*
X73365Y82335D02*
Y82560D01*
X73357Y82568D02*
X73365Y82560D01*
X73357Y82568D02*
Y82930D01*
X72691Y83596D02*
Y87209D01*
Y83596D02*
X72986Y83300D01*
X73357Y82930D01*
X50357Y63186D02*
X54514D01*
X39500Y74042D02*
X50357Y63186D01*
X262327Y79220D02*
X262913Y78634D01*
X263098D02*
X263386Y78347D01*
X262327Y79220D02*
Y79755D01*
X262913Y78634D02*
X263098D01*
X263386Y77559D02*
Y78347D01*
X261363Y80719D02*
X262327Y79755D01*
X258931Y80719D02*
X261363D01*
X256600Y83203D02*
Y83400D01*
X257281Y82369D02*
Y82522D01*
Y82369D02*
X258931Y80719D01*
X256600Y83203D02*
X257281Y82522D01*
X256405Y77846D02*
X256693Y77559D01*
Y70600D02*
Y77559D01*
X256405Y77846D02*
Y78983D01*
X190120Y73280D02*
Y79414D01*
X254755Y80634D02*
X254789Y80600D01*
X254789D02*
X256405Y78983D01*
X191306Y80600D02*
X220211D01*
X190120Y79414D02*
X191306Y80600D01*
X220245Y80634D02*
X254755D01*
X220211Y80600D02*
X220245Y80634D01*
X254789Y80600D02*
X254789D01*
X169595Y60680D02*
X172900D01*
X177620Y65400D01*
X183014D02*
X183600Y65986D01*
X177620Y65400D02*
X183014D01*
X191478Y83600D02*
X247000D01*
X190120Y73280D02*
X190777Y72623D01*
X192540D02*
X193066Y72097D01*
X190777Y72623D02*
X192540D01*
X192900Y76200D02*
X200070D01*
X255000Y95000D02*
X255481Y94519D01*
X129912Y21600D02*
X175097D01*
X121031Y13000D02*
X245213D01*
X113600Y20431D02*
X121031Y13000D01*
X110900Y21549D02*
X112482Y23131D01*
X114718D01*
X110900Y15494D02*
Y21549D01*
X24744Y82913D02*
X30268D01*
X32178Y84823D01*
X40140D01*
X36218Y73102D02*
X36871Y73755D01*
X39213D01*
X29759Y73102D02*
X36218D01*
X66700Y73129D02*
X67178Y72652D01*
X68479D01*
X72500Y87400D02*
X72691Y87209D01*
X88937Y15098D02*
X89323Y15484D01*
X89421D01*
X88937Y15000D02*
Y15098D01*
X85000Y15000D02*
Y19984D01*
X82500Y21500D02*
X83484D01*
X85000Y19984D01*
X77008Y21500D02*
X82500D01*
X73409Y24114D02*
X74394D01*
X77008Y21500D01*
X92835Y28980D02*
X93000Y29146D01*
Y35500D01*
X99000D01*
X75725Y83437D02*
X78295Y86006D01*
X75709Y81974D02*
Y83284D01*
X75725Y83300D01*
Y83437D01*
X79732Y86006D02*
X80000Y86274D01*
X78295Y86006D02*
X79732D01*
X68400Y90552D02*
X68986Y91138D01*
X68400Y85051D02*
Y90552D01*
X68986Y91138D02*
X84262D01*
X77963Y51663D02*
X81800D01*
X92835Y18898D02*
Y21402D01*
X30516Y10984D02*
X31000Y10500D01*
X30516Y10984D02*
Y12729D01*
X27233Y16012D02*
X30516Y12729D01*
X33811Y77496D02*
Y77653D01*
X39500Y74042D02*
Y74200D01*
X39213Y73755D02*
X39500Y74042D01*
X34832Y76070D02*
X35100Y75802D01*
X33811Y77496D02*
X34832Y76475D01*
Y76070D02*
Y76475D01*
X62223Y67843D02*
X63980Y69600D01*
X67552D02*
X68229Y70277D01*
X63980Y69600D02*
X67552D01*
X68229Y70277D02*
Y70557D01*
X68237Y70565D01*
X68516D01*
X22255Y78886D02*
X24654D01*
X21382Y78013D02*
X22255Y78886D01*
X24654D02*
X24744Y78976D01*
X33323Y77008D02*
X33811Y77496D01*
X74300Y54400D02*
X74500Y54600D01*
Y57263D01*
X24744Y71102D02*
X28665D01*
X29667Y70100D02*
X32300D01*
X28665Y71102D02*
X29667Y70100D01*
X31100Y26300D02*
Y26497D01*
X29683Y27913D02*
X31100Y26497D01*
X24744Y27913D02*
X29683D01*
X250000Y68700D02*
Y77559D01*
X246677Y65623D02*
Y77536D01*
Y65623D02*
X246700Y65600D01*
X246654Y77559D02*
X246677Y77536D01*
X243300Y73500D02*
X243307Y73507D01*
Y77559D01*
X239900Y70700D02*
X239961Y70761D01*
Y77559D01*
X239900Y70600D02*
Y70700D01*
X236614Y66686D02*
Y77559D01*
Y66686D02*
X236700Y66600D01*
Y66400D02*
Y66600D01*
X229921Y22441D02*
Y28879D01*
X233268Y22441D02*
Y33432D01*
X233200Y33500D02*
X233268Y33432D01*
X236500Y28600D02*
X236614Y28486D01*
Y22441D02*
Y28486D01*
X239961Y33761D02*
X240000Y33800D01*
X239961Y22441D02*
Y33761D01*
X243300Y28300D02*
X243307Y28293D01*
Y22441D02*
Y28293D01*
X246500Y33600D02*
X246654Y33446D01*
Y22441D02*
Y33446D01*
X246500Y33600D02*
Y33700D01*
X225516Y20245D02*
Y20595D01*
X180379Y20245D02*
X182645Y17979D01*
X245213Y13000D02*
X247194Y14981D01*
X258705D01*
X259584Y13950D02*
Y14102D01*
Y13950D02*
X261037Y12497D01*
X258705Y14981D02*
X259584Y14102D01*
X264419Y16981D02*
X264500Y16900D01*
X224078Y15979D02*
X225080Y16981D01*
X180876Y16920D02*
X181816Y15979D01*
X174900Y16920D02*
X180876D01*
X225080Y16981D02*
X264419D01*
X181816Y15979D02*
X224078D01*
X165000Y17500D02*
X165580Y16920D01*
X174900D01*
X133346Y17500D02*
X165000D01*
X124139Y17101D02*
X132947D01*
X133346Y17500D01*
X165000Y64784D02*
X165492D01*
X169595Y60680D01*
X133346Y64784D02*
X165000D01*
X182841Y56940D02*
X188340D01*
X188370Y56970D01*
X188400Y57000D01*
X185118Y35118D02*
X188481D01*
X184900Y35337D02*
X185118Y35118D01*
X188481D02*
X188700Y34900D01*
X184841Y20660D02*
Y22759D01*
X182200Y25400D02*
X184841Y22759D01*
X177263Y43263D02*
X177300Y43300D01*
X172700Y43263D02*
X177263D01*
X217379Y72779D02*
X218025Y73425D01*
X222441D01*
X217000Y72779D02*
X217379D01*
X226500Y63100D02*
X226537Y63137D01*
Y77522D01*
X226575Y77559D01*
X229500Y59700D02*
X229711Y59911D01*
Y77348D02*
X229921Y77559D01*
X229711Y59911D02*
Y77348D01*
X233084Y77375D02*
X233268Y77559D01*
X232900Y71800D02*
X233084Y71984D01*
Y77375D01*
X253859Y8862D02*
X257100Y12103D01*
X245000Y5000D02*
X249538D01*
X253400Y8862D02*
X253859D01*
X249538Y5000D02*
X253400Y8862D01*
X114650Y15562D02*
X119212Y11000D01*
X261037Y12300D02*
Y12497D01*
X91863Y58700D02*
Y58897D01*
X87463Y63800D02*
X87947Y63316D01*
Y62813D02*
Y63316D01*
Y62813D02*
X91863Y58897D01*
X85309Y64481D02*
X86979D01*
X80586Y69204D02*
X85309Y64481D01*
X78691Y69204D02*
X80586D01*
X77678Y67324D02*
Y68191D01*
X78691Y69204D01*
X77670Y67317D02*
X77678Y67324D01*
X86979Y64481D02*
X87463Y63997D01*
Y63800D02*
Y63997D01*
X64500Y61200D02*
X64984Y60716D01*
Y59439D02*
Y60716D01*
X84262Y91138D02*
X91919Y83481D01*
Y80921D02*
X92403Y80437D01*
X92600D01*
X70151Y83300D02*
X71765Y81687D01*
X68400Y85051D02*
X70151Y83300D01*
X77678Y81974D02*
Y82561D01*
X78691Y83574D01*
X83019D01*
X88897Y77642D02*
X89165Y77375D01*
X88358Y77642D02*
X88897D01*
X87561Y78439D02*
X88358Y77642D01*
X82887Y78439D02*
X87561D01*
X172700Y47200D02*
Y53100D01*
X174750Y24550D02*
X174900Y24400D01*
X167068Y24700D02*
X167218Y24550D01*
X174750D01*
X182219Y31400D02*
X184900D01*
X179097Y28278D02*
X182219Y31400D01*
X179097Y28203D02*
Y28278D01*
X174900Y24400D02*
X175294D01*
X179097Y28203D01*
X151000Y9000D02*
X155000Y5000D01*
X118384Y9000D02*
X151000D01*
X116994Y9400D02*
X117984D01*
X273425Y7583D02*
Y15012D01*
Y22441D01*
X226287Y22153D02*
X226575Y22441D01*
X225516Y20595D02*
X226287Y21366D01*
X223250Y17979D02*
X225516Y20245D01*
X182645Y17979D02*
X223250D01*
X175097Y21600D02*
X176452Y20245D01*
X180379D01*
X226287Y21366D02*
Y22153D01*
X250000Y28100D02*
X250200Y28300D01*
X250000Y22441D02*
Y28100D01*
X253300Y33300D02*
X253346Y33253D01*
Y22441D02*
Y33253D01*
X256693Y22441D02*
Y28893D01*
X256800Y29000D01*
X260039Y33539D02*
X260100Y33600D01*
X260039Y22441D02*
Y33539D01*
X229900Y28900D02*
X229911Y28889D01*
X229921Y28879D01*
X263386Y22441D02*
Y28286D01*
X263500Y28400D01*
X275000Y5000D02*
Y6008D01*
X273425Y7583D02*
X275000Y6008D01*
X270079Y21654D02*
Y22441D01*
X269020Y20595D02*
X270079Y21654D01*
X269020Y9720D02*
Y20595D01*
X263400Y8862D02*
X268162D01*
X269020Y9720D01*
X257600Y7600D02*
X262138D01*
X255000Y5000D02*
X257600Y7600D01*
X262138D02*
X263400Y8862D01*
X215800Y33300D02*
X215832Y33268D01*
X222441D01*
X216039Y39961D02*
X222441D01*
X216000Y40000D02*
X216039Y39961D01*
X213021Y70079D02*
X222441D01*
X213000Y70100D02*
X213021Y70079D01*
X212886Y63386D02*
X222441D01*
X212800Y63300D02*
X212886Y63386D01*
X213307Y56693D02*
X222441D01*
X213100Y56900D02*
X213307Y56693D01*
X213546Y43354D02*
X222394D01*
X222441Y43307D01*
X213500Y43400D02*
X213546Y43354D01*
X213411Y29911D02*
X222430D01*
X222441Y29921D01*
X213400Y29900D02*
X213411Y29911D01*
X216200Y53400D02*
X216227Y53373D01*
X222414D01*
X222441Y53347D01*
X215700Y60000D02*
X215720Y60020D01*
X222421D01*
X222441Y60039D01*
X217000Y66700D02*
X217032Y66732D01*
X222441D01*
X203400Y35400D02*
X203668Y35668D01*
X206600Y36614D02*
X222441D01*
X205654Y35668D02*
X206600Y36614D01*
X203668Y35668D02*
X205654D01*
X192908Y26575D02*
X222441D01*
X119212Y11000D02*
X247697D01*
X248800Y12103D02*
Y12300D01*
X247697Y11000D02*
X248800Y12103D01*
X252737D02*
Y12300D01*
X235000Y5000D02*
X238862Y8862D01*
X251284Y10650D02*
X252737Y12103D01*
X251284Y10498D02*
Y10650D01*
X238862Y8862D02*
X249649D01*
X251284Y10498D01*
X257100Y12103D02*
Y12300D01*
X260039Y72461D02*
X260100Y72400D01*
X260039Y72461D02*
Y77559D01*
X253335Y72542D02*
Y77547D01*
X253346Y77559D01*
X253323Y72530D02*
X253335Y72542D01*
X91919Y80921D02*
Y83481D01*
X183600Y75722D02*
X191478Y83600D01*
X110900Y15494D02*
X116994Y9400D01*
X83293Y83300D02*
X83519Y83074D01*
X88074D02*
X88291Y83291D01*
X83019Y83574D02*
X83293Y83300D01*
X83519Y83074D02*
X85600D01*
X117984Y9400D02*
X118384Y9000D01*
X89421Y15484D02*
X92835Y18898D01*
X250937Y83400D02*
X256600D01*
D18*
X200501Y75761D02*
D03*
X206800Y75800D02*
D03*
D19*
X208637Y44500D02*
D03*
X204700D02*
D03*
D03*
X200763D02*
D03*
X68437Y61200D02*
D03*
X64500D02*
D03*
X95800Y58700D02*
D03*
X91863D02*
D03*
X91400Y63800D02*
D03*
X87463D02*
D03*
X204700Y52400D02*
D03*
X200763D02*
D03*
X36237Y70100D02*
D03*
X32300D02*
D03*
X260537Y83400D02*
D03*
X256600D02*
D03*
X247000Y83600D02*
D03*
X250937D02*
D03*
X208600Y52400D02*
D03*
X204663D02*
D03*
X65500Y32500D02*
D03*
X61563D02*
D03*
X31100Y26300D02*
D03*
X35037D02*
D03*
X34937Y10500D02*
D03*
X31000D02*
D03*
X261037Y12300D02*
D03*
X257100D02*
D03*
X252737D02*
D03*
X248800D02*
D03*
D20*
X192900Y76200D02*
D03*
Y72263D02*
D03*
X61400Y15800D02*
D03*
Y19737D02*
D03*
D21*
X246654Y22441D02*
D03*
X226575Y77559D02*
D03*
X229921D02*
D03*
X233268D02*
D03*
X236614D02*
D03*
X239961D02*
D03*
X243307D02*
D03*
X246654D02*
D03*
X250000D02*
D03*
X253346D02*
D03*
X256693D02*
D03*
X260039D02*
D03*
X263386D02*
D03*
X266732D02*
D03*
X270079D02*
D03*
X273425D02*
D03*
X226575Y22441D02*
D03*
X229921D02*
D03*
X233268D02*
D03*
X236614D02*
D03*
X239961D02*
D03*
X243307D02*
D03*
X250000D02*
D03*
X256693D02*
D03*
X273425D02*
D03*
X263386D02*
D03*
X253346D02*
D03*
X260039D02*
D03*
X266732D02*
D03*
X270079D02*
D03*
D22*
X222441Y73425D02*
D03*
Y70079D02*
D03*
Y66732D02*
D03*
Y63386D02*
D03*
Y60039D02*
D03*
Y56693D02*
D03*
X277559Y73425D02*
D03*
Y70079D02*
D03*
Y66732D02*
D03*
Y63386D02*
D03*
Y60039D02*
D03*
Y56693D02*
D03*
X222441Y53347D02*
D03*
Y50000D02*
D03*
Y39961D02*
D03*
Y36614D02*
D03*
Y46654D02*
D03*
Y43307D02*
D03*
Y33268D02*
D03*
Y29921D02*
D03*
Y26575D02*
D03*
X277559Y53347D02*
D03*
Y50000D02*
D03*
Y46654D02*
D03*
Y43307D02*
D03*
Y39961D02*
D03*
Y36614D02*
D03*
Y33268D02*
D03*
Y29921D02*
D03*
Y26575D02*
D03*
D23*
X222441Y77559D02*
D03*
X277559D02*
D03*
X222441Y22441D02*
D03*
X277559D02*
D03*
D24*
X243504Y56496D02*
D03*
X250000D02*
D03*
X243504Y50000D02*
D03*
X250000D02*
D03*
X256496D02*
D03*
X243504Y43504D02*
D03*
X250000D02*
D03*
X256496D02*
D03*
D25*
X133346Y82500D02*
D03*
Y64784D02*
D03*
X165000Y82500D02*
D03*
Y64784D02*
D03*
X133346Y35217D02*
D03*
Y17500D02*
D03*
X165000Y35217D02*
D03*
Y17500D02*
D03*
D26*
X49400Y87300D02*
D03*
X45463D02*
D03*
X58000Y68100D02*
D03*
X54063D02*
D03*
X61500Y86500D02*
D03*
X65437D02*
D03*
X269037Y82500D02*
D03*
X265100D02*
D03*
X268563Y87100D02*
D03*
X272500D02*
D03*
X85500Y40500D02*
D03*
X81563D02*
D03*
X81500Y35500D02*
D03*
X85437D02*
D03*
X47600Y12100D02*
D03*
X51537D02*
D03*
X88937Y15000D02*
D03*
X85000D02*
D03*
D27*
X62200Y77463D02*
D03*
Y81400D02*
D03*
Y73463D02*
D03*
Y77400D02*
D03*
X172700Y43263D02*
D03*
Y47200D02*
D03*
X81800Y55600D02*
D03*
Y51663D02*
D03*
X40200Y84763D02*
D03*
Y88700D02*
D03*
X184900Y35337D02*
D03*
Y31400D02*
D03*
X92600Y76500D02*
D03*
Y80437D02*
D03*
X93000Y39437D02*
D03*
Y35500D02*
D03*
X99000Y39437D02*
D03*
Y35500D02*
D03*
X74500Y57263D02*
D03*
Y61200D02*
D03*
X44700Y53700D02*
D03*
Y57637D02*
D03*
D28*
X24744Y84882D02*
D03*
Y82913D02*
D03*
Y80945D02*
D03*
Y78976D02*
D03*
Y75039D02*
D03*
Y73071D02*
D03*
Y71102D02*
D03*
Y77008D02*
D03*
Y22008D02*
D03*
Y16102D02*
D03*
Y18071D02*
D03*
Y20039D02*
D03*
Y23976D02*
D03*
Y25945D02*
D03*
Y27913D02*
D03*
Y29882D02*
D03*
D29*
Y87441D02*
D03*
Y90591D02*
D03*
Y68543D02*
D03*
Y65394D02*
D03*
Y10394D02*
D03*
Y13543D02*
D03*
Y35591D02*
D03*
Y32441D02*
D03*
D30*
X277900Y83463D02*
D03*
Y87400D02*
D03*
X59200Y61500D02*
D03*
Y57563D02*
D03*
X47300Y27663D02*
D03*
Y31600D02*
D03*
X68692Y54208D02*
D03*
Y50271D02*
D03*
D31*
X184841Y20660D02*
D03*
X174900Y16920D02*
D03*
Y24400D02*
D03*
X172900Y60680D02*
D03*
Y53200D02*
D03*
X182841Y56940D02*
D03*
X124100Y23400D02*
D03*
X124139Y17101D02*
D03*
D32*
X33811Y77653D02*
D03*
Y82378D02*
D03*
Y87653D02*
D03*
Y92378D02*
D03*
X39500Y78924D02*
D03*
Y74200D02*
D03*
X40900Y23424D02*
D03*
Y18700D02*
D03*
X31700Y15700D02*
D03*
Y20424D02*
D03*
D33*
X82887Y76470D02*
D03*
Y74502D02*
D03*
X68516Y70565D02*
D03*
Y72533D02*
D03*
X82887Y78439D02*
D03*
X68516Y76470D02*
D03*
Y74502D02*
D03*
X82887Y70565D02*
D03*
Y72533D02*
D03*
X68516Y78439D02*
D03*
D34*
X75702Y81687D02*
D03*
X77670D02*
D03*
X71765D02*
D03*
X75702Y67317D02*
D03*
X73733D02*
D03*
Y81687D02*
D03*
X79639D02*
D03*
Y67317D02*
D03*
X77670D02*
D03*
X71765D02*
D03*
D35*
X75800Y74600D02*
D03*
D36*
X48376Y80200D02*
D03*
X53100D02*
D03*
D37*
X82500Y21500D02*
D03*
Y25339D02*
D03*
Y29079D02*
D03*
X92835Y21402D02*
D03*
Y25142D02*
D03*
Y28980D02*
D03*
D38*
X73409Y24114D02*
D03*
Y31201D02*
D03*
D39*
X34076Y32400D02*
D03*
X38800D02*
D03*
D60*
X6713Y60945D02*
D03*
Y94803D02*
D03*
Y39803D02*
D03*
Y5945D02*
D03*
D61*
X22500Y60945D02*
D03*
X22500Y95000D02*
D03*
Y40000D02*
D03*
X22500Y5945D02*
D03*
D62*
X256496Y56496D02*
D03*
D63*
X35037Y26497D02*
Y31439D01*
Y26300D02*
Y26497D01*
Y26103D02*
Y26300D01*
X34271Y32205D02*
Y32363D01*
Y32205D02*
X35037Y31439D01*
X34076Y32400D02*
X34233D01*
X34271Y32363D01*
X41263Y31700D02*
X47300D01*
X41320Y27663D02*
X46663D01*
X39533Y32400D02*
X39571Y32363D01*
X40600D01*
X41263Y31700D01*
X24925Y32622D02*
X28400D01*
X23132Y9963D02*
X23563Y10394D01*
X25175Y9963D02*
X26356D01*
X24744Y10394D02*
X25175Y9963D01*
X23563Y10394D02*
X24744D01*
X6713Y39803D02*
X6811Y39902D01*
X22402D01*
X22500Y40000D01*
X23331Y36022D02*
X23762Y35591D01*
X24744D01*
X22500Y40000D02*
X23331Y39169D01*
Y36022D02*
Y39169D01*
X6713Y5945D02*
X22500D01*
X24744Y32441D02*
X24925Y32622D01*
X23132Y6577D02*
Y9963D01*
X22500Y5945D02*
X23132Y6577D01*
X38349Y19395D02*
X39863D01*
X71434Y50370D02*
X71532Y50468D01*
X68692Y50271D02*
X68790Y50370D01*
X71434D01*
X64757Y5243D02*
X65000Y5000D01*
X55243Y5243D02*
X64757D01*
X65000D02*
Y14921D01*
X55000Y5000D02*
X55243Y5243D01*
X64121Y15800D02*
X65000Y14921D01*
X61400Y15800D02*
X64121D01*
X268329Y87274D02*
X270889Y89834D01*
X268329Y86866D02*
Y87274D01*
X275367Y89834D02*
X277802Y87400D01*
X270889Y89834D02*
X275367D01*
X277802Y87400D02*
X277900D01*
X92821Y49721D02*
X92911Y49632D01*
Y39526D02*
X93000Y39437D01*
X92911Y39526D02*
Y49632D01*
X85500Y39600D02*
X88100Y37000D01*
X85469Y35531D02*
Y39600D01*
X85500D02*
Y40500D01*
X95800Y58700D02*
X95850Y58750D01*
X101050D01*
X101100Y58800D01*
X53246Y86950D02*
X53490Y87194D01*
X54124D01*
X53003D02*
X53246Y86950D01*
X47550Y77886D02*
X48450Y78786D01*
X47550Y73020D02*
Y77886D01*
X56699Y69500D02*
X58000Y68198D01*
X54124Y87194D02*
X56699Y84619D01*
X58000Y68100D02*
Y68198D01*
X52235Y87194D02*
X53003D01*
X56699Y69500D02*
Y84619D01*
X48450Y78786D02*
Y83409D01*
X52235Y87194D01*
X81931Y29079D02*
X82500D01*
X22500Y95000D02*
X23132Y94368D01*
Y91022D02*
Y94368D01*
Y91022D02*
X23563Y90591D01*
X25925D01*
X50500Y68979D02*
Y73720D01*
Y68979D02*
X51379Y68100D01*
X54063D01*
X50500Y73720D02*
X53100Y76320D01*
X62200Y77463D02*
X62460D01*
X61966Y77229D02*
X62200Y77463D01*
X265236Y82537D02*
Y83773D01*
X268329Y86866D01*
X265100Y82402D02*
X265236Y82537D01*
X272500Y87002D02*
X274176Y85326D01*
X272500Y87002D02*
Y87100D01*
X274176Y85326D02*
X274195D01*
X274913Y84157D02*
X275363Y83706D01*
Y83463D02*
Y83706D01*
X274913Y84157D02*
Y84608D01*
X274195Y85326D02*
X274913Y84608D01*
X39500Y32400D02*
X39533D01*
X39571Y32437D01*
Y36429D01*
X262400Y93272D02*
X264127Y95000D01*
X260800Y93100D02*
X260972Y93272D01*
X262400D01*
X264127Y95000D02*
X265000D01*
X6713Y60945D02*
X22500D01*
X6811Y94902D02*
X22402D01*
X6713Y94803D02*
X6811Y94902D01*
X22402D02*
X22500Y95000D01*
X222401Y77519D02*
X222504Y77622D01*
X222622D01*
X91400Y69056D02*
X92700Y70357D01*
X92600Y76500D02*
X92650Y76450D01*
Y70650D02*
Y76450D01*
Y70650D02*
X92700Y70600D01*
X91400Y63800D02*
Y69056D01*
X92700Y70357D02*
Y70600D01*
X87000Y23700D02*
X88442Y25142D01*
X92835D01*
X216729Y22570D02*
X222530D01*
X216600Y22700D02*
X216729Y22570D01*
X222530D02*
X222700Y22400D01*
X277559Y22441D02*
Y29921D01*
X277600Y22300D02*
Y22400D01*
X53418Y87538D02*
Y89018D01*
X55000Y90600D02*
Y95000D01*
X53418Y89018D02*
X55000Y90600D01*
X275106Y75106D02*
X277559Y77559D01*
X273505Y75106D02*
X275106D01*
X273425Y73769D02*
Y77559D01*
X273569Y73425D02*
X277559D01*
X273509Y80391D02*
Y81609D01*
X273463Y77596D02*
Y80344D01*
X273509Y80391D01*
X277600Y29921D02*
Y73388D01*
X273425Y77559D02*
X273463Y77596D01*
X277559Y73425D02*
X277596Y73388D01*
X270079Y77559D02*
X273425D01*
X269037Y82500D02*
X272618D01*
X273509Y81609D01*
X275363Y83463D01*
X51537Y8463D02*
X55000Y5000D01*
X51537Y8463D02*
Y12100D01*
X276734Y21616D02*
X277559Y22441D01*
X49000Y84195D02*
Y84439D01*
X75800Y74600D02*
X82849D01*
X68516Y74502D02*
X75702D01*
X82887D02*
X87298D01*
X34703Y8346D02*
Y12540D01*
X49000Y83900D02*
Y84195D01*
X49002Y84198D01*
X48830Y84026D02*
X49000Y84195D01*
X133346Y73546D02*
Y82500D01*
X165000D01*
X200501Y75761D02*
Y75769D01*
X200070Y76200D02*
X200501Y75769D01*
X81463Y40400D02*
X81563Y40500D01*
X66379Y73450D02*
X66700Y73129D01*
X66379Y73450D02*
Y77377D01*
X65400Y78356D02*
Y78600D01*
Y78356D02*
X66379Y77377D01*
X62631Y77634D02*
Y77697D01*
X63527Y78594D02*
X65394D01*
X62631Y77697D02*
X63527Y78594D01*
X62460Y77463D02*
X62631Y77634D01*
X65394Y78594D02*
X65400Y78600D01*
X45482Y84219D02*
Y87282D01*
X45463Y87300D02*
X45482Y87282D01*
Y84219D02*
X45500Y84200D01*
X53100Y76320D02*
Y80200D01*
X53140Y80240D01*
Y83927D02*
X53180Y83966D01*
X53140Y80240D02*
Y83927D01*
X49264Y87164D02*
X49400Y87300D01*
X49264Y84703D02*
Y87164D01*
X49000Y84439D02*
X49264Y84703D01*
X48830Y80655D02*
Y84026D01*
X48376Y80200D02*
X48830Y80655D01*
X53246Y87366D02*
X53418Y87538D01*
X65437Y86500D02*
X65487Y86450D01*
Y84034D02*
Y86450D01*
Y84034D02*
X65537Y83984D01*
X57845Y53072D02*
X59200Y54427D01*
X57272Y53072D02*
X57845D01*
X59200Y54427D02*
Y57563D01*
X57100Y52900D02*
X57272Y53072D01*
X24744Y68543D02*
X24925Y68362D01*
X27638D02*
X28200Y67800D01*
X30300Y87547D02*
X33774D01*
X24850D02*
X30300D01*
X36700Y80300D02*
X36872Y80128D01*
X36528Y80472D02*
X36700Y80300D01*
X60300Y71200D02*
X60403Y71303D01*
X62003Y73463D02*
X62200D01*
X60403Y71303D02*
Y71863D01*
X27713Y92378D02*
X33811D01*
X25925Y90591D02*
X27713Y92378D01*
X33811Y82221D02*
X35559Y80472D01*
X36528D01*
X38454Y80128D02*
X39500Y79082D01*
Y78924D02*
Y79082D01*
X36872Y80128D02*
X38454D01*
X33811Y82221D02*
Y82378D01*
X38400Y67800D02*
X39100Y67100D01*
X36240Y27700D02*
X40120D01*
X31700Y15700D02*
Y15857D01*
Y15542D02*
Y15700D01*
X37444Y20300D02*
X38349Y19395D01*
X37200Y20300D02*
X37444D01*
X26356Y9963D02*
X29650Y6669D01*
X32931D02*
X33100Y6500D01*
X29650Y6669D02*
X32931D01*
X33100Y6500D02*
Y6743D01*
X34703Y8346D01*
X31505Y15895D02*
X31663D01*
X31700Y15857D01*
X24744Y87441D02*
X24850Y87547D01*
X23563Y65394D02*
X24744D01*
X23132Y61577D02*
Y64963D01*
X22500Y60945D02*
X23132Y61577D01*
Y64963D02*
X23563Y65394D01*
X263386Y22441D02*
X266732D01*
X31700Y15542D02*
X34703Y12540D01*
X35037Y26497D02*
X36240Y27700D01*
X38250Y37750D02*
X39571Y36429D01*
X33774Y87547D02*
X33811Y87585D01*
Y87653D01*
X39769Y88934D02*
Y89131D01*
Y88934D02*
X40003Y88700D01*
X40200D01*
X33811Y92378D02*
X36522D01*
X39769Y89131D01*
X36237Y69903D02*
Y70100D01*
Y69903D02*
X38400Y67740D01*
Y67800D01*
X61481Y32419D02*
X61563Y32500D01*
X61481Y19818D02*
Y32419D01*
X61400Y19737D02*
X61481Y19818D01*
X92803Y39437D02*
X93000D01*
X81500Y29510D02*
X81931Y29079D01*
X51400Y12100D02*
X51537D01*
X85437Y35500D02*
X85469Y35531D01*
X98800Y42600D02*
X99000Y42400D01*
Y39437D02*
Y42400D01*
X98803Y39437D02*
X99000D01*
X45000Y5000D02*
Y5872D01*
X277596Y73388D02*
X277600D01*
X165183Y35400D02*
X170800D01*
X133346Y35217D02*
X165000D01*
X87298Y74502D02*
X87542D01*
X87200Y74600D02*
X87298Y74502D01*
X87542D02*
X87619Y74424D01*
X275000Y94277D02*
Y95000D01*
X277900Y87400D02*
Y91377D01*
X275000Y94277D02*
X277900Y91377D01*
X265100Y82402D02*
X266401Y81100D01*
Y80791D02*
Y81100D01*
Y80791D02*
X266695Y80497D01*
Y77596D02*
Y80497D01*
Y77596D02*
X266732Y77559D01*
X165000Y35217D02*
X165183Y35400D01*
X82887Y74502D02*
Y74563D01*
X82849Y74600D02*
X82887Y74563D01*
X275363Y83463D02*
X277900D01*
D64*
X50300Y15562D02*
Y48100D01*
X44700Y53700D02*
X50300Y48100D01*
X48651Y13913D02*
X50300Y15562D01*
X48651Y13370D02*
Y13913D01*
X47600Y12319D02*
X48651Y13370D01*
X47600Y8472D02*
Y12319D01*
X12000Y15700D02*
Y30400D01*
X13976Y13724D02*
X24563D01*
X12000Y15700D02*
X13976Y13724D01*
X24563D02*
X24744Y13543D01*
X12000Y30400D02*
X13860Y32260D01*
X24563D01*
X24744Y32441D01*
X28400Y32622D02*
X28581D01*
X33709Y37750D02*
X38250D01*
X28581Y32622D02*
X33709Y37750D01*
X44700Y53700D02*
X46357Y53700D01*
X47121Y53726D02*
X49410Y53910D01*
X50200Y54700D01*
X46357Y53700D02*
X47121Y53726D01*
X68437Y61365D02*
X71617Y64545D01*
X68437Y61200D02*
Y61365D01*
X71617Y64545D02*
Y68880D01*
X123706Y23400D02*
X124100D01*
X73409Y31201D02*
Y36882D01*
X72600Y37692D02*
X73409Y36882D01*
X72600Y37692D02*
Y37800D01*
X65500Y32500D02*
Y37892D01*
X65400Y37992D02*
Y38100D01*
Y37992D02*
X65500Y37892D01*
X81463Y40400D02*
Y42629D01*
X79500Y44592D02*
Y44700D01*
Y44592D02*
X81463Y42629D01*
X124100Y23400D02*
X124494D01*
X206800Y75406D02*
Y75800D01*
X124494Y23400D02*
X124675Y23581D01*
X28200Y67800D02*
X31393Y64607D01*
X31444D01*
X24925Y68362D02*
X27638D01*
X31444Y64556D02*
X35000Y61000D01*
X18399Y87260D02*
X24563D01*
X13200Y82061D02*
X18399Y87260D01*
X13200Y70400D02*
Y82061D01*
X24563Y87260D02*
X24744Y87441D01*
X13200Y70400D02*
X15057Y68543D01*
X24744D01*
X60403Y71863D02*
X62003Y73463D01*
X35000Y41000D02*
X38250Y37750D01*
X45000Y5872D02*
X47600Y8472D01*
D65*
X22046Y22574D02*
X22406D01*
X21570Y23050D02*
Y24903D01*
Y23050D02*
X22046Y22574D01*
X20000Y20500D02*
X21508Y22008D01*
X22972D01*
X22406Y22574D02*
X22972Y22008D01*
X25023Y20318D02*
X27155D01*
X24744Y20039D02*
X25023Y20318D01*
X27155D02*
X27918Y21081D01*
X22972Y22008D02*
X24744D01*
X22333Y25666D02*
X24465D01*
X27918Y21081D02*
Y22935D01*
X27442Y23410D02*
X27918Y22935D01*
X27082Y23410D02*
X27442D01*
X26516Y23976D02*
X27082Y23410D01*
X24465Y25666D02*
X24744Y25945D01*
Y23976D02*
X26516D01*
X21570Y24903D02*
X22333Y25666D01*
X39900Y23767D02*
X40650Y23017D01*
X39900Y23767D02*
Y23924D01*
X40900Y23267D02*
Y23424D01*
X41376Y22791D02*
X41533D01*
X44578Y16122D02*
Y19746D01*
X40900Y23267D02*
X41376Y22791D01*
X41533D02*
X44578Y19746D01*
X178220Y45575D02*
X182495Y41300D01*
X205634D01*
X175586Y45959D02*
Y54842D01*
Y45959D02*
X175971Y45575D01*
X178220D01*
X27442Y23410D02*
X36931D01*
X37621Y24100D01*
X39724D01*
X111757Y33957D02*
X120157D01*
X103308Y23495D02*
X112346Y32534D01*
X119568D01*
X98765Y24918D02*
X102718D01*
X111757Y33957D01*
X98253Y23495D02*
X103308D01*
X127317Y34704D02*
Y37817D01*
X122099Y32015D02*
X122615D01*
X125894Y35294D02*
Y38406D01*
X120157Y33957D02*
X122099Y32015D01*
X123204Y30592D02*
X127317Y34704D01*
X119568Y32534D02*
X121510Y30592D01*
X123204D01*
X122615Y32015D02*
X125894Y35294D01*
X95840Y30893D02*
X98400Y28333D01*
X95840Y30893D02*
Y32176D01*
X98400Y25283D02*
Y28333D01*
Y25283D02*
X98765Y24918D01*
X39724Y24100D02*
X39900Y23924D01*
X31700Y20267D02*
Y20424D01*
Y20267D02*
X35827Y16140D01*
X36760D01*
X37100Y15800D01*
X97000Y22607D02*
X97365D01*
X98253Y23495D01*
X95500Y32516D02*
X95840Y32176D01*
X187413Y54659D02*
X189328D01*
X189362Y54693D01*
X178944Y47222D02*
X186414Y54693D01*
X189362D02*
X206504D01*
X186414D02*
X187379D01*
X187413Y54659D01*
X205634Y41300D02*
X208637Y44303D01*
X129028Y39529D02*
X169209D01*
X168620Y40951D02*
X168984Y41316D01*
Y49200D01*
X165153Y49566D02*
X168620D01*
X165153Y57034D02*
X175406D01*
X177009Y55431D01*
Y48640D02*
Y55431D01*
Y48640D02*
X178428Y47222D01*
X178944D01*
X174816Y55611D02*
X175586Y54842D01*
X162966Y51753D02*
X165153Y49566D01*
X128439Y40951D02*
X168620D01*
X169209Y39529D02*
X170407Y40727D01*
X169209Y50989D02*
X170407Y49790D01*
X165743Y55611D02*
X174816D01*
X170407Y40727D02*
Y49790D01*
X168620Y49566D02*
X168984Y49200D01*
X162966Y54847D02*
X165153Y57034D01*
X164389Y52343D02*
X165743Y50989D01*
X164389Y54257D02*
X165743Y55611D01*
Y50989D02*
X169209D01*
X162966Y51753D02*
Y54847D01*
X164389Y52343D02*
Y54257D01*
X127317Y37817D02*
X129028Y39529D01*
X125894Y38406D02*
X128439Y40951D01*
X206504Y54693D02*
X208600Y52597D01*
Y52400D02*
Y52597D01*
X208637Y44303D02*
Y44500D01*
D66*
X61400Y86600D02*
X61500Y86500D01*
X61400Y86600D02*
Y87100D01*
X274861Y94861D02*
X275000Y95000D01*
D67*
X199063Y46397D02*
X200763Y44697D01*
X185853Y44600D02*
X187650Y46397D01*
X199727Y47800D02*
X200080Y48153D01*
Y51717D01*
X185474Y47800D02*
X199727D01*
X187650Y46397D02*
X199063D01*
X200080Y51717D02*
X200763Y52400D01*
X185500Y44600D02*
X185853D01*
X200763Y44500D02*
Y44697D01*
X102300Y7700D02*
Y11607D01*
Y7700D02*
X105000Y5000D01*
X99900Y9200D02*
Y12462D01*
X95700Y5000D02*
X99900Y9200D01*
X95000Y5000D02*
X95700D01*
X102300Y11607D02*
X105102Y14409D01*
Y15986D01*
X106263Y17147D01*
Y17349D01*
X99900Y12462D02*
X102800Y15362D01*
X100723Y33552D02*
X106366D01*
X102584Y32149D02*
X106947D01*
X101800Y31366D02*
X102584Y32149D01*
X75419Y64004D02*
Y65600D01*
Y64004D02*
X80920Y58503D01*
Y56283D02*
Y58503D01*
X74016Y61883D02*
Y65600D01*
Y66477D01*
X75419Y65600D02*
Y66477D01*
X80920Y56283D02*
X81603Y55600D01*
X74016Y61883D02*
X74024Y61875D01*
X74500Y61200D02*
X75175Y61875D01*
X74024D02*
X75372D01*
X75175D02*
X75372D01*
X81603Y55600D02*
X81800D01*
X75511Y66570D02*
Y67126D01*
X75419Y66477D02*
X75511Y66570D01*
X73733Y67317D02*
X73924Y67126D01*
Y66570D02*
X74016Y66477D01*
X73924Y66570D02*
Y67126D01*
X75511D02*
X75702Y67317D01*
X99686Y32516D02*
X100723Y33552D01*
X99200Y32516D02*
X99686D01*
X101800Y29000D02*
Y31366D01*
X106947Y32149D02*
X114910Y40112D01*
X106366Y33552D02*
X113507Y40693D01*
X112100Y42600D02*
X113507Y41193D01*
Y40693D02*
Y41193D01*
X116767Y40666D02*
X116900Y40800D01*
X115263Y40666D02*
X116767D01*
X114910Y40313D02*
X115263Y40666D01*
X114910Y40112D02*
Y40313D01*
X205346Y45146D02*
Y47272D01*
Y49382D02*
X205699Y49028D01*
X205346Y47272D02*
X205699Y47625D01*
X205346Y49382D02*
Y51754D01*
X205699Y49028D02*
X220814D01*
X205699Y47625D02*
X220814D01*
X204925Y52175D02*
X205346Y51754D01*
X204700Y44500D02*
X205346Y45146D01*
X220814Y49028D02*
X221168Y49382D01*
X220814Y47625D02*
X221168Y47272D01*
Y49514D02*
X221654Y50000D01*
Y46654D02*
X222441D01*
X221168Y47139D02*
X221654Y46654D01*
X221168Y47139D02*
Y47272D01*
X221654Y50000D02*
X222441D01*
X221168Y49382D02*
Y49514D01*
D68*
X45000Y5000D02*
D03*
X55000D02*
D03*
X65000D02*
D03*
X75000D02*
D03*
X85000D02*
D03*
X95000D02*
D03*
X105000D02*
D03*
X115000D02*
D03*
X125000D02*
D03*
X135000D02*
D03*
X145000D02*
D03*
X155000D02*
D03*
X165000D02*
D03*
X175000D02*
D03*
X185000D02*
D03*
X195000D02*
D03*
X205000D02*
D03*
X215000D02*
D03*
X225000D02*
D03*
X235000D02*
D03*
X245000D02*
D03*
X255000D02*
D03*
X265000D02*
D03*
X275000D02*
D03*
Y95000D02*
D03*
X265000D02*
D03*
X255000D02*
D03*
X245000D02*
D03*
X235000D02*
D03*
X225000D02*
D03*
X215000D02*
D03*
X205000D02*
D03*
X195000D02*
D03*
X185000D02*
D03*
X175000D02*
D03*
X165000D02*
D03*
X155000D02*
D03*
X145000D02*
D03*
X135000D02*
D03*
X125000D02*
D03*
X115000D02*
D03*
X105000D02*
D03*
X95000D02*
D03*
X85000D02*
D03*
X75000D02*
D03*
X65000D02*
D03*
X55000D02*
D03*
X45000D02*
D03*
D69*
X130821Y49721D02*
D03*
X120821D02*
D03*
X35000Y41000D02*
D03*
Y51000D02*
D03*
Y61000D02*
D03*
D70*
X20000Y20500D02*
D03*
X63300Y54200D02*
D03*
X71532Y50468D02*
D03*
X45520Y57980D02*
D03*
X124000Y23700D02*
D03*
X206800Y75800D02*
D03*
X65400Y38100D02*
D03*
X88100Y37000D02*
D03*
X92821Y49721D02*
D03*
X101100Y58800D02*
D03*
X79500Y44700D02*
D03*
X72600Y37800D02*
D03*
X47550Y73020D02*
D03*
X59200Y61700D02*
D03*
X81042Y80388D02*
D03*
X77700Y76500D02*
D03*
X71617Y68880D02*
D03*
X61400Y87100D02*
D03*
X60800Y81550D02*
D03*
X82400Y25300D02*
D03*
X82500Y29200D02*
D03*
X81300Y35600D02*
D03*
X88291Y83291D02*
D03*
X185500Y44600D02*
D03*
X185474Y47800D02*
D03*
X260800Y93100D02*
D03*
X222622Y77622D02*
D03*
X92700Y70600D02*
D03*
X232900Y71800D02*
D03*
X87000Y23700D02*
D03*
X51700Y8600D02*
D03*
X133400Y73000D02*
D03*
X216600Y22700D02*
D03*
X256496Y43504D02*
D03*
X243504D02*
D03*
Y50000D02*
D03*
Y56496D02*
D03*
X253200Y46900D02*
D03*
X246900Y46800D02*
D03*
X253300Y53100D02*
D03*
X246800Y53200D02*
D03*
X262032Y83761D02*
D03*
X277559Y77559D02*
D03*
X166700Y53300D02*
D03*
X54514Y63186D02*
D03*
X53400Y49500D02*
D03*
X113600Y20431D02*
D03*
X275363Y83463D02*
D03*
X106263Y17349D02*
D03*
X72500Y87400D02*
D03*
X45500Y84200D02*
D03*
X53180Y83966D02*
D03*
X49002Y84198D02*
D03*
X53246Y87366D02*
D03*
X65537Y83984D02*
D03*
X80000Y86274D02*
D03*
X57100Y52900D02*
D03*
X50200Y54700D02*
D03*
X60300Y71200D02*
D03*
X36700Y80300D02*
D03*
X39100Y67100D02*
D03*
X65400Y78600D02*
D03*
X37200Y20300D02*
D03*
X41320Y27663D02*
D03*
X44578Y16122D02*
D03*
X37100Y15800D02*
D03*
X33100Y6500D02*
D03*
X102800Y15362D02*
D03*
X101800Y29000D02*
D03*
X99200Y32516D02*
D03*
X95500Y32516D02*
D03*
X97000Y22607D02*
D03*
X112100Y42600D02*
D03*
X116900Y40800D02*
D03*
X35100Y75802D02*
D03*
X62223Y67843D02*
D03*
X30300Y87600D02*
D03*
X31444Y64556D02*
D03*
X74300Y54400D02*
D03*
X98800Y42600D02*
D03*
X222700Y22400D02*
D03*
X229500Y59700D02*
D03*
X226500Y63100D02*
D03*
X217000Y72779D02*
D03*
X277600Y22300D02*
D03*
X250100Y50000D02*
D03*
Y43300D02*
D03*
X256300Y49800D02*
D03*
X256700Y56300D02*
D03*
X250200Y56500D02*
D03*
X74000Y72600D02*
D03*
Y76500D02*
D03*
X77500Y72400D02*
D03*
X181500Y25900D02*
D03*
X177263Y43263D02*
D03*
X170800Y35400D02*
D03*
X188700Y34900D02*
D03*
X188370Y56970D02*
D03*
X264500Y16900D02*
D03*
X273425Y15012D02*
D03*
X167068Y24700D02*
D03*
X89165Y77375D02*
D03*
X87200Y74600D02*
D03*
X114650Y15562D02*
D03*
X192908Y26575D02*
D03*
X203400Y35400D02*
D03*
X217032Y66732D02*
D03*
X215700Y60000D02*
D03*
X216200Y53400D02*
D03*
X213400Y29900D02*
D03*
X213500Y43400D02*
D03*
X216039Y39961D02*
D03*
X215800Y33300D02*
D03*
X213100Y56900D02*
D03*
X212800Y63300D02*
D03*
X213021Y70079D02*
D03*
X263500Y28400D02*
D03*
X260100Y33600D02*
D03*
X256800Y29000D02*
D03*
X253300Y33300D02*
D03*
X250200Y28300D02*
D03*
X246500Y33700D02*
D03*
X243300Y28300D02*
D03*
X240000Y33800D02*
D03*
X236500Y28600D02*
D03*
X233200Y33500D02*
D03*
X229911Y28889D02*
D03*
X236700Y66400D02*
D03*
X239900Y70600D02*
D03*
X243300Y73500D02*
D03*
X246700Y65600D02*
D03*
X250000Y68700D02*
D03*
X253323Y72530D02*
D03*
X256693Y70600D02*
D03*
X260100Y72400D02*
D03*
M02*
