G04*
G04 #@! TF.GenerationSoftware,Altium Limited,Altium Designer,24.7.2 (38)*
G04*
G04 Layer_Color=16711935*
%FSLAX25Y25*%
%MOIN*%
G70*
G04*
G04 #@! TF.SameCoordinates,5553529B-7FC1-40E9-B1A8-37912BF81215*
G04*
G04*
G04 #@! TF.FilePolarity,Negative*
G04*
G01*
G75*
%ADD58C,0.05748*%
%ADD59C,0.03950*%
%ADD60O,0.08661X0.03937*%
%ADD61O,0.07087X0.03937*%
D58*
X45000Y5000D02*
D03*
X55000D02*
D03*
X65000D02*
D03*
X75000D02*
D03*
X85000D02*
D03*
X95000D02*
D03*
X105000D02*
D03*
X115000D02*
D03*
X125000D02*
D03*
X135000D02*
D03*
X145000D02*
D03*
X155000D02*
D03*
X165000D02*
D03*
X175000D02*
D03*
X185000D02*
D03*
X195000D02*
D03*
X205000D02*
D03*
X215000D02*
D03*
X225000D02*
D03*
X235000D02*
D03*
X245000D02*
D03*
X255000D02*
D03*
X265000D02*
D03*
X275000D02*
D03*
Y95000D02*
D03*
X265000D02*
D03*
X255000D02*
D03*
X245000D02*
D03*
X235000D02*
D03*
X225000D02*
D03*
X215000D02*
D03*
X205000D02*
D03*
X195000D02*
D03*
X185000D02*
D03*
X175000D02*
D03*
X165000D02*
D03*
X155000D02*
D03*
X145000D02*
D03*
X135000D02*
D03*
X125000D02*
D03*
X115000D02*
D03*
X105000D02*
D03*
X95000D02*
D03*
X85000D02*
D03*
X75000D02*
D03*
X65000D02*
D03*
X55000D02*
D03*
X45000D02*
D03*
D59*
X130821Y49721D02*
D03*
X120821D02*
D03*
X35000Y41000D02*
D03*
Y51000D02*
D03*
Y61000D02*
D03*
D60*
X6713Y60945D02*
D03*
Y94803D02*
D03*
Y39803D02*
D03*
Y5945D02*
D03*
D61*
X22500Y60945D02*
D03*
X22500Y95000D02*
D03*
Y40000D02*
D03*
X22500Y5945D02*
D03*
M02*
