G04*
G04 #@! TF.GenerationSoftware,Altium Limited,Altium Designer,24.7.2 (38)*
G04*
G04 Layer_Physical_Order=4*
G04 Layer_Color=16711680*
%FSLAX25Y25*%
%MOIN*%
G70*
G04*
G04 #@! TF.SameCoordinates,5553529B-7FC1-40E9-B1A8-37912BF81215*
G04*
G04*
G04 #@! TF.FilePolarity,Positive*
G04*
G01*
G75*
%ADD15C,0.00600*%
%ADD60O,0.08661X0.03937*%
%ADD61O,0.07087X0.03937*%
%ADD63C,0.01500*%
%ADD64C,0.02000*%
%ADD65C,0.00623*%
%ADD67C,0.00603*%
%ADD68C,0.04724*%
%ADD69C,0.03150*%
%ADD70C,0.02400*%
D15*
X35100Y75315D02*
X35823Y74593D01*
X28744Y66253D02*
X35823Y73331D01*
X35100Y75315D02*
Y75802D01*
X35823Y73331D02*
Y74593D01*
X63300Y58052D02*
X64092Y58843D01*
X63300Y54200D02*
Y58052D01*
X64092Y58843D02*
Y62508D01*
X62223Y64377D02*
X64092Y62508D01*
X59803Y52679D02*
X65682Y46800D01*
X71400D01*
X74300Y49700D02*
Y54400D01*
X71400Y46800D02*
X74300Y49700D01*
X118618Y19600D02*
X146875D01*
X147737Y20462D02*
X162830D01*
X146875Y19600D02*
X147737Y20462D01*
X108535Y29684D02*
X118618Y19600D01*
X162830Y20462D02*
X167068Y24700D01*
X195900Y81138D02*
X204259Y72779D01*
X217000D01*
X204087Y70122D02*
X212978D01*
X195072Y79138D02*
X204087Y70122D01*
X194243Y77138D02*
X204649Y66732D01*
X217032D01*
X203820Y64732D02*
X210989D01*
X193476Y75076D02*
X203820Y64732D01*
X195024Y70700D02*
X195024D01*
X205724Y60000D01*
X215700D01*
X191819Y71076D02*
X204896Y58000D01*
X211621D01*
X206667Y53400D02*
X216200D01*
X190991Y69076D02*
X206667Y53400D01*
X205802Y81150D02*
X211139Y75813D01*
X199302Y81150D02*
X205802D01*
X211139Y75813D02*
X215650D01*
X198952Y81500D02*
X199302Y81150D01*
X217718Y75879D02*
X219700Y73897D01*
X198386Y81500D02*
X198952D01*
X196748Y83138D02*
X198386Y81500D01*
X215716Y75879D02*
X217718D01*
X215650Y75813D02*
X215716Y75879D01*
X54514Y59022D02*
Y63186D01*
X58868Y54668D02*
X58868D01*
X59600Y52882D02*
X59600Y52882D01*
X58868Y54668D02*
X59600Y53935D01*
Y52900D02*
Y53935D01*
X54514Y59022D02*
X58868Y54668D01*
X59600Y52882D02*
Y52900D01*
X59600Y52882D02*
X59803Y52679D01*
X81100Y83300D02*
X84100Y80300D01*
X85600D01*
X256425Y70868D02*
X256693Y70600D01*
X200600Y93938D02*
X203400Y91138D01*
X210572D01*
X200051Y95263D02*
X200600Y94714D01*
X195000Y95000D02*
X195263Y95263D01*
X200600Y93938D02*
Y94714D01*
X195263Y95263D02*
X200051D01*
X185000Y95000D02*
X189614D01*
X190200Y94300D02*
Y94414D01*
X189614Y95000D02*
X190200Y94414D01*
X236700Y66400D02*
Y73696D01*
X197428Y89138D02*
X197526Y89236D01*
X199136D01*
X192534Y89138D02*
X197428D01*
X179714Y95000D02*
X180300Y94414D01*
Y94238D02*
Y94414D01*
X175000Y95000D02*
X179714D01*
X191705Y87138D02*
X198405D01*
X199965Y82750D02*
X206465D01*
X197577Y85138D02*
X199965Y82750D01*
X190877Y85138D02*
X197577D01*
X181334Y87138D02*
X188877D01*
X190877Y85138D01*
X229911Y25311D02*
Y28889D01*
X165186Y4814D02*
X170552D01*
X165000Y5000D02*
X165186Y4814D01*
X170552D02*
X171138Y5400D01*
X233200Y22600D02*
Y33500D01*
X236500Y23072D02*
Y28600D01*
X240000Y23743D02*
Y33800D01*
X189900Y83138D02*
X196748D01*
X187900Y85138D02*
X189900Y83138D01*
X180505Y85138D02*
X187900D01*
X145000Y95000D02*
X145538Y95538D01*
X253187Y72666D02*
X253323Y72530D01*
X225000Y5000D02*
X226862Y6862D01*
X245862Y8862D02*
X253300Y16300D01*
X235000Y5000D02*
Y6276D01*
X235586Y6862D02*
X238519Y6862D01*
X253300Y16300D02*
Y33300D01*
X200538Y6000D02*
X205400Y10862D01*
X195713Y5713D02*
X197161D01*
X197448Y6000D02*
X200538D01*
X197161Y5713D02*
X197448Y6000D01*
X195000Y5000D02*
X195713Y5713D01*
X205400Y10862D02*
X219534D01*
X204572Y12862D02*
X218705D01*
X193400Y8862D02*
X200572D01*
X185700Y4300D02*
X188838D01*
X180900Y14862D02*
X187505D01*
X170434Y12862D02*
X178900D01*
X167428Y10862D02*
X167517Y10774D01*
X168345D02*
X170434Y12862D01*
X167517Y10774D02*
X168345D01*
X139373Y5000D02*
X143235Y8862D01*
X135000Y5000D02*
X139373D01*
X129373D02*
X133235Y8862D01*
X125000Y5000D02*
X129373D01*
X169605Y14862D02*
X178072D01*
X167605Y12862D02*
X169605Y14862D01*
X178072D02*
X180152Y16943D01*
X186757D01*
X188960Y19145D02*
X196455D01*
X186757Y16943D02*
X188960Y19145D01*
X196455D02*
X200171Y22862D01*
X208019D01*
X212642Y39961D02*
X216039D01*
X208605Y35923D02*
X212642Y39961D01*
X208605Y23448D02*
Y35923D01*
X208019Y22862D02*
X208605Y23448D01*
X168600Y16862D02*
X177243D01*
X179324Y18943D01*
X185929D01*
X199343Y24862D02*
X205714D01*
X188132Y21145D02*
X195626D01*
X206300Y36447D02*
X213253Y43400D01*
X185929Y18943D02*
X188132Y21145D01*
X205714Y24862D02*
X206300Y25448D01*
X195626Y21145D02*
X199343Y24862D01*
X206300Y25448D02*
Y36447D01*
X213253Y43400D02*
X213500D01*
X133235Y8862D02*
X140407D01*
X142406Y10862D01*
X115000Y5000D02*
X115700Y4300D01*
X118838D02*
X123400Y8862D01*
X115700Y4300D02*
X118838D01*
X151496Y12862D02*
X167605D01*
X152324Y10862D02*
X167428D01*
X143235Y8862D02*
X150324D01*
X152324Y10862D01*
X149496D02*
X151496Y12862D01*
X142406Y10862D02*
X149496D01*
X123400Y8862D02*
X130406D01*
X166600Y14862D02*
X168600Y16862D01*
X150667Y14862D02*
X166600D01*
X148667Y12862D02*
X150667Y14862D01*
X137700Y11000D02*
X139562Y12862D01*
X132544Y11000D02*
X137700D01*
X130406Y8862D02*
X132544Y11000D01*
X139562Y12862D02*
X148667D01*
X171262Y10862D02*
X179743D01*
X169174Y8774D02*
X171262Y10862D01*
X166688Y8774D02*
X169174D01*
X166600Y8862D02*
X166688Y8774D01*
X153400Y8862D02*
X166600D01*
X149538Y5000D02*
X153400Y8862D01*
X194798Y23145D02*
X198515Y26862D01*
X202814D01*
X203400Y27448D01*
Y35400D01*
X186803Y23145D02*
X194798D01*
X184600Y20943D02*
X186803Y23145D01*
X175600Y18862D02*
X177680Y20943D01*
X184600D01*
X165772Y16862D02*
X167772Y18862D01*
X175600D01*
X147400Y14862D02*
X149400Y16862D01*
X165772D01*
X136872Y13000D02*
X138734Y14862D01*
X147400D01*
X128800Y10862D02*
X130938Y13000D01*
X136872D01*
X90862Y10862D02*
X128800D01*
X85000Y5000D02*
X90862Y10862D01*
X186775Y26575D02*
X192908D01*
X183143Y22943D02*
X186775Y26575D01*
X176852Y22943D02*
X183143D01*
X174772Y20862D02*
X176852Y22943D01*
X164943Y18862D02*
X166943Y20862D01*
X174772D01*
X148400Y18862D02*
X164943D01*
X146400Y16862D02*
X148400Y18862D01*
X136043Y15000D02*
X137905Y16862D01*
X146400D01*
X127100Y12862D02*
X129238Y15000D01*
X136043D01*
X75000Y5000D02*
X82862Y12862D01*
X127100D01*
X189072Y81138D02*
X195900D01*
X187405Y82805D02*
X189072Y81138D01*
X177677Y85138D02*
X180010Y82805D01*
X187405D01*
X156562Y85138D02*
X177677D01*
X172572Y89138D02*
X179334D01*
X181334Y87138D01*
X212978Y70122D02*
X213021Y70079D01*
X188243Y79138D02*
X195072D01*
X186576Y80805D02*
X188243Y79138D01*
X178833Y80805D02*
X186576D01*
X176500Y83138D02*
X178833Y80805D01*
X155734Y83138D02*
X176500D01*
X125000Y95000D02*
X125367Y94633D01*
X139048Y92552D02*
X140462Y91138D01*
X150562D02*
X156562Y85138D01*
X135000Y94737D02*
X137186Y92552D01*
X187415Y77138D02*
X194243D01*
X185776Y78776D02*
X187415Y77138D01*
X177462Y78776D02*
X185776D01*
X175100Y81138D02*
X177462Y78776D01*
X154905Y81138D02*
X175100D01*
X184948Y76776D02*
X186648Y75076D01*
X176633Y76776D02*
X184948D01*
X210989Y64732D02*
X212421Y63300D01*
X186648Y75076D02*
X193476D01*
X212421Y63300D02*
X212800D01*
X174272Y79138D02*
X176633Y76776D01*
X153934Y79138D02*
X174272D01*
X149000Y84072D02*
X153934Y79138D01*
X128272Y88800D02*
X133000Y84072D01*
X149000D01*
X109900Y94638D02*
X115738Y88800D01*
X128272D01*
X105286Y94714D02*
X109900D01*
X105000Y95000D02*
X105286Y94714D01*
X109900Y94638D02*
Y94714D01*
X173443Y77138D02*
X175805Y74776D01*
X147800Y82072D02*
X152734Y77138D01*
X173443D01*
X131928Y82072D02*
X147800D01*
X127200Y86800D02*
X131928Y82072D01*
X114910Y86800D02*
X127200D01*
X95000Y95000D02*
X98862Y91138D01*
X211621Y58000D02*
X212721Y56900D01*
X213100D01*
X183291Y72776D02*
X184991Y71076D01*
X191819D01*
X173261Y72776D02*
X183291D01*
X170900Y75138D02*
X173261Y72776D01*
X151905Y75138D02*
X170900D01*
X114081Y84800D02*
X126372D01*
X109891Y88991D02*
X114081Y84800D01*
X85439Y94561D02*
X88862D01*
X85000Y95000D02*
X85439Y94561D01*
X184100Y69076D02*
X190991D01*
X182400Y70776D02*
X184100Y69076D01*
X172433Y70776D02*
X182400D01*
X170105Y73105D02*
X172433Y70776D01*
X146000Y78072D02*
X150967Y73105D01*
X170105D01*
X125543Y82800D02*
X130272Y78072D01*
X146000D01*
X111691Y82800D02*
X125543D01*
X107500Y86991D02*
X111691Y82800D01*
X93604Y86991D02*
X107500D01*
X85438Y89100D02*
X91494D01*
X75100Y95100D02*
X79914D01*
X75000Y95000D02*
X75100Y95100D01*
X80500Y94038D02*
Y94514D01*
X79914Y95100D02*
X80500Y94514D01*
X88862Y94561D02*
X94432Y88991D01*
X109891D01*
X98862Y91138D02*
X110572D01*
X114910Y86800D01*
X149734Y89138D02*
X155734Y83138D01*
X133591Y89138D02*
X149734D01*
X178505Y87138D02*
X180505Y85138D01*
X171162Y87138D02*
X178505D01*
X145538Y95538D02*
X149000D01*
X170100Y88200D02*
X171162Y87138D01*
X149000Y95538D02*
X156338Y88200D01*
X170100D01*
X157831Y94369D02*
X162000Y90200D01*
X155631Y94369D02*
X157831D01*
X155000Y95000D02*
X155631Y94369D01*
X171510Y90200D02*
X172572Y89138D01*
X162000Y90200D02*
X171510D01*
X165000Y94034D02*
Y95000D01*
Y94034D02*
X166833Y92200D01*
X172338D01*
X173400Y91138D02*
X180162D01*
X172338Y92200D02*
X173400Y91138D01*
X180162D02*
X182162Y89138D01*
X189705D02*
X191705Y87138D01*
X182162Y89138D02*
X189705D01*
X235414Y91952D02*
Y94586D01*
X235000Y95000D02*
X235414Y94586D01*
X219845Y82926D02*
X227469D01*
X236700Y73696D01*
X218072Y84700D02*
X219845Y82926D01*
X213743Y85138D02*
X214181Y84700D01*
X209303Y86750D02*
X210915Y85138D01*
X200428Y87944D02*
X200937D01*
X202131Y86750D01*
X199136Y89236D02*
X200428Y87944D01*
X202131Y86750D02*
X209303D01*
X214181Y84700D02*
X218072D01*
X210915Y85138D02*
X213743D01*
X206465Y82750D02*
X208288Y80926D01*
X210645D01*
X236229Y91138D02*
X246034D01*
X256425Y80747D01*
X106400Y27631D02*
X113600Y20431D01*
X42152Y49500D02*
X53400D01*
X255000Y88937D02*
Y95000D01*
Y88937D02*
X257454Y86483D01*
X201303Y84750D02*
X208474D01*
X200643Y84900D02*
X201153D01*
X208474Y84750D02*
X210124Y83100D01*
X198405Y87138D02*
X200643Y84900D01*
X201153D02*
X201303Y84750D01*
X169400Y63449D02*
Y70519D01*
X166700Y53300D02*
Y60749D01*
X169400Y63449D01*
X257454Y86483D02*
X259310D01*
X262032Y83761D01*
X28744Y62908D02*
X42152Y49500D01*
X80000Y86274D02*
X91492D01*
X92775Y84991D01*
X74287Y83300D02*
X81100D01*
X72768Y84819D02*
Y87132D01*
Y84819D02*
X74287Y83300D01*
X72500Y87400D02*
X72768Y87132D01*
X212953Y83100D02*
X215126Y80926D01*
X210124Y83100D02*
X212953D01*
X192648Y73076D02*
X195024Y70700D01*
X175805Y74776D02*
X184119D01*
X185819Y73076D02*
X192648D01*
X184119Y74776D02*
X185819Y73076D01*
X256425Y70868D02*
Y80747D01*
X215126Y80926D02*
X226641D01*
X219700Y69786D02*
X220286Y69200D01*
X219700Y69786D02*
Y73897D01*
X210645Y80926D02*
X214159Y77413D01*
X214987D01*
X215053Y77479D02*
X218947D01*
X214987Y77413D02*
X215053Y77479D01*
X221700Y71786D02*
Y74726D01*
X218947Y77479D02*
X221700Y74726D01*
Y71786D02*
X222286Y71200D01*
X223914Y69200D02*
X224500Y68614D01*
Y66900D02*
Y68614D01*
Y66900D02*
X226491Y64909D01*
Y63109D02*
Y64909D01*
Y63109D02*
X226500Y63100D01*
X220286Y69200D02*
X223914D01*
X225571Y71200D02*
X226500Y70271D01*
Y67728D02*
Y70271D01*
X222286Y71200D02*
X225571D01*
X228491Y65509D02*
Y65738D01*
Y65509D02*
X229500Y64500D01*
X226500Y67728D02*
X228491Y65738D01*
X229500Y59700D02*
Y64500D01*
X226641Y80926D02*
X230144Y77424D01*
Y74556D02*
X232900Y71800D01*
X230144Y74556D02*
Y77424D01*
X62223Y64377D02*
Y67843D01*
X28744Y62908D02*
Y66253D01*
X185000Y5000D02*
X185700Y4300D01*
X200572Y8862D02*
X204572Y12862D01*
X188838Y4300D02*
X193400Y8862D01*
X192572Y10862D02*
X199743D01*
X191810Y10100D02*
X192572Y10862D01*
X199743D02*
X203743Y14862D01*
X191228Y10100D02*
X191810D01*
X179538Y5000D02*
X183400Y8862D01*
X175000Y5000D02*
X179538D01*
X171138Y5400D02*
Y6600D01*
X198915Y12862D02*
X202915Y16862D01*
X191162Y12862D02*
X198915D01*
X182572Y10862D02*
X189162D01*
X191162Y12862D01*
X171138Y6600D02*
X173400Y8862D01*
X180572D02*
X182572Y10862D01*
X173400Y8862D02*
X180572D01*
X222410Y10700D02*
X222572Y10862D01*
X206562Y8862D02*
X220362D01*
X222200Y10700D01*
X215848Y5000D02*
X217448Y6600D01*
X215000Y5000D02*
X215848D01*
X238519Y6862D02*
X240546Y8862D01*
X245862D01*
X235000Y6276D02*
X235586Y6862D01*
X247513Y5713D02*
X256800Y15000D01*
X245713Y5713D02*
X247513D01*
X256800Y15000D02*
Y29000D01*
X245000Y5000D02*
X245713Y5713D01*
X260100Y21900D02*
Y33600D01*
X213200Y21462D02*
Y29700D01*
X213400Y29900D01*
X210600Y18862D02*
X213200Y21462D01*
X202086Y18862D02*
X210600D01*
X198087Y14862D02*
X202086Y18862D01*
X190334Y14862D02*
X198087D01*
X188334Y12862D02*
X190334Y14862D01*
X181743Y12862D02*
X188334D01*
X179743Y10862D02*
X181743Y12862D01*
X145000Y5000D02*
X149538D01*
X212982Y33300D02*
X215800D01*
X210605Y30923D02*
X212982Y33300D01*
X210605Y21695D02*
Y30923D01*
X209772Y20862D02*
X210605Y21695D01*
X197000Y16862D02*
X201000Y20862D01*
X209772D01*
X189505Y16862D02*
X197000D01*
X187505Y14862D02*
X189505Y16862D01*
X178900Y12862D02*
X180900Y14862D01*
X221138Y6600D02*
X223400Y8862D01*
X259991Y72509D02*
Y80009D01*
X245000Y95000D02*
X259991Y80009D01*
X253187Y72666D02*
Y81156D01*
X250000Y68700D02*
Y79800D01*
X215000Y95000D02*
X215414Y94586D01*
X219952D02*
X223612Y90926D01*
X215414Y94586D02*
X219952D01*
X223612Y90926D02*
X230783D01*
X224774Y88927D02*
X224774Y88926D01*
X211138Y93400D02*
Y94414D01*
X224774Y88926D02*
X229955D01*
X210552Y95000D02*
X211138Y94414D01*
X205000Y95000D02*
X210552D01*
X241834Y85138D02*
X246700Y80272D01*
Y65600D02*
Y80272D01*
X222783Y88927D02*
X224774D01*
X212572Y89138D02*
X219743D01*
X210572Y91138D02*
X212572Y89138D01*
X223873Y86927D02*
X223874Y86926D01*
X221955Y86927D02*
X223873D01*
X219743Y89138D02*
X221955Y86927D01*
X243300Y73500D02*
Y80843D01*
X223874Y86926D02*
X229126D01*
X232915Y83138D02*
X241005D01*
X243300Y80843D01*
X229126Y86926D02*
X232915Y83138D01*
X220572Y91138D02*
X222783Y88927D01*
X211138Y93400D02*
X213400Y91138D01*
X220572D01*
X202960Y88750D02*
X210131D01*
X191200Y93300D02*
X191238D01*
X196600Y91138D02*
X196698Y91236D01*
X193400Y91138D02*
X196600D01*
X191238Y93300D02*
X193400Y91138D01*
X190200Y94300D02*
X191200Y93300D01*
X200572Y91138D02*
X202960Y88750D01*
X196698Y91236D02*
X200474D01*
X200572Y91138D01*
X200572D01*
X210131Y88750D02*
X211743Y87138D01*
X218462D01*
X220674Y84926D01*
X223045D01*
X232086Y81138D02*
X239314D01*
X223045Y84926D02*
X223045Y84926D01*
X228298D02*
X232086Y81138D01*
X223045Y84926D02*
X228298D01*
X239900Y70600D02*
Y80552D01*
X239314Y81138D02*
X239900Y80552D01*
X229955Y88926D02*
X233743Y85138D01*
X241834D01*
X230783Y90926D02*
X234572Y87138D01*
X242662D01*
X250000Y79800D01*
X243491Y89138D02*
X247491Y85138D01*
X249205D01*
X227448Y92926D02*
X231612D01*
X235400Y89138D02*
X243491D01*
X225000Y95000D02*
X225374D01*
X227448Y92926D01*
X231612D02*
X235400Y89138D01*
X249205Y85138D02*
X253187Y81156D01*
X235414Y91952D02*
X236229Y91138D01*
X119200Y90800D02*
X129100D01*
X133400Y86500D01*
X149543D01*
X154905Y81138D01*
X234757Y8862D02*
X234757Y8862D01*
X250200Y21200D02*
X250200Y28300D01*
X247021Y18021D02*
X250200Y21200D01*
X236034Y12862D02*
X243300Y20128D01*
Y28300D01*
X231947Y12862D02*
X236034D01*
X205000Y5000D02*
X205581Y5581D01*
Y7881D01*
X231625Y12540D02*
X231947Y12862D01*
X205581Y7881D02*
X206562Y8862D01*
X222200Y10700D02*
X222410D01*
X222572Y10862D02*
X227838D01*
X231625Y12540D01*
X230474Y14218D02*
X231125Y14868D01*
X219534Y10862D02*
X221572Y12900D01*
X227500D02*
X230474Y14218D01*
X221572Y12900D02*
X227500D01*
X231125Y14868D02*
X240000Y23743D01*
X226600Y15000D02*
X226600Y15000D01*
X230303Y16874D02*
X236500Y23072D01*
X226600Y15000D02*
X227303D01*
X229324Y15895D01*
X220843Y15000D02*
X226600D01*
X229324Y15895D02*
X230303Y16874D01*
X218705Y12862D02*
X220843Y15000D01*
X203743Y14862D02*
X217877D01*
X220015Y17000D01*
X225771D01*
X225772Y17000D01*
X229481Y18881D02*
X233200Y22600D01*
X225772Y17000D02*
X226879D01*
X228173Y17573D01*
X229481Y18881D01*
X223600Y19000D02*
X229911Y25311D01*
X217049Y16862D02*
X219186Y19000D01*
X202915Y16862D02*
X217049D01*
X219186Y19000D02*
X223600D01*
X236862Y10862D02*
X246500Y20500D01*
X217448Y6600D02*
X221138D01*
X246500Y20500D02*
Y33700D01*
X232776Y10862D02*
X236862D01*
X228049Y8862D02*
X228261Y8862D01*
X228454Y8948D01*
X232776Y10862D01*
X223400Y8862D02*
X228049D01*
X190534Y91138D02*
X192534Y89138D01*
X180300Y94238D02*
X183400Y91138D01*
X190534D01*
X259991Y72509D02*
X260100Y72400D01*
X92775Y84991D02*
X106672D01*
X110862Y80800D01*
X104400Y25812D02*
Y77914D01*
X103814Y78500D02*
X104400Y77914D01*
Y25812D02*
X114650Y15562D01*
X89165Y77375D02*
X96116D01*
X97242Y78500D01*
X103814D01*
X104643Y80500D02*
X106400Y78743D01*
X96214Y80300D02*
X96413Y80500D01*
X104643D01*
X145172Y76072D02*
X150138Y71105D01*
X129228Y76072D02*
X145172D01*
X124500Y80800D02*
X129228Y76072D01*
X110862Y80800D02*
X124500D01*
X168814Y71105D02*
X169400Y70519D01*
X150138Y71105D02*
X168814D01*
X108535Y29684D02*
Y79436D01*
X260100Y21900D02*
X261200Y20800D01*
X265000Y5000D02*
Y12100D01*
X261200Y15900D02*
Y20800D01*
Y15900D02*
X265000Y12100D01*
X271495Y16900D02*
X273383Y15012D01*
X264500Y16900D02*
X271495D01*
X273383Y15012D02*
X273425D01*
X188535Y35065D02*
Y56805D01*
X188370Y56970D02*
X188535Y56805D01*
Y35065D02*
X188700Y34900D01*
X177263Y30137D02*
X181500Y25900D01*
X177263Y30137D02*
Y43263D01*
X131100Y80072D02*
X146828D01*
X148843Y78200D02*
X151905Y75138D01*
X126372Y84800D02*
X131100Y80072D01*
X146828D02*
X148700Y78200D01*
X148843D01*
X115000Y95000D02*
X119200Y90800D01*
X137186Y92552D02*
X139048D01*
X91647Y83291D02*
X92437Y82500D01*
X80500Y94038D02*
X85438Y89100D01*
X239871Y11003D02*
X247021Y18021D01*
X234757Y8862D02*
X237691D01*
X226862Y6862D02*
X231400D01*
X237691Y8862D02*
X239548Y10719D01*
X128095Y94633D02*
X133591Y89138D01*
X125367Y94633D02*
X128095D01*
X105471Y82500D02*
X108535Y79436D01*
X135000Y94737D02*
Y95000D01*
X140462Y91138D02*
X150562D01*
X88291Y83291D02*
X91647D01*
X106400Y27631D02*
Y78743D01*
X231400Y6862D02*
X233400Y8862D01*
X239548Y10719D02*
X239871Y11003D01*
X233400Y8862D02*
X234757D01*
X91494Y89100D02*
X93604Y86991D01*
X85600Y80300D02*
X96214D01*
X92437Y82500D02*
X105471D01*
X183400Y8862D02*
X189991D01*
X191228Y10100D01*
D60*
X6713Y60945D02*
D03*
Y94803D02*
D03*
Y39803D02*
D03*
Y5945D02*
D03*
D61*
X22500Y60945D02*
D03*
X22500Y95000D02*
D03*
Y40000D02*
D03*
X22500Y5945D02*
D03*
D63*
X79600Y64900D02*
X88300Y56200D01*
X98500D02*
X101100Y58800D01*
X88300Y56200D02*
X98500D01*
X44600Y76979D02*
X45479Y76100D01*
X55765D01*
X44600Y76979D02*
Y83056D01*
X45500Y83956D02*
Y84200D01*
X44600Y83056D02*
X45500Y83956D01*
X33700Y84200D02*
X45500D01*
X265000Y95000D02*
X265111Y94889D01*
X55765Y76100D02*
X55987D01*
X56437Y75650D01*
X55765Y76100D02*
X55765Y76100D01*
X56437Y75650D02*
X64450D01*
X30300Y87600D02*
X33700Y84200D01*
X55276Y80124D02*
X56800Y78600D01*
X53180Y83723D02*
Y83966D01*
Y83723D02*
X55276Y81626D01*
Y80124D02*
Y81626D01*
X56800Y78600D02*
X65400D01*
X66172Y67628D02*
Y73928D01*
X64450Y75650D02*
X66172Y73928D01*
Y67628D02*
X68900Y64900D01*
X79600D01*
X130821Y49721D02*
X131137Y50037D01*
D64*
X51314Y55922D02*
Y64511D01*
X50200Y54700D02*
Y54808D01*
X51314Y55922D01*
Y64511D02*
X53574Y66772D01*
X55872D01*
X60300Y71200D01*
D65*
X75419Y31677D02*
X89998D01*
X62342Y18600D02*
X75419Y31677D01*
X89998D02*
X96933Y24742D01*
X62729Y21000D02*
X74829Y33100D01*
X95019Y32516D02*
X95500D01*
X74829Y33100D02*
X94435D01*
X95019Y32516D01*
X47056Y18600D02*
X62342D01*
X44578Y16122D02*
X47056Y18600D01*
X40788Y15600D02*
X46188Y21000D01*
X62729D01*
X32400Y20500D02*
X37100Y15800D01*
X20000Y20500D02*
X32400D01*
X37200Y15600D02*
X40788D01*
X96933Y22674D02*
Y24742D01*
Y22674D02*
X97000Y22607D01*
D67*
X114361Y47045D02*
X179236D01*
X178655Y45642D02*
X178809Y45487D01*
X114942Y45642D02*
X178655D01*
X179236Y47045D02*
X179391Y46891D01*
X178809Y45487D02*
X184248D01*
X179391Y46891D02*
X184222D01*
X184248Y45487D02*
X185136Y44600D01*
X185500D01*
X184222Y46891D02*
X185131Y47800D01*
X185474D01*
X114584Y45284D02*
X114942Y45642D01*
X113181Y43852D02*
Y45865D01*
X114361Y47045D01*
X102960Y15523D02*
Y17249D01*
X99498Y20711D02*
X102960Y17249D01*
X106086Y17525D02*
X106263Y17349D01*
X104669Y17525D02*
X106086D01*
X100901Y21293D02*
X104669Y17525D01*
X102800Y15362D02*
X102960Y15523D01*
X99498Y20711D02*
Y32217D01*
X99200Y32516D02*
X99498Y32217D01*
X101800Y28647D02*
Y29000D01*
X100901Y21293D02*
Y27748D01*
X101800Y28647D01*
X112100Y42600D02*
Y42771D01*
X113181Y43852D01*
X116836Y40800D02*
X116900D01*
X114584Y43052D02*
Y45284D01*
Y43052D02*
X116836Y40800D01*
D68*
X45000Y5000D02*
D03*
X55000D02*
D03*
X65000D02*
D03*
X75000D02*
D03*
X85000D02*
D03*
X95000D02*
D03*
X105000D02*
D03*
X115000D02*
D03*
X125000D02*
D03*
X135000D02*
D03*
X145000D02*
D03*
X155000D02*
D03*
X165000D02*
D03*
X175000D02*
D03*
X185000D02*
D03*
X195000D02*
D03*
X205000D02*
D03*
X215000D02*
D03*
X225000D02*
D03*
X235000D02*
D03*
X245000D02*
D03*
X255000D02*
D03*
X265000D02*
D03*
X275000D02*
D03*
Y95000D02*
D03*
X265000D02*
D03*
X255000D02*
D03*
X245000D02*
D03*
X235000D02*
D03*
X225000D02*
D03*
X215000D02*
D03*
X205000D02*
D03*
X195000D02*
D03*
X185000D02*
D03*
X175000D02*
D03*
X165000D02*
D03*
X155000D02*
D03*
X145000D02*
D03*
X135000D02*
D03*
X125000D02*
D03*
X115000D02*
D03*
X105000D02*
D03*
X95000D02*
D03*
X85000D02*
D03*
X75000D02*
D03*
X65000D02*
D03*
X55000D02*
D03*
X45000D02*
D03*
D69*
X130821Y49721D02*
D03*
X120821D02*
D03*
X35000Y41000D02*
D03*
Y51000D02*
D03*
Y61000D02*
D03*
D70*
X20000Y20500D02*
D03*
X63300Y54200D02*
D03*
X71532Y50468D02*
D03*
X45520Y57980D02*
D03*
X124000Y23700D02*
D03*
X206800Y75800D02*
D03*
X65400Y38100D02*
D03*
X88100Y37000D02*
D03*
X92821Y49721D02*
D03*
X101100Y58800D02*
D03*
X79500Y44700D02*
D03*
X72600Y37800D02*
D03*
X47550Y73020D02*
D03*
X59200Y61700D02*
D03*
X81042Y80388D02*
D03*
X77700Y76500D02*
D03*
X71617Y68880D02*
D03*
X61400Y87100D02*
D03*
X60800Y81550D02*
D03*
X82400Y25300D02*
D03*
X82500Y29200D02*
D03*
X81300Y35600D02*
D03*
X88291Y83291D02*
D03*
X185500Y44600D02*
D03*
X185474Y47800D02*
D03*
X260800Y93100D02*
D03*
X222622Y77622D02*
D03*
X92700Y70600D02*
D03*
X232900Y71800D02*
D03*
X87000Y23700D02*
D03*
X51700Y8600D02*
D03*
X133400Y73000D02*
D03*
X216600Y22700D02*
D03*
X256496Y43504D02*
D03*
X243504D02*
D03*
Y50000D02*
D03*
Y56496D02*
D03*
X253200Y46900D02*
D03*
X246900Y46800D02*
D03*
X253300Y53100D02*
D03*
X246800Y53200D02*
D03*
X262032Y83761D02*
D03*
X277559Y77559D02*
D03*
X166700Y53300D02*
D03*
X54514Y63186D02*
D03*
X53400Y49500D02*
D03*
X113600Y20431D02*
D03*
X275363Y83463D02*
D03*
X106263Y17349D02*
D03*
X72500Y87400D02*
D03*
X45500Y84200D02*
D03*
X53180Y83966D02*
D03*
X49002Y84198D02*
D03*
X53246Y87366D02*
D03*
X65537Y83984D02*
D03*
X80000Y86274D02*
D03*
X57100Y52900D02*
D03*
X50200Y54700D02*
D03*
X60300Y71200D02*
D03*
X36700Y80300D02*
D03*
X39100Y67100D02*
D03*
X65400Y78600D02*
D03*
X37200Y20300D02*
D03*
X41320Y27663D02*
D03*
X44578Y16122D02*
D03*
X37100Y15800D02*
D03*
X33100Y6500D02*
D03*
X102800Y15362D02*
D03*
X101800Y29000D02*
D03*
X99200Y32516D02*
D03*
X95500Y32516D02*
D03*
X97000Y22607D02*
D03*
X112100Y42600D02*
D03*
X116900Y40800D02*
D03*
X35100Y75802D02*
D03*
X62223Y67843D02*
D03*
X30300Y87600D02*
D03*
X31444Y64556D02*
D03*
X74300Y54400D02*
D03*
X98800Y42600D02*
D03*
X222700Y22400D02*
D03*
X229500Y59700D02*
D03*
X226500Y63100D02*
D03*
X217000Y72779D02*
D03*
X277600Y22300D02*
D03*
X250100Y50000D02*
D03*
Y43300D02*
D03*
X256300Y49800D02*
D03*
X256700Y56300D02*
D03*
X250200Y56500D02*
D03*
X74000Y72600D02*
D03*
Y76500D02*
D03*
X77500Y72400D02*
D03*
X181500Y25900D02*
D03*
X177263Y43263D02*
D03*
X170800Y35400D02*
D03*
X188700Y34900D02*
D03*
X188370Y56970D02*
D03*
X264500Y16900D02*
D03*
X273425Y15012D02*
D03*
X167068Y24700D02*
D03*
X89165Y77375D02*
D03*
X87200Y74600D02*
D03*
X114650Y15562D02*
D03*
X192908Y26575D02*
D03*
X203400Y35400D02*
D03*
X217032Y66732D02*
D03*
X215700Y60000D02*
D03*
X216200Y53400D02*
D03*
X213400Y29900D02*
D03*
X213500Y43400D02*
D03*
X216039Y39961D02*
D03*
X215800Y33300D02*
D03*
X213100Y56900D02*
D03*
X212800Y63300D02*
D03*
X213021Y70079D02*
D03*
X263500Y28400D02*
D03*
X260100Y33600D02*
D03*
X256800Y29000D02*
D03*
X253300Y33300D02*
D03*
X250200Y28300D02*
D03*
X246500Y33700D02*
D03*
X243300Y28300D02*
D03*
X240000Y33800D02*
D03*
X236500Y28600D02*
D03*
X233200Y33500D02*
D03*
X229911Y28889D02*
D03*
X236700Y66400D02*
D03*
X239900Y70600D02*
D03*
X243300Y73500D02*
D03*
X246700Y65600D02*
D03*
X250000Y68700D02*
D03*
X253323Y72530D02*
D03*
X256693Y70600D02*
D03*
X260100Y72400D02*
D03*
M02*
