G04*
G04 #@! TF.GenerationSoftware,Altium Limited,Altium Designer,24.7.2 (38)*
G04*
G04 Layer_Physical_Order=3*
G04 Layer_Color=36540*
%FSLAX25Y25*%
%MOIN*%
G70*
G04*
G04 #@! TF.SameCoordinates,5553529B-7FC1-40E9-B1A8-37912BF81215*
G04*
G04*
G04 #@! TF.FilePolarity,Positive*
G04*
G01*
G75*
%ADD15C,0.00600*%
%ADD60O,0.08661X0.03937*%
%ADD61O,0.07087X0.03937*%
%ADD64C,0.02000*%
%ADD66C,0.04000*%
%ADD68C,0.04724*%
%ADD69C,0.03150*%
%ADD70C,0.02400*%
G36*
X279338Y98745D02*
X278838Y98245D01*
Y95599D01*
X278338Y95533D01*
X278133Y96298D01*
X277690Y97064D01*
X277064Y97690D01*
X276298Y98133D01*
X275443Y98362D01*
X274557D01*
X273702Y98133D01*
X272936Y97690D01*
X272310Y97064D01*
X271867Y96298D01*
X271812Y96091D01*
X266707Y90987D01*
X206900D01*
X206140Y90886D01*
X131043D01*
X130260Y90783D01*
X129530Y90481D01*
X128903Y90000D01*
X128903Y90000D01*
X126560Y87657D01*
X126079Y87030D01*
X125777Y86301D01*
X125674Y85518D01*
Y51842D01*
X125777Y51059D01*
X126079Y50330D01*
X126560Y49703D01*
X127795Y48468D01*
Y31775D01*
X123607Y27586D01*
X123069Y27656D01*
X104680D01*
X103897Y27553D01*
X103859Y27538D01*
X103667Y27712D01*
X103526Y27941D01*
X103800Y28602D01*
Y29398D01*
X103496Y30133D01*
X102933Y30696D01*
X102198Y31000D01*
X101402D01*
X101091Y30871D01*
X100808Y31295D01*
X100896Y31383D01*
X101200Y32118D01*
Y32914D01*
X100896Y33649D01*
X100333Y34211D01*
X99598Y34516D01*
X98802D01*
X98067Y34211D01*
X97669Y33813D01*
X97350Y33702D01*
X97031Y33813D01*
X96633Y34212D01*
X95898Y34516D01*
X95102D01*
X94367Y34212D01*
X93805Y33649D01*
X93500Y32914D01*
Y32118D01*
X93805Y31383D01*
X94367Y30821D01*
X95102Y30516D01*
X95898D01*
X96633Y30821D01*
X97031Y31219D01*
X97350Y31329D01*
X97669Y31219D01*
X98067Y30820D01*
X98802Y30516D01*
X99598D01*
X99909Y30645D01*
X100192Y30221D01*
X100104Y30133D01*
X99800Y29398D01*
Y28602D01*
X100104Y27867D01*
X100667Y27305D01*
X101402Y27000D01*
X102063D01*
X102294Y26600D01*
X102308Y26538D01*
X99252Y23482D01*
X98762Y23579D01*
X98695Y23740D01*
X98133Y24303D01*
X97398Y24607D01*
X96602D01*
X95867Y24303D01*
X95304Y23740D01*
X95000Y23005D01*
Y22209D01*
X95304Y21474D01*
X95867Y20911D01*
X96027Y20845D01*
X96125Y20355D01*
X94275Y18504D01*
X51978D01*
X51195Y18401D01*
X50465Y18099D01*
X49839Y17618D01*
X42999Y10778D01*
X42518Y10152D01*
X42216Y9422D01*
X42113Y8639D01*
Y6724D01*
X41867Y6298D01*
X41638Y5443D01*
Y4557D01*
X41867Y3702D01*
X42310Y2936D01*
X42800Y2445D01*
X42609Y1945D01*
X1238D01*
X903Y1609D01*
X438Y1545D01*
D01*
X438Y1545D01*
X-62Y2045D01*
Y100945D01*
X277138D01*
X279338Y98745D01*
D02*
G37*
G36*
X278838Y94401D02*
Y5599D01*
X278338Y5533D01*
X278133Y6298D01*
X277690Y7064D01*
X277064Y7690D01*
X276298Y8133D01*
X275443Y8362D01*
X274557D01*
X273702Y8133D01*
X272936Y7690D01*
X272310Y7064D01*
X271867Y6298D01*
X271638Y5443D01*
Y4557D01*
X271867Y3702D01*
X272310Y2936D01*
X272800Y2445D01*
X272609Y1945D01*
X267391D01*
X267200Y2445D01*
X267690Y2936D01*
X268133Y3702D01*
X268362Y4557D01*
Y5443D01*
X268133Y6298D01*
X267690Y7064D01*
X267064Y7690D01*
X266298Y8133D01*
X265443Y8362D01*
X264557D01*
X263702Y8133D01*
X262936Y7690D01*
X262310Y7064D01*
X261867Y6298D01*
X261638Y5443D01*
Y4557D01*
X261867Y3702D01*
X262310Y2936D01*
X262800Y2445D01*
X262609Y1945D01*
X257391D01*
X257200Y2445D01*
X257690Y2936D01*
X258133Y3702D01*
X258362Y4557D01*
Y5443D01*
X258133Y6298D01*
X257690Y7064D01*
X257064Y7690D01*
X256298Y8133D01*
X255443Y8362D01*
X254557D01*
X253702Y8133D01*
X252936Y7690D01*
X252310Y7064D01*
X251867Y6298D01*
X251638Y5443D01*
Y4557D01*
X251867Y3702D01*
X252310Y2936D01*
X252800Y2445D01*
X252609Y1945D01*
X247391D01*
X247200Y2445D01*
X247690Y2936D01*
X248133Y3702D01*
X248362Y4557D01*
Y5443D01*
X248133Y6298D01*
X247690Y7064D01*
X247064Y7690D01*
X246298Y8133D01*
X245443Y8362D01*
X244557D01*
X243702Y8133D01*
X242936Y7690D01*
X242310Y7064D01*
X241867Y6298D01*
X241638Y5443D01*
Y4557D01*
X241867Y3702D01*
X242310Y2936D01*
X242800Y2445D01*
X242609Y1945D01*
X237391D01*
X237200Y2445D01*
X237690Y2936D01*
X238133Y3702D01*
X238362Y4557D01*
Y5443D01*
X238133Y6298D01*
X237690Y7064D01*
X237064Y7690D01*
X236298Y8133D01*
X235443Y8362D01*
X234557D01*
X233702Y8133D01*
X232936Y7690D01*
X232310Y7064D01*
X231867Y6298D01*
X231638Y5443D01*
Y4557D01*
X231867Y3702D01*
X232310Y2936D01*
X232800Y2445D01*
X232609Y1945D01*
X227391D01*
X227200Y2445D01*
X227690Y2936D01*
X228133Y3702D01*
X228362Y4557D01*
Y5443D01*
X228133Y6298D01*
X227690Y7064D01*
X227064Y7690D01*
X226298Y8133D01*
X225443Y8362D01*
X224557D01*
X223702Y8133D01*
X222936Y7690D01*
X222310Y7064D01*
X221867Y6298D01*
X221638Y5443D01*
Y4557D01*
X221867Y3702D01*
X222310Y2936D01*
X222800Y2445D01*
X222609Y1945D01*
X217391D01*
X217200Y2445D01*
X217690Y2936D01*
X218133Y3702D01*
X218362Y4557D01*
Y5443D01*
X218133Y6298D01*
X217690Y7064D01*
X217064Y7690D01*
X216298Y8133D01*
X215443Y8362D01*
X214557D01*
X213702Y8133D01*
X212936Y7690D01*
X212310Y7064D01*
X211867Y6298D01*
X211638Y5443D01*
Y4557D01*
X211867Y3702D01*
X212310Y2936D01*
X212800Y2445D01*
X212609Y1945D01*
X207391D01*
X207200Y2445D01*
X207690Y2936D01*
X208133Y3702D01*
X208362Y4557D01*
Y5443D01*
X208133Y6298D01*
X207690Y7064D01*
X207064Y7690D01*
X206298Y8133D01*
X205443Y8362D01*
X204557D01*
X203702Y8133D01*
X202936Y7690D01*
X202310Y7064D01*
X201867Y6298D01*
X201638Y5443D01*
Y4557D01*
X201867Y3702D01*
X202310Y2936D01*
X202800Y2445D01*
X202609Y1945D01*
X197391D01*
X197200Y2445D01*
X197690Y2936D01*
X198133Y3702D01*
X198362Y4557D01*
Y5443D01*
X198133Y6298D01*
X197690Y7064D01*
X197064Y7690D01*
X196298Y8133D01*
X195443Y8362D01*
X194557D01*
X193702Y8133D01*
X192936Y7690D01*
X192310Y7064D01*
X191867Y6298D01*
X191638Y5443D01*
Y4557D01*
X191867Y3702D01*
X192310Y2936D01*
X192800Y2445D01*
X192609Y1945D01*
X187391D01*
X187200Y2445D01*
X187690Y2936D01*
X188133Y3702D01*
X188362Y4557D01*
Y5443D01*
X188133Y6298D01*
X187690Y7064D01*
X187064Y7690D01*
X186298Y8133D01*
X185443Y8362D01*
X184557D01*
X183702Y8133D01*
X182936Y7690D01*
X182310Y7064D01*
X181867Y6298D01*
X181638Y5443D01*
Y4557D01*
X181867Y3702D01*
X182310Y2936D01*
X182800Y2445D01*
X182609Y1945D01*
X177391D01*
X177200Y2445D01*
X177690Y2936D01*
X178133Y3702D01*
X178362Y4557D01*
Y5443D01*
X178133Y6298D01*
X177690Y7064D01*
X177064Y7690D01*
X176298Y8133D01*
X175443Y8362D01*
X174557D01*
X173702Y8133D01*
X172936Y7690D01*
X172310Y7064D01*
X171867Y6298D01*
X171638Y5443D01*
Y4557D01*
X171867Y3702D01*
X172310Y2936D01*
X172800Y2445D01*
X172609Y1945D01*
X167391D01*
X167200Y2445D01*
X167690Y2936D01*
X168133Y3702D01*
X168362Y4557D01*
Y5443D01*
X168133Y6298D01*
X167690Y7064D01*
X167064Y7690D01*
X166298Y8133D01*
X165443Y8362D01*
X164557D01*
X163702Y8133D01*
X162936Y7690D01*
X162310Y7064D01*
X161867Y6298D01*
X161638Y5443D01*
Y4557D01*
X161867Y3702D01*
X162310Y2936D01*
X162800Y2445D01*
X162609Y1945D01*
X157391D01*
X157200Y2445D01*
X157690Y2936D01*
X158133Y3702D01*
X158362Y4557D01*
Y5443D01*
X158133Y6298D01*
X157690Y7064D01*
X157064Y7690D01*
X156298Y8133D01*
X155443Y8362D01*
X154557D01*
X153702Y8133D01*
X152936Y7690D01*
X152310Y7064D01*
X151867Y6298D01*
X151638Y5443D01*
Y4557D01*
X151867Y3702D01*
X152310Y2936D01*
X152800Y2445D01*
X152609Y1945D01*
X147391D01*
X147200Y2445D01*
X147690Y2936D01*
X148133Y3702D01*
X148362Y4557D01*
Y5443D01*
X148133Y6298D01*
X147690Y7064D01*
X147064Y7690D01*
X146298Y8133D01*
X145443Y8362D01*
X144557D01*
X143702Y8133D01*
X142936Y7690D01*
X142310Y7064D01*
X141867Y6298D01*
X141638Y5443D01*
Y4557D01*
X141867Y3702D01*
X142310Y2936D01*
X142800Y2445D01*
X142609Y1945D01*
X137391D01*
X137200Y2445D01*
X137690Y2936D01*
X138133Y3702D01*
X138362Y4557D01*
Y5443D01*
X138133Y6298D01*
X137690Y7064D01*
X137064Y7690D01*
X136298Y8133D01*
X135443Y8362D01*
X134557D01*
X133702Y8133D01*
X132936Y7690D01*
X132310Y7064D01*
X131867Y6298D01*
X131638Y5443D01*
Y4557D01*
X131867Y3702D01*
X132310Y2936D01*
X132800Y2445D01*
X132609Y1945D01*
X127391D01*
X127200Y2445D01*
X127690Y2936D01*
X128133Y3702D01*
X128362Y4557D01*
Y5443D01*
X128133Y6298D01*
X127690Y7064D01*
X127064Y7690D01*
X126298Y8133D01*
X125443Y8362D01*
X124557D01*
X123702Y8133D01*
X122936Y7690D01*
X122310Y7064D01*
X121867Y6298D01*
X121638Y5443D01*
Y4557D01*
X121867Y3702D01*
X122310Y2936D01*
X122800Y2445D01*
X122609Y1945D01*
X117391D01*
X117200Y2445D01*
X117690Y2936D01*
X118133Y3702D01*
X118362Y4557D01*
Y5443D01*
X118133Y6298D01*
X117690Y7064D01*
X117064Y7690D01*
X116298Y8133D01*
X115443Y8362D01*
X114557D01*
X113702Y8133D01*
X112936Y7690D01*
X112310Y7064D01*
X111867Y6298D01*
X111638Y5443D01*
Y4557D01*
X111867Y3702D01*
X112310Y2936D01*
X112800Y2445D01*
X112609Y1945D01*
X107033D01*
X106899Y2445D01*
X106942Y2470D01*
X107530Y3058D01*
X107947Y3779D01*
X108162Y4584D01*
Y5416D01*
X107947Y6221D01*
X107530Y6942D01*
X106942Y7530D01*
X106221Y7947D01*
X105416Y8162D01*
X104584D01*
X103779Y7947D01*
X103058Y7530D01*
X102470Y6942D01*
X102053Y6221D01*
X101838Y5416D01*
Y4584D01*
X102053Y3779D01*
X102470Y3058D01*
X103058Y2470D01*
X103101Y2445D01*
X102968Y1945D01*
X97032D01*
X96899Y2445D01*
X96942Y2470D01*
X97530Y3058D01*
X97947Y3779D01*
X98162Y4584D01*
Y5416D01*
X97947Y6221D01*
X97530Y6942D01*
X96942Y7530D01*
X96221Y7947D01*
X95416Y8162D01*
X94584D01*
X93779Y7947D01*
X93058Y7530D01*
X92470Y6942D01*
X92053Y6221D01*
X91838Y5416D01*
Y4584D01*
X92053Y3779D01*
X92470Y3058D01*
X93058Y2470D01*
X93101Y2445D01*
X92967Y1945D01*
X87391D01*
X87200Y2445D01*
X87690Y2936D01*
X88133Y3702D01*
X88362Y4557D01*
Y5443D01*
X88133Y6298D01*
X87690Y7064D01*
X87064Y7690D01*
X86298Y8133D01*
X85443Y8362D01*
X84557D01*
X83702Y8133D01*
X82936Y7690D01*
X82310Y7064D01*
X81867Y6298D01*
X81638Y5443D01*
Y4557D01*
X81867Y3702D01*
X82310Y2936D01*
X82800Y2445D01*
X82609Y1945D01*
X77391D01*
X77200Y2445D01*
X77690Y2936D01*
X78133Y3702D01*
X78362Y4557D01*
Y5443D01*
X78133Y6298D01*
X77690Y7064D01*
X77064Y7690D01*
X76298Y8133D01*
X75443Y8362D01*
X74557D01*
X73702Y8133D01*
X72936Y7690D01*
X72310Y7064D01*
X71867Y6298D01*
X71638Y5443D01*
Y4557D01*
X71867Y3702D01*
X72310Y2936D01*
X72800Y2445D01*
X72609Y1945D01*
X47391D01*
X47200Y2445D01*
X47690Y2936D01*
X48133Y3702D01*
X48362Y4557D01*
Y5443D01*
X48164Y6180D01*
Y7385D01*
X53232Y12452D01*
X95528D01*
X96311Y12555D01*
X97041Y12858D01*
X97668Y13339D01*
X100379Y16050D01*
X100803Y15767D01*
X100800Y15760D01*
Y14964D01*
X101104Y14229D01*
X101667Y13667D01*
X102402Y13362D01*
X103198D01*
X103933Y13667D01*
X104496Y14229D01*
X104800Y14964D01*
Y15290D01*
X104867Y15363D01*
X105300Y15583D01*
X105865Y15349D01*
X106660D01*
X107395Y15653D01*
X107958Y16216D01*
X108263Y16951D01*
Y17747D01*
X107958Y18482D01*
X107395Y19044D01*
X106660Y19349D01*
X105865D01*
X105130Y19044D01*
X104567Y18482D01*
X104262Y17747D01*
Y17421D01*
X104196Y17348D01*
X103762Y17128D01*
X103198Y17362D01*
X102402D01*
X102396Y17359D01*
X102112Y17783D01*
X105934Y21605D01*
X111255D01*
X111533Y21189D01*
X111400Y20868D01*
Y19993D01*
X111735Y19184D01*
X112354Y18565D01*
X113162Y18231D01*
X114038D01*
X114846Y18565D01*
X115465Y19184D01*
X115800Y19993D01*
Y20868D01*
X115667Y21189D01*
X115945Y21605D01*
X121816D01*
X121860Y21560D01*
X122487Y21080D01*
X123217Y20777D01*
X124000Y20674D01*
X124783Y20777D01*
X125513Y21080D01*
X126140Y21560D01*
X132961Y28382D01*
X133442Y29008D01*
X133744Y29738D01*
X133847Y30521D01*
Y49721D01*
X133744Y50504D01*
X133442Y51234D01*
X132961Y51861D01*
X132961Y51861D01*
X131726Y53096D01*
Y84264D01*
X132297Y84835D01*
X204761D01*
Y76626D01*
X204600Y76238D01*
Y75362D01*
X204935Y74554D01*
X205554Y73935D01*
X206362Y73600D01*
X207238D01*
X208046Y73935D01*
X208665Y74554D01*
X209000Y75362D01*
Y76238D01*
X208839Y76626D01*
Y84935D01*
X259687D01*
X259964Y84519D01*
X259832Y84198D01*
Y83323D01*
X260167Y82514D01*
X260785Y81896D01*
X261594Y81561D01*
X262469D01*
X263278Y81896D01*
X263897Y82514D01*
X264232Y83323D01*
Y84198D01*
X264099Y84519D01*
X264376Y84935D01*
X267961D01*
X268744Y85038D01*
X269474Y85340D01*
X270100Y85821D01*
X276091Y91812D01*
X276298Y91867D01*
X277064Y92310D01*
X277690Y92936D01*
X278133Y93702D01*
X278338Y94467D01*
X278838Y94401D01*
D02*
G37*
G36*
Y4401D02*
Y1945D01*
X277391D01*
X277200Y2445D01*
X277690Y2936D01*
X278133Y3702D01*
X278338Y4467D01*
X278838Y4401D01*
D02*
G37*
%LPC*%
G36*
X255443Y98362D02*
X254557D01*
X253702Y98133D01*
X252936Y97690D01*
X252310Y97064D01*
X251867Y96298D01*
X251638Y95443D01*
Y94557D01*
X251867Y93702D01*
X252310Y92936D01*
X252936Y92310D01*
X253702Y91867D01*
X254557Y91638D01*
X255443D01*
X256298Y91867D01*
X257064Y92310D01*
X257690Y92936D01*
X258133Y93702D01*
X258362Y94557D01*
Y95443D01*
X258133Y96298D01*
X257690Y97064D01*
X257064Y97690D01*
X256298Y98133D01*
X255443Y98362D01*
D02*
G37*
G36*
X245443D02*
X244557D01*
X243702Y98133D01*
X242936Y97690D01*
X242310Y97064D01*
X241867Y96298D01*
X241638Y95443D01*
Y94557D01*
X241867Y93702D01*
X242310Y92936D01*
X242936Y92310D01*
X243702Y91867D01*
X244557Y91638D01*
X245443D01*
X246298Y91867D01*
X247064Y92310D01*
X247690Y92936D01*
X248133Y93702D01*
X248362Y94557D01*
Y95443D01*
X248133Y96298D01*
X247690Y97064D01*
X247064Y97690D01*
X246298Y98133D01*
X245443Y98362D01*
D02*
G37*
G36*
X235443D02*
X234557D01*
X233702Y98133D01*
X232936Y97690D01*
X232310Y97064D01*
X231867Y96298D01*
X231638Y95443D01*
Y94557D01*
X231867Y93702D01*
X232310Y92936D01*
X232936Y92310D01*
X233702Y91867D01*
X234557Y91638D01*
X235443D01*
X236298Y91867D01*
X237064Y92310D01*
X237690Y92936D01*
X238133Y93702D01*
X238362Y94557D01*
Y95443D01*
X238133Y96298D01*
X237690Y97064D01*
X237064Y97690D01*
X236298Y98133D01*
X235443Y98362D01*
D02*
G37*
G36*
X225443D02*
X224557D01*
X223702Y98133D01*
X222936Y97690D01*
X222310Y97064D01*
X221867Y96298D01*
X221638Y95443D01*
Y94557D01*
X221867Y93702D01*
X222310Y92936D01*
X222936Y92310D01*
X223702Y91867D01*
X224557Y91638D01*
X225443D01*
X226298Y91867D01*
X227064Y92310D01*
X227690Y92936D01*
X228133Y93702D01*
X228362Y94557D01*
Y95443D01*
X228133Y96298D01*
X227690Y97064D01*
X227064Y97690D01*
X226298Y98133D01*
X225443Y98362D01*
D02*
G37*
G36*
X215443D02*
X214557D01*
X213702Y98133D01*
X212936Y97690D01*
X212310Y97064D01*
X211867Y96298D01*
X211638Y95443D01*
Y94557D01*
X211867Y93702D01*
X212310Y92936D01*
X212936Y92310D01*
X213702Y91867D01*
X214557Y91638D01*
X215443D01*
X216298Y91867D01*
X217064Y92310D01*
X217690Y92936D01*
X218133Y93702D01*
X218362Y94557D01*
Y95443D01*
X218133Y96298D01*
X217690Y97064D01*
X217064Y97690D01*
X216298Y98133D01*
X215443Y98362D01*
D02*
G37*
G36*
X205443D02*
X204557D01*
X203702Y98133D01*
X202936Y97690D01*
X202310Y97064D01*
X201867Y96298D01*
X201638Y95443D01*
Y94557D01*
X201867Y93702D01*
X202310Y92936D01*
X202936Y92310D01*
X203702Y91867D01*
X204557Y91638D01*
X205443D01*
X206298Y91867D01*
X207064Y92310D01*
X207690Y92936D01*
X208133Y93702D01*
X208362Y94557D01*
Y95443D01*
X208133Y96298D01*
X207690Y97064D01*
X207064Y97690D01*
X206298Y98133D01*
X205443Y98362D01*
D02*
G37*
G36*
X195443D02*
X194557D01*
X193702Y98133D01*
X192936Y97690D01*
X192310Y97064D01*
X191867Y96298D01*
X191638Y95443D01*
Y94557D01*
X191867Y93702D01*
X192310Y92936D01*
X192936Y92310D01*
X193702Y91867D01*
X194557Y91638D01*
X195443D01*
X196298Y91867D01*
X197064Y92310D01*
X197690Y92936D01*
X198133Y93702D01*
X198362Y94557D01*
Y95443D01*
X198133Y96298D01*
X197690Y97064D01*
X197064Y97690D01*
X196298Y98133D01*
X195443Y98362D01*
D02*
G37*
G36*
X185443D02*
X184557D01*
X183702Y98133D01*
X182936Y97690D01*
X182310Y97064D01*
X181867Y96298D01*
X181638Y95443D01*
Y94557D01*
X181867Y93702D01*
X182310Y92936D01*
X182936Y92310D01*
X183702Y91867D01*
X184557Y91638D01*
X185443D01*
X186298Y91867D01*
X187064Y92310D01*
X187690Y92936D01*
X188133Y93702D01*
X188362Y94557D01*
Y95443D01*
X188133Y96298D01*
X187690Y97064D01*
X187064Y97690D01*
X186298Y98133D01*
X185443Y98362D01*
D02*
G37*
G36*
X175443D02*
X174557D01*
X173702Y98133D01*
X172936Y97690D01*
X172310Y97064D01*
X171867Y96298D01*
X171638Y95443D01*
Y94557D01*
X171867Y93702D01*
X172310Y92936D01*
X172936Y92310D01*
X173702Y91867D01*
X174557Y91638D01*
X175443D01*
X176298Y91867D01*
X177064Y92310D01*
X177690Y92936D01*
X178133Y93702D01*
X178362Y94557D01*
Y95443D01*
X178133Y96298D01*
X177690Y97064D01*
X177064Y97690D01*
X176298Y98133D01*
X175443Y98362D01*
D02*
G37*
G36*
X165443D02*
X164557D01*
X163702Y98133D01*
X162936Y97690D01*
X162310Y97064D01*
X161867Y96298D01*
X161638Y95443D01*
Y94557D01*
X161867Y93702D01*
X162310Y92936D01*
X162936Y92310D01*
X163702Y91867D01*
X164557Y91638D01*
X165443D01*
X166298Y91867D01*
X167064Y92310D01*
X167690Y92936D01*
X168133Y93702D01*
X168362Y94557D01*
Y95443D01*
X168133Y96298D01*
X167690Y97064D01*
X167064Y97690D01*
X166298Y98133D01*
X165443Y98362D01*
D02*
G37*
G36*
X155443D02*
X154557D01*
X153702Y98133D01*
X152936Y97690D01*
X152310Y97064D01*
X151867Y96298D01*
X151638Y95443D01*
Y94557D01*
X151867Y93702D01*
X152310Y92936D01*
X152936Y92310D01*
X153702Y91867D01*
X154557Y91638D01*
X155443D01*
X156298Y91867D01*
X157064Y92310D01*
X157690Y92936D01*
X158133Y93702D01*
X158362Y94557D01*
Y95443D01*
X158133Y96298D01*
X157690Y97064D01*
X157064Y97690D01*
X156298Y98133D01*
X155443Y98362D01*
D02*
G37*
G36*
X145443D02*
X144557D01*
X143702Y98133D01*
X142936Y97690D01*
X142310Y97064D01*
X141867Y96298D01*
X141638Y95443D01*
Y94557D01*
X141867Y93702D01*
X142310Y92936D01*
X142936Y92310D01*
X143702Y91867D01*
X144557Y91638D01*
X145443D01*
X146298Y91867D01*
X147064Y92310D01*
X147690Y92936D01*
X148133Y93702D01*
X148362Y94557D01*
Y95443D01*
X148133Y96298D01*
X147690Y97064D01*
X147064Y97690D01*
X146298Y98133D01*
X145443Y98362D01*
D02*
G37*
G36*
X135443D02*
X134557D01*
X133702Y98133D01*
X132936Y97690D01*
X132310Y97064D01*
X131867Y96298D01*
X131638Y95443D01*
Y94557D01*
X131867Y93702D01*
X132310Y92936D01*
X132936Y92310D01*
X133702Y91867D01*
X134557Y91638D01*
X135443D01*
X136298Y91867D01*
X137064Y92310D01*
X137690Y92936D01*
X138133Y93702D01*
X138362Y94557D01*
Y95443D01*
X138133Y96298D01*
X137690Y97064D01*
X137064Y97690D01*
X136298Y98133D01*
X135443Y98362D01*
D02*
G37*
G36*
X125443D02*
X124557D01*
X123702Y98133D01*
X122936Y97690D01*
X122310Y97064D01*
X121867Y96298D01*
X121638Y95443D01*
Y94557D01*
X121867Y93702D01*
X122310Y92936D01*
X122936Y92310D01*
X123702Y91867D01*
X124557Y91638D01*
X125443D01*
X126298Y91867D01*
X127064Y92310D01*
X127690Y92936D01*
X128133Y93702D01*
X128362Y94557D01*
Y95443D01*
X128133Y96298D01*
X127690Y97064D01*
X127064Y97690D01*
X126298Y98133D01*
X125443Y98362D01*
D02*
G37*
G36*
X115443D02*
X114557D01*
X113702Y98133D01*
X112936Y97690D01*
X112310Y97064D01*
X111867Y96298D01*
X111638Y95443D01*
Y94557D01*
X111867Y93702D01*
X112310Y92936D01*
X112936Y92310D01*
X113702Y91867D01*
X114557Y91638D01*
X115443D01*
X116298Y91867D01*
X117064Y92310D01*
X117690Y92936D01*
X118133Y93702D01*
X118362Y94557D01*
Y95443D01*
X118133Y96298D01*
X117690Y97064D01*
X117064Y97690D01*
X116298Y98133D01*
X115443Y98362D01*
D02*
G37*
G36*
X105443D02*
X104557D01*
X103702Y98133D01*
X102936Y97690D01*
X102310Y97064D01*
X101867Y96298D01*
X101638Y95443D01*
Y94557D01*
X101867Y93702D01*
X102310Y92936D01*
X102936Y92310D01*
X103702Y91867D01*
X104557Y91638D01*
X105443D01*
X106298Y91867D01*
X107064Y92310D01*
X107690Y92936D01*
X108133Y93702D01*
X108362Y94557D01*
Y95443D01*
X108133Y96298D01*
X107690Y97064D01*
X107064Y97690D01*
X106298Y98133D01*
X105443Y98362D01*
D02*
G37*
G36*
X95443D02*
X94557D01*
X93702Y98133D01*
X92936Y97690D01*
X92310Y97064D01*
X91867Y96298D01*
X91638Y95443D01*
Y94557D01*
X91867Y93702D01*
X92310Y92936D01*
X92936Y92310D01*
X93702Y91867D01*
X94557Y91638D01*
X95443D01*
X96298Y91867D01*
X97064Y92310D01*
X97690Y92936D01*
X98133Y93702D01*
X98362Y94557D01*
Y95443D01*
X98133Y96298D01*
X97690Y97064D01*
X97064Y97690D01*
X96298Y98133D01*
X95443Y98362D01*
D02*
G37*
G36*
X85443D02*
X84557D01*
X83702Y98133D01*
X82936Y97690D01*
X82310Y97064D01*
X81867Y96298D01*
X81638Y95443D01*
Y94557D01*
X81867Y93702D01*
X82310Y92936D01*
X82936Y92310D01*
X83702Y91867D01*
X84557Y91638D01*
X85443D01*
X86298Y91867D01*
X87064Y92310D01*
X87690Y92936D01*
X88133Y93702D01*
X88362Y94557D01*
Y95443D01*
X88133Y96298D01*
X87690Y97064D01*
X87064Y97690D01*
X86298Y98133D01*
X85443Y98362D01*
D02*
G37*
G36*
X75443D02*
X74557D01*
X73702Y98133D01*
X72936Y97690D01*
X72310Y97064D01*
X71867Y96298D01*
X71638Y95443D01*
Y94557D01*
X71867Y93702D01*
X72310Y92936D01*
X72936Y92310D01*
X73702Y91867D01*
X74557Y91638D01*
X75443D01*
X76298Y91867D01*
X77064Y92310D01*
X77690Y92936D01*
X78133Y93702D01*
X78362Y94557D01*
Y95443D01*
X78133Y96298D01*
X77690Y97064D01*
X77064Y97690D01*
X76298Y98133D01*
X75443Y98362D01*
D02*
G37*
G36*
X45443D02*
X44557D01*
X43702Y98133D01*
X42936Y97690D01*
X42310Y97064D01*
X41867Y96298D01*
X41638Y95443D01*
Y94557D01*
X41867Y93702D01*
X42310Y92936D01*
X42936Y92310D01*
X43702Y91867D01*
X44557Y91638D01*
X45443D01*
X46298Y91867D01*
X47064Y92310D01*
X47690Y92936D01*
X48133Y93702D01*
X48362Y94557D01*
Y95443D01*
X48133Y96298D01*
X47690Y97064D01*
X47064Y97690D01*
X46298Y98133D01*
X45443Y98362D01*
D02*
G37*
G36*
X30738Y89800D02*
X29862D01*
X29054Y89465D01*
X28435Y88846D01*
X28100Y88038D01*
Y87162D01*
X28435Y86354D01*
X29054Y85735D01*
X29862Y85400D01*
X30738D01*
X31546Y85735D01*
X32165Y86354D01*
X32500Y87162D01*
Y88038D01*
X32165Y88846D01*
X31546Y89465D01*
X30738Y89800D01*
D02*
G37*
G36*
X72938Y89600D02*
X72062D01*
X71254Y89265D01*
X70635Y88646D01*
X70300Y87838D01*
Y86962D01*
X70635Y86154D01*
X71254Y85535D01*
X72062Y85200D01*
X72938D01*
X73746Y85535D01*
X74365Y86154D01*
X74700Y86962D01*
Y87838D01*
X74365Y88646D01*
X73746Y89265D01*
X72938Y89600D01*
D02*
G37*
G36*
X80438Y88474D02*
X79562D01*
X78754Y88139D01*
X78135Y87520D01*
X77800Y86712D01*
Y85836D01*
X78135Y85028D01*
X78754Y84409D01*
X79562Y84074D01*
X80438D01*
X81246Y84409D01*
X81865Y85028D01*
X82200Y85836D01*
Y86712D01*
X81865Y87520D01*
X81246Y88139D01*
X80438Y88474D01*
D02*
G37*
G36*
X45938Y86400D02*
X45062D01*
X44254Y86065D01*
X43635Y85446D01*
X43300Y84638D01*
Y83762D01*
X43635Y82954D01*
X44254Y82335D01*
X45062Y82000D01*
X45938D01*
X46746Y82335D01*
X47365Y82954D01*
X47700Y83762D01*
Y84638D01*
X47365Y85446D01*
X46746Y86065D01*
X45938Y86400D01*
D02*
G37*
G36*
X53617Y86167D02*
X52742D01*
X51933Y85831D01*
X51315Y85213D01*
X50980Y84404D01*
Y83529D01*
X51315Y82720D01*
X51933Y82101D01*
X52742Y81766D01*
X53617D01*
X54426Y82101D01*
X55045Y82720D01*
X55379Y83529D01*
Y84404D01*
X55045Y85213D01*
X54426Y85831D01*
X53617Y86167D01*
D02*
G37*
G36*
X88728Y85491D02*
X87853D01*
X87045Y85156D01*
X86426Y84537D01*
X86091Y83728D01*
Y82853D01*
X86426Y82045D01*
X87045Y81426D01*
X87853Y81091D01*
X88728D01*
X89537Y81426D01*
X90156Y82045D01*
X90491Y82853D01*
Y83728D01*
X90156Y84537D01*
X89537Y85156D01*
X88728Y85491D01*
D02*
G37*
G36*
X65443Y98362D02*
X64557D01*
X63702Y98133D01*
X62936Y97690D01*
X62310Y97064D01*
X61867Y96298D01*
X61740Y95823D01*
X59260Y93344D01*
X58780Y92717D01*
X58477Y91987D01*
X58374Y91204D01*
Y87515D01*
X58311Y87037D01*
Y83235D01*
X58179Y83063D01*
X57877Y82333D01*
X57779Y81589D01*
X37919Y61728D01*
X37436Y61858D01*
X37399Y61994D01*
X37060Y62581D01*
X36581Y63060D01*
X35994Y63399D01*
X35339Y63575D01*
X34661D01*
X34006Y63399D01*
X33850Y63309D01*
X33453Y63657D01*
X33644Y64118D01*
Y64994D01*
X33309Y65802D01*
X32690Y66421D01*
X31881Y66756D01*
X31006D01*
X30198Y66421D01*
X29579Y65802D01*
X29244Y64994D01*
Y64118D01*
X29579Y63310D01*
X30198Y62691D01*
X31006Y62356D01*
X31881D01*
X32343Y62547D01*
X32691Y62150D01*
X32601Y61994D01*
X32425Y61339D01*
Y60661D01*
X32601Y60006D01*
X32940Y59419D01*
X33419Y58940D01*
X34006Y58601D01*
X34142Y58564D01*
X34272Y58081D01*
X32860Y56670D01*
X32379Y56043D01*
X32077Y55313D01*
X31974Y54530D01*
Y51000D01*
X32077Y50217D01*
X32379Y49487D01*
X32860Y48860D01*
X58560Y23160D01*
X59187Y22680D01*
X59917Y22377D01*
X60700Y22274D01*
X82400D01*
X83183Y22377D01*
X83913Y22680D01*
X84540Y23160D01*
X84640Y23260D01*
X85120Y23887D01*
X85423Y24617D01*
X85526Y25400D01*
Y34400D01*
X85526Y34400D01*
X85423Y35183D01*
X85120Y35913D01*
X84640Y36540D01*
X84640Y36540D01*
X83440Y37740D01*
X82813Y38221D01*
X82083Y38523D01*
X81300Y38626D01*
X80517Y38523D01*
X79787Y38221D01*
X79160Y37740D01*
X78680Y37113D01*
X78377Y36383D01*
X78274Y35600D01*
X78377Y34817D01*
X78680Y34087D01*
X79160Y33460D01*
X79474Y33147D01*
Y28326D01*
X61953D01*
X38026Y52253D01*
Y53277D01*
X42122Y57373D01*
X42266Y57324D01*
X42614Y57158D01*
X42900Y56467D01*
X43381Y55840D01*
X44008Y55359D01*
X44737Y55057D01*
X45520Y54954D01*
X46304Y55057D01*
X47033Y55359D01*
X47406Y55645D01*
X47659Y55621D01*
X48000Y55138D01*
Y54262D01*
X48335Y53454D01*
X48954Y52835D01*
X49762Y52500D01*
X50638D01*
X51446Y52835D01*
X52065Y53454D01*
X52400Y54262D01*
Y55138D01*
X52268Y55457D01*
X52602Y55957D01*
X56483D01*
X57266Y56060D01*
X57996Y56363D01*
X58623Y56843D01*
X62396Y60617D01*
X63963D01*
X64746Y60720D01*
X65475Y61022D01*
X66102Y61503D01*
X70856Y66258D01*
X71617D01*
X72295Y66347D01*
X72928Y66609D01*
X73471Y67026D01*
X73888Y67569D01*
X74150Y68201D01*
X74239Y68880D01*
X74150Y69559D01*
X73888Y70191D01*
X73471Y70734D01*
X72928Y71151D01*
X72534Y71314D01*
Y76706D01*
X75298Y79470D01*
X79474D01*
X79516Y79368D01*
X80023Y78862D01*
X80684Y78588D01*
X81400D01*
X82062Y78862D01*
X82568Y79368D01*
X82842Y80030D01*
Y80746D01*
X82568Y81407D01*
X82062Y81914D01*
X81400Y82188D01*
X80684D01*
X80023Y81914D01*
X79516Y81407D01*
X79474Y81305D01*
X74918D01*
X74567Y81236D01*
X74269Y81037D01*
X70968Y77736D01*
X70769Y77438D01*
X70699Y77087D01*
Y71956D01*
X70283Y71678D01*
X69983Y71803D01*
X69200Y71906D01*
X68416Y71803D01*
X67686Y71500D01*
X67060Y71020D01*
X64711Y68671D01*
X64221Y68768D01*
X64088Y69089D01*
X63469Y69708D01*
X62731Y70014D01*
X62575Y70158D01*
X62374Y70459D01*
X62500Y70762D01*
Y71638D01*
X62165Y72446D01*
X61546Y73065D01*
X60738Y73400D01*
X59862D01*
X59054Y73065D01*
X58435Y72446D01*
X58100Y71638D01*
Y70762D01*
X58435Y69954D01*
X59054Y69335D01*
X59792Y69029D01*
X59948Y68885D01*
X60149Y68584D01*
X60023Y68281D01*
Y67405D01*
X60190Y67001D01*
X60349Y66593D01*
X59942Y66393D01*
X59630Y66263D01*
X59003Y65783D01*
X57135Y63914D01*
X56545Y64031D01*
X56379Y64432D01*
X55760Y65051D01*
X54952Y65386D01*
X54076D01*
X53268Y65051D01*
X52649Y64432D01*
X52314Y63624D01*
Y62748D01*
X52448Y62425D01*
X52170Y62009D01*
X47411D01*
X47220Y62471D01*
X62738Y77989D01*
X63303Y77889D01*
X63319Y77876D01*
X63535Y77354D01*
X64154Y76735D01*
X64962Y76400D01*
X65838D01*
X66646Y76735D01*
X67265Y77354D01*
X67600Y78162D01*
Y79038D01*
X67265Y79846D01*
X66646Y80465D01*
X65838Y80800D01*
X64962D01*
X64787Y80727D01*
X64329Y81079D01*
X64363Y81337D01*
Y86621D01*
X64426Y87100D01*
Y89951D01*
X66403Y91928D01*
X67064Y92310D01*
X67690Y92936D01*
X68133Y93702D01*
X68362Y94557D01*
Y95443D01*
X68133Y96298D01*
X67690Y97064D01*
X67064Y97690D01*
X66298Y98133D01*
X65443Y98362D01*
D02*
G37*
G36*
X89603Y79575D02*
X88728D01*
X87919Y79239D01*
X87300Y78621D01*
X86965Y77812D01*
Y76937D01*
X87300Y76128D01*
X87919Y75509D01*
X88728Y75174D01*
X89603D01*
X90412Y75509D01*
X91030Y76128D01*
X91365Y76937D01*
Y77812D01*
X91030Y78621D01*
X90412Y79239D01*
X89603Y79575D01*
D02*
G37*
G36*
X35538Y78002D02*
X34662D01*
X33854Y77667D01*
X33235Y77049D01*
X32900Y76240D01*
Y75365D01*
X33235Y74556D01*
X33854Y73937D01*
X34662Y73602D01*
X35538D01*
X36346Y73937D01*
X36965Y74556D01*
X37300Y75365D01*
Y76240D01*
X36965Y77049D01*
X36346Y77667D01*
X35538Y78002D01*
D02*
G37*
G36*
X101538Y61000D02*
X100662D01*
X99854Y60665D01*
X99235Y60046D01*
X98900Y59238D01*
Y58362D01*
X99235Y57554D01*
X99854Y56935D01*
X100662Y56600D01*
X101538D01*
X102346Y56935D01*
X102965Y57554D01*
X103300Y58362D01*
Y59238D01*
X102965Y60046D01*
X102346Y60665D01*
X101538Y61000D01*
D02*
G37*
G36*
X74738Y56600D02*
X73862D01*
X73054Y56265D01*
X72435Y55646D01*
X72100Y54838D01*
Y53962D01*
X72435Y53154D01*
X73054Y52535D01*
X73862Y52200D01*
X74738D01*
X75546Y52535D01*
X76165Y53154D01*
X76500Y53962D01*
Y54838D01*
X76165Y55646D01*
X75546Y56265D01*
X74738Y56600D01*
D02*
G37*
G36*
X63738Y56400D02*
X62862D01*
X62054Y56065D01*
X61435Y55446D01*
X61100Y54638D01*
Y53762D01*
X61435Y52954D01*
X62054Y52335D01*
X62862Y52000D01*
X63738D01*
X64546Y52335D01*
X65165Y52954D01*
X65500Y53762D01*
Y54638D01*
X65165Y55446D01*
X64546Y56065D01*
X63738Y56400D01*
D02*
G37*
G36*
X53838Y51700D02*
X52962D01*
X52154Y51365D01*
X51535Y50746D01*
X51200Y49938D01*
Y49062D01*
X51535Y48254D01*
X52154Y47635D01*
X52962Y47300D01*
X53838D01*
X54646Y47635D01*
X55265Y48254D01*
X55600Y49062D01*
Y49938D01*
X55265Y50746D01*
X54646Y51365D01*
X53838Y51700D01*
D02*
G37*
G36*
X120821Y52747D02*
X92821D01*
X92038Y52644D01*
X91308Y52342D01*
X90682Y51861D01*
X90682Y51861D01*
X86547Y47726D01*
X79500D01*
X78717Y47623D01*
X77987Y47321D01*
X77360Y46840D01*
X77360Y46840D01*
X71347Y40826D01*
X66659D01*
X66183Y41023D01*
X65400Y41126D01*
X64617Y41023D01*
X63887Y40720D01*
X63260Y40240D01*
X62779Y39613D01*
X62477Y38883D01*
X62374Y38100D01*
X62477Y37317D01*
X62779Y36587D01*
X63260Y35960D01*
X63560Y35660D01*
X63560Y35660D01*
X64187Y35179D01*
X64917Y34877D01*
X65700Y34774D01*
X72600D01*
X73383Y34877D01*
X74113Y35179D01*
X74740Y35660D01*
X80753Y41674D01*
X87800D01*
X88583Y41777D01*
X89313Y42079D01*
X89940Y42560D01*
X94075Y46695D01*
X120821D01*
X121604Y46799D01*
X122334Y47101D01*
X122961Y47582D01*
X123442Y48208D01*
X123744Y48938D01*
X123847Y49721D01*
X123744Y50504D01*
X123442Y51234D01*
X122961Y51861D01*
X122334Y52342D01*
X121604Y52644D01*
X120821Y52747D01*
D02*
G37*
G36*
X112498Y44600D02*
X111702D01*
X110967Y44295D01*
X110405Y43733D01*
X110100Y42998D01*
Y42202D01*
X110405Y41467D01*
X110967Y40905D01*
X111702Y40600D01*
X112498D01*
X113233Y40905D01*
X113795Y41467D01*
X114100Y42202D01*
Y42998D01*
X113795Y43733D01*
X113233Y44295D01*
X112498Y44600D01*
D02*
G37*
G36*
X117298Y42800D02*
X116502D01*
X115767Y42496D01*
X115205Y41933D01*
X114900Y41198D01*
Y40402D01*
X115205Y39667D01*
X115767Y39105D01*
X116502Y38800D01*
X117298D01*
X118033Y39105D01*
X118596Y39667D01*
X118900Y40402D01*
Y41198D01*
X118596Y41933D01*
X118033Y42496D01*
X117298Y42800D01*
D02*
G37*
G36*
X35339Y43575D02*
X34661D01*
X34006Y43399D01*
X33419Y43060D01*
X32940Y42581D01*
X32601Y41994D01*
X32425Y41339D01*
Y40661D01*
X32601Y40006D01*
X32940Y39419D01*
X33419Y38940D01*
X34006Y38601D01*
X34661Y38425D01*
X35339D01*
X35994Y38601D01*
X36581Y38940D01*
X37060Y39419D01*
X37399Y40006D01*
X37575Y40661D01*
Y41339D01*
X37399Y41994D01*
X37060Y42581D01*
X36581Y43060D01*
X35994Y43399D01*
X35339Y43575D01*
D02*
G37*
G36*
X20338Y22200D02*
X19662D01*
X19037Y21941D01*
X18559Y21463D01*
X18300Y20838D01*
Y20162D01*
X18559Y19537D01*
X19037Y19059D01*
X19662Y18800D01*
X20338D01*
X20963Y19059D01*
X21441Y19537D01*
X21700Y20162D01*
Y20838D01*
X21441Y21463D01*
X20963Y21941D01*
X20338Y22200D01*
D02*
G37*
G36*
X44976Y18122D02*
X44180D01*
X43445Y17817D01*
X42883Y17255D01*
X42578Y16520D01*
Y15724D01*
X42883Y14989D01*
X43445Y14426D01*
X44180Y14122D01*
X44976D01*
X45711Y14426D01*
X46274Y14989D01*
X46578Y15724D01*
Y16520D01*
X46274Y17255D01*
X45711Y17817D01*
X44976Y18122D01*
D02*
G37*
G36*
X37498Y17800D02*
X36702D01*
X35967Y17495D01*
X35405Y16933D01*
X35100Y16198D01*
Y15402D01*
X35405Y14667D01*
X35967Y14105D01*
X36702Y13800D01*
X37498D01*
X38233Y14105D01*
X38796Y14667D01*
X39100Y15402D01*
Y16198D01*
X38796Y16933D01*
X38233Y17495D01*
X37498Y17800D01*
D02*
G37*
G36*
X243738Y75700D02*
X242862D01*
X242054Y75365D01*
X241435Y74746D01*
X241100Y73938D01*
Y73062D01*
X241119Y73018D01*
X240736Y72635D01*
X240338Y72800D01*
X239462D01*
X238654Y72465D01*
X238035Y71846D01*
X237700Y71038D01*
Y70162D01*
X238035Y69354D01*
X238654Y68735D01*
X239462Y68400D01*
X240338D01*
X241146Y68735D01*
X241765Y69354D01*
X242100Y70162D01*
Y71038D01*
X242081Y71082D01*
X242464Y71465D01*
X242862Y71300D01*
X243738D01*
X244546Y71635D01*
X245165Y72254D01*
X245500Y73062D01*
Y73938D01*
X245165Y74746D01*
X244546Y75365D01*
X243738Y75700D01*
D02*
G37*
G36*
X217438Y74979D02*
X216562D01*
X215754Y74644D01*
X215135Y74025D01*
X214800Y73216D01*
Y72341D01*
X214957Y71961D01*
X214534Y71678D01*
X214267Y71944D01*
X213459Y72279D01*
X212584D01*
X211775Y71944D01*
X211156Y71325D01*
X210821Y70516D01*
Y69641D01*
X211156Y68832D01*
X211775Y68214D01*
X212584Y67879D01*
X213459D01*
X214267Y68214D01*
X214886Y68832D01*
X215221Y69641D01*
Y70516D01*
X215064Y70897D01*
X215488Y71180D01*
X215754Y70914D01*
X216562Y70579D01*
X217438D01*
X218246Y70914D01*
X218865Y71532D01*
X219200Y72341D01*
Y73216D01*
X218865Y74025D01*
X218246Y74644D01*
X217438Y74979D01*
D02*
G37*
G36*
X253761Y74730D02*
X252885D01*
X252077Y74395D01*
X251458Y73776D01*
X251123Y72968D01*
Y72092D01*
X251458Y71284D01*
X252077Y70665D01*
X252885Y70330D01*
X253761D01*
X254077Y70461D01*
X254493Y70183D01*
Y70162D01*
X254828Y69354D01*
X255447Y68735D01*
X256255Y68400D01*
X257131D01*
X257939Y68735D01*
X258558Y69354D01*
X258828Y70005D01*
X259355Y70327D01*
X259662Y70200D01*
X260538D01*
X261346Y70535D01*
X261965Y71154D01*
X262300Y71962D01*
Y72838D01*
X261965Y73646D01*
X261346Y74265D01*
X260538Y74600D01*
X259662D01*
X258854Y74265D01*
X258235Y73646D01*
X257965Y72995D01*
X257438Y72673D01*
X257131Y72800D01*
X256255D01*
X255939Y72669D01*
X255523Y72947D01*
Y72968D01*
X255188Y73776D01*
X254569Y74395D01*
X253761Y74730D01*
D02*
G37*
G36*
X233338Y74000D02*
X232462D01*
X231654Y73665D01*
X231035Y73046D01*
X230700Y72238D01*
Y71362D01*
X231035Y70554D01*
X231654Y69935D01*
X232462Y69600D01*
X233338D01*
X234146Y69935D01*
X234765Y70554D01*
X235100Y71362D01*
Y72238D01*
X234765Y73046D01*
X234146Y73665D01*
X233338Y74000D01*
D02*
G37*
G36*
X250438Y70900D02*
X249562D01*
X248754Y70565D01*
X248135Y69946D01*
X247800Y69138D01*
Y68262D01*
X247898Y68026D01*
X247515Y67644D01*
X247138Y67800D01*
X246262D01*
X245454Y67465D01*
X244835Y66846D01*
X244500Y66038D01*
Y65162D01*
X244835Y64354D01*
X245454Y63735D01*
X246262Y63400D01*
X247138D01*
X247946Y63735D01*
X248565Y64354D01*
X248900Y65162D01*
Y66038D01*
X248802Y66274D01*
X249185Y66656D01*
X249562Y66500D01*
X250438D01*
X251246Y66835D01*
X251865Y67454D01*
X252200Y68262D01*
Y69138D01*
X251865Y69946D01*
X251246Y70565D01*
X250438Y70900D01*
D02*
G37*
G36*
X217470Y68932D02*
X216595D01*
X215786Y68597D01*
X215167Y67979D01*
X214832Y67170D01*
Y66295D01*
X215167Y65486D01*
X215786Y64867D01*
X216595Y64532D01*
X217470D01*
X218279Y64867D01*
X218897Y65486D01*
X219232Y66295D01*
Y67170D01*
X218897Y67979D01*
X218279Y68597D01*
X217470Y68932D01*
D02*
G37*
G36*
X237138Y68600D02*
X236262D01*
X235454Y68265D01*
X234835Y67646D01*
X234500Y66838D01*
Y65962D01*
X234835Y65154D01*
X235454Y64535D01*
X236262Y64200D01*
X237138D01*
X237946Y64535D01*
X238565Y65154D01*
X238900Y65962D01*
Y66838D01*
X238565Y67646D01*
X237946Y68265D01*
X237138Y68600D01*
D02*
G37*
G36*
X226938Y65300D02*
X226062D01*
X225254Y64965D01*
X224635Y64346D01*
X224300Y63538D01*
Y62662D01*
X224635Y61854D01*
X225254Y61235D01*
X226062Y60900D01*
X226938D01*
X227103Y60969D01*
X227486Y60586D01*
X227300Y60138D01*
Y59262D01*
X227635Y58454D01*
X228254Y57835D01*
X229062Y57500D01*
X229938D01*
X230746Y57835D01*
X231365Y58454D01*
X231700Y59262D01*
Y60138D01*
X231365Y60946D01*
X230746Y61565D01*
X229938Y61900D01*
X229062D01*
X228897Y61831D01*
X228514Y62214D01*
X228700Y62662D01*
Y63538D01*
X228365Y64346D01*
X227746Y64965D01*
X226938Y65300D01*
D02*
G37*
G36*
X188808Y59170D02*
X187933D01*
X187124Y58835D01*
X186505Y58216D01*
X186170Y57408D01*
Y56533D01*
X186505Y55724D01*
X187124Y55105D01*
X187933Y54770D01*
X188808D01*
X189616Y55105D01*
X190235Y55724D01*
X190570Y56533D01*
Y57408D01*
X190235Y58216D01*
X189616Y58835D01*
X188808Y59170D01*
D02*
G37*
G36*
X213238Y65500D02*
X212362D01*
X211554Y65165D01*
X210935Y64546D01*
X210600Y63738D01*
Y62862D01*
X210935Y62054D01*
X211554Y61435D01*
X212362Y61100D01*
X213238D01*
X213615Y60715D01*
X213500Y60438D01*
Y59562D01*
X213150Y59100D01*
X212662D01*
X211854Y58765D01*
X211235Y58146D01*
X210900Y57338D01*
Y56462D01*
X211235Y55654D01*
X211854Y55035D01*
X212662Y54700D01*
X213538D01*
X213875Y54840D01*
X214256Y54457D01*
X214000Y53838D01*
Y52962D01*
X214335Y52154D01*
X214954Y51535D01*
X215762Y51200D01*
X216638D01*
X217446Y51535D01*
X218065Y52154D01*
X218400Y52962D01*
Y53838D01*
X218065Y54646D01*
X217446Y55265D01*
X216638Y55600D01*
X215762D01*
X215425Y55460D01*
X215044Y55844D01*
X215300Y56462D01*
Y57338D01*
X215650Y57800D01*
X216138D01*
X216946Y58135D01*
X217565Y58754D01*
X217900Y59562D01*
Y60438D01*
X217565Y61246D01*
X216946Y61865D01*
X216138Y62200D01*
X215262D01*
X214885Y62585D01*
X215000Y62862D01*
Y63738D01*
X214665Y64546D01*
X214046Y65165D01*
X213238Y65500D01*
D02*
G37*
G36*
X167138Y55500D02*
X166262D01*
X165454Y55165D01*
X164835Y54546D01*
X164500Y53738D01*
Y52862D01*
X164835Y52054D01*
X165454Y51435D01*
X166262Y51100D01*
X167138D01*
X167946Y51435D01*
X168565Y52054D01*
X168900Y52862D01*
Y53738D01*
X168565Y54546D01*
X167946Y55165D01*
X167138Y55500D01*
D02*
G37*
G36*
X185872Y49800D02*
X185076D01*
X184341Y49495D01*
X183778Y48933D01*
X183474Y48198D01*
Y47402D01*
X183778Y46667D01*
X184258Y46187D01*
X183805Y45733D01*
X183500Y44998D01*
Y44202D01*
X183805Y43467D01*
X184367Y42904D01*
X185102Y42600D01*
X185898D01*
X186633Y42904D01*
X187196Y43467D01*
X187500Y44202D01*
Y44998D01*
X187196Y45733D01*
X186715Y46213D01*
X187169Y46667D01*
X187474Y47402D01*
Y48198D01*
X187169Y48933D01*
X186607Y49495D01*
X185872Y49800D01*
D02*
G37*
G36*
X177701Y45463D02*
X176825D01*
X176017Y45128D01*
X175398Y44509D01*
X175063Y43701D01*
Y42825D01*
X175398Y42017D01*
X176017Y41398D01*
X176825Y41063D01*
X177701D01*
X178509Y41398D01*
X179128Y42017D01*
X179463Y42825D01*
Y43701D01*
X179128Y44509D01*
X178509Y45128D01*
X177701Y45463D01*
D02*
G37*
G36*
X213938Y45600D02*
X213062D01*
X212254Y45265D01*
X211635Y44646D01*
X211300Y43838D01*
Y42962D01*
X211635Y42154D01*
X212254Y41535D01*
X213062Y41200D01*
X213630D01*
X213970Y40713D01*
X213839Y40398D01*
Y39523D01*
X214174Y38714D01*
X214793Y38096D01*
X215602Y37761D01*
X216477D01*
X217286Y38096D01*
X217904Y38714D01*
X218239Y39523D01*
Y40398D01*
X217904Y41207D01*
X217286Y41826D01*
X216477Y42161D01*
X215909D01*
X215569Y42647D01*
X215700Y42962D01*
Y43838D01*
X215365Y44646D01*
X214746Y45265D01*
X213938Y45600D01*
D02*
G37*
G36*
X203838Y37600D02*
X202962D01*
X202154Y37265D01*
X201535Y36646D01*
X201200Y35838D01*
Y34962D01*
X201535Y34154D01*
X202154Y33535D01*
X202962Y33200D01*
X203838D01*
X204646Y33535D01*
X205265Y34154D01*
X205600Y34962D01*
Y35838D01*
X205265Y36646D01*
X204646Y37265D01*
X203838Y37600D01*
D02*
G37*
G36*
X189138Y37100D02*
X188262D01*
X187454Y36765D01*
X186835Y36146D01*
X186500Y35338D01*
Y34462D01*
X186835Y33654D01*
X187454Y33035D01*
X188262Y32700D01*
X189138D01*
X189946Y33035D01*
X190565Y33654D01*
X190900Y34462D01*
Y35338D01*
X190565Y36146D01*
X189946Y36765D01*
X189138Y37100D01*
D02*
G37*
G36*
X240438Y36000D02*
X239562D01*
X238754Y35665D01*
X238135Y35046D01*
X237800Y34238D01*
Y33362D01*
X238135Y32554D01*
X238754Y31935D01*
X239562Y31600D01*
X240438D01*
X241246Y31935D01*
X241865Y32554D01*
X242200Y33362D01*
Y34238D01*
X241865Y35046D01*
X241246Y35665D01*
X240438Y36000D01*
D02*
G37*
G36*
X246938Y35900D02*
X246062D01*
X245254Y35565D01*
X244635Y34946D01*
X244300Y34138D01*
Y33262D01*
X244635Y32454D01*
X245254Y31835D01*
X246062Y31500D01*
X246938D01*
X247746Y31835D01*
X248365Y32454D01*
X248700Y33262D01*
Y34138D01*
X248365Y34946D01*
X247746Y35565D01*
X246938Y35900D01*
D02*
G37*
G36*
X260538Y35800D02*
X259662D01*
X258854Y35465D01*
X258235Y34846D01*
X257900Y34038D01*
Y33162D01*
X258235Y32354D01*
X258854Y31735D01*
X259662Y31400D01*
X260538D01*
X261346Y31735D01*
X261965Y32354D01*
X262300Y33162D01*
Y34038D01*
X261965Y34846D01*
X261346Y35465D01*
X260538Y35800D01*
D02*
G37*
G36*
X233638Y35700D02*
X232762D01*
X231954Y35365D01*
X231335Y34746D01*
X231000Y33938D01*
Y33062D01*
X231335Y32254D01*
X231954Y31635D01*
X232762Y31300D01*
X233638D01*
X234446Y31635D01*
X235065Y32254D01*
X235400Y33062D01*
Y33938D01*
X235065Y34746D01*
X234446Y35365D01*
X233638Y35700D01*
D02*
G37*
G36*
X253738Y35500D02*
X252862D01*
X252054Y35165D01*
X251435Y34546D01*
X251100Y33738D01*
Y32862D01*
X251435Y32054D01*
X252054Y31435D01*
X252862Y31100D01*
X253738D01*
X254546Y31435D01*
X255165Y32054D01*
X255500Y32862D01*
Y33738D01*
X255165Y34546D01*
X254546Y35165D01*
X253738Y35500D01*
D02*
G37*
G36*
X216238D02*
X215362D01*
X214554Y35165D01*
X213935Y34546D01*
X213600Y33738D01*
Y32862D01*
X213709Y32600D01*
X213375Y32100D01*
X212962D01*
X212154Y31765D01*
X211535Y31146D01*
X211200Y30338D01*
Y29462D01*
X211535Y28654D01*
X212154Y28035D01*
X212962Y27700D01*
X213838D01*
X214646Y28035D01*
X215265Y28654D01*
X215600Y29462D01*
Y30338D01*
X215491Y30600D01*
X215825Y31100D01*
X216238D01*
X217046Y31435D01*
X217665Y32054D01*
X218000Y32862D01*
Y33738D01*
X217665Y34546D01*
X217046Y35165D01*
X216238Y35500D01*
D02*
G37*
G36*
X257238Y31200D02*
X256362D01*
X255554Y30865D01*
X254935Y30246D01*
X254600Y29438D01*
Y28562D01*
X254935Y27754D01*
X255554Y27135D01*
X256362Y26800D01*
X257238D01*
X258046Y27135D01*
X258665Y27754D01*
X259000Y28562D01*
Y29438D01*
X258665Y30246D01*
X258046Y30865D01*
X257238Y31200D01*
D02*
G37*
G36*
X230348Y31089D02*
X229473D01*
X228664Y30754D01*
X228046Y30136D01*
X227711Y29327D01*
Y28452D01*
X228046Y27643D01*
X228664Y27024D01*
X229473Y26689D01*
X230348D01*
X231157Y27024D01*
X231776Y27643D01*
X232111Y28452D01*
Y29327D01*
X231776Y30136D01*
X231157Y30754D01*
X230348Y31089D01*
D02*
G37*
G36*
X236938Y30800D02*
X236062D01*
X235254Y30465D01*
X234635Y29846D01*
X234300Y29038D01*
Y28162D01*
X234635Y27354D01*
X235254Y26735D01*
X236062Y26400D01*
X236938D01*
X237746Y26735D01*
X238365Y27354D01*
X238700Y28162D01*
Y29038D01*
X238365Y29846D01*
X237746Y30465D01*
X236938Y30800D01*
D02*
G37*
G36*
X250638Y30500D02*
X249762D01*
X248954Y30165D01*
X248335Y29546D01*
X248000Y28738D01*
Y27862D01*
X248335Y27054D01*
X248954Y26435D01*
X249762Y26100D01*
X250638D01*
X251446Y26435D01*
X252065Y27054D01*
X252400Y27862D01*
Y28738D01*
X252065Y29546D01*
X251446Y30165D01*
X250638Y30500D01*
D02*
G37*
G36*
X243738D02*
X242862D01*
X242054Y30165D01*
X241435Y29546D01*
X241100Y28738D01*
Y27862D01*
X241435Y27054D01*
X242054Y26435D01*
X242862Y26100D01*
X243738D01*
X244546Y26435D01*
X245165Y27054D01*
X245500Y27862D01*
Y28738D01*
X245165Y29546D01*
X244546Y30165D01*
X243738Y30500D01*
D02*
G37*
G36*
X193345Y28775D02*
X192470D01*
X191662Y28440D01*
X191043Y27821D01*
X190708Y27012D01*
Y26137D01*
X191043Y25329D01*
X191662Y24710D01*
X192470Y24375D01*
X193345D01*
X194154Y24710D01*
X194773Y25329D01*
X195108Y26137D01*
Y27012D01*
X194773Y27821D01*
X194154Y28440D01*
X193345Y28775D01*
D02*
G37*
G36*
X181938Y28100D02*
X181062D01*
X180254Y27765D01*
X179635Y27146D01*
X179300Y26338D01*
Y25462D01*
X179635Y24654D01*
X180254Y24035D01*
X181062Y23700D01*
X181938D01*
X182746Y24035D01*
X183365Y24654D01*
X183700Y25462D01*
Y26338D01*
X183365Y27146D01*
X182746Y27765D01*
X181938Y28100D01*
D02*
G37*
G36*
X167506Y26900D02*
X166630D01*
X165822Y26565D01*
X165203Y25946D01*
X164868Y25138D01*
Y24262D01*
X165203Y23454D01*
X165822Y22835D01*
X166630Y22500D01*
X167506D01*
X168314Y22835D01*
X168933Y23454D01*
X169268Y24262D01*
Y25138D01*
X168933Y25946D01*
X168314Y26565D01*
X167506Y26900D01*
D02*
G37*
G36*
X264938Y19100D02*
X264062D01*
X263254Y18765D01*
X262635Y18146D01*
X262300Y17338D01*
Y16462D01*
X262635Y15654D01*
X263254Y15035D01*
X264062Y14700D01*
X264938D01*
X265746Y15035D01*
X266365Y15654D01*
X266700Y16462D01*
Y17338D01*
X266365Y18146D01*
X265746Y18765D01*
X264938Y19100D01*
D02*
G37*
G36*
X115088Y17762D02*
X114212D01*
X113404Y17427D01*
X112785Y16808D01*
X112450Y16000D01*
Y15125D01*
X112785Y14316D01*
X113404Y13697D01*
X114212Y13362D01*
X115088D01*
X115896Y13697D01*
X116515Y14316D01*
X116850Y15125D01*
Y16000D01*
X116515Y16808D01*
X115896Y17427D01*
X115088Y17762D01*
D02*
G37*
G36*
X273863Y17212D02*
X272988D01*
X272179Y16877D01*
X271560Y16258D01*
X271225Y15449D01*
Y14574D01*
X271560Y13766D01*
X272179Y13147D01*
X272988Y12812D01*
X273863D01*
X274671Y13147D01*
X275290Y13766D01*
X275625Y14574D01*
Y15449D01*
X275290Y16258D01*
X274671Y16877D01*
X273863Y17212D01*
D02*
G37*
%LPD*%
D15*
X71617Y68880D02*
Y77087D01*
X74918Y80388D01*
X81042D01*
D60*
X6713Y60945D02*
D03*
Y94803D02*
D03*
Y39803D02*
D03*
Y5945D02*
D03*
D61*
X22500Y60945D02*
D03*
X22500Y95000D02*
D03*
Y40000D02*
D03*
X22500Y5945D02*
D03*
D64*
X206800Y75800D02*
Y87861D01*
X206900Y87961D01*
D66*
X46524Y58983D02*
X56483D01*
X61143Y63643D01*
X45520Y57980D02*
X46524Y58983D01*
X45000Y5196D02*
X45139Y5335D01*
Y8639D02*
X51978Y15478D01*
X45139Y5335D02*
Y8639D01*
X51978Y15478D02*
X95528D01*
X104680Y24631D01*
X123069D01*
X124000Y23700D01*
X130821Y30521D02*
Y49721D01*
X124000Y23700D02*
X130821Y30521D01*
X128700Y85518D02*
X131043Y87861D01*
X128700Y51842D02*
X130821Y49721D01*
X128700Y51842D02*
Y85518D01*
X131043Y87861D02*
X206800D01*
X267961Y87961D02*
X275000Y95000D01*
X206900Y87961D02*
X267961D01*
X65400Y38100D02*
X65700Y37800D01*
X72600D01*
X79500Y44700D01*
X87800D01*
X92821Y49721D02*
X120821D01*
X87800Y44700D02*
X92821Y49721D01*
X63963Y63643D02*
X69200Y68880D01*
X71617D01*
X61143Y63643D02*
X63963D01*
X35000Y54530D02*
X60800Y80330D01*
Y81550D01*
X61400Y87100D02*
Y91204D01*
X65000Y94804D02*
Y95000D01*
X61337Y81337D02*
Y87037D01*
X61400Y87100D01*
Y91204D02*
X65000Y94804D01*
X35000Y51000D02*
Y54530D01*
X81300Y35600D02*
X82500Y34400D01*
Y25400D02*
Y34400D01*
X82400Y25300D02*
X82500Y25400D01*
X35000Y51000D02*
X60700Y25300D01*
X82400D01*
D68*
X45000Y5000D02*
D03*
X55000D02*
D03*
X65000D02*
D03*
X75000D02*
D03*
X85000D02*
D03*
X95000D02*
D03*
X105000D02*
D03*
X115000D02*
D03*
X125000D02*
D03*
X135000D02*
D03*
X145000D02*
D03*
X155000D02*
D03*
X165000D02*
D03*
X175000D02*
D03*
X185000D02*
D03*
X195000D02*
D03*
X205000D02*
D03*
X215000D02*
D03*
X225000D02*
D03*
X235000D02*
D03*
X245000D02*
D03*
X255000D02*
D03*
X265000D02*
D03*
X275000D02*
D03*
Y95000D02*
D03*
X265000D02*
D03*
X255000D02*
D03*
X245000D02*
D03*
X235000D02*
D03*
X225000D02*
D03*
X215000D02*
D03*
X205000D02*
D03*
X195000D02*
D03*
X185000D02*
D03*
X175000D02*
D03*
X165000D02*
D03*
X155000D02*
D03*
X145000D02*
D03*
X135000D02*
D03*
X125000D02*
D03*
X115000D02*
D03*
X105000D02*
D03*
X95000D02*
D03*
X85000D02*
D03*
X75000D02*
D03*
X65000D02*
D03*
X55000D02*
D03*
X45000D02*
D03*
D69*
X130821Y49721D02*
D03*
X120821D02*
D03*
X35000Y41000D02*
D03*
Y51000D02*
D03*
Y61000D02*
D03*
D70*
X20000Y20500D02*
D03*
X63300Y54200D02*
D03*
X71532Y50468D02*
D03*
X45520Y57980D02*
D03*
X124000Y23700D02*
D03*
X206800Y75800D02*
D03*
X65400Y38100D02*
D03*
X88100Y37000D02*
D03*
X92821Y49721D02*
D03*
X101100Y58800D02*
D03*
X79500Y44700D02*
D03*
X72600Y37800D02*
D03*
X47550Y73020D02*
D03*
X59200Y61700D02*
D03*
X81042Y80388D02*
D03*
X77700Y76500D02*
D03*
X71617Y68880D02*
D03*
X61400Y87100D02*
D03*
X60800Y81550D02*
D03*
X82400Y25300D02*
D03*
X82500Y29200D02*
D03*
X81300Y35600D02*
D03*
X88291Y83291D02*
D03*
X185500Y44600D02*
D03*
X185474Y47800D02*
D03*
X260800Y93100D02*
D03*
X222622Y77622D02*
D03*
X92700Y70600D02*
D03*
X232900Y71800D02*
D03*
X87000Y23700D02*
D03*
X51700Y8600D02*
D03*
X133400Y73000D02*
D03*
X216600Y22700D02*
D03*
X256496Y43504D02*
D03*
X243504D02*
D03*
Y50000D02*
D03*
Y56496D02*
D03*
X253200Y46900D02*
D03*
X246900Y46800D02*
D03*
X253300Y53100D02*
D03*
X246800Y53200D02*
D03*
X262032Y83761D02*
D03*
X277559Y77559D02*
D03*
X166700Y53300D02*
D03*
X54514Y63186D02*
D03*
X53400Y49500D02*
D03*
X113600Y20431D02*
D03*
X275363Y83463D02*
D03*
X106263Y17349D02*
D03*
X72500Y87400D02*
D03*
X45500Y84200D02*
D03*
X53180Y83966D02*
D03*
X49002Y84198D02*
D03*
X53246Y87366D02*
D03*
X65537Y83984D02*
D03*
X80000Y86274D02*
D03*
X57100Y52900D02*
D03*
X50200Y54700D02*
D03*
X60300Y71200D02*
D03*
X36700Y80300D02*
D03*
X39100Y67100D02*
D03*
X65400Y78600D02*
D03*
X37200Y20300D02*
D03*
X41320Y27663D02*
D03*
X44578Y16122D02*
D03*
X37100Y15800D02*
D03*
X33100Y6500D02*
D03*
X102800Y15362D02*
D03*
X101800Y29000D02*
D03*
X99200Y32516D02*
D03*
X95500Y32516D02*
D03*
X97000Y22607D02*
D03*
X112100Y42600D02*
D03*
X116900Y40800D02*
D03*
X35100Y75802D02*
D03*
X62223Y67843D02*
D03*
X30300Y87600D02*
D03*
X31444Y64556D02*
D03*
X74300Y54400D02*
D03*
X98800Y42600D02*
D03*
X222700Y22400D02*
D03*
X229500Y59700D02*
D03*
X226500Y63100D02*
D03*
X217000Y72779D02*
D03*
X277600Y22300D02*
D03*
X250100Y50000D02*
D03*
Y43300D02*
D03*
X256300Y49800D02*
D03*
X256700Y56300D02*
D03*
X250200Y56500D02*
D03*
X74000Y72600D02*
D03*
Y76500D02*
D03*
X77500Y72400D02*
D03*
X181500Y25900D02*
D03*
X177263Y43263D02*
D03*
X170800Y35400D02*
D03*
X188700Y34900D02*
D03*
X188370Y56970D02*
D03*
X264500Y16900D02*
D03*
X273425Y15012D02*
D03*
X167068Y24700D02*
D03*
X89165Y77375D02*
D03*
X87200Y74600D02*
D03*
X114650Y15562D02*
D03*
X192908Y26575D02*
D03*
X203400Y35400D02*
D03*
X217032Y66732D02*
D03*
X215700Y60000D02*
D03*
X216200Y53400D02*
D03*
X213400Y29900D02*
D03*
X213500Y43400D02*
D03*
X216039Y39961D02*
D03*
X215800Y33300D02*
D03*
X213100Y56900D02*
D03*
X212800Y63300D02*
D03*
X213021Y70079D02*
D03*
X263500Y28400D02*
D03*
X260100Y33600D02*
D03*
X256800Y29000D02*
D03*
X253300Y33300D02*
D03*
X250200Y28300D02*
D03*
X246500Y33700D02*
D03*
X243300Y28300D02*
D03*
X240000Y33800D02*
D03*
X236500Y28600D02*
D03*
X233200Y33500D02*
D03*
X229911Y28889D02*
D03*
X236700Y66400D02*
D03*
X239900Y70600D02*
D03*
X243300Y73500D02*
D03*
X246700Y65600D02*
D03*
X250000Y68700D02*
D03*
X253323Y72530D02*
D03*
X256693Y70600D02*
D03*
X260100Y72400D02*
D03*
M02*
