G04*
G04 #@! TF.GenerationSoftware,Altium Limited,Altium Designer,24.7.2 (38)*
G04*
G04 Layer_Color=32896*
%FSLAX25Y25*%
%MOIN*%
G70*
G04*
G04 #@! TF.SameCoordinates,5553529B-7FC1-40E9-B1A8-37912BF81215*
G04*
G04*
G04 #@! TF.FilePolarity,Positive*
G04*
G01*
G75*
%ADD10C,0.00591*%
%ADD15C,0.00600*%
%ADD74C,0.01000*%
D10*
X279961Y197D02*
Y10039D01*
X40118D02*
X279961D01*
X40118Y197D02*
Y10039D01*
Y197D02*
X279961D01*
X40118Y90197D02*
X279961D01*
X40118D02*
Y100039D01*
X279961D01*
Y90197D02*
Y100039D01*
D15*
X273001Y19034D02*
Y21700D01*
X277000D01*
Y19034D01*
X275001Y21700D02*
Y20367D01*
X277000Y17701D02*
X273001D01*
X277000Y15035D01*
X273001D01*
X143001Y26500D02*
Y25167D01*
Y25834D01*
X147000D01*
Y26500D01*
Y25167D01*
X143001Y21168D02*
Y22501D01*
X143668Y23168D01*
X146334D01*
X147000Y22501D01*
Y21168D01*
X146334Y20502D01*
X143668D01*
X143001Y21168D01*
X143668Y19169D02*
X143001Y18503D01*
Y17170D01*
X143668Y16503D01*
X144334D01*
X145001Y17170D01*
Y17836D01*
Y17170D01*
X145667Y16503D01*
X146334D01*
X147000Y17170D01*
Y18503D01*
X146334Y19169D01*
X147000Y13171D02*
X143001D01*
X145001Y15170D01*
Y12505D01*
X262701Y27200D02*
Y25867D01*
Y26534D01*
X266700D01*
Y27200D01*
Y25867D01*
X262701Y21868D02*
Y23201D01*
X263368Y23868D01*
X266034D01*
X266700Y23201D01*
Y21868D01*
X266034Y21202D01*
X263368D01*
X262701Y21868D01*
X266700Y17870D02*
X262701D01*
X264701Y19869D01*
Y17203D01*
X262701Y13205D02*
Y15870D01*
X264701D01*
X264034Y14537D01*
Y13871D01*
X264701Y13205D01*
X266034D01*
X266700Y13871D01*
Y15204D01*
X266034Y15870D01*
X253201Y27400D02*
Y26067D01*
Y26734D01*
X257200D01*
Y27400D01*
Y26067D01*
X253201Y22068D02*
Y23401D01*
X253868Y24068D01*
X256534D01*
X257200Y23401D01*
Y22068D01*
X256534Y21402D01*
X253868D01*
X253201Y22068D01*
X257200Y18070D02*
X253201D01*
X255201Y20069D01*
Y17403D01*
X253201Y13405D02*
X253868Y14737D01*
X255201Y16070D01*
X256534D01*
X257200Y15404D01*
Y14071D01*
X256534Y13405D01*
X255867D01*
X255201Y14071D01*
Y16070D01*
X247100Y23900D02*
X243101D01*
Y21901D01*
X243768Y21234D01*
X245101D01*
X245767Y21901D01*
Y23900D01*
Y22567D02*
X247100Y21234D01*
X243101Y19901D02*
X247100Y17235D01*
X243101D02*
X247100Y19901D01*
X243101Y15903D02*
X247100D01*
Y13903D01*
X246434Y13237D01*
X243768D01*
X243101Y13903D01*
Y15903D01*
X232701Y24300D02*
Y21634D01*
Y22967D01*
X236700D01*
X232701Y20301D02*
X236700Y17636D01*
X232701D02*
X236700Y20301D01*
X232701Y16303D02*
X236700D01*
Y14303D01*
X236034Y13637D01*
X233368D01*
X232701Y14303D01*
Y16303D01*
X222701Y27000D02*
Y25667D01*
Y26334D01*
X226700D01*
Y27000D01*
Y25667D01*
X222701Y21668D02*
Y23001D01*
X223368Y23668D01*
X226034D01*
X226700Y23001D01*
Y21668D01*
X226034Y21002D01*
X223368D01*
X222701Y21668D01*
X226700Y17670D02*
X222701D01*
X224701Y19669D01*
Y17003D01*
X226700Y13004D02*
Y15670D01*
X224034Y13004D01*
X223368D01*
X222701Y13671D01*
Y15004D01*
X223368Y15670D01*
X213001Y26800D02*
Y25467D01*
Y26134D01*
X217000D01*
Y26800D01*
Y25467D01*
X213001Y21468D02*
Y22801D01*
X213668Y23468D01*
X216334D01*
X217000Y22801D01*
Y21468D01*
X216334Y20802D01*
X213668D01*
X213001Y21468D01*
X217000Y17470D02*
X213001D01*
X215001Y19469D01*
Y16803D01*
X217000Y15470D02*
Y14137D01*
Y14804D01*
X213001D01*
X213668Y15470D01*
X152601Y26500D02*
Y25167D01*
Y25834D01*
X156600D01*
Y26500D01*
Y25167D01*
X152601Y21168D02*
Y22501D01*
X153268Y23168D01*
X155933D01*
X156600Y22501D01*
Y21168D01*
X155933Y20502D01*
X153268D01*
X152601Y21168D01*
X153268Y19169D02*
X152601Y18503D01*
Y17170D01*
X153268Y16503D01*
X153934D01*
X154601Y17170D01*
Y17836D01*
Y17170D01*
X155267Y16503D01*
X155933D01*
X156600Y17170D01*
Y18503D01*
X155933Y19169D01*
X152601Y12505D02*
Y15170D01*
X154601D01*
X153934Y13837D01*
Y13171D01*
X154601Y12505D01*
X155933D01*
X156600Y13171D01*
Y14504D01*
X155933Y15170D01*
X162601Y26300D02*
Y24967D01*
Y25634D01*
X166600D01*
Y26300D01*
Y24967D01*
X162601Y20968D02*
Y22301D01*
X163268Y22968D01*
X165934D01*
X166600Y22301D01*
Y20968D01*
X165934Y20302D01*
X163268D01*
X162601Y20968D01*
X163268Y18969D02*
X162601Y18303D01*
Y16970D01*
X163268Y16303D01*
X163934D01*
X164601Y16970D01*
Y17636D01*
Y16970D01*
X165267Y16303D01*
X165934D01*
X166600Y16970D01*
Y18303D01*
X165934Y18969D01*
X162601Y12304D02*
X163268Y13637D01*
X164601Y14970D01*
X165934D01*
X166600Y14304D01*
Y12971D01*
X165934Y12304D01*
X165267D01*
X164601Y12971D01*
Y14970D01*
X172801Y26400D02*
Y25067D01*
Y25734D01*
X176800D01*
Y26400D01*
Y25067D01*
X172801Y21068D02*
Y22401D01*
X173468Y23068D01*
X176134D01*
X176800Y22401D01*
Y21068D01*
X176134Y20402D01*
X173468D01*
X172801Y21068D01*
X173468Y19069D02*
X172801Y18403D01*
Y17070D01*
X173468Y16403D01*
X174134D01*
X174801Y17070D01*
Y17736D01*
Y17070D01*
X175467Y16403D01*
X176134D01*
X176800Y17070D01*
Y18403D01*
X176134Y19069D01*
X172801Y15070D02*
Y12404D01*
X173468D01*
X176134Y15070D01*
X176800D01*
X182801Y26300D02*
Y24967D01*
Y25634D01*
X186800D01*
Y26300D01*
Y24967D01*
X182801Y20968D02*
Y22301D01*
X183468Y22968D01*
X186134D01*
X186800Y22301D01*
Y20968D01*
X186134Y20302D01*
X183468D01*
X182801Y20968D01*
X183468Y18969D02*
X182801Y18303D01*
Y16970D01*
X183468Y16303D01*
X184134D01*
X184801Y16970D01*
Y17636D01*
Y16970D01*
X185467Y16303D01*
X186134D01*
X186800Y16970D01*
Y18303D01*
X186134Y18969D01*
X183468Y14970D02*
X182801Y14304D01*
Y12971D01*
X183468Y12304D01*
X184134D01*
X184801Y12971D01*
X185467Y12304D01*
X186134D01*
X186800Y12971D01*
Y14304D01*
X186134Y14970D01*
X185467D01*
X184801Y14304D01*
X184134Y14970D01*
X183468D01*
X184801Y14304D02*
Y12971D01*
X192801Y26700D02*
Y25367D01*
Y26034D01*
X196800D01*
Y26700D01*
Y25367D01*
X192801Y21368D02*
Y22701D01*
X193468Y23368D01*
X196133D01*
X196800Y22701D01*
Y21368D01*
X196133Y20702D01*
X193468D01*
X192801Y21368D01*
X193468Y19369D02*
X192801Y18703D01*
Y17370D01*
X193468Y16703D01*
X194134D01*
X194801Y17370D01*
Y18036D01*
Y17370D01*
X195467Y16703D01*
X196133D01*
X196800Y17370D01*
Y18703D01*
X196133Y19369D01*
Y15370D02*
X196800Y14704D01*
Y13371D01*
X196133Y12705D01*
X193468D01*
X192801Y13371D01*
Y14704D01*
X193468Y15370D01*
X194134D01*
X194801Y14704D01*
Y12705D01*
X202901Y26900D02*
Y25567D01*
Y26234D01*
X206900D01*
Y26900D01*
Y25567D01*
X202901Y21568D02*
Y22901D01*
X203568Y23568D01*
X206234D01*
X206900Y22901D01*
Y21568D01*
X206234Y20902D01*
X203568D01*
X202901Y21568D01*
X206900Y17570D02*
X202901D01*
X204901Y19569D01*
Y16903D01*
X203568Y15570D02*
X202901Y14904D01*
Y13571D01*
X203568Y12904D01*
X206234D01*
X206900Y13571D01*
Y14904D01*
X206234Y15570D01*
X203568D01*
X73401Y26800D02*
Y25467D01*
Y26134D01*
X77400D01*
Y26800D01*
Y25467D01*
X73401Y21468D02*
Y22801D01*
X74068Y23468D01*
X76734D01*
X77400Y22801D01*
Y21468D01*
X76734Y20802D01*
X74068D01*
X73401Y21468D01*
X77400Y17470D02*
X73401D01*
X75401Y19469D01*
Y16803D01*
X74068Y15470D02*
X73401Y14804D01*
Y13471D01*
X74068Y12804D01*
X74734D01*
X75401Y13471D01*
X76067Y12804D01*
X76734D01*
X77400Y13471D01*
Y14804D01*
X76734Y15470D01*
X76067D01*
X75401Y14804D01*
X74734Y15470D01*
X74068D01*
X75401Y14804D02*
Y13471D01*
X83101Y27100D02*
Y25767D01*
Y26434D01*
X87100D01*
Y27100D01*
Y25767D01*
X83101Y21768D02*
Y23101D01*
X83768Y23768D01*
X86434D01*
X87100Y23101D01*
Y21768D01*
X86434Y21102D01*
X83768D01*
X83101Y21768D01*
X87100Y17770D02*
X83101D01*
X85101Y19769D01*
Y17103D01*
X83101Y15770D02*
Y13104D01*
X83768D01*
X86434Y15770D01*
X87100D01*
X92901Y26500D02*
X96234D01*
X96900Y25834D01*
Y24501D01*
X96234Y23834D01*
X92901D01*
X93568Y19836D02*
X92901Y20502D01*
Y21835D01*
X93568Y22501D01*
X94234D01*
X94901Y21835D01*
Y20502D01*
X95567Y19836D01*
X96234D01*
X96900Y20502D01*
Y21835D01*
X96234Y22501D01*
X92901Y18503D02*
X96900D01*
Y16503D01*
X96234Y15837D01*
X95567D01*
X94901Y16503D01*
Y18503D01*
Y16503D01*
X94234Y15837D01*
X93568D01*
X92901Y16503D01*
Y18503D01*
X94901Y14504D02*
Y11838D01*
X103001Y26300D02*
X106333D01*
X107000Y25634D01*
Y24301D01*
X106333Y23634D01*
X103001D01*
X103668Y19636D02*
X103001Y20302D01*
Y21635D01*
X103668Y22301D01*
X104334D01*
X105001Y21635D01*
Y20302D01*
X105667Y19636D01*
X106333D01*
X107000Y20302D01*
Y21635D01*
X106333Y22301D01*
X103001Y18303D02*
X107000D01*
Y16303D01*
X106333Y15637D01*
X105667D01*
X105001Y16303D01*
Y18303D01*
Y16303D01*
X104334Y15637D01*
X103668D01*
X103001Y16303D01*
Y18303D01*
X105001Y14304D02*
Y11638D01*
X103668Y12971D02*
X106333D01*
X112801Y26500D02*
Y25167D01*
Y25834D01*
X116800D01*
Y26500D01*
Y25167D01*
X112801Y21168D02*
Y22501D01*
X113468Y23168D01*
X116133D01*
X116800Y22501D01*
Y21168D01*
X116133Y20502D01*
X113468D01*
X112801Y21168D01*
X116800Y16503D02*
Y19169D01*
X114134Y16503D01*
X113468D01*
X112801Y17170D01*
Y18503D01*
X113468Y19169D01*
X116800Y15170D02*
Y13837D01*
Y14504D01*
X112801D01*
X113468Y15170D01*
X122601Y26500D02*
Y25167D01*
Y25834D01*
X126600D01*
Y26500D01*
Y25167D01*
X122601Y21168D02*
Y22501D01*
X123268Y23168D01*
X125934D01*
X126600Y22501D01*
Y21168D01*
X125934Y20502D01*
X123268D01*
X122601Y21168D01*
X126600Y16503D02*
Y19169D01*
X123934Y16503D01*
X123268D01*
X122601Y17170D01*
Y18503D01*
X123268Y19169D01*
X122601Y12505D02*
X123268Y13837D01*
X124601Y15170D01*
X125934D01*
X126600Y14504D01*
Y13171D01*
X125934Y12505D01*
X125267D01*
X124601Y13171D01*
Y15170D01*
X132801Y26600D02*
Y25267D01*
Y25934D01*
X136800D01*
Y26600D01*
Y25267D01*
X132801Y21268D02*
Y22601D01*
X133468Y23268D01*
X136134D01*
X136800Y22601D01*
Y21268D01*
X136134Y20602D01*
X133468D01*
X132801Y21268D01*
X133468Y19269D02*
X132801Y18603D01*
Y17270D01*
X133468Y16603D01*
X134134D01*
X134801Y17270D01*
Y17936D01*
Y17270D01*
X135467Y16603D01*
X136134D01*
X136800Y17270D01*
Y18603D01*
X136134Y19269D01*
X133468Y15270D02*
X132801Y14604D01*
Y13271D01*
X133468Y12605D01*
X134134D01*
X134801Y13271D01*
Y13937D01*
Y13271D01*
X135467Y12605D01*
X136134D01*
X136800Y13271D01*
Y14604D01*
X136134Y15270D01*
X63468Y20734D02*
X62801Y21401D01*
Y22734D01*
X63468Y23400D01*
X66134D01*
X66800Y22734D01*
Y21401D01*
X66134Y20734D01*
X64801D01*
Y22067D01*
X66800Y19401D02*
X62801D01*
X66800Y16736D01*
X62801D01*
Y15403D02*
X66800D01*
Y13403D01*
X66134Y12737D01*
X63468D01*
X62801Y13403D01*
Y15403D01*
X45101Y27900D02*
Y25234D01*
X43768Y26567D02*
X46434D01*
X43768Y23901D02*
X43101Y23235D01*
Y21902D01*
X43768Y21236D01*
X44434D01*
X45101Y21902D01*
Y22568D01*
Y21902D01*
X45767Y21236D01*
X46434D01*
X47100Y21902D01*
Y23235D01*
X46434Y23901D01*
X43101Y19903D02*
X45767D01*
X47100Y18570D01*
X45767Y17237D01*
X43101D01*
X43768Y15904D02*
X43101Y15237D01*
Y13905D01*
X43768Y13238D01*
X44434D01*
X45101Y13905D01*
Y14571D01*
Y13905D01*
X45767Y13238D01*
X46434D01*
X47100Y13905D01*
Y15237D01*
X46434Y15904D01*
X53868Y20634D02*
X53201Y21301D01*
Y22634D01*
X53868Y23300D01*
X56534D01*
X57200Y22634D01*
Y21301D01*
X56534Y20634D01*
X55201D01*
Y21967D01*
X57200Y19301D02*
X53201D01*
X57200Y16635D01*
X53201D01*
Y15303D02*
X57200D01*
Y13303D01*
X56534Y12637D01*
X53868D01*
X53201Y13303D01*
Y15303D01*
X47200Y87500D02*
X43201D01*
X47200Y84834D01*
X43201D01*
X43868Y80835D02*
X43201Y81502D01*
Y82835D01*
X43868Y83501D01*
X46534D01*
X47200Y82835D01*
Y81502D01*
X46534Y80835D01*
X56201Y88200D02*
Y85534D01*
X54868Y86867D02*
X57534D01*
X54201Y81536D02*
Y84201D01*
X56201D01*
X55534Y82868D01*
Y82202D01*
X56201Y81536D01*
X57534D01*
X58200Y82202D01*
Y83535D01*
X57534Y84201D01*
X54201Y80203D02*
X56867D01*
X58200Y78870D01*
X56867Y77537D01*
X54201D01*
X64868Y85034D02*
X64201Y85701D01*
Y87034D01*
X64868Y87700D01*
X67534D01*
X68200Y87034D01*
Y85701D01*
X67534Y85034D01*
X66201D01*
Y86367D01*
X68200Y83701D02*
X64201D01*
X68200Y81036D01*
X64201D01*
Y79703D02*
X68200D01*
Y77703D01*
X67534Y77037D01*
X64868D01*
X64201Y77703D01*
Y79703D01*
X136201Y88100D02*
Y86767D01*
Y87434D01*
X140200D01*
Y88100D01*
Y86767D01*
X136201Y82768D02*
Y84101D01*
X136868Y84768D01*
X139533D01*
X140200Y84101D01*
Y82768D01*
X139533Y82102D01*
X136868D01*
X136201Y82768D01*
X140200Y80769D02*
Y79436D01*
Y80103D01*
X136201D01*
X136868Y80769D01*
X140200Y74771D02*
Y77437D01*
X137534Y74771D01*
X136868D01*
X136201Y75437D01*
Y76770D01*
X136868Y77437D01*
X125901Y88100D02*
Y86767D01*
Y87434D01*
X129900D01*
Y88100D01*
Y86767D01*
X125901Y82768D02*
Y84101D01*
X126568Y84768D01*
X129234D01*
X129900Y84101D01*
Y82768D01*
X129234Y82102D01*
X126568D01*
X125901Y82768D01*
X129900Y80769D02*
Y79436D01*
Y80103D01*
X125901D01*
X126568Y80769D01*
Y77437D02*
X125901Y76770D01*
Y75437D01*
X126568Y74771D01*
X127234D01*
X127901Y75437D01*
Y76104D01*
Y75437D01*
X128567Y74771D01*
X129234D01*
X129900Y75437D01*
Y76770D01*
X129234Y77437D01*
X115601Y87900D02*
Y86567D01*
Y87234D01*
X119600D01*
Y87900D01*
Y86567D01*
X115601Y82568D02*
Y83901D01*
X116268Y84568D01*
X118933D01*
X119600Y83901D01*
Y82568D01*
X118933Y81902D01*
X116268D01*
X115601Y82568D01*
X119600Y80569D02*
Y79236D01*
Y79903D01*
X115601D01*
X116268Y80569D01*
X119600Y75237D02*
X115601D01*
X117601Y77237D01*
Y74571D01*
X104401Y87900D02*
Y86567D01*
Y87234D01*
X108400D01*
Y87900D01*
Y86567D01*
X104401Y82568D02*
Y83901D01*
X105068Y84568D01*
X107734D01*
X108400Y83901D01*
Y82568D01*
X107734Y81902D01*
X105068D01*
X104401Y82568D01*
X108400Y80569D02*
Y79236D01*
Y79903D01*
X104401D01*
X105068Y80569D01*
X104401Y74571D02*
Y77237D01*
X106401D01*
X105734Y75904D01*
Y75237D01*
X106401Y74571D01*
X107734D01*
X108400Y75237D01*
Y76570D01*
X107734Y77237D01*
X96201Y88000D02*
Y86667D01*
Y87334D01*
X100200D01*
Y88000D01*
Y86667D01*
X96201Y82668D02*
Y84001D01*
X96868Y84668D01*
X99534D01*
X100200Y84001D01*
Y82668D01*
X99534Y82002D01*
X96868D01*
X96201Y82668D01*
X100200Y80669D02*
Y79336D01*
Y80003D01*
X96201D01*
X96868Y80669D01*
X96201Y74671D02*
X96868Y76004D01*
X98201Y77337D01*
X99534D01*
X100200Y76670D01*
Y75337D01*
X99534Y74671D01*
X98867D01*
X98201Y75337D01*
Y77337D01*
X86601Y88100D02*
Y86767D01*
Y87434D01*
X90600D01*
Y88100D01*
Y86767D01*
X86601Y82768D02*
Y84101D01*
X87268Y84768D01*
X89934D01*
X90600Y84101D01*
Y82768D01*
X89934Y82102D01*
X87268D01*
X86601Y82768D01*
X90600Y80769D02*
Y79436D01*
Y80103D01*
X86601D01*
X87268Y80769D01*
X86601Y77437D02*
Y74771D01*
X87268D01*
X89934Y77437D01*
X90600D01*
X74701Y88200D02*
Y86867D01*
Y87534D01*
X78700D01*
Y88200D01*
Y86867D01*
X74701Y82868D02*
Y84201D01*
X75368Y84868D01*
X78034D01*
X78700Y84201D01*
Y82868D01*
X78034Y82202D01*
X75368D01*
X74701Y82868D01*
X78700Y80869D02*
Y79536D01*
Y80203D01*
X74701D01*
X75368Y80869D01*
Y77537D02*
X74701Y76870D01*
Y75537D01*
X75368Y74871D01*
X76034D01*
X76701Y75537D01*
X77367Y74871D01*
X78034D01*
X78700Y75537D01*
Y76870D01*
X78034Y77537D01*
X77367D01*
X76701Y76870D01*
X76034Y77537D01*
X75368D01*
X76701Y76870D02*
Y75537D01*
X205501Y88300D02*
Y86967D01*
Y87634D01*
X209500D01*
Y88300D01*
Y86967D01*
X205501Y82968D02*
Y84301D01*
X206168Y84968D01*
X208834D01*
X209500Y84301D01*
Y82968D01*
X208834Y82302D01*
X206168D01*
X205501Y82968D01*
Y78303D02*
Y80969D01*
X207501D01*
X206834Y79636D01*
Y78970D01*
X207501Y78303D01*
X208834D01*
X209500Y78970D01*
Y80303D01*
X208834Y80969D01*
X196101Y88200D02*
Y86867D01*
Y87534D01*
X200100D01*
Y88200D01*
Y86867D01*
X196101Y82868D02*
Y84201D01*
X196768Y84868D01*
X199434D01*
X200100Y84201D01*
Y82868D01*
X199434Y82202D01*
X196768D01*
X196101Y82868D01*
Y78203D02*
X196768Y79536D01*
X198101Y80869D01*
X199434D01*
X200100Y80203D01*
Y78870D01*
X199434Y78203D01*
X198767D01*
X198101Y78870D01*
Y80869D01*
X185401Y88100D02*
Y86767D01*
Y87434D01*
X189400D01*
Y88100D01*
Y86767D01*
X185401Y82768D02*
Y84101D01*
X186068Y84768D01*
X188733D01*
X189400Y84101D01*
Y82768D01*
X188733Y82102D01*
X186068D01*
X185401Y82768D01*
Y80769D02*
Y78103D01*
X186068D01*
X188733Y80769D01*
X189400D01*
X175301Y88100D02*
Y86767D01*
Y87434D01*
X179300D01*
Y88100D01*
Y86767D01*
X175301Y82768D02*
Y84101D01*
X175968Y84768D01*
X178633D01*
X179300Y84101D01*
Y82768D01*
X178633Y82102D01*
X175968D01*
X175301Y82768D01*
X175968Y80769D02*
X175301Y80103D01*
Y78770D01*
X175968Y78103D01*
X176634D01*
X177301Y78770D01*
X177967Y78103D01*
X178633D01*
X179300Y78770D01*
Y80103D01*
X178633Y80769D01*
X177967D01*
X177301Y80103D01*
X176634Y80769D01*
X175968D01*
X177301Y80103D02*
Y78770D01*
X165501Y87900D02*
Y86567D01*
Y87234D01*
X169500D01*
Y87900D01*
Y86567D01*
X165501Y82568D02*
Y83901D01*
X166168Y84568D01*
X168833D01*
X169500Y83901D01*
Y82568D01*
X168833Y81902D01*
X166168D01*
X165501Y82568D01*
X168833Y80569D02*
X169500Y79903D01*
Y78570D01*
X168833Y77903D01*
X166168D01*
X165501Y78570D01*
Y79903D01*
X166168Y80569D01*
X166834D01*
X167501Y79903D01*
Y77903D01*
X155001Y88100D02*
Y86767D01*
Y87434D01*
X159000D01*
Y88100D01*
Y86767D01*
X155001Y82768D02*
Y84101D01*
X155668Y84768D01*
X158334D01*
X159000Y84101D01*
Y82768D01*
X158334Y82102D01*
X155668D01*
X155001Y82768D01*
X159000Y80769D02*
Y79436D01*
Y80103D01*
X155001D01*
X155668Y80769D01*
Y77437D02*
X155001Y76770D01*
Y75437D01*
X155668Y74771D01*
X158334D01*
X159000Y75437D01*
Y76770D01*
X158334Y77437D01*
X155668D01*
X144601Y87900D02*
Y86567D01*
Y87234D01*
X148600D01*
Y87900D01*
Y86567D01*
X144601Y82568D02*
Y83901D01*
X145268Y84568D01*
X147933D01*
X148600Y83901D01*
Y82568D01*
X147933Y81902D01*
X145268D01*
X144601Y82568D01*
X148600Y80569D02*
Y79236D01*
Y79903D01*
X144601D01*
X145268Y80569D01*
X148600Y77237D02*
Y75904D01*
Y76570D01*
X144601D01*
X145268Y77237D01*
X215701Y88200D02*
Y86867D01*
Y87534D01*
X219700D01*
Y88200D01*
Y86867D01*
X215701Y82868D02*
Y84201D01*
X216368Y84868D01*
X219034D01*
X219700Y84201D01*
Y82868D01*
X219034Y82202D01*
X216368D01*
X215701Y82868D01*
X219700Y78870D02*
X215701D01*
X217701Y80869D01*
Y78203D01*
X224701Y88300D02*
Y86967D01*
Y87634D01*
X228700D01*
Y88300D01*
Y86967D01*
X224701Y82968D02*
Y84301D01*
X225368Y84968D01*
X228034D01*
X228700Y84301D01*
Y82968D01*
X228034Y82302D01*
X225368D01*
X224701Y82968D01*
X225368Y80969D02*
X224701Y80303D01*
Y78970D01*
X225368Y78303D01*
X226034D01*
X226701Y78970D01*
Y79636D01*
Y78970D01*
X227367Y78303D01*
X228034D01*
X228700Y78970D01*
Y80303D01*
X228034Y80969D01*
X235301Y88300D02*
Y86967D01*
Y87634D01*
X239300D01*
Y88300D01*
Y86967D01*
X235301Y82968D02*
Y84301D01*
X235968Y84968D01*
X238634D01*
X239300Y84301D01*
Y82968D01*
X238634Y82302D01*
X235968D01*
X235301Y82968D01*
X239300Y78303D02*
Y80969D01*
X236634Y78303D01*
X235968D01*
X235301Y78970D01*
Y80303D01*
X235968Y80969D01*
X244901Y88400D02*
Y87067D01*
Y87734D01*
X248900D01*
Y88400D01*
Y87067D01*
X244901Y83068D02*
Y84401D01*
X245568Y85068D01*
X248234D01*
X248900Y84401D01*
Y83068D01*
X248234Y82402D01*
X245568D01*
X244901Y83068D01*
X248900Y81069D02*
Y79736D01*
Y80403D01*
X244901D01*
X245568Y81069D01*
X255101Y88300D02*
Y86967D01*
Y87634D01*
X259100D01*
Y88300D01*
Y86967D01*
X255101Y82968D02*
Y84301D01*
X255768Y84968D01*
X258434D01*
X259100Y84301D01*
Y82968D01*
X258434Y82302D01*
X255768D01*
X255101Y82968D01*
X255768Y80969D02*
X255101Y80303D01*
Y78970D01*
X255768Y78303D01*
X258434D01*
X259100Y78970D01*
Y80303D01*
X258434Y80969D01*
X255768D01*
X264968Y85534D02*
X264301Y86201D01*
Y87534D01*
X264968Y88200D01*
X267634D01*
X268300Y87534D01*
Y86201D01*
X267634Y85534D01*
X266301D01*
Y86867D01*
X268300Y84201D02*
X264301D01*
X268300Y81536D01*
X264301D01*
Y80203D02*
X268300D01*
Y78203D01*
X267634Y77537D01*
X264968D01*
X264301Y78203D01*
Y80203D01*
X275701Y88600D02*
Y85934D01*
X274368Y87267D02*
X277034D01*
X274368Y84601D02*
X273701Y83935D01*
Y82602D01*
X274368Y81936D01*
X275034D01*
X275701Y82602D01*
Y83268D01*
Y82602D01*
X276367Y81936D01*
X277034D01*
X277700Y82602D01*
Y83935D01*
X277034Y84601D01*
X273701Y80603D02*
X276367D01*
X277700Y79270D01*
X276367Y77937D01*
X273701D01*
X274368Y76604D02*
X273701Y75937D01*
Y74604D01*
X274368Y73938D01*
X275034D01*
X275701Y74604D01*
Y75271D01*
Y74604D01*
X276367Y73938D01*
X277034D01*
X277700Y74604D01*
Y75937D01*
X277034Y76604D01*
D74*
X32300Y16299D02*
X30301D01*
X31301D01*
Y11301D01*
X30301Y10301D01*
X29301D01*
X28302Y11301D01*
X34300Y15299D02*
X35299Y16299D01*
X37299D01*
X38298Y15299D01*
Y14300D01*
X37299Y13300D01*
X36299D01*
X37299D01*
X38298Y12300D01*
Y11301D01*
X37299Y10301D01*
X35299D01*
X34300Y11301D01*
X30600Y97099D02*
X28601D01*
X29601D01*
Y92101D01*
X28601Y91101D01*
X27601D01*
X26602Y92101D01*
X35599Y91101D02*
Y97099D01*
X32600Y94100D01*
X36598D01*
M02*
